%TF.GenerationSoftware,KiCad,Pcbnew,(6.0.2)*%
%TF.CreationDate,2022-09-08T00:06:53-05:00*%
%TF.ProjectId,IF-GBP-02,49462d47-4250-42d3-9032-2e6b69636164,rev?*%
%TF.SameCoordinates,Original*%
%TF.FileFunction,Legend,Bot*%
%TF.FilePolarity,Positive*%
%FSLAX46Y46*%
G04 Gerber Fmt 4.6, Leading zero omitted, Abs format (unit mm)*
G04 Created by KiCad (PCBNEW (6.0.2)) date 2022-09-08 00:06:53*
%MOMM*%
%LPD*%
G01*
G04 APERTURE LIST*
%ADD10C,0.150000*%
%ADD11C,0.100000*%
G04 APERTURE END LIST*
D10*
X163789000Y-120514000D02*
X164793000Y-120514000D01*
X164797000Y-124157000D02*
X165105000Y-124157000D01*
X163431000Y-119493000D02*
X163777000Y-119493000D01*
X163777000Y-121511000D02*
X163431000Y-121511000D01*
X164792000Y-122347000D02*
X165100000Y-122347000D01*
X163777000Y-119493000D02*
X163777000Y-121511000D01*
X164793000Y-120514000D02*
X164797000Y-124157000D01*
%TO.C,NR3*%
X168147619Y-70872904D02*
X169147619Y-70872904D01*
X168147619Y-70301476D01*
X169147619Y-70301476D01*
X168147619Y-69253857D02*
X168623809Y-69587190D01*
X168147619Y-69825285D02*
X169147619Y-69825285D01*
X169147619Y-69444333D01*
X169100000Y-69349095D01*
X169052380Y-69301476D01*
X168957142Y-69253857D01*
X168814285Y-69253857D01*
X168719047Y-69301476D01*
X168671428Y-69349095D01*
X168623809Y-69444333D01*
X168623809Y-69825285D01*
X169147619Y-68920523D02*
X169147619Y-68301476D01*
X168766666Y-68634809D01*
X168766666Y-68491952D01*
X168719047Y-68396714D01*
X168671428Y-68349095D01*
X168576190Y-68301476D01*
X168338095Y-68301476D01*
X168242857Y-68349095D01*
X168195238Y-68396714D01*
X168147619Y-68491952D01*
X168147619Y-68777666D01*
X168195238Y-68872904D01*
X168242857Y-68920523D01*
%TO.C,R8*%
X161594666Y-112753380D02*
X161928000Y-112277190D01*
X162166095Y-112753380D02*
X162166095Y-111753380D01*
X161785142Y-111753380D01*
X161689904Y-111801000D01*
X161642285Y-111848619D01*
X161594666Y-111943857D01*
X161594666Y-112086714D01*
X161642285Y-112181952D01*
X161689904Y-112229571D01*
X161785142Y-112277190D01*
X162166095Y-112277190D01*
X161023238Y-112181952D02*
X161118476Y-112134333D01*
X161166095Y-112086714D01*
X161213714Y-111991476D01*
X161213714Y-111943857D01*
X161166095Y-111848619D01*
X161118476Y-111801000D01*
X161023238Y-111753380D01*
X160832761Y-111753380D01*
X160737523Y-111801000D01*
X160689904Y-111848619D01*
X160642285Y-111943857D01*
X160642285Y-111991476D01*
X160689904Y-112086714D01*
X160737523Y-112134333D01*
X160832761Y-112181952D01*
X161023238Y-112181952D01*
X161118476Y-112229571D01*
X161166095Y-112277190D01*
X161213714Y-112372428D01*
X161213714Y-112562904D01*
X161166095Y-112658142D01*
X161118476Y-112705761D01*
X161023238Y-112753380D01*
X160832761Y-112753380D01*
X160737523Y-112705761D01*
X160689904Y-112658142D01*
X160642285Y-112562904D01*
X160642285Y-112372428D01*
X160689904Y-112277190D01*
X160737523Y-112229571D01*
X160832761Y-112181952D01*
%TO.C,X1*%
X142054523Y-80834380D02*
X141387857Y-81834380D01*
X141387857Y-80834380D02*
X142054523Y-81834380D01*
X140483095Y-81834380D02*
X141054523Y-81834380D01*
X140768809Y-81834380D02*
X140768809Y-80834380D01*
X140864047Y-80977238D01*
X140959285Y-81072476D01*
X141054523Y-81120095D01*
%TO.C,R14*%
X162346857Y-97498380D02*
X162680190Y-97022190D01*
X162918285Y-97498380D02*
X162918285Y-96498380D01*
X162537333Y-96498380D01*
X162442095Y-96546000D01*
X162394476Y-96593619D01*
X162346857Y-96688857D01*
X162346857Y-96831714D01*
X162394476Y-96926952D01*
X162442095Y-96974571D01*
X162537333Y-97022190D01*
X162918285Y-97022190D01*
X161394476Y-97498380D02*
X161965904Y-97498380D01*
X161680190Y-97498380D02*
X161680190Y-96498380D01*
X161775428Y-96641238D01*
X161870666Y-96736476D01*
X161965904Y-96784095D01*
X160537333Y-96831714D02*
X160537333Y-97498380D01*
X160775428Y-96450761D02*
X161013523Y-97165047D01*
X160394476Y-97165047D01*
%TO.C,C16*%
X135674857Y-74101142D02*
X135722476Y-74148761D01*
X135865333Y-74196380D01*
X135960571Y-74196380D01*
X136103428Y-74148761D01*
X136198666Y-74053523D01*
X136246285Y-73958285D01*
X136293904Y-73767809D01*
X136293904Y-73624952D01*
X136246285Y-73434476D01*
X136198666Y-73339238D01*
X136103428Y-73244000D01*
X135960571Y-73196380D01*
X135865333Y-73196380D01*
X135722476Y-73244000D01*
X135674857Y-73291619D01*
X134722476Y-74196380D02*
X135293904Y-74196380D01*
X135008190Y-74196380D02*
X135008190Y-73196380D01*
X135103428Y-73339238D01*
X135198666Y-73434476D01*
X135293904Y-73482095D01*
X133865333Y-73196380D02*
X134055809Y-73196380D01*
X134151047Y-73244000D01*
X134198666Y-73291619D01*
X134293904Y-73434476D01*
X134341523Y-73624952D01*
X134341523Y-74005904D01*
X134293904Y-74101142D01*
X134246285Y-74148761D01*
X134151047Y-74196380D01*
X133960571Y-74196380D01*
X133865333Y-74148761D01*
X133817714Y-74101142D01*
X133770095Y-74005904D01*
X133770095Y-73767809D01*
X133817714Y-73672571D01*
X133865333Y-73624952D01*
X133960571Y-73577333D01*
X134151047Y-73577333D01*
X134246285Y-73624952D01*
X134293904Y-73672571D01*
X134341523Y-73767809D01*
%TO.C,R17*%
X157234380Y-91999142D02*
X156758190Y-91665809D01*
X157234380Y-91427714D02*
X156234380Y-91427714D01*
X156234380Y-91808666D01*
X156282000Y-91903904D01*
X156329619Y-91951523D01*
X156424857Y-91999142D01*
X156567714Y-91999142D01*
X156662952Y-91951523D01*
X156710571Y-91903904D01*
X156758190Y-91808666D01*
X156758190Y-91427714D01*
X157234380Y-92951523D02*
X157234380Y-92380095D01*
X157234380Y-92665809D02*
X156234380Y-92665809D01*
X156377238Y-92570571D01*
X156472476Y-92475333D01*
X156520095Y-92380095D01*
X156234380Y-93284857D02*
X156234380Y-93951523D01*
X157234380Y-93522952D01*
%TO.C,NR1*%
X168165619Y-78204904D02*
X169165619Y-78204904D01*
X168165619Y-77633476D01*
X169165619Y-77633476D01*
X168165619Y-76585857D02*
X168641809Y-76919190D01*
X168165619Y-77157285D02*
X169165619Y-77157285D01*
X169165619Y-76776333D01*
X169118000Y-76681095D01*
X169070380Y-76633476D01*
X168975142Y-76585857D01*
X168832285Y-76585857D01*
X168737047Y-76633476D01*
X168689428Y-76681095D01*
X168641809Y-76776333D01*
X168641809Y-77157285D01*
X168165619Y-75633476D02*
X168165619Y-76204904D01*
X168165619Y-75919190D02*
X169165619Y-75919190D01*
X169022761Y-76014428D01*
X168927523Y-76109666D01*
X168879904Y-76204904D01*
%TO.C,R24*%
X122301857Y-134143380D02*
X122635190Y-133667190D01*
X122873285Y-134143380D02*
X122873285Y-133143380D01*
X122492333Y-133143380D01*
X122397095Y-133191000D01*
X122349476Y-133238619D01*
X122301857Y-133333857D01*
X122301857Y-133476714D01*
X122349476Y-133571952D01*
X122397095Y-133619571D01*
X122492333Y-133667190D01*
X122873285Y-133667190D01*
X121920904Y-133238619D02*
X121873285Y-133191000D01*
X121778047Y-133143380D01*
X121539952Y-133143380D01*
X121444714Y-133191000D01*
X121397095Y-133238619D01*
X121349476Y-133333857D01*
X121349476Y-133429095D01*
X121397095Y-133571952D01*
X121968523Y-134143380D01*
X121349476Y-134143380D01*
X120492333Y-133476714D02*
X120492333Y-134143380D01*
X120730428Y-133095761D02*
X120968523Y-133810047D01*
X120349476Y-133810047D01*
%TO.C,C5*%
X149374857Y-118346666D02*
X149327238Y-118394285D01*
X149279619Y-118537142D01*
X149279619Y-118632380D01*
X149327238Y-118775238D01*
X149422476Y-118870476D01*
X149517714Y-118918095D01*
X149708190Y-118965714D01*
X149851047Y-118965714D01*
X150041523Y-118918095D01*
X150136761Y-118870476D01*
X150232000Y-118775238D01*
X150279619Y-118632380D01*
X150279619Y-118537142D01*
X150232000Y-118394285D01*
X150184380Y-118346666D01*
X150279619Y-117441904D02*
X150279619Y-117918095D01*
X149803428Y-117965714D01*
X149851047Y-117918095D01*
X149898666Y-117822857D01*
X149898666Y-117584761D01*
X149851047Y-117489523D01*
X149803428Y-117441904D01*
X149708190Y-117394285D01*
X149470095Y-117394285D01*
X149374857Y-117441904D01*
X149327238Y-117489523D01*
X149279619Y-117584761D01*
X149279619Y-117822857D01*
X149327238Y-117918095D01*
X149374857Y-117965714D01*
%TO.C,R10*%
X140286857Y-120290380D02*
X140620190Y-119814190D01*
X140858285Y-120290380D02*
X140858285Y-119290380D01*
X140477333Y-119290380D01*
X140382095Y-119338000D01*
X140334476Y-119385619D01*
X140286857Y-119480857D01*
X140286857Y-119623714D01*
X140334476Y-119718952D01*
X140382095Y-119766571D01*
X140477333Y-119814190D01*
X140858285Y-119814190D01*
X139334476Y-120290380D02*
X139905904Y-120290380D01*
X139620190Y-120290380D02*
X139620190Y-119290380D01*
X139715428Y-119433238D01*
X139810666Y-119528476D01*
X139905904Y-119576095D01*
X138715428Y-119290380D02*
X138620190Y-119290380D01*
X138524952Y-119338000D01*
X138477333Y-119385619D01*
X138429714Y-119480857D01*
X138382095Y-119671333D01*
X138382095Y-119909428D01*
X138429714Y-120099904D01*
X138477333Y-120195142D01*
X138524952Y-120242761D01*
X138620190Y-120290380D01*
X138715428Y-120290380D01*
X138810666Y-120242761D01*
X138858285Y-120195142D01*
X138905904Y-120099904D01*
X138953523Y-119909428D01*
X138953523Y-119671333D01*
X138905904Y-119480857D01*
X138858285Y-119385619D01*
X138810666Y-119338000D01*
X138715428Y-119290380D01*
%TO.C,IC5*%
X130032809Y-89372619D02*
X130032809Y-90372619D01*
X131080428Y-89467857D02*
X131032809Y-89420238D01*
X130889952Y-89372619D01*
X130794714Y-89372619D01*
X130651857Y-89420238D01*
X130556619Y-89515476D01*
X130509000Y-89610714D01*
X130461380Y-89801190D01*
X130461380Y-89944047D01*
X130509000Y-90134523D01*
X130556619Y-90229761D01*
X130651857Y-90325000D01*
X130794714Y-90372619D01*
X130889952Y-90372619D01*
X131032809Y-90325000D01*
X131080428Y-90277380D01*
X131985190Y-90372619D02*
X131509000Y-90372619D01*
X131461380Y-89896428D01*
X131509000Y-89944047D01*
X131604238Y-89991666D01*
X131842333Y-89991666D01*
X131937571Y-89944047D01*
X131985190Y-89896428D01*
X132032809Y-89801190D01*
X132032809Y-89563095D01*
X131985190Y-89467857D01*
X131937571Y-89420238D01*
X131842333Y-89372619D01*
X131604238Y-89372619D01*
X131509000Y-89420238D01*
X131461380Y-89467857D01*
%TO.C,R13*%
X174308619Y-103900857D02*
X174784809Y-104234190D01*
X174308619Y-104472285D02*
X175308619Y-104472285D01*
X175308619Y-104091333D01*
X175261000Y-103996095D01*
X175213380Y-103948476D01*
X175118142Y-103900857D01*
X174975285Y-103900857D01*
X174880047Y-103948476D01*
X174832428Y-103996095D01*
X174784809Y-104091333D01*
X174784809Y-104472285D01*
X174308619Y-102948476D02*
X174308619Y-103519904D01*
X174308619Y-103234190D02*
X175308619Y-103234190D01*
X175165761Y-103329428D01*
X175070523Y-103424666D01*
X175022904Y-103519904D01*
X175308619Y-102615142D02*
X175308619Y-101996095D01*
X174927666Y-102329428D01*
X174927666Y-102186571D01*
X174880047Y-102091333D01*
X174832428Y-102043714D01*
X174737190Y-101996095D01*
X174499095Y-101996095D01*
X174403857Y-102043714D01*
X174356238Y-102091333D01*
X174308619Y-102186571D01*
X174308619Y-102472285D01*
X174356238Y-102567523D01*
X174403857Y-102615142D01*
%TO.C,R9*%
X143229619Y-129262666D02*
X143705809Y-129596000D01*
X143229619Y-129834095D02*
X144229619Y-129834095D01*
X144229619Y-129453142D01*
X144182000Y-129357904D01*
X144134380Y-129310285D01*
X144039142Y-129262666D01*
X143896285Y-129262666D01*
X143801047Y-129310285D01*
X143753428Y-129357904D01*
X143705809Y-129453142D01*
X143705809Y-129834095D01*
X143229619Y-128786476D02*
X143229619Y-128596000D01*
X143277238Y-128500761D01*
X143324857Y-128453142D01*
X143467714Y-128357904D01*
X143658190Y-128310285D01*
X144039142Y-128310285D01*
X144134380Y-128357904D01*
X144182000Y-128405523D01*
X144229619Y-128500761D01*
X144229619Y-128691238D01*
X144182000Y-128786476D01*
X144134380Y-128834095D01*
X144039142Y-128881714D01*
X143801047Y-128881714D01*
X143705809Y-128834095D01*
X143658190Y-128786476D01*
X143610571Y-128691238D01*
X143610571Y-128500761D01*
X143658190Y-128405523D01*
X143705809Y-128357904D01*
X143801047Y-128310285D01*
%TO.C,C19*%
X118721857Y-110643857D02*
X118674238Y-110691476D01*
X118626619Y-110834333D01*
X118626619Y-110929571D01*
X118674238Y-111072428D01*
X118769476Y-111167666D01*
X118864714Y-111215285D01*
X119055190Y-111262904D01*
X119198047Y-111262904D01*
X119388523Y-111215285D01*
X119483761Y-111167666D01*
X119579000Y-111072428D01*
X119626619Y-110929571D01*
X119626619Y-110834333D01*
X119579000Y-110691476D01*
X119531380Y-110643857D01*
X118626619Y-109691476D02*
X118626619Y-110262904D01*
X118626619Y-109977190D02*
X119626619Y-109977190D01*
X119483761Y-110072428D01*
X119388523Y-110167666D01*
X119340904Y-110262904D01*
X118626619Y-109215285D02*
X118626619Y-109024809D01*
X118674238Y-108929571D01*
X118721857Y-108881952D01*
X118864714Y-108786714D01*
X119055190Y-108739095D01*
X119436142Y-108739095D01*
X119531380Y-108786714D01*
X119579000Y-108834333D01*
X119626619Y-108929571D01*
X119626619Y-109120047D01*
X119579000Y-109215285D01*
X119531380Y-109262904D01*
X119436142Y-109310523D01*
X119198047Y-109310523D01*
X119102809Y-109262904D01*
X119055190Y-109215285D01*
X119007571Y-109120047D01*
X119007571Y-108929571D01*
X119055190Y-108834333D01*
X119102809Y-108786714D01*
X119198047Y-108739095D01*
%TO.C,R3*%
X166207666Y-122916380D02*
X166541000Y-122440190D01*
X166779095Y-122916380D02*
X166779095Y-121916380D01*
X166398142Y-121916380D01*
X166302904Y-121964000D01*
X166255285Y-122011619D01*
X166207666Y-122106857D01*
X166207666Y-122249714D01*
X166255285Y-122344952D01*
X166302904Y-122392571D01*
X166398142Y-122440190D01*
X166779095Y-122440190D01*
X165874333Y-121916380D02*
X165255285Y-121916380D01*
X165588619Y-122297333D01*
X165445761Y-122297333D01*
X165350523Y-122344952D01*
X165302904Y-122392571D01*
X165255285Y-122487809D01*
X165255285Y-122725904D01*
X165302904Y-122821142D01*
X165350523Y-122868761D01*
X165445761Y-122916380D01*
X165731476Y-122916380D01*
X165826714Y-122868761D01*
X165874333Y-122821142D01*
%TO.C,R6*%
X177515380Y-122133333D02*
X177039190Y-121800000D01*
X177515380Y-121561904D02*
X176515380Y-121561904D01*
X176515380Y-121942857D01*
X176563000Y-122038095D01*
X176610619Y-122085714D01*
X176705857Y-122133333D01*
X176848714Y-122133333D01*
X176943952Y-122085714D01*
X176991571Y-122038095D01*
X177039190Y-121942857D01*
X177039190Y-121561904D01*
X176515380Y-122990476D02*
X176515380Y-122800000D01*
X176563000Y-122704761D01*
X176610619Y-122657142D01*
X176753476Y-122561904D01*
X176943952Y-122514285D01*
X177324904Y-122514285D01*
X177420142Y-122561904D01*
X177467761Y-122609523D01*
X177515380Y-122704761D01*
X177515380Y-122895238D01*
X177467761Y-122990476D01*
X177420142Y-123038095D01*
X177324904Y-123085714D01*
X177086809Y-123085714D01*
X176991571Y-123038095D01*
X176943952Y-122990476D01*
X176896333Y-122895238D01*
X176896333Y-122704761D01*
X176943952Y-122609523D01*
X176991571Y-122561904D01*
X177086809Y-122514285D01*
%TO.C,D3*%
X135646095Y-80448380D02*
X135646095Y-79448380D01*
X135408000Y-79448380D01*
X135265142Y-79496000D01*
X135169904Y-79591238D01*
X135122285Y-79686476D01*
X135074666Y-79876952D01*
X135074666Y-80019809D01*
X135122285Y-80210285D01*
X135169904Y-80305523D01*
X135265142Y-80400761D01*
X135408000Y-80448380D01*
X135646095Y-80448380D01*
X134741333Y-79448380D02*
X134122285Y-79448380D01*
X134455619Y-79829333D01*
X134312761Y-79829333D01*
X134217523Y-79876952D01*
X134169904Y-79924571D01*
X134122285Y-80019809D01*
X134122285Y-80257904D01*
X134169904Y-80353142D01*
X134217523Y-80400761D01*
X134312761Y-80448380D01*
X134598476Y-80448380D01*
X134693714Y-80400761D01*
X134741333Y-80353142D01*
%TO.C,R5*%
X154290666Y-119964380D02*
X154624000Y-119488190D01*
X154862095Y-119964380D02*
X154862095Y-118964380D01*
X154481142Y-118964380D01*
X154385904Y-119012000D01*
X154338285Y-119059619D01*
X154290666Y-119154857D01*
X154290666Y-119297714D01*
X154338285Y-119392952D01*
X154385904Y-119440571D01*
X154481142Y-119488190D01*
X154862095Y-119488190D01*
X153385904Y-118964380D02*
X153862095Y-118964380D01*
X153909714Y-119440571D01*
X153862095Y-119392952D01*
X153766857Y-119345333D01*
X153528761Y-119345333D01*
X153433523Y-119392952D01*
X153385904Y-119440571D01*
X153338285Y-119535809D01*
X153338285Y-119773904D01*
X153385904Y-119869142D01*
X153433523Y-119916761D01*
X153528761Y-119964380D01*
X153766857Y-119964380D01*
X153862095Y-119916761D01*
X153909714Y-119869142D01*
%TO.C,IC1*%
X140120190Y-124579380D02*
X140120190Y-123579380D01*
X139072571Y-124484142D02*
X139120190Y-124531761D01*
X139263047Y-124579380D01*
X139358285Y-124579380D01*
X139501142Y-124531761D01*
X139596380Y-124436523D01*
X139644000Y-124341285D01*
X139691619Y-124150809D01*
X139691619Y-124007952D01*
X139644000Y-123817476D01*
X139596380Y-123722238D01*
X139501142Y-123627000D01*
X139358285Y-123579380D01*
X139263047Y-123579380D01*
X139120190Y-123627000D01*
X139072571Y-123674619D01*
X138120190Y-124579380D02*
X138691619Y-124579380D01*
X138405904Y-124579380D02*
X138405904Y-123579380D01*
X138501142Y-123722238D01*
X138596380Y-123817476D01*
X138691619Y-123865095D01*
%TO.C,C14*%
X131356857Y-118192142D02*
X131404476Y-118239761D01*
X131547333Y-118287380D01*
X131642571Y-118287380D01*
X131785428Y-118239761D01*
X131880666Y-118144523D01*
X131928285Y-118049285D01*
X131975904Y-117858809D01*
X131975904Y-117715952D01*
X131928285Y-117525476D01*
X131880666Y-117430238D01*
X131785428Y-117335000D01*
X131642571Y-117287380D01*
X131547333Y-117287380D01*
X131404476Y-117335000D01*
X131356857Y-117382619D01*
X130404476Y-118287380D02*
X130975904Y-118287380D01*
X130690190Y-118287380D02*
X130690190Y-117287380D01*
X130785428Y-117430238D01*
X130880666Y-117525476D01*
X130975904Y-117573095D01*
X129547333Y-117620714D02*
X129547333Y-118287380D01*
X129785428Y-117239761D02*
X130023523Y-117954047D01*
X129404476Y-117954047D01*
%TO.C,R32*%
X168733857Y-106777380D02*
X169067190Y-106301190D01*
X169305285Y-106777380D02*
X169305285Y-105777380D01*
X168924333Y-105777380D01*
X168829095Y-105825000D01*
X168781476Y-105872619D01*
X168733857Y-105967857D01*
X168733857Y-106110714D01*
X168781476Y-106205952D01*
X168829095Y-106253571D01*
X168924333Y-106301190D01*
X169305285Y-106301190D01*
X168400523Y-105777380D02*
X167781476Y-105777380D01*
X168114809Y-106158333D01*
X167971952Y-106158333D01*
X167876714Y-106205952D01*
X167829095Y-106253571D01*
X167781476Y-106348809D01*
X167781476Y-106586904D01*
X167829095Y-106682142D01*
X167876714Y-106729761D01*
X167971952Y-106777380D01*
X168257666Y-106777380D01*
X168352904Y-106729761D01*
X168400523Y-106682142D01*
X167400523Y-105872619D02*
X167352904Y-105825000D01*
X167257666Y-105777380D01*
X167019571Y-105777380D01*
X166924333Y-105825000D01*
X166876714Y-105872619D01*
X166829095Y-105967857D01*
X166829095Y-106063095D01*
X166876714Y-106205952D01*
X167448142Y-106777380D01*
X166829095Y-106777380D01*
%TO.C,Q3*%
X164800238Y-115688619D02*
X164895476Y-115641000D01*
X164990714Y-115545761D01*
X165133571Y-115402904D01*
X165228809Y-115355285D01*
X165324047Y-115355285D01*
X165276428Y-115593380D02*
X165371666Y-115545761D01*
X165466904Y-115450523D01*
X165514523Y-115260047D01*
X165514523Y-114926714D01*
X165466904Y-114736238D01*
X165371666Y-114641000D01*
X165276428Y-114593380D01*
X165085952Y-114593380D01*
X164990714Y-114641000D01*
X164895476Y-114736238D01*
X164847857Y-114926714D01*
X164847857Y-115260047D01*
X164895476Y-115450523D01*
X164990714Y-115545761D01*
X165085952Y-115593380D01*
X165276428Y-115593380D01*
X164514523Y-114593380D02*
X163895476Y-114593380D01*
X164228809Y-114974333D01*
X164085952Y-114974333D01*
X163990714Y-115021952D01*
X163943095Y-115069571D01*
X163895476Y-115164809D01*
X163895476Y-115402904D01*
X163943095Y-115498142D01*
X163990714Y-115545761D01*
X164085952Y-115593380D01*
X164371666Y-115593380D01*
X164466904Y-115545761D01*
X164514523Y-115498142D01*
%TO.C,C17*%
X148355857Y-112922142D02*
X148403476Y-112969761D01*
X148546333Y-113017380D01*
X148641571Y-113017380D01*
X148784428Y-112969761D01*
X148879666Y-112874523D01*
X148927285Y-112779285D01*
X148974904Y-112588809D01*
X148974904Y-112445952D01*
X148927285Y-112255476D01*
X148879666Y-112160238D01*
X148784428Y-112065000D01*
X148641571Y-112017380D01*
X148546333Y-112017380D01*
X148403476Y-112065000D01*
X148355857Y-112112619D01*
X147403476Y-113017380D02*
X147974904Y-113017380D01*
X147689190Y-113017380D02*
X147689190Y-112017380D01*
X147784428Y-112160238D01*
X147879666Y-112255476D01*
X147974904Y-112303095D01*
X147070142Y-112017380D02*
X146403476Y-112017380D01*
X146832047Y-113017380D01*
%TO.C,R30*%
X161361857Y-105216380D02*
X161695190Y-104740190D01*
X161933285Y-105216380D02*
X161933285Y-104216380D01*
X161552333Y-104216380D01*
X161457095Y-104264000D01*
X161409476Y-104311619D01*
X161361857Y-104406857D01*
X161361857Y-104549714D01*
X161409476Y-104644952D01*
X161457095Y-104692571D01*
X161552333Y-104740190D01*
X161933285Y-104740190D01*
X161028523Y-104216380D02*
X160409476Y-104216380D01*
X160742809Y-104597333D01*
X160599952Y-104597333D01*
X160504714Y-104644952D01*
X160457095Y-104692571D01*
X160409476Y-104787809D01*
X160409476Y-105025904D01*
X160457095Y-105121142D01*
X160504714Y-105168761D01*
X160599952Y-105216380D01*
X160885666Y-105216380D01*
X160980904Y-105168761D01*
X161028523Y-105121142D01*
X159790428Y-104216380D02*
X159695190Y-104216380D01*
X159599952Y-104264000D01*
X159552333Y-104311619D01*
X159504714Y-104406857D01*
X159457095Y-104597333D01*
X159457095Y-104835428D01*
X159504714Y-105025904D01*
X159552333Y-105121142D01*
X159599952Y-105168761D01*
X159695190Y-105216380D01*
X159790428Y-105216380D01*
X159885666Y-105168761D01*
X159933285Y-105121142D01*
X159980904Y-105025904D01*
X160028523Y-104835428D01*
X160028523Y-104597333D01*
X159980904Y-104406857D01*
X159933285Y-104311619D01*
X159885666Y-104264000D01*
X159790428Y-104216380D01*
%TO.C,R34*%
X137110857Y-135876380D02*
X137444190Y-135400190D01*
X137682285Y-135876380D02*
X137682285Y-134876380D01*
X137301333Y-134876380D01*
X137206095Y-134924000D01*
X137158476Y-134971619D01*
X137110857Y-135066857D01*
X137110857Y-135209714D01*
X137158476Y-135304952D01*
X137206095Y-135352571D01*
X137301333Y-135400190D01*
X137682285Y-135400190D01*
X136777523Y-134876380D02*
X136158476Y-134876380D01*
X136491809Y-135257333D01*
X136348952Y-135257333D01*
X136253714Y-135304952D01*
X136206095Y-135352571D01*
X136158476Y-135447809D01*
X136158476Y-135685904D01*
X136206095Y-135781142D01*
X136253714Y-135828761D01*
X136348952Y-135876380D01*
X136634666Y-135876380D01*
X136729904Y-135828761D01*
X136777523Y-135781142D01*
X135301333Y-135209714D02*
X135301333Y-135876380D01*
X135539428Y-134828761D02*
X135777523Y-135543047D01*
X135158476Y-135543047D01*
%TO.C,R26*%
X173122380Y-134931142D02*
X172646190Y-134597809D01*
X173122380Y-134359714D02*
X172122380Y-134359714D01*
X172122380Y-134740666D01*
X172170000Y-134835904D01*
X172217619Y-134883523D01*
X172312857Y-134931142D01*
X172455714Y-134931142D01*
X172550952Y-134883523D01*
X172598571Y-134835904D01*
X172646190Y-134740666D01*
X172646190Y-134359714D01*
X172217619Y-135312095D02*
X172170000Y-135359714D01*
X172122380Y-135454952D01*
X172122380Y-135693047D01*
X172170000Y-135788285D01*
X172217619Y-135835904D01*
X172312857Y-135883523D01*
X172408095Y-135883523D01*
X172550952Y-135835904D01*
X173122380Y-135264476D01*
X173122380Y-135883523D01*
X172122380Y-136740666D02*
X172122380Y-136550190D01*
X172170000Y-136454952D01*
X172217619Y-136407333D01*
X172360476Y-136312095D01*
X172550952Y-136264476D01*
X172931904Y-136264476D01*
X173027142Y-136312095D01*
X173074761Y-136359714D01*
X173122380Y-136454952D01*
X173122380Y-136645428D01*
X173074761Y-136740666D01*
X173027142Y-136788285D01*
X172931904Y-136835904D01*
X172693809Y-136835904D01*
X172598571Y-136788285D01*
X172550952Y-136740666D01*
X172503333Y-136645428D01*
X172503333Y-136454952D01*
X172550952Y-136359714D01*
X172598571Y-136312095D01*
X172693809Y-136264476D01*
%TO.C,IC3*%
X155691190Y-72897380D02*
X155691190Y-71897380D01*
X154643571Y-72802142D02*
X154691190Y-72849761D01*
X154834047Y-72897380D01*
X154929285Y-72897380D01*
X155072142Y-72849761D01*
X155167380Y-72754523D01*
X155215000Y-72659285D01*
X155262619Y-72468809D01*
X155262619Y-72325952D01*
X155215000Y-72135476D01*
X155167380Y-72040238D01*
X155072142Y-71945000D01*
X154929285Y-71897380D01*
X154834047Y-71897380D01*
X154691190Y-71945000D01*
X154643571Y-71992619D01*
X154310238Y-71897380D02*
X153691190Y-71897380D01*
X154024523Y-72278333D01*
X153881666Y-72278333D01*
X153786428Y-72325952D01*
X153738809Y-72373571D01*
X153691190Y-72468809D01*
X153691190Y-72706904D01*
X153738809Y-72802142D01*
X153786428Y-72849761D01*
X153881666Y-72897380D01*
X154167380Y-72897380D01*
X154262619Y-72849761D01*
X154310238Y-72802142D01*
%TO.C,Q6*%
X133533761Y-121872380D02*
X133438523Y-121920000D01*
X133343285Y-122015238D01*
X133200428Y-122158095D01*
X133105190Y-122205714D01*
X133009952Y-122205714D01*
X133057571Y-121967619D02*
X132962333Y-122015238D01*
X132867095Y-122110476D01*
X132819476Y-122300952D01*
X132819476Y-122634285D01*
X132867095Y-122824761D01*
X132962333Y-122920000D01*
X133057571Y-122967619D01*
X133248047Y-122967619D01*
X133343285Y-122920000D01*
X133438523Y-122824761D01*
X133486142Y-122634285D01*
X133486142Y-122300952D01*
X133438523Y-122110476D01*
X133343285Y-122015238D01*
X133248047Y-121967619D01*
X133057571Y-121967619D01*
X134343285Y-122967619D02*
X134152809Y-122967619D01*
X134057571Y-122920000D01*
X134009952Y-122872380D01*
X133914714Y-122729523D01*
X133867095Y-122539047D01*
X133867095Y-122158095D01*
X133914714Y-122062857D01*
X133962333Y-122015238D01*
X134057571Y-121967619D01*
X134248047Y-121967619D01*
X134343285Y-122015238D01*
X134390904Y-122062857D01*
X134438523Y-122158095D01*
X134438523Y-122396190D01*
X134390904Y-122491428D01*
X134343285Y-122539047D01*
X134248047Y-122586666D01*
X134057571Y-122586666D01*
X133962333Y-122539047D01*
X133914714Y-122491428D01*
X133867095Y-122396190D01*
%TO.C,C12*%
X158141142Y-101792857D02*
X158176857Y-101828571D01*
X158284000Y-101864285D01*
X158355428Y-101864285D01*
X158462571Y-101828571D01*
X158534000Y-101757142D01*
X158569714Y-101685714D01*
X158605428Y-101542857D01*
X158605428Y-101435714D01*
X158569714Y-101292857D01*
X158534000Y-101221428D01*
X158462571Y-101150000D01*
X158355428Y-101114285D01*
X158284000Y-101114285D01*
X158176857Y-101150000D01*
X158141142Y-101185714D01*
X157426857Y-101864285D02*
X157855428Y-101864285D01*
X157641142Y-101864285D02*
X157641142Y-101114285D01*
X157712571Y-101221428D01*
X157784000Y-101292857D01*
X157855428Y-101328571D01*
X157141142Y-101185714D02*
X157105428Y-101150000D01*
X157034000Y-101114285D01*
X156855428Y-101114285D01*
X156784000Y-101150000D01*
X156748285Y-101185714D01*
X156712571Y-101257142D01*
X156712571Y-101328571D01*
X156748285Y-101435714D01*
X157176857Y-101864285D01*
X156712571Y-101864285D01*
%TO.C,R7*%
X165628619Y-118307666D02*
X166104809Y-118641000D01*
X165628619Y-118879095D02*
X166628619Y-118879095D01*
X166628619Y-118498142D01*
X166581000Y-118402904D01*
X166533380Y-118355285D01*
X166438142Y-118307666D01*
X166295285Y-118307666D01*
X166200047Y-118355285D01*
X166152428Y-118402904D01*
X166104809Y-118498142D01*
X166104809Y-118879095D01*
X166628619Y-117974333D02*
X166628619Y-117307666D01*
X165628619Y-117736238D01*
%TO.C,Q4*%
X173394238Y-84339619D02*
X173489476Y-84292000D01*
X173584714Y-84196761D01*
X173727571Y-84053904D01*
X173822809Y-84006285D01*
X173918047Y-84006285D01*
X173870428Y-84244380D02*
X173965666Y-84196761D01*
X174060904Y-84101523D01*
X174108523Y-83911047D01*
X174108523Y-83577714D01*
X174060904Y-83387238D01*
X173965666Y-83292000D01*
X173870428Y-83244380D01*
X173679952Y-83244380D01*
X173584714Y-83292000D01*
X173489476Y-83387238D01*
X173441857Y-83577714D01*
X173441857Y-83911047D01*
X173489476Y-84101523D01*
X173584714Y-84196761D01*
X173679952Y-84244380D01*
X173870428Y-84244380D01*
X172584714Y-83577714D02*
X172584714Y-84244380D01*
X172822809Y-83196761D02*
X173060904Y-83911047D01*
X172441857Y-83911047D01*
%TO.C,R36*%
X145991857Y-140200380D02*
X146325190Y-139724190D01*
X146563285Y-140200380D02*
X146563285Y-139200380D01*
X146182333Y-139200380D01*
X146087095Y-139248000D01*
X146039476Y-139295619D01*
X145991857Y-139390857D01*
X145991857Y-139533714D01*
X146039476Y-139628952D01*
X146087095Y-139676571D01*
X146182333Y-139724190D01*
X146563285Y-139724190D01*
X145658523Y-139200380D02*
X145039476Y-139200380D01*
X145372809Y-139581333D01*
X145229952Y-139581333D01*
X145134714Y-139628952D01*
X145087095Y-139676571D01*
X145039476Y-139771809D01*
X145039476Y-140009904D01*
X145087095Y-140105142D01*
X145134714Y-140152761D01*
X145229952Y-140200380D01*
X145515666Y-140200380D01*
X145610904Y-140152761D01*
X145658523Y-140105142D01*
X144182333Y-139200380D02*
X144372809Y-139200380D01*
X144468047Y-139248000D01*
X144515666Y-139295619D01*
X144610904Y-139438476D01*
X144658523Y-139628952D01*
X144658523Y-140009904D01*
X144610904Y-140105142D01*
X144563285Y-140152761D01*
X144468047Y-140200380D01*
X144277571Y-140200380D01*
X144182333Y-140152761D01*
X144134714Y-140105142D01*
X144087095Y-140009904D01*
X144087095Y-139771809D01*
X144134714Y-139676571D01*
X144182333Y-139628952D01*
X144277571Y-139581333D01*
X144468047Y-139581333D01*
X144563285Y-139628952D01*
X144610904Y-139676571D01*
X144658523Y-139771809D01*
%TO.C,Q9*%
X122917238Y-138482619D02*
X123012476Y-138435000D01*
X123107714Y-138339761D01*
X123250571Y-138196904D01*
X123345809Y-138149285D01*
X123441047Y-138149285D01*
X123393428Y-138387380D02*
X123488666Y-138339761D01*
X123583904Y-138244523D01*
X123631523Y-138054047D01*
X123631523Y-137720714D01*
X123583904Y-137530238D01*
X123488666Y-137435000D01*
X123393428Y-137387380D01*
X123202952Y-137387380D01*
X123107714Y-137435000D01*
X123012476Y-137530238D01*
X122964857Y-137720714D01*
X122964857Y-138054047D01*
X123012476Y-138244523D01*
X123107714Y-138339761D01*
X123202952Y-138387380D01*
X123393428Y-138387380D01*
X122488666Y-138387380D02*
X122298190Y-138387380D01*
X122202952Y-138339761D01*
X122155333Y-138292142D01*
X122060095Y-138149285D01*
X122012476Y-137958809D01*
X122012476Y-137577857D01*
X122060095Y-137482619D01*
X122107714Y-137435000D01*
X122202952Y-137387380D01*
X122393428Y-137387380D01*
X122488666Y-137435000D01*
X122536285Y-137482619D01*
X122583904Y-137577857D01*
X122583904Y-137815952D01*
X122536285Y-137911190D01*
X122488666Y-137958809D01*
X122393428Y-138006428D01*
X122202952Y-138006428D01*
X122107714Y-137958809D01*
X122060095Y-137911190D01*
X122012476Y-137815952D01*
%TO.C,Q14*%
X168557428Y-94985619D02*
X168652666Y-94938000D01*
X168747904Y-94842761D01*
X168890761Y-94699904D01*
X168986000Y-94652285D01*
X169081238Y-94652285D01*
X169033619Y-94890380D02*
X169128857Y-94842761D01*
X169224095Y-94747523D01*
X169271714Y-94557047D01*
X169271714Y-94223714D01*
X169224095Y-94033238D01*
X169128857Y-93938000D01*
X169033619Y-93890380D01*
X168843142Y-93890380D01*
X168747904Y-93938000D01*
X168652666Y-94033238D01*
X168605047Y-94223714D01*
X168605047Y-94557047D01*
X168652666Y-94747523D01*
X168747904Y-94842761D01*
X168843142Y-94890380D01*
X169033619Y-94890380D01*
X167652666Y-94890380D02*
X168224095Y-94890380D01*
X167938380Y-94890380D02*
X167938380Y-93890380D01*
X168033619Y-94033238D01*
X168128857Y-94128476D01*
X168224095Y-94176095D01*
X166795523Y-94223714D02*
X166795523Y-94890380D01*
X167033619Y-93842761D02*
X167271714Y-94557047D01*
X166652666Y-94557047D01*
%TO.C,C4*%
X148781857Y-126347666D02*
X148734238Y-126395285D01*
X148686619Y-126538142D01*
X148686619Y-126633380D01*
X148734238Y-126776238D01*
X148829476Y-126871476D01*
X148924714Y-126919095D01*
X149115190Y-126966714D01*
X149258047Y-126966714D01*
X149448523Y-126919095D01*
X149543761Y-126871476D01*
X149639000Y-126776238D01*
X149686619Y-126633380D01*
X149686619Y-126538142D01*
X149639000Y-126395285D01*
X149591380Y-126347666D01*
X149353285Y-125490523D02*
X148686619Y-125490523D01*
X149734238Y-125728619D02*
X149019952Y-125966714D01*
X149019952Y-125347666D01*
%TO.C,Q8*%
X135274238Y-130975619D02*
X135369476Y-130928000D01*
X135464714Y-130832761D01*
X135607571Y-130689904D01*
X135702809Y-130642285D01*
X135798047Y-130642285D01*
X135750428Y-130880380D02*
X135845666Y-130832761D01*
X135940904Y-130737523D01*
X135988523Y-130547047D01*
X135988523Y-130213714D01*
X135940904Y-130023238D01*
X135845666Y-129928000D01*
X135750428Y-129880380D01*
X135559952Y-129880380D01*
X135464714Y-129928000D01*
X135369476Y-130023238D01*
X135321857Y-130213714D01*
X135321857Y-130547047D01*
X135369476Y-130737523D01*
X135464714Y-130832761D01*
X135559952Y-130880380D01*
X135750428Y-130880380D01*
X134750428Y-130308952D02*
X134845666Y-130261333D01*
X134893285Y-130213714D01*
X134940904Y-130118476D01*
X134940904Y-130070857D01*
X134893285Y-129975619D01*
X134845666Y-129928000D01*
X134750428Y-129880380D01*
X134559952Y-129880380D01*
X134464714Y-129928000D01*
X134417095Y-129975619D01*
X134369476Y-130070857D01*
X134369476Y-130118476D01*
X134417095Y-130213714D01*
X134464714Y-130261333D01*
X134559952Y-130308952D01*
X134750428Y-130308952D01*
X134845666Y-130356571D01*
X134893285Y-130404190D01*
X134940904Y-130499428D01*
X134940904Y-130689904D01*
X134893285Y-130785142D01*
X134845666Y-130832761D01*
X134750428Y-130880380D01*
X134559952Y-130880380D01*
X134464714Y-130832761D01*
X134417095Y-130785142D01*
X134369476Y-130689904D01*
X134369476Y-130499428D01*
X134417095Y-130404190D01*
X134464714Y-130356571D01*
X134559952Y-130308952D01*
%TO.C,IC2*%
X147051190Y-95780380D02*
X147051190Y-94780380D01*
X146003571Y-95685142D02*
X146051190Y-95732761D01*
X146194047Y-95780380D01*
X146289285Y-95780380D01*
X146432142Y-95732761D01*
X146527380Y-95637523D01*
X146575000Y-95542285D01*
X146622619Y-95351809D01*
X146622619Y-95208952D01*
X146575000Y-95018476D01*
X146527380Y-94923238D01*
X146432142Y-94828000D01*
X146289285Y-94780380D01*
X146194047Y-94780380D01*
X146051190Y-94828000D01*
X146003571Y-94875619D01*
X145622619Y-94875619D02*
X145575000Y-94828000D01*
X145479761Y-94780380D01*
X145241666Y-94780380D01*
X145146428Y-94828000D01*
X145098809Y-94875619D01*
X145051190Y-94970857D01*
X145051190Y-95066095D01*
X145098809Y-95208952D01*
X145670238Y-95780380D01*
X145051190Y-95780380D01*
%TO.C,R11*%
X172292380Y-123695142D02*
X171816190Y-123361809D01*
X172292380Y-123123714D02*
X171292380Y-123123714D01*
X171292380Y-123504666D01*
X171340000Y-123599904D01*
X171387619Y-123647523D01*
X171482857Y-123695142D01*
X171625714Y-123695142D01*
X171720952Y-123647523D01*
X171768571Y-123599904D01*
X171816190Y-123504666D01*
X171816190Y-123123714D01*
X172292380Y-124647523D02*
X172292380Y-124076095D01*
X172292380Y-124361809D02*
X171292380Y-124361809D01*
X171435238Y-124266571D01*
X171530476Y-124171333D01*
X171578095Y-124076095D01*
X172292380Y-125599904D02*
X172292380Y-125028476D01*
X172292380Y-125314190D02*
X171292380Y-125314190D01*
X171435238Y-125218952D01*
X171530476Y-125123714D01*
X171578095Y-125028476D01*
%TO.C,R21*%
X175270857Y-78416380D02*
X175604190Y-77940190D01*
X175842285Y-78416380D02*
X175842285Y-77416380D01*
X175461333Y-77416380D01*
X175366095Y-77464000D01*
X175318476Y-77511619D01*
X175270857Y-77606857D01*
X175270857Y-77749714D01*
X175318476Y-77844952D01*
X175366095Y-77892571D01*
X175461333Y-77940190D01*
X175842285Y-77940190D01*
X174889904Y-77511619D02*
X174842285Y-77464000D01*
X174747047Y-77416380D01*
X174508952Y-77416380D01*
X174413714Y-77464000D01*
X174366095Y-77511619D01*
X174318476Y-77606857D01*
X174318476Y-77702095D01*
X174366095Y-77844952D01*
X174937523Y-78416380D01*
X174318476Y-78416380D01*
X173366095Y-78416380D02*
X173937523Y-78416380D01*
X173651809Y-78416380D02*
X173651809Y-77416380D01*
X173747047Y-77559238D01*
X173842285Y-77654476D01*
X173937523Y-77702095D01*
%TO.C,R4*%
X157325666Y-123333380D02*
X157659000Y-122857190D01*
X157897095Y-123333380D02*
X157897095Y-122333380D01*
X157516142Y-122333380D01*
X157420904Y-122381000D01*
X157373285Y-122428619D01*
X157325666Y-122523857D01*
X157325666Y-122666714D01*
X157373285Y-122761952D01*
X157420904Y-122809571D01*
X157516142Y-122857190D01*
X157897095Y-122857190D01*
X156468523Y-122666714D02*
X156468523Y-123333380D01*
X156706619Y-122285761D02*
X156944714Y-123000047D01*
X156325666Y-123000047D01*
%TO.C,Q5*%
X164345238Y-83030619D02*
X164440476Y-82983000D01*
X164535714Y-82887761D01*
X164678571Y-82744904D01*
X164773809Y-82697285D01*
X164869047Y-82697285D01*
X164821428Y-82935380D02*
X164916666Y-82887761D01*
X165011904Y-82792523D01*
X165059523Y-82602047D01*
X165059523Y-82268714D01*
X165011904Y-82078238D01*
X164916666Y-81983000D01*
X164821428Y-81935380D01*
X164630952Y-81935380D01*
X164535714Y-81983000D01*
X164440476Y-82078238D01*
X164392857Y-82268714D01*
X164392857Y-82602047D01*
X164440476Y-82792523D01*
X164535714Y-82887761D01*
X164630952Y-82935380D01*
X164821428Y-82935380D01*
X163488095Y-81935380D02*
X163964285Y-81935380D01*
X164011904Y-82411571D01*
X163964285Y-82363952D01*
X163869047Y-82316333D01*
X163630952Y-82316333D01*
X163535714Y-82363952D01*
X163488095Y-82411571D01*
X163440476Y-82506809D01*
X163440476Y-82744904D01*
X163488095Y-82840142D01*
X163535714Y-82887761D01*
X163630952Y-82935380D01*
X163869047Y-82935380D01*
X163964285Y-82887761D01*
X164011904Y-82840142D01*
%TO.C,R12*%
X145734619Y-130183857D02*
X146210809Y-130517190D01*
X145734619Y-130755285D02*
X146734619Y-130755285D01*
X146734619Y-130374333D01*
X146687000Y-130279095D01*
X146639380Y-130231476D01*
X146544142Y-130183857D01*
X146401285Y-130183857D01*
X146306047Y-130231476D01*
X146258428Y-130279095D01*
X146210809Y-130374333D01*
X146210809Y-130755285D01*
X145734619Y-129231476D02*
X145734619Y-129802904D01*
X145734619Y-129517190D02*
X146734619Y-129517190D01*
X146591761Y-129612428D01*
X146496523Y-129707666D01*
X146448904Y-129802904D01*
X146639380Y-128850523D02*
X146687000Y-128802904D01*
X146734619Y-128707666D01*
X146734619Y-128469571D01*
X146687000Y-128374333D01*
X146639380Y-128326714D01*
X146544142Y-128279095D01*
X146448904Y-128279095D01*
X146306047Y-128326714D01*
X145734619Y-128898142D01*
X145734619Y-128279095D01*
%TO.C,R29*%
X158166142Y-99784285D02*
X158416142Y-99427142D01*
X158594714Y-99784285D02*
X158594714Y-99034285D01*
X158309000Y-99034285D01*
X158237571Y-99070000D01*
X158201857Y-99105714D01*
X158166142Y-99177142D01*
X158166142Y-99284285D01*
X158201857Y-99355714D01*
X158237571Y-99391428D01*
X158309000Y-99427142D01*
X158594714Y-99427142D01*
X157880428Y-99105714D02*
X157844714Y-99070000D01*
X157773285Y-99034285D01*
X157594714Y-99034285D01*
X157523285Y-99070000D01*
X157487571Y-99105714D01*
X157451857Y-99177142D01*
X157451857Y-99248571D01*
X157487571Y-99355714D01*
X157916142Y-99784285D01*
X157451857Y-99784285D01*
X157094714Y-99784285D02*
X156951857Y-99784285D01*
X156880428Y-99748571D01*
X156844714Y-99712857D01*
X156773285Y-99605714D01*
X156737571Y-99462857D01*
X156737571Y-99177142D01*
X156773285Y-99105714D01*
X156809000Y-99070000D01*
X156880428Y-99034285D01*
X157023285Y-99034285D01*
X157094714Y-99070000D01*
X157130428Y-99105714D01*
X157166142Y-99177142D01*
X157166142Y-99355714D01*
X157130428Y-99427142D01*
X157094714Y-99462857D01*
X157023285Y-99498571D01*
X156880428Y-99498571D01*
X156809000Y-99462857D01*
X156773285Y-99427142D01*
X156737571Y-99355714D01*
%TO.C,C18*%
X175287857Y-80334142D02*
X175335476Y-80381761D01*
X175478333Y-80429380D01*
X175573571Y-80429380D01*
X175716428Y-80381761D01*
X175811666Y-80286523D01*
X175859285Y-80191285D01*
X175906904Y-80000809D01*
X175906904Y-79857952D01*
X175859285Y-79667476D01*
X175811666Y-79572238D01*
X175716428Y-79477000D01*
X175573571Y-79429380D01*
X175478333Y-79429380D01*
X175335476Y-79477000D01*
X175287857Y-79524619D01*
X174335476Y-80429380D02*
X174906904Y-80429380D01*
X174621190Y-80429380D02*
X174621190Y-79429380D01*
X174716428Y-79572238D01*
X174811666Y-79667476D01*
X174906904Y-79715095D01*
X173764047Y-79857952D02*
X173859285Y-79810333D01*
X173906904Y-79762714D01*
X173954523Y-79667476D01*
X173954523Y-79619857D01*
X173906904Y-79524619D01*
X173859285Y-79477000D01*
X173764047Y-79429380D01*
X173573571Y-79429380D01*
X173478333Y-79477000D01*
X173430714Y-79524619D01*
X173383095Y-79619857D01*
X173383095Y-79667476D01*
X173430714Y-79762714D01*
X173478333Y-79810333D01*
X173573571Y-79857952D01*
X173764047Y-79857952D01*
X173859285Y-79905571D01*
X173906904Y-79953190D01*
X173954523Y-80048428D01*
X173954523Y-80238904D01*
X173906904Y-80334142D01*
X173859285Y-80381761D01*
X173764047Y-80429380D01*
X173573571Y-80429380D01*
X173478333Y-80381761D01*
X173430714Y-80334142D01*
X173383095Y-80238904D01*
X173383095Y-80048428D01*
X173430714Y-79953190D01*
X173478333Y-79905571D01*
X173573571Y-79857952D01*
%TO.C,C20*%
X177028142Y-134881142D02*
X177075761Y-134833523D01*
X177123380Y-134690666D01*
X177123380Y-134595428D01*
X177075761Y-134452571D01*
X176980523Y-134357333D01*
X176885285Y-134309714D01*
X176694809Y-134262095D01*
X176551952Y-134262095D01*
X176361476Y-134309714D01*
X176266238Y-134357333D01*
X176171000Y-134452571D01*
X176123380Y-134595428D01*
X176123380Y-134690666D01*
X176171000Y-134833523D01*
X176218619Y-134881142D01*
X176218619Y-135262095D02*
X176171000Y-135309714D01*
X176123380Y-135404952D01*
X176123380Y-135643047D01*
X176171000Y-135738285D01*
X176218619Y-135785904D01*
X176313857Y-135833523D01*
X176409095Y-135833523D01*
X176551952Y-135785904D01*
X177123380Y-135214476D01*
X177123380Y-135833523D01*
X176123380Y-136452571D02*
X176123380Y-136547809D01*
X176171000Y-136643047D01*
X176218619Y-136690666D01*
X176313857Y-136738285D01*
X176504333Y-136785904D01*
X176742428Y-136785904D01*
X176932904Y-136738285D01*
X177028142Y-136690666D01*
X177075761Y-136643047D01*
X177123380Y-136547809D01*
X177123380Y-136452571D01*
X177075761Y-136357333D01*
X177028142Y-136309714D01*
X176932904Y-136262095D01*
X176742428Y-136214476D01*
X176504333Y-136214476D01*
X176313857Y-136262095D01*
X176218619Y-136309714D01*
X176171000Y-136357333D01*
X176123380Y-136452571D01*
%TO.C,Q2*%
X156474238Y-115465619D02*
X156569476Y-115418000D01*
X156664714Y-115322761D01*
X156807571Y-115179904D01*
X156902809Y-115132285D01*
X156998047Y-115132285D01*
X156950428Y-115370380D02*
X157045666Y-115322761D01*
X157140904Y-115227523D01*
X157188523Y-115037047D01*
X157188523Y-114703714D01*
X157140904Y-114513238D01*
X157045666Y-114418000D01*
X156950428Y-114370380D01*
X156759952Y-114370380D01*
X156664714Y-114418000D01*
X156569476Y-114513238D01*
X156521857Y-114703714D01*
X156521857Y-115037047D01*
X156569476Y-115227523D01*
X156664714Y-115322761D01*
X156759952Y-115370380D01*
X156950428Y-115370380D01*
X156140904Y-114465619D02*
X156093285Y-114418000D01*
X155998047Y-114370380D01*
X155759952Y-114370380D01*
X155664714Y-114418000D01*
X155617095Y-114465619D01*
X155569476Y-114560857D01*
X155569476Y-114656095D01*
X155617095Y-114798952D01*
X156188523Y-115370380D01*
X155569476Y-115370380D01*
%TO.C,R1*%
X161641666Y-125338380D02*
X161975000Y-124862190D01*
X162213095Y-125338380D02*
X162213095Y-124338380D01*
X161832142Y-124338380D01*
X161736904Y-124386000D01*
X161689285Y-124433619D01*
X161641666Y-124528857D01*
X161641666Y-124671714D01*
X161689285Y-124766952D01*
X161736904Y-124814571D01*
X161832142Y-124862190D01*
X162213095Y-124862190D01*
X160689285Y-125338380D02*
X161260714Y-125338380D01*
X160975000Y-125338380D02*
X160975000Y-124338380D01*
X161070238Y-124481238D01*
X161165476Y-124576476D01*
X161260714Y-124624095D01*
%TO.C,R16*%
X162915857Y-86666380D02*
X163249190Y-86190190D01*
X163487285Y-86666380D02*
X163487285Y-85666380D01*
X163106333Y-85666380D01*
X163011095Y-85714000D01*
X162963476Y-85761619D01*
X162915857Y-85856857D01*
X162915857Y-85999714D01*
X162963476Y-86094952D01*
X163011095Y-86142571D01*
X163106333Y-86190190D01*
X163487285Y-86190190D01*
X161963476Y-86666380D02*
X162534904Y-86666380D01*
X162249190Y-86666380D02*
X162249190Y-85666380D01*
X162344428Y-85809238D01*
X162439666Y-85904476D01*
X162534904Y-85952095D01*
X161106333Y-85666380D02*
X161296809Y-85666380D01*
X161392047Y-85714000D01*
X161439666Y-85761619D01*
X161534904Y-85904476D01*
X161582523Y-86094952D01*
X161582523Y-86475904D01*
X161534904Y-86571142D01*
X161487285Y-86618761D01*
X161392047Y-86666380D01*
X161201571Y-86666380D01*
X161106333Y-86618761D01*
X161058714Y-86571142D01*
X161011095Y-86475904D01*
X161011095Y-86237809D01*
X161058714Y-86142571D01*
X161106333Y-86094952D01*
X161201571Y-86047333D01*
X161392047Y-86047333D01*
X161487285Y-86094952D01*
X161534904Y-86142571D01*
X161582523Y-86237809D01*
%TO.C,D1*%
X153128619Y-136334095D02*
X154128619Y-136334095D01*
X154128619Y-136096000D01*
X154081000Y-135953142D01*
X153985761Y-135857904D01*
X153890523Y-135810285D01*
X153700047Y-135762666D01*
X153557190Y-135762666D01*
X153366714Y-135810285D01*
X153271476Y-135857904D01*
X153176238Y-135953142D01*
X153128619Y-136096000D01*
X153128619Y-136334095D01*
X153128619Y-134810285D02*
X153128619Y-135381714D01*
X153128619Y-135096000D02*
X154128619Y-135096000D01*
X153985761Y-135191238D01*
X153890523Y-135286476D01*
X153842904Y-135381714D01*
%TO.C,R33*%
X142631857Y-136747380D02*
X142965190Y-136271190D01*
X143203285Y-136747380D02*
X143203285Y-135747380D01*
X142822333Y-135747380D01*
X142727095Y-135795000D01*
X142679476Y-135842619D01*
X142631857Y-135937857D01*
X142631857Y-136080714D01*
X142679476Y-136175952D01*
X142727095Y-136223571D01*
X142822333Y-136271190D01*
X143203285Y-136271190D01*
X142298523Y-135747380D02*
X141679476Y-135747380D01*
X142012809Y-136128333D01*
X141869952Y-136128333D01*
X141774714Y-136175952D01*
X141727095Y-136223571D01*
X141679476Y-136318809D01*
X141679476Y-136556904D01*
X141727095Y-136652142D01*
X141774714Y-136699761D01*
X141869952Y-136747380D01*
X142155666Y-136747380D01*
X142250904Y-136699761D01*
X142298523Y-136652142D01*
X141346142Y-135747380D02*
X140727095Y-135747380D01*
X141060428Y-136128333D01*
X140917571Y-136128333D01*
X140822333Y-136175952D01*
X140774714Y-136223571D01*
X140727095Y-136318809D01*
X140727095Y-136556904D01*
X140774714Y-136652142D01*
X140822333Y-136699761D01*
X140917571Y-136747380D01*
X141203285Y-136747380D01*
X141298523Y-136699761D01*
X141346142Y-136652142D01*
%TO.C,IC6*%
X128850809Y-104654619D02*
X128850809Y-105654619D01*
X129898428Y-104749857D02*
X129850809Y-104702238D01*
X129707952Y-104654619D01*
X129612714Y-104654619D01*
X129469857Y-104702238D01*
X129374619Y-104797476D01*
X129327000Y-104892714D01*
X129279380Y-105083190D01*
X129279380Y-105226047D01*
X129327000Y-105416523D01*
X129374619Y-105511761D01*
X129469857Y-105607000D01*
X129612714Y-105654619D01*
X129707952Y-105654619D01*
X129850809Y-105607000D01*
X129898428Y-105559380D01*
X130755571Y-105654619D02*
X130565095Y-105654619D01*
X130469857Y-105607000D01*
X130422238Y-105559380D01*
X130327000Y-105416523D01*
X130279380Y-105226047D01*
X130279380Y-104845095D01*
X130327000Y-104749857D01*
X130374619Y-104702238D01*
X130469857Y-104654619D01*
X130660333Y-104654619D01*
X130755571Y-104702238D01*
X130803190Y-104749857D01*
X130850809Y-104845095D01*
X130850809Y-105083190D01*
X130803190Y-105178428D01*
X130755571Y-105226047D01*
X130660333Y-105273666D01*
X130469857Y-105273666D01*
X130374619Y-105226047D01*
X130327000Y-105178428D01*
X130279380Y-105083190D01*
%TO.C,C6*%
X166938666Y-100800142D02*
X166986285Y-100847761D01*
X167129142Y-100895380D01*
X167224380Y-100895380D01*
X167367238Y-100847761D01*
X167462476Y-100752523D01*
X167510095Y-100657285D01*
X167557714Y-100466809D01*
X167557714Y-100323952D01*
X167510095Y-100133476D01*
X167462476Y-100038238D01*
X167367238Y-99943000D01*
X167224380Y-99895380D01*
X167129142Y-99895380D01*
X166986285Y-99943000D01*
X166938666Y-99990619D01*
X166081523Y-99895380D02*
X166272000Y-99895380D01*
X166367238Y-99943000D01*
X166414857Y-99990619D01*
X166510095Y-100133476D01*
X166557714Y-100323952D01*
X166557714Y-100704904D01*
X166510095Y-100800142D01*
X166462476Y-100847761D01*
X166367238Y-100895380D01*
X166176761Y-100895380D01*
X166081523Y-100847761D01*
X166033904Y-100800142D01*
X165986285Y-100704904D01*
X165986285Y-100466809D01*
X166033904Y-100371571D01*
X166081523Y-100323952D01*
X166176761Y-100276333D01*
X166367238Y-100276333D01*
X166462476Y-100323952D01*
X166510095Y-100371571D01*
X166557714Y-100466809D01*
%TO.C,R27*%
X175152380Y-134907142D02*
X174676190Y-134573809D01*
X175152380Y-134335714D02*
X174152380Y-134335714D01*
X174152380Y-134716666D01*
X174200000Y-134811904D01*
X174247619Y-134859523D01*
X174342857Y-134907142D01*
X174485714Y-134907142D01*
X174580952Y-134859523D01*
X174628571Y-134811904D01*
X174676190Y-134716666D01*
X174676190Y-134335714D01*
X174247619Y-135288095D02*
X174200000Y-135335714D01*
X174152380Y-135430952D01*
X174152380Y-135669047D01*
X174200000Y-135764285D01*
X174247619Y-135811904D01*
X174342857Y-135859523D01*
X174438095Y-135859523D01*
X174580952Y-135811904D01*
X175152380Y-135240476D01*
X175152380Y-135859523D01*
X174152380Y-136192857D02*
X174152380Y-136859523D01*
X175152380Y-136430952D01*
%TO.C,NR2*%
X168184619Y-74548904D02*
X169184619Y-74548904D01*
X168184619Y-73977476D01*
X169184619Y-73977476D01*
X168184619Y-72929857D02*
X168660809Y-73263190D01*
X168184619Y-73501285D02*
X169184619Y-73501285D01*
X169184619Y-73120333D01*
X169137000Y-73025095D01*
X169089380Y-72977476D01*
X168994142Y-72929857D01*
X168851285Y-72929857D01*
X168756047Y-72977476D01*
X168708428Y-73025095D01*
X168660809Y-73120333D01*
X168660809Y-73501285D01*
X169089380Y-72548904D02*
X169137000Y-72501285D01*
X169184619Y-72406047D01*
X169184619Y-72167952D01*
X169137000Y-72072714D01*
X169089380Y-72025095D01*
X168994142Y-71977476D01*
X168898904Y-71977476D01*
X168756047Y-72025095D01*
X168184619Y-72596523D01*
X168184619Y-71977476D01*
%TO.C,C15*%
X141583857Y-73977857D02*
X141536238Y-74025476D01*
X141488619Y-74168333D01*
X141488619Y-74263571D01*
X141536238Y-74406428D01*
X141631476Y-74501666D01*
X141726714Y-74549285D01*
X141917190Y-74596904D01*
X142060047Y-74596904D01*
X142250523Y-74549285D01*
X142345761Y-74501666D01*
X142441000Y-74406428D01*
X142488619Y-74263571D01*
X142488619Y-74168333D01*
X142441000Y-74025476D01*
X142393380Y-73977857D01*
X141488619Y-73025476D02*
X141488619Y-73596904D01*
X141488619Y-73311190D02*
X142488619Y-73311190D01*
X142345761Y-73406428D01*
X142250523Y-73501666D01*
X142202904Y-73596904D01*
X142488619Y-72120714D02*
X142488619Y-72596904D01*
X142012428Y-72644523D01*
X142060047Y-72596904D01*
X142107666Y-72501666D01*
X142107666Y-72263571D01*
X142060047Y-72168333D01*
X142012428Y-72120714D01*
X141917190Y-72073095D01*
X141679095Y-72073095D01*
X141583857Y-72120714D01*
X141536238Y-72168333D01*
X141488619Y-72263571D01*
X141488619Y-72501666D01*
X141536238Y-72596904D01*
X141583857Y-72644523D01*
%TO.C,R35*%
X140705619Y-132675857D02*
X141181809Y-133009190D01*
X140705619Y-133247285D02*
X141705619Y-133247285D01*
X141705619Y-132866333D01*
X141658000Y-132771095D01*
X141610380Y-132723476D01*
X141515142Y-132675857D01*
X141372285Y-132675857D01*
X141277047Y-132723476D01*
X141229428Y-132771095D01*
X141181809Y-132866333D01*
X141181809Y-133247285D01*
X141705619Y-132342523D02*
X141705619Y-131723476D01*
X141324666Y-132056809D01*
X141324666Y-131913952D01*
X141277047Y-131818714D01*
X141229428Y-131771095D01*
X141134190Y-131723476D01*
X140896095Y-131723476D01*
X140800857Y-131771095D01*
X140753238Y-131818714D01*
X140705619Y-131913952D01*
X140705619Y-132199666D01*
X140753238Y-132294904D01*
X140800857Y-132342523D01*
X141705619Y-130818714D02*
X141705619Y-131294904D01*
X141229428Y-131342523D01*
X141277047Y-131294904D01*
X141324666Y-131199666D01*
X141324666Y-130961571D01*
X141277047Y-130866333D01*
X141229428Y-130818714D01*
X141134190Y-130771095D01*
X140896095Y-130771095D01*
X140800857Y-130818714D01*
X140753238Y-130866333D01*
X140705619Y-130961571D01*
X140705619Y-131199666D01*
X140753238Y-131294904D01*
X140800857Y-131342523D01*
%TO.C,F1*%
X155204333Y-143263571D02*
X155537666Y-143263571D01*
X155537666Y-143787380D02*
X155537666Y-142787380D01*
X155061476Y-142787380D01*
X154156714Y-143787380D02*
X154728142Y-143787380D01*
X154442428Y-143787380D02*
X154442428Y-142787380D01*
X154537666Y-142930238D01*
X154632904Y-143025476D01*
X154728142Y-143073095D01*
%TO.C,R2*%
X166207666Y-124586380D02*
X166541000Y-124110190D01*
X166779095Y-124586380D02*
X166779095Y-123586380D01*
X166398142Y-123586380D01*
X166302904Y-123634000D01*
X166255285Y-123681619D01*
X166207666Y-123776857D01*
X166207666Y-123919714D01*
X166255285Y-124014952D01*
X166302904Y-124062571D01*
X166398142Y-124110190D01*
X166779095Y-124110190D01*
X165826714Y-123681619D02*
X165779095Y-123634000D01*
X165683857Y-123586380D01*
X165445761Y-123586380D01*
X165350523Y-123634000D01*
X165302904Y-123681619D01*
X165255285Y-123776857D01*
X165255285Y-123872095D01*
X165302904Y-124014952D01*
X165874333Y-124586380D01*
X165255285Y-124586380D01*
%TO.C,Q7*%
X128796238Y-123719619D02*
X128891476Y-123672000D01*
X128986714Y-123576761D01*
X129129571Y-123433904D01*
X129224809Y-123386285D01*
X129320047Y-123386285D01*
X129272428Y-123624380D02*
X129367666Y-123576761D01*
X129462904Y-123481523D01*
X129510523Y-123291047D01*
X129510523Y-122957714D01*
X129462904Y-122767238D01*
X129367666Y-122672000D01*
X129272428Y-122624380D01*
X129081952Y-122624380D01*
X128986714Y-122672000D01*
X128891476Y-122767238D01*
X128843857Y-122957714D01*
X128843857Y-123291047D01*
X128891476Y-123481523D01*
X128986714Y-123576761D01*
X129081952Y-123624380D01*
X129272428Y-123624380D01*
X128510523Y-122624380D02*
X127843857Y-122624380D01*
X128272428Y-123624380D01*
%TO.C,D5*%
X169910619Y-99128095D02*
X170910619Y-99128095D01*
X170910619Y-98890000D01*
X170863000Y-98747142D01*
X170767761Y-98651904D01*
X170672523Y-98604285D01*
X170482047Y-98556666D01*
X170339190Y-98556666D01*
X170148714Y-98604285D01*
X170053476Y-98651904D01*
X169958238Y-98747142D01*
X169910619Y-98890000D01*
X169910619Y-99128095D01*
X170910619Y-97651904D02*
X170910619Y-98128095D01*
X170434428Y-98175714D01*
X170482047Y-98128095D01*
X170529666Y-98032857D01*
X170529666Y-97794761D01*
X170482047Y-97699523D01*
X170434428Y-97651904D01*
X170339190Y-97604285D01*
X170101095Y-97604285D01*
X170005857Y-97651904D01*
X169958238Y-97699523D01*
X169910619Y-97794761D01*
X169910619Y-98032857D01*
X169958238Y-98128095D01*
X170005857Y-98175714D01*
%TO.C,Q10*%
X168290428Y-102911619D02*
X168385666Y-102864000D01*
X168480904Y-102768761D01*
X168623761Y-102625904D01*
X168719000Y-102578285D01*
X168814238Y-102578285D01*
X168766619Y-102816380D02*
X168861857Y-102768761D01*
X168957095Y-102673523D01*
X169004714Y-102483047D01*
X169004714Y-102149714D01*
X168957095Y-101959238D01*
X168861857Y-101864000D01*
X168766619Y-101816380D01*
X168576142Y-101816380D01*
X168480904Y-101864000D01*
X168385666Y-101959238D01*
X168338047Y-102149714D01*
X168338047Y-102483047D01*
X168385666Y-102673523D01*
X168480904Y-102768761D01*
X168576142Y-102816380D01*
X168766619Y-102816380D01*
X167385666Y-102816380D02*
X167957095Y-102816380D01*
X167671380Y-102816380D02*
X167671380Y-101816380D01*
X167766619Y-101959238D01*
X167861857Y-102054476D01*
X167957095Y-102102095D01*
X166766619Y-101816380D02*
X166671380Y-101816380D01*
X166576142Y-101864000D01*
X166528523Y-101911619D01*
X166480904Y-102006857D01*
X166433285Y-102197333D01*
X166433285Y-102435428D01*
X166480904Y-102625904D01*
X166528523Y-102721142D01*
X166576142Y-102768761D01*
X166671380Y-102816380D01*
X166766619Y-102816380D01*
X166861857Y-102768761D01*
X166909476Y-102721142D01*
X166957095Y-102625904D01*
X167004714Y-102435428D01*
X167004714Y-102197333D01*
X166957095Y-102006857D01*
X166909476Y-101911619D01*
X166861857Y-101864000D01*
X166766619Y-101816380D01*
%TO.C,NR4*%
X168100619Y-64932904D02*
X169100619Y-64932904D01*
X168100619Y-64361476D01*
X169100619Y-64361476D01*
X168100619Y-63313857D02*
X168576809Y-63647190D01*
X168100619Y-63885285D02*
X169100619Y-63885285D01*
X169100619Y-63504333D01*
X169053000Y-63409095D01*
X169005380Y-63361476D01*
X168910142Y-63313857D01*
X168767285Y-63313857D01*
X168672047Y-63361476D01*
X168624428Y-63409095D01*
X168576809Y-63504333D01*
X168576809Y-63885285D01*
X168767285Y-62456714D02*
X168100619Y-62456714D01*
X169148238Y-62694809D02*
X168433952Y-62932904D01*
X168433952Y-62313857D01*
%TO.C,R28*%
X161299857Y-109367380D02*
X161633190Y-108891190D01*
X161871285Y-109367380D02*
X161871285Y-108367380D01*
X161490333Y-108367380D01*
X161395095Y-108415000D01*
X161347476Y-108462619D01*
X161299857Y-108557857D01*
X161299857Y-108700714D01*
X161347476Y-108795952D01*
X161395095Y-108843571D01*
X161490333Y-108891190D01*
X161871285Y-108891190D01*
X160918904Y-108462619D02*
X160871285Y-108415000D01*
X160776047Y-108367380D01*
X160537952Y-108367380D01*
X160442714Y-108415000D01*
X160395095Y-108462619D01*
X160347476Y-108557857D01*
X160347476Y-108653095D01*
X160395095Y-108795952D01*
X160966523Y-109367380D01*
X160347476Y-109367380D01*
X159776047Y-108795952D02*
X159871285Y-108748333D01*
X159918904Y-108700714D01*
X159966523Y-108605476D01*
X159966523Y-108557857D01*
X159918904Y-108462619D01*
X159871285Y-108415000D01*
X159776047Y-108367380D01*
X159585571Y-108367380D01*
X159490333Y-108415000D01*
X159442714Y-108462619D01*
X159395095Y-108557857D01*
X159395095Y-108605476D01*
X159442714Y-108700714D01*
X159490333Y-108748333D01*
X159585571Y-108795952D01*
X159776047Y-108795952D01*
X159871285Y-108843571D01*
X159918904Y-108891190D01*
X159966523Y-108986428D01*
X159966523Y-109176904D01*
X159918904Y-109272142D01*
X159871285Y-109319761D01*
X159776047Y-109367380D01*
X159585571Y-109367380D01*
X159490333Y-109319761D01*
X159442714Y-109272142D01*
X159395095Y-109176904D01*
X159395095Y-108986428D01*
X159442714Y-108891190D01*
X159490333Y-108843571D01*
X159585571Y-108795952D01*
%TO.C,IC7*%
X172869190Y-72526380D02*
X172869190Y-71526380D01*
X171821571Y-72431142D02*
X171869190Y-72478761D01*
X172012047Y-72526380D01*
X172107285Y-72526380D01*
X172250142Y-72478761D01*
X172345380Y-72383523D01*
X172393000Y-72288285D01*
X172440619Y-72097809D01*
X172440619Y-71954952D01*
X172393000Y-71764476D01*
X172345380Y-71669238D01*
X172250142Y-71574000D01*
X172107285Y-71526380D01*
X172012047Y-71526380D01*
X171869190Y-71574000D01*
X171821571Y-71621619D01*
X171488238Y-71526380D02*
X170821571Y-71526380D01*
X171250142Y-72526380D01*
%TO.C,Q11*%
X168552428Y-89374619D02*
X168647666Y-89327000D01*
X168742904Y-89231761D01*
X168885761Y-89088904D01*
X168981000Y-89041285D01*
X169076238Y-89041285D01*
X169028619Y-89279380D02*
X169123857Y-89231761D01*
X169219095Y-89136523D01*
X169266714Y-88946047D01*
X169266714Y-88612714D01*
X169219095Y-88422238D01*
X169123857Y-88327000D01*
X169028619Y-88279380D01*
X168838142Y-88279380D01*
X168742904Y-88327000D01*
X168647666Y-88422238D01*
X168600047Y-88612714D01*
X168600047Y-88946047D01*
X168647666Y-89136523D01*
X168742904Y-89231761D01*
X168838142Y-89279380D01*
X169028619Y-89279380D01*
X167647666Y-89279380D02*
X168219095Y-89279380D01*
X167933380Y-89279380D02*
X167933380Y-88279380D01*
X168028619Y-88422238D01*
X168123857Y-88517476D01*
X168219095Y-88565095D01*
X166695285Y-89279380D02*
X167266714Y-89279380D01*
X166981000Y-89279380D02*
X166981000Y-88279380D01*
X167076238Y-88422238D01*
X167171476Y-88517476D01*
X167266714Y-88565095D01*
%TO.C,R22*%
X168957857Y-81849380D02*
X169291190Y-81373190D01*
X169529285Y-81849380D02*
X169529285Y-80849380D01*
X169148333Y-80849380D01*
X169053095Y-80897000D01*
X169005476Y-80944619D01*
X168957857Y-81039857D01*
X168957857Y-81182714D01*
X169005476Y-81277952D01*
X169053095Y-81325571D01*
X169148333Y-81373190D01*
X169529285Y-81373190D01*
X168576904Y-80944619D02*
X168529285Y-80897000D01*
X168434047Y-80849380D01*
X168195952Y-80849380D01*
X168100714Y-80897000D01*
X168053095Y-80944619D01*
X168005476Y-81039857D01*
X168005476Y-81135095D01*
X168053095Y-81277952D01*
X168624523Y-81849380D01*
X168005476Y-81849380D01*
X167624523Y-80944619D02*
X167576904Y-80897000D01*
X167481666Y-80849380D01*
X167243571Y-80849380D01*
X167148333Y-80897000D01*
X167100714Y-80944619D01*
X167053095Y-81039857D01*
X167053095Y-81135095D01*
X167100714Y-81277952D01*
X167672142Y-81849380D01*
X167053095Y-81849380D01*
%TO.C,TH1*%
X180392619Y-105057714D02*
X180392619Y-104486285D01*
X179392619Y-104772000D02*
X180392619Y-104772000D01*
X179392619Y-104152952D02*
X180392619Y-104152952D01*
X179916428Y-104152952D02*
X179916428Y-103581523D01*
X179392619Y-103581523D02*
X180392619Y-103581523D01*
X179392619Y-102581523D02*
X179392619Y-103152952D01*
X179392619Y-102867238D02*
X180392619Y-102867238D01*
X180249761Y-102962476D01*
X180154523Y-103057714D01*
X180106904Y-103152952D01*
%TO.C,R23*%
X173951619Y-90305857D02*
X174427809Y-90639190D01*
X173951619Y-90877285D02*
X174951619Y-90877285D01*
X174951619Y-90496333D01*
X174904000Y-90401095D01*
X174856380Y-90353476D01*
X174761142Y-90305857D01*
X174618285Y-90305857D01*
X174523047Y-90353476D01*
X174475428Y-90401095D01*
X174427809Y-90496333D01*
X174427809Y-90877285D01*
X174856380Y-89924904D02*
X174904000Y-89877285D01*
X174951619Y-89782047D01*
X174951619Y-89543952D01*
X174904000Y-89448714D01*
X174856380Y-89401095D01*
X174761142Y-89353476D01*
X174665904Y-89353476D01*
X174523047Y-89401095D01*
X173951619Y-89972523D01*
X173951619Y-89353476D01*
X174951619Y-89020142D02*
X174951619Y-88401095D01*
X174570666Y-88734428D01*
X174570666Y-88591571D01*
X174523047Y-88496333D01*
X174475428Y-88448714D01*
X174380190Y-88401095D01*
X174142095Y-88401095D01*
X174046857Y-88448714D01*
X173999238Y-88496333D01*
X173951619Y-88591571D01*
X173951619Y-88877285D01*
X173999238Y-88972523D01*
X174046857Y-89020142D01*
D11*
%TO.C,D1Diagram*%
X157006000Y-134908400D02*
X157755300Y-136059020D01*
X157006000Y-134908400D02*
X156205900Y-136059020D01*
X156205900Y-134908400D02*
X157806100Y-134908400D01*
X157006000Y-134908400D02*
X157006000Y-134006700D01*
X157755300Y-136059020D02*
X156205900Y-136059020D01*
X157006000Y-136059020D02*
X157006000Y-137057240D01*
%TO.C,D5Diagram*%
X172019000Y-98837600D02*
X172019000Y-99739300D01*
X172019000Y-98837600D02*
X171269700Y-97686980D01*
X172019000Y-97686980D02*
X172019000Y-96688760D01*
X171269700Y-97686980D02*
X172819100Y-97686980D01*
X172819100Y-98837600D02*
X171218900Y-98837600D01*
X172019000Y-98837600D02*
X172819100Y-97686980D01*
%TO.C,D3Diagram*%
X134384400Y-84075100D02*
X134384400Y-82474900D01*
X135535020Y-82525700D02*
X135535020Y-84075100D01*
X134384400Y-83275000D02*
X135535020Y-84075100D01*
X134384400Y-83275000D02*
X135535020Y-82525700D01*
X134384400Y-83275000D02*
X133482700Y-83275000D01*
X135535020Y-83275000D02*
X136533240Y-83275000D01*
%TD*%
M02*
