%TF.GenerationSoftware,KiCad,Pcbnew,(6.0.2)*%
%TF.CreationDate,2022-09-26T21:45:02-05:00*%
%TF.ProjectId,IF-GBP-02,49462d47-4250-42d3-9032-2e6b69636164,rev?*%
%TF.SameCoordinates,Original*%
%TF.FileFunction,Legend,Top*%
%TF.FilePolarity,Positive*%
%FSLAX46Y46*%
G04 Gerber Fmt 4.6, Leading zero omitted, Abs format (unit mm)*
G04 Created by KiCad (PCBNEW (6.0.2)) date 2022-09-26 21:45:02*
%MOMM*%
%LPD*%
G01*
G04 APERTURE LIST*
%ADD10C,0.150000*%
%ADD11C,0.100000*%
G04 APERTURE END LIST*
D10*
X136868000Y-120514000D02*
X137872000Y-120514000D01*
X136556000Y-124157000D02*
X136864000Y-124157000D01*
X137884000Y-119493000D02*
X138230000Y-119493000D01*
X138230000Y-121511000D02*
X137884000Y-121511000D01*
X136561000Y-122347000D02*
X136869000Y-122347000D01*
X137884000Y-121511000D02*
X137884000Y-119493000D01*
X136864000Y-124157000D02*
X136868000Y-120514000D01*
X161069666Y-106046380D02*
X160498238Y-106046380D01*
X160783952Y-106046380D02*
X160783952Y-105046380D01*
X160688714Y-105189238D01*
X160593476Y-105284476D01*
X160498238Y-105332095D01*
X161498238Y-105665428D02*
X162260142Y-105665428D01*
X170510857Y-91347428D02*
X171272761Y-91347428D01*
X172272761Y-91728380D02*
X171701333Y-91728380D01*
X171987047Y-91728380D02*
X171987047Y-90728380D01*
X171891809Y-90871238D01*
X171796571Y-90966476D01*
X171701333Y-91014095D01*
X138893714Y-75170380D02*
X138322285Y-75170380D01*
X138608000Y-75170380D02*
X138608000Y-74170380D01*
X138512761Y-74313238D01*
X138417523Y-74408476D01*
X138322285Y-74456095D01*
X138608000Y-77113714D02*
X138608000Y-75685142D01*
X170207857Y-98652428D02*
X170969761Y-98652428D01*
X171969761Y-99033380D02*
X171398333Y-99033380D01*
X171684047Y-99033380D02*
X171684047Y-98033380D01*
X171588809Y-98176238D01*
X171493571Y-98271476D01*
X171398333Y-98319095D01*
%TO.C,NR3*%
X133513380Y-70872904D02*
X132513380Y-70872904D01*
X133513380Y-70301476D01*
X132513380Y-70301476D01*
X133513380Y-69253857D02*
X133037190Y-69587190D01*
X133513380Y-69825285D02*
X132513380Y-69825285D01*
X132513380Y-69444333D01*
X132561000Y-69349095D01*
X132608619Y-69301476D01*
X132703857Y-69253857D01*
X132846714Y-69253857D01*
X132941952Y-69301476D01*
X132989571Y-69349095D01*
X133037190Y-69444333D01*
X133037190Y-69825285D01*
X132513380Y-68920523D02*
X132513380Y-68301476D01*
X132894333Y-68634809D01*
X132894333Y-68491952D01*
X132941952Y-68396714D01*
X132989571Y-68349095D01*
X133084809Y-68301476D01*
X133322904Y-68301476D01*
X133418142Y-68349095D01*
X133465761Y-68396714D01*
X133513380Y-68491952D01*
X133513380Y-68777666D01*
X133465761Y-68872904D01*
X133418142Y-68920523D01*
%TO.C,R8*%
X140066333Y-112753380D02*
X139733000Y-112277190D01*
X139494904Y-112753380D02*
X139494904Y-111753380D01*
X139875857Y-111753380D01*
X139971095Y-111801000D01*
X140018714Y-111848619D01*
X140066333Y-111943857D01*
X140066333Y-112086714D01*
X140018714Y-112181952D01*
X139971095Y-112229571D01*
X139875857Y-112277190D01*
X139494904Y-112277190D01*
X140637761Y-112181952D02*
X140542523Y-112134333D01*
X140494904Y-112086714D01*
X140447285Y-111991476D01*
X140447285Y-111943857D01*
X140494904Y-111848619D01*
X140542523Y-111801000D01*
X140637761Y-111753380D01*
X140828238Y-111753380D01*
X140923476Y-111801000D01*
X140971095Y-111848619D01*
X141018714Y-111943857D01*
X141018714Y-111991476D01*
X140971095Y-112086714D01*
X140923476Y-112134333D01*
X140828238Y-112181952D01*
X140637761Y-112181952D01*
X140542523Y-112229571D01*
X140494904Y-112277190D01*
X140447285Y-112372428D01*
X140447285Y-112562904D01*
X140494904Y-112658142D01*
X140542523Y-112705761D01*
X140637761Y-112753380D01*
X140828238Y-112753380D01*
X140923476Y-112705761D01*
X140971095Y-112658142D01*
X141018714Y-112562904D01*
X141018714Y-112372428D01*
X140971095Y-112277190D01*
X140923476Y-112229571D01*
X140828238Y-112181952D01*
%TO.C,X1*%
X159606476Y-80834380D02*
X160273142Y-81834380D01*
X160273142Y-80834380D02*
X159606476Y-81834380D01*
X161177904Y-81834380D02*
X160606476Y-81834380D01*
X160892190Y-81834380D02*
X160892190Y-80834380D01*
X160796952Y-80977238D01*
X160701714Y-81072476D01*
X160606476Y-81120095D01*
%TO.C,R14*%
X139314142Y-97498380D02*
X138980809Y-97022190D01*
X138742714Y-97498380D02*
X138742714Y-96498380D01*
X139123666Y-96498380D01*
X139218904Y-96546000D01*
X139266523Y-96593619D01*
X139314142Y-96688857D01*
X139314142Y-96831714D01*
X139266523Y-96926952D01*
X139218904Y-96974571D01*
X139123666Y-97022190D01*
X138742714Y-97022190D01*
X140266523Y-97498380D02*
X139695095Y-97498380D01*
X139980809Y-97498380D02*
X139980809Y-96498380D01*
X139885571Y-96641238D01*
X139790333Y-96736476D01*
X139695095Y-96784095D01*
X141123666Y-96831714D02*
X141123666Y-97498380D01*
X140885571Y-96450761D02*
X140647476Y-97165047D01*
X141266523Y-97165047D01*
%TO.C,C16*%
X165986142Y-74101142D02*
X165938523Y-74148761D01*
X165795666Y-74196380D01*
X165700428Y-74196380D01*
X165557571Y-74148761D01*
X165462333Y-74053523D01*
X165414714Y-73958285D01*
X165367095Y-73767809D01*
X165367095Y-73624952D01*
X165414714Y-73434476D01*
X165462333Y-73339238D01*
X165557571Y-73244000D01*
X165700428Y-73196380D01*
X165795666Y-73196380D01*
X165938523Y-73244000D01*
X165986142Y-73291619D01*
X166938523Y-74196380D02*
X166367095Y-74196380D01*
X166652809Y-74196380D02*
X166652809Y-73196380D01*
X166557571Y-73339238D01*
X166462333Y-73434476D01*
X166367095Y-73482095D01*
X167795666Y-73196380D02*
X167605190Y-73196380D01*
X167509952Y-73244000D01*
X167462333Y-73291619D01*
X167367095Y-73434476D01*
X167319476Y-73624952D01*
X167319476Y-74005904D01*
X167367095Y-74101142D01*
X167414714Y-74148761D01*
X167509952Y-74196380D01*
X167700428Y-74196380D01*
X167795666Y-74148761D01*
X167843285Y-74101142D01*
X167890904Y-74005904D01*
X167890904Y-73767809D01*
X167843285Y-73672571D01*
X167795666Y-73624952D01*
X167700428Y-73577333D01*
X167509952Y-73577333D01*
X167414714Y-73624952D01*
X167367095Y-73672571D01*
X167319476Y-73767809D01*
%TO.C,R17*%
X141778380Y-93217857D02*
X141302190Y-93551190D01*
X141778380Y-93789285D02*
X140778380Y-93789285D01*
X140778380Y-93408333D01*
X140826000Y-93313095D01*
X140873619Y-93265476D01*
X140968857Y-93217857D01*
X141111714Y-93217857D01*
X141206952Y-93265476D01*
X141254571Y-93313095D01*
X141302190Y-93408333D01*
X141302190Y-93789285D01*
X141778380Y-92265476D02*
X141778380Y-92836904D01*
X141778380Y-92551190D02*
X140778380Y-92551190D01*
X140921238Y-92646428D01*
X141016476Y-92741666D01*
X141064095Y-92836904D01*
X140778380Y-91932142D02*
X140778380Y-91265476D01*
X141778380Y-91694047D01*
%TO.C,NR1*%
X133495380Y-78204904D02*
X132495380Y-78204904D01*
X133495380Y-77633476D01*
X132495380Y-77633476D01*
X133495380Y-76585857D02*
X133019190Y-76919190D01*
X133495380Y-77157285D02*
X132495380Y-77157285D01*
X132495380Y-76776333D01*
X132543000Y-76681095D01*
X132590619Y-76633476D01*
X132685857Y-76585857D01*
X132828714Y-76585857D01*
X132923952Y-76633476D01*
X132971571Y-76681095D01*
X133019190Y-76776333D01*
X133019190Y-77157285D01*
X133495380Y-75633476D02*
X133495380Y-76204904D01*
X133495380Y-75919190D02*
X132495380Y-75919190D01*
X132638238Y-76014428D01*
X132733476Y-76109666D01*
X132781095Y-76204904D01*
%TO.C,R24*%
X179359142Y-134143380D02*
X179025809Y-133667190D01*
X178787714Y-134143380D02*
X178787714Y-133143380D01*
X179168666Y-133143380D01*
X179263904Y-133191000D01*
X179311523Y-133238619D01*
X179359142Y-133333857D01*
X179359142Y-133476714D01*
X179311523Y-133571952D01*
X179263904Y-133619571D01*
X179168666Y-133667190D01*
X178787714Y-133667190D01*
X179740095Y-133238619D02*
X179787714Y-133191000D01*
X179882952Y-133143380D01*
X180121047Y-133143380D01*
X180216285Y-133191000D01*
X180263904Y-133238619D01*
X180311523Y-133333857D01*
X180311523Y-133429095D01*
X180263904Y-133571952D01*
X179692476Y-134143380D01*
X180311523Y-134143380D01*
X181168666Y-133476714D02*
X181168666Y-134143380D01*
X180930571Y-133095761D02*
X180692476Y-133810047D01*
X181311523Y-133810047D01*
%TO.C,C5*%
X152286142Y-118346666D02*
X152333761Y-118394285D01*
X152381380Y-118537142D01*
X152381380Y-118632380D01*
X152333761Y-118775238D01*
X152238523Y-118870476D01*
X152143285Y-118918095D01*
X151952809Y-118965714D01*
X151809952Y-118965714D01*
X151619476Y-118918095D01*
X151524238Y-118870476D01*
X151429000Y-118775238D01*
X151381380Y-118632380D01*
X151381380Y-118537142D01*
X151429000Y-118394285D01*
X151476619Y-118346666D01*
X151381380Y-117441904D02*
X151381380Y-117918095D01*
X151857571Y-117965714D01*
X151809952Y-117918095D01*
X151762333Y-117822857D01*
X151762333Y-117584761D01*
X151809952Y-117489523D01*
X151857571Y-117441904D01*
X151952809Y-117394285D01*
X152190904Y-117394285D01*
X152286142Y-117441904D01*
X152333761Y-117489523D01*
X152381380Y-117584761D01*
X152381380Y-117822857D01*
X152333761Y-117918095D01*
X152286142Y-117965714D01*
%TO.C,R10*%
X161374142Y-120290380D02*
X161040809Y-119814190D01*
X160802714Y-120290380D02*
X160802714Y-119290380D01*
X161183666Y-119290380D01*
X161278904Y-119338000D01*
X161326523Y-119385619D01*
X161374142Y-119480857D01*
X161374142Y-119623714D01*
X161326523Y-119718952D01*
X161278904Y-119766571D01*
X161183666Y-119814190D01*
X160802714Y-119814190D01*
X162326523Y-120290380D02*
X161755095Y-120290380D01*
X162040809Y-120290380D02*
X162040809Y-119290380D01*
X161945571Y-119433238D01*
X161850333Y-119528476D01*
X161755095Y-119576095D01*
X162945571Y-119290380D02*
X163040809Y-119290380D01*
X163136047Y-119338000D01*
X163183666Y-119385619D01*
X163231285Y-119480857D01*
X163278904Y-119671333D01*
X163278904Y-119909428D01*
X163231285Y-120099904D01*
X163183666Y-120195142D01*
X163136047Y-120242761D01*
X163040809Y-120290380D01*
X162945571Y-120290380D01*
X162850333Y-120242761D01*
X162802714Y-120195142D01*
X162755095Y-120099904D01*
X162707476Y-119909428D01*
X162707476Y-119671333D01*
X162755095Y-119480857D01*
X162802714Y-119385619D01*
X162850333Y-119338000D01*
X162945571Y-119290380D01*
%TO.C,IC5*%
X169675809Y-90277380D02*
X169675809Y-89277380D01*
X170723428Y-90182142D02*
X170675809Y-90229761D01*
X170532952Y-90277380D01*
X170437714Y-90277380D01*
X170294857Y-90229761D01*
X170199619Y-90134523D01*
X170152000Y-90039285D01*
X170104380Y-89848809D01*
X170104380Y-89705952D01*
X170152000Y-89515476D01*
X170199619Y-89420238D01*
X170294857Y-89325000D01*
X170437714Y-89277380D01*
X170532952Y-89277380D01*
X170675809Y-89325000D01*
X170723428Y-89372619D01*
X171628190Y-89277380D02*
X171152000Y-89277380D01*
X171104380Y-89753571D01*
X171152000Y-89705952D01*
X171247238Y-89658333D01*
X171485333Y-89658333D01*
X171580571Y-89705952D01*
X171628190Y-89753571D01*
X171675809Y-89848809D01*
X171675809Y-90086904D01*
X171628190Y-90182142D01*
X171580571Y-90229761D01*
X171485333Y-90277380D01*
X171247238Y-90277380D01*
X171152000Y-90229761D01*
X171104380Y-90182142D01*
%TO.C,R13*%
X127352380Y-103900857D02*
X126876190Y-104234190D01*
X127352380Y-104472285D02*
X126352380Y-104472285D01*
X126352380Y-104091333D01*
X126400000Y-103996095D01*
X126447619Y-103948476D01*
X126542857Y-103900857D01*
X126685714Y-103900857D01*
X126780952Y-103948476D01*
X126828571Y-103996095D01*
X126876190Y-104091333D01*
X126876190Y-104472285D01*
X127352380Y-102948476D02*
X127352380Y-103519904D01*
X127352380Y-103234190D02*
X126352380Y-103234190D01*
X126495238Y-103329428D01*
X126590476Y-103424666D01*
X126638095Y-103519904D01*
X126352380Y-102615142D02*
X126352380Y-101996095D01*
X126733333Y-102329428D01*
X126733333Y-102186571D01*
X126780952Y-102091333D01*
X126828571Y-102043714D01*
X126923809Y-101996095D01*
X127161904Y-101996095D01*
X127257142Y-102043714D01*
X127304761Y-102091333D01*
X127352380Y-102186571D01*
X127352380Y-102472285D01*
X127304761Y-102567523D01*
X127257142Y-102615142D01*
%TO.C,R9*%
X158431380Y-129262666D02*
X157955190Y-129596000D01*
X158431380Y-129834095D02*
X157431380Y-129834095D01*
X157431380Y-129453142D01*
X157479000Y-129357904D01*
X157526619Y-129310285D01*
X157621857Y-129262666D01*
X157764714Y-129262666D01*
X157859952Y-129310285D01*
X157907571Y-129357904D01*
X157955190Y-129453142D01*
X157955190Y-129834095D01*
X158431380Y-128786476D02*
X158431380Y-128596000D01*
X158383761Y-128500761D01*
X158336142Y-128453142D01*
X158193285Y-128357904D01*
X158002809Y-128310285D01*
X157621857Y-128310285D01*
X157526619Y-128357904D01*
X157479000Y-128405523D01*
X157431380Y-128500761D01*
X157431380Y-128691238D01*
X157479000Y-128786476D01*
X157526619Y-128834095D01*
X157621857Y-128881714D01*
X157859952Y-128881714D01*
X157955190Y-128834095D01*
X158002809Y-128786476D01*
X158050428Y-128691238D01*
X158050428Y-128500761D01*
X158002809Y-128405523D01*
X157955190Y-128357904D01*
X157859952Y-128310285D01*
%TO.C,C19*%
X182939142Y-110643857D02*
X182986761Y-110691476D01*
X183034380Y-110834333D01*
X183034380Y-110929571D01*
X182986761Y-111072428D01*
X182891523Y-111167666D01*
X182796285Y-111215285D01*
X182605809Y-111262904D01*
X182462952Y-111262904D01*
X182272476Y-111215285D01*
X182177238Y-111167666D01*
X182082000Y-111072428D01*
X182034380Y-110929571D01*
X182034380Y-110834333D01*
X182082000Y-110691476D01*
X182129619Y-110643857D01*
X183034380Y-109691476D02*
X183034380Y-110262904D01*
X183034380Y-109977190D02*
X182034380Y-109977190D01*
X182177238Y-110072428D01*
X182272476Y-110167666D01*
X182320095Y-110262904D01*
X183034380Y-109215285D02*
X183034380Y-109024809D01*
X182986761Y-108929571D01*
X182939142Y-108881952D01*
X182796285Y-108786714D01*
X182605809Y-108739095D01*
X182224857Y-108739095D01*
X182129619Y-108786714D01*
X182082000Y-108834333D01*
X182034380Y-108929571D01*
X182034380Y-109120047D01*
X182082000Y-109215285D01*
X182129619Y-109262904D01*
X182224857Y-109310523D01*
X182462952Y-109310523D01*
X182558190Y-109262904D01*
X182605809Y-109215285D01*
X182653428Y-109120047D01*
X182653428Y-108929571D01*
X182605809Y-108834333D01*
X182558190Y-108786714D01*
X182462952Y-108739095D01*
%TO.C,R3*%
X135453333Y-122916380D02*
X135120000Y-122440190D01*
X134881904Y-122916380D02*
X134881904Y-121916380D01*
X135262857Y-121916380D01*
X135358095Y-121964000D01*
X135405714Y-122011619D01*
X135453333Y-122106857D01*
X135453333Y-122249714D01*
X135405714Y-122344952D01*
X135358095Y-122392571D01*
X135262857Y-122440190D01*
X134881904Y-122440190D01*
X135786666Y-121916380D02*
X136405714Y-121916380D01*
X136072380Y-122297333D01*
X136215238Y-122297333D01*
X136310476Y-122344952D01*
X136358095Y-122392571D01*
X136405714Y-122487809D01*
X136405714Y-122725904D01*
X136358095Y-122821142D01*
X136310476Y-122868761D01*
X136215238Y-122916380D01*
X135929523Y-122916380D01*
X135834285Y-122868761D01*
X135786666Y-122821142D01*
%TO.C,R6*%
X124145619Y-122133333D02*
X124621809Y-121800000D01*
X124145619Y-121561904D02*
X125145619Y-121561904D01*
X125145619Y-121942857D01*
X125098000Y-122038095D01*
X125050380Y-122085714D01*
X124955142Y-122133333D01*
X124812285Y-122133333D01*
X124717047Y-122085714D01*
X124669428Y-122038095D01*
X124621809Y-121942857D01*
X124621809Y-121561904D01*
X125145619Y-122990476D02*
X125145619Y-122800000D01*
X125098000Y-122704761D01*
X125050380Y-122657142D01*
X124907523Y-122561904D01*
X124717047Y-122514285D01*
X124336095Y-122514285D01*
X124240857Y-122561904D01*
X124193238Y-122609523D01*
X124145619Y-122704761D01*
X124145619Y-122895238D01*
X124193238Y-122990476D01*
X124240857Y-123038095D01*
X124336095Y-123085714D01*
X124574190Y-123085714D01*
X124669428Y-123038095D01*
X124717047Y-122990476D01*
X124764666Y-122895238D01*
X124764666Y-122704761D01*
X124717047Y-122609523D01*
X124669428Y-122561904D01*
X124574190Y-122514285D01*
%TO.C,D3*%
X166014904Y-80448380D02*
X166014904Y-79448380D01*
X166253000Y-79448380D01*
X166395857Y-79496000D01*
X166491095Y-79591238D01*
X166538714Y-79686476D01*
X166586333Y-79876952D01*
X166586333Y-80019809D01*
X166538714Y-80210285D01*
X166491095Y-80305523D01*
X166395857Y-80400761D01*
X166253000Y-80448380D01*
X166014904Y-80448380D01*
X166919666Y-79448380D02*
X167538714Y-79448380D01*
X167205380Y-79829333D01*
X167348238Y-79829333D01*
X167443476Y-79876952D01*
X167491095Y-79924571D01*
X167538714Y-80019809D01*
X167538714Y-80257904D01*
X167491095Y-80353142D01*
X167443476Y-80400761D01*
X167348238Y-80448380D01*
X167062523Y-80448380D01*
X166967285Y-80400761D01*
X166919666Y-80353142D01*
%TO.C,R5*%
X147370333Y-119964380D02*
X147037000Y-119488190D01*
X146798904Y-119964380D02*
X146798904Y-118964380D01*
X147179857Y-118964380D01*
X147275095Y-119012000D01*
X147322714Y-119059619D01*
X147370333Y-119154857D01*
X147370333Y-119297714D01*
X147322714Y-119392952D01*
X147275095Y-119440571D01*
X147179857Y-119488190D01*
X146798904Y-119488190D01*
X148275095Y-118964380D02*
X147798904Y-118964380D01*
X147751285Y-119440571D01*
X147798904Y-119392952D01*
X147894142Y-119345333D01*
X148132238Y-119345333D01*
X148227476Y-119392952D01*
X148275095Y-119440571D01*
X148322714Y-119535809D01*
X148322714Y-119773904D01*
X148275095Y-119869142D01*
X148227476Y-119916761D01*
X148132238Y-119964380D01*
X147894142Y-119964380D01*
X147798904Y-119916761D01*
X147751285Y-119869142D01*
%TO.C,IC1*%
X161540809Y-124579380D02*
X161540809Y-123579380D01*
X162588428Y-124484142D02*
X162540809Y-124531761D01*
X162397952Y-124579380D01*
X162302714Y-124579380D01*
X162159857Y-124531761D01*
X162064619Y-124436523D01*
X162017000Y-124341285D01*
X161969380Y-124150809D01*
X161969380Y-124007952D01*
X162017000Y-123817476D01*
X162064619Y-123722238D01*
X162159857Y-123627000D01*
X162302714Y-123579380D01*
X162397952Y-123579380D01*
X162540809Y-123627000D01*
X162588428Y-123674619D01*
X163540809Y-124579380D02*
X162969380Y-124579380D01*
X163255095Y-124579380D02*
X163255095Y-123579380D01*
X163159857Y-123722238D01*
X163064619Y-123817476D01*
X162969380Y-123865095D01*
%TO.C,C14*%
X170304142Y-118192142D02*
X170256523Y-118239761D01*
X170113666Y-118287380D01*
X170018428Y-118287380D01*
X169875571Y-118239761D01*
X169780333Y-118144523D01*
X169732714Y-118049285D01*
X169685095Y-117858809D01*
X169685095Y-117715952D01*
X169732714Y-117525476D01*
X169780333Y-117430238D01*
X169875571Y-117335000D01*
X170018428Y-117287380D01*
X170113666Y-117287380D01*
X170256523Y-117335000D01*
X170304142Y-117382619D01*
X171256523Y-118287380D02*
X170685095Y-118287380D01*
X170970809Y-118287380D02*
X170970809Y-117287380D01*
X170875571Y-117430238D01*
X170780333Y-117525476D01*
X170685095Y-117573095D01*
X172113666Y-117620714D02*
X172113666Y-118287380D01*
X171875571Y-117239761D02*
X171637476Y-117954047D01*
X172256523Y-117954047D01*
%TO.C,R32*%
X132927142Y-106777380D02*
X132593809Y-106301190D01*
X132355714Y-106777380D02*
X132355714Y-105777380D01*
X132736666Y-105777380D01*
X132831904Y-105825000D01*
X132879523Y-105872619D01*
X132927142Y-105967857D01*
X132927142Y-106110714D01*
X132879523Y-106205952D01*
X132831904Y-106253571D01*
X132736666Y-106301190D01*
X132355714Y-106301190D01*
X133260476Y-105777380D02*
X133879523Y-105777380D01*
X133546190Y-106158333D01*
X133689047Y-106158333D01*
X133784285Y-106205952D01*
X133831904Y-106253571D01*
X133879523Y-106348809D01*
X133879523Y-106586904D01*
X133831904Y-106682142D01*
X133784285Y-106729761D01*
X133689047Y-106777380D01*
X133403333Y-106777380D01*
X133308095Y-106729761D01*
X133260476Y-106682142D01*
X134260476Y-105872619D02*
X134308095Y-105825000D01*
X134403333Y-105777380D01*
X134641428Y-105777380D01*
X134736666Y-105825000D01*
X134784285Y-105872619D01*
X134831904Y-105967857D01*
X134831904Y-106063095D01*
X134784285Y-106205952D01*
X134212857Y-106777380D01*
X134831904Y-106777380D01*
%TO.C,Q3*%
X136860761Y-115688619D02*
X136765523Y-115641000D01*
X136670285Y-115545761D01*
X136527428Y-115402904D01*
X136432190Y-115355285D01*
X136336952Y-115355285D01*
X136384571Y-115593380D02*
X136289333Y-115545761D01*
X136194095Y-115450523D01*
X136146476Y-115260047D01*
X136146476Y-114926714D01*
X136194095Y-114736238D01*
X136289333Y-114641000D01*
X136384571Y-114593380D01*
X136575047Y-114593380D01*
X136670285Y-114641000D01*
X136765523Y-114736238D01*
X136813142Y-114926714D01*
X136813142Y-115260047D01*
X136765523Y-115450523D01*
X136670285Y-115545761D01*
X136575047Y-115593380D01*
X136384571Y-115593380D01*
X137146476Y-114593380D02*
X137765523Y-114593380D01*
X137432190Y-114974333D01*
X137575047Y-114974333D01*
X137670285Y-115021952D01*
X137717904Y-115069571D01*
X137765523Y-115164809D01*
X137765523Y-115402904D01*
X137717904Y-115498142D01*
X137670285Y-115545761D01*
X137575047Y-115593380D01*
X137289333Y-115593380D01*
X137194095Y-115545761D01*
X137146476Y-115498142D01*
%TO.C,C17*%
X153305142Y-112922142D02*
X153257523Y-112969761D01*
X153114666Y-113017380D01*
X153019428Y-113017380D01*
X152876571Y-112969761D01*
X152781333Y-112874523D01*
X152733714Y-112779285D01*
X152686095Y-112588809D01*
X152686095Y-112445952D01*
X152733714Y-112255476D01*
X152781333Y-112160238D01*
X152876571Y-112065000D01*
X153019428Y-112017380D01*
X153114666Y-112017380D01*
X153257523Y-112065000D01*
X153305142Y-112112619D01*
X154257523Y-113017380D02*
X153686095Y-113017380D01*
X153971809Y-113017380D02*
X153971809Y-112017380D01*
X153876571Y-112160238D01*
X153781333Y-112255476D01*
X153686095Y-112303095D01*
X154590857Y-112017380D02*
X155257523Y-112017380D01*
X154828952Y-113017380D01*
%TO.C,R30*%
X140299142Y-105216380D02*
X139965809Y-104740190D01*
X139727714Y-105216380D02*
X139727714Y-104216380D01*
X140108666Y-104216380D01*
X140203904Y-104264000D01*
X140251523Y-104311619D01*
X140299142Y-104406857D01*
X140299142Y-104549714D01*
X140251523Y-104644952D01*
X140203904Y-104692571D01*
X140108666Y-104740190D01*
X139727714Y-104740190D01*
X140632476Y-104216380D02*
X141251523Y-104216380D01*
X140918190Y-104597333D01*
X141061047Y-104597333D01*
X141156285Y-104644952D01*
X141203904Y-104692571D01*
X141251523Y-104787809D01*
X141251523Y-105025904D01*
X141203904Y-105121142D01*
X141156285Y-105168761D01*
X141061047Y-105216380D01*
X140775333Y-105216380D01*
X140680095Y-105168761D01*
X140632476Y-105121142D01*
X141870571Y-104216380D02*
X141965809Y-104216380D01*
X142061047Y-104264000D01*
X142108666Y-104311619D01*
X142156285Y-104406857D01*
X142203904Y-104597333D01*
X142203904Y-104835428D01*
X142156285Y-105025904D01*
X142108666Y-105121142D01*
X142061047Y-105168761D01*
X141965809Y-105216380D01*
X141870571Y-105216380D01*
X141775333Y-105168761D01*
X141727714Y-105121142D01*
X141680095Y-105025904D01*
X141632476Y-104835428D01*
X141632476Y-104597333D01*
X141680095Y-104406857D01*
X141727714Y-104311619D01*
X141775333Y-104264000D01*
X141870571Y-104216380D01*
%TO.C,R34*%
X164550142Y-135876380D02*
X164216809Y-135400190D01*
X163978714Y-135876380D02*
X163978714Y-134876380D01*
X164359666Y-134876380D01*
X164454904Y-134924000D01*
X164502523Y-134971619D01*
X164550142Y-135066857D01*
X164550142Y-135209714D01*
X164502523Y-135304952D01*
X164454904Y-135352571D01*
X164359666Y-135400190D01*
X163978714Y-135400190D01*
X164883476Y-134876380D02*
X165502523Y-134876380D01*
X165169190Y-135257333D01*
X165312047Y-135257333D01*
X165407285Y-135304952D01*
X165454904Y-135352571D01*
X165502523Y-135447809D01*
X165502523Y-135685904D01*
X165454904Y-135781142D01*
X165407285Y-135828761D01*
X165312047Y-135876380D01*
X165026333Y-135876380D01*
X164931095Y-135828761D01*
X164883476Y-135781142D01*
X166359666Y-135209714D02*
X166359666Y-135876380D01*
X166121571Y-134828761D02*
X165883476Y-135543047D01*
X166502523Y-135543047D01*
%TO.C,R26*%
X128538619Y-134931142D02*
X129014809Y-134597809D01*
X128538619Y-134359714D02*
X129538619Y-134359714D01*
X129538619Y-134740666D01*
X129491000Y-134835904D01*
X129443380Y-134883523D01*
X129348142Y-134931142D01*
X129205285Y-134931142D01*
X129110047Y-134883523D01*
X129062428Y-134835904D01*
X129014809Y-134740666D01*
X129014809Y-134359714D01*
X129443380Y-135312095D02*
X129491000Y-135359714D01*
X129538619Y-135454952D01*
X129538619Y-135693047D01*
X129491000Y-135788285D01*
X129443380Y-135835904D01*
X129348142Y-135883523D01*
X129252904Y-135883523D01*
X129110047Y-135835904D01*
X128538619Y-135264476D01*
X128538619Y-135883523D01*
X129538619Y-136740666D02*
X129538619Y-136550190D01*
X129491000Y-136454952D01*
X129443380Y-136407333D01*
X129300523Y-136312095D01*
X129110047Y-136264476D01*
X128729095Y-136264476D01*
X128633857Y-136312095D01*
X128586238Y-136359714D01*
X128538619Y-136454952D01*
X128538619Y-136645428D01*
X128586238Y-136740666D01*
X128633857Y-136788285D01*
X128729095Y-136835904D01*
X128967190Y-136835904D01*
X129062428Y-136788285D01*
X129110047Y-136740666D01*
X129157666Y-136645428D01*
X129157666Y-136454952D01*
X129110047Y-136359714D01*
X129062428Y-136312095D01*
X128967190Y-136264476D01*
%TO.C,IC3*%
X145969809Y-72897380D02*
X145969809Y-71897380D01*
X147017428Y-72802142D02*
X146969809Y-72849761D01*
X146826952Y-72897380D01*
X146731714Y-72897380D01*
X146588857Y-72849761D01*
X146493619Y-72754523D01*
X146446000Y-72659285D01*
X146398380Y-72468809D01*
X146398380Y-72325952D01*
X146446000Y-72135476D01*
X146493619Y-72040238D01*
X146588857Y-71945000D01*
X146731714Y-71897380D01*
X146826952Y-71897380D01*
X146969809Y-71945000D01*
X147017428Y-71992619D01*
X147350761Y-71897380D02*
X147969809Y-71897380D01*
X147636476Y-72278333D01*
X147779333Y-72278333D01*
X147874571Y-72325952D01*
X147922190Y-72373571D01*
X147969809Y-72468809D01*
X147969809Y-72706904D01*
X147922190Y-72802142D01*
X147874571Y-72849761D01*
X147779333Y-72897380D01*
X147493619Y-72897380D01*
X147398380Y-72849761D01*
X147350761Y-72802142D01*
%TO.C,Q6*%
X167606761Y-122637619D02*
X167511523Y-122590000D01*
X167416285Y-122494761D01*
X167273428Y-122351904D01*
X167178190Y-122304285D01*
X167082952Y-122304285D01*
X167130571Y-122542380D02*
X167035333Y-122494761D01*
X166940095Y-122399523D01*
X166892476Y-122209047D01*
X166892476Y-121875714D01*
X166940095Y-121685238D01*
X167035333Y-121590000D01*
X167130571Y-121542380D01*
X167321047Y-121542380D01*
X167416285Y-121590000D01*
X167511523Y-121685238D01*
X167559142Y-121875714D01*
X167559142Y-122209047D01*
X167511523Y-122399523D01*
X167416285Y-122494761D01*
X167321047Y-122542380D01*
X167130571Y-122542380D01*
X168416285Y-121542380D02*
X168225809Y-121542380D01*
X168130571Y-121590000D01*
X168082952Y-121637619D01*
X167987714Y-121780476D01*
X167940095Y-121970952D01*
X167940095Y-122351904D01*
X167987714Y-122447142D01*
X168035333Y-122494761D01*
X168130571Y-122542380D01*
X168321047Y-122542380D01*
X168416285Y-122494761D01*
X168463904Y-122447142D01*
X168511523Y-122351904D01*
X168511523Y-122113809D01*
X168463904Y-122018571D01*
X168416285Y-121970952D01*
X168321047Y-121923333D01*
X168130571Y-121923333D01*
X168035333Y-121970952D01*
X167987714Y-122018571D01*
X167940095Y-122113809D01*
%TO.C,C12*%
X143519857Y-101792857D02*
X143484142Y-101828571D01*
X143377000Y-101864285D01*
X143305571Y-101864285D01*
X143198428Y-101828571D01*
X143127000Y-101757142D01*
X143091285Y-101685714D01*
X143055571Y-101542857D01*
X143055571Y-101435714D01*
X143091285Y-101292857D01*
X143127000Y-101221428D01*
X143198428Y-101150000D01*
X143305571Y-101114285D01*
X143377000Y-101114285D01*
X143484142Y-101150000D01*
X143519857Y-101185714D01*
X144234142Y-101864285D02*
X143805571Y-101864285D01*
X144019857Y-101864285D02*
X144019857Y-101114285D01*
X143948428Y-101221428D01*
X143877000Y-101292857D01*
X143805571Y-101328571D01*
X144519857Y-101185714D02*
X144555571Y-101150000D01*
X144627000Y-101114285D01*
X144805571Y-101114285D01*
X144877000Y-101150000D01*
X144912714Y-101185714D01*
X144948428Y-101257142D01*
X144948428Y-101328571D01*
X144912714Y-101435714D01*
X144484142Y-101864285D01*
X144948428Y-101864285D01*
%TO.C,R7*%
X136032380Y-118307666D02*
X135556190Y-118641000D01*
X136032380Y-118879095D02*
X135032380Y-118879095D01*
X135032380Y-118498142D01*
X135080000Y-118402904D01*
X135127619Y-118355285D01*
X135222857Y-118307666D01*
X135365714Y-118307666D01*
X135460952Y-118355285D01*
X135508571Y-118402904D01*
X135556190Y-118498142D01*
X135556190Y-118879095D01*
X135032380Y-117974333D02*
X135032380Y-117307666D01*
X136032380Y-117736238D01*
%TO.C,Q4*%
X128266761Y-84339619D02*
X128171523Y-84292000D01*
X128076285Y-84196761D01*
X127933428Y-84053904D01*
X127838190Y-84006285D01*
X127742952Y-84006285D01*
X127790571Y-84244380D02*
X127695333Y-84196761D01*
X127600095Y-84101523D01*
X127552476Y-83911047D01*
X127552476Y-83577714D01*
X127600095Y-83387238D01*
X127695333Y-83292000D01*
X127790571Y-83244380D01*
X127981047Y-83244380D01*
X128076285Y-83292000D01*
X128171523Y-83387238D01*
X128219142Y-83577714D01*
X128219142Y-83911047D01*
X128171523Y-84101523D01*
X128076285Y-84196761D01*
X127981047Y-84244380D01*
X127790571Y-84244380D01*
X129076285Y-83577714D02*
X129076285Y-84244380D01*
X128838190Y-83196761D02*
X128600095Y-83911047D01*
X129219142Y-83911047D01*
%TO.C,R36*%
X155669142Y-140200380D02*
X155335809Y-139724190D01*
X155097714Y-140200380D02*
X155097714Y-139200380D01*
X155478666Y-139200380D01*
X155573904Y-139248000D01*
X155621523Y-139295619D01*
X155669142Y-139390857D01*
X155669142Y-139533714D01*
X155621523Y-139628952D01*
X155573904Y-139676571D01*
X155478666Y-139724190D01*
X155097714Y-139724190D01*
X156002476Y-139200380D02*
X156621523Y-139200380D01*
X156288190Y-139581333D01*
X156431047Y-139581333D01*
X156526285Y-139628952D01*
X156573904Y-139676571D01*
X156621523Y-139771809D01*
X156621523Y-140009904D01*
X156573904Y-140105142D01*
X156526285Y-140152761D01*
X156431047Y-140200380D01*
X156145333Y-140200380D01*
X156050095Y-140152761D01*
X156002476Y-140105142D01*
X157478666Y-139200380D02*
X157288190Y-139200380D01*
X157192952Y-139248000D01*
X157145333Y-139295619D01*
X157050095Y-139438476D01*
X157002476Y-139628952D01*
X157002476Y-140009904D01*
X157050095Y-140105142D01*
X157097714Y-140152761D01*
X157192952Y-140200380D01*
X157383428Y-140200380D01*
X157478666Y-140152761D01*
X157526285Y-140105142D01*
X157573904Y-140009904D01*
X157573904Y-139771809D01*
X157526285Y-139676571D01*
X157478666Y-139628952D01*
X157383428Y-139581333D01*
X157192952Y-139581333D01*
X157097714Y-139628952D01*
X157050095Y-139676571D01*
X157002476Y-139771809D01*
%TO.C,Q9*%
X178743761Y-138482619D02*
X178648523Y-138435000D01*
X178553285Y-138339761D01*
X178410428Y-138196904D01*
X178315190Y-138149285D01*
X178219952Y-138149285D01*
X178267571Y-138387380D02*
X178172333Y-138339761D01*
X178077095Y-138244523D01*
X178029476Y-138054047D01*
X178029476Y-137720714D01*
X178077095Y-137530238D01*
X178172333Y-137435000D01*
X178267571Y-137387380D01*
X178458047Y-137387380D01*
X178553285Y-137435000D01*
X178648523Y-137530238D01*
X178696142Y-137720714D01*
X178696142Y-138054047D01*
X178648523Y-138244523D01*
X178553285Y-138339761D01*
X178458047Y-138387380D01*
X178267571Y-138387380D01*
X179172333Y-138387380D02*
X179362809Y-138387380D01*
X179458047Y-138339761D01*
X179505666Y-138292142D01*
X179600904Y-138149285D01*
X179648523Y-137958809D01*
X179648523Y-137577857D01*
X179600904Y-137482619D01*
X179553285Y-137435000D01*
X179458047Y-137387380D01*
X179267571Y-137387380D01*
X179172333Y-137435000D01*
X179124714Y-137482619D01*
X179077095Y-137577857D01*
X179077095Y-137815952D01*
X179124714Y-137911190D01*
X179172333Y-137958809D01*
X179267571Y-138006428D01*
X179458047Y-138006428D01*
X179553285Y-137958809D01*
X179600904Y-137911190D01*
X179648523Y-137815952D01*
%TO.C,Q14*%
X133103571Y-94985619D02*
X133008333Y-94938000D01*
X132913095Y-94842761D01*
X132770238Y-94699904D01*
X132675000Y-94652285D01*
X132579761Y-94652285D01*
X132627380Y-94890380D02*
X132532142Y-94842761D01*
X132436904Y-94747523D01*
X132389285Y-94557047D01*
X132389285Y-94223714D01*
X132436904Y-94033238D01*
X132532142Y-93938000D01*
X132627380Y-93890380D01*
X132817857Y-93890380D01*
X132913095Y-93938000D01*
X133008333Y-94033238D01*
X133055952Y-94223714D01*
X133055952Y-94557047D01*
X133008333Y-94747523D01*
X132913095Y-94842761D01*
X132817857Y-94890380D01*
X132627380Y-94890380D01*
X134008333Y-94890380D02*
X133436904Y-94890380D01*
X133722619Y-94890380D02*
X133722619Y-93890380D01*
X133627380Y-94033238D01*
X133532142Y-94128476D01*
X133436904Y-94176095D01*
X134865476Y-94223714D02*
X134865476Y-94890380D01*
X134627380Y-93842761D02*
X134389285Y-94557047D01*
X135008333Y-94557047D01*
%TO.C,C4*%
X152879142Y-126347666D02*
X152926761Y-126395285D01*
X152974380Y-126538142D01*
X152974380Y-126633380D01*
X152926761Y-126776238D01*
X152831523Y-126871476D01*
X152736285Y-126919095D01*
X152545809Y-126966714D01*
X152402952Y-126966714D01*
X152212476Y-126919095D01*
X152117238Y-126871476D01*
X152022000Y-126776238D01*
X151974380Y-126633380D01*
X151974380Y-126538142D01*
X152022000Y-126395285D01*
X152069619Y-126347666D01*
X152307714Y-125490523D02*
X152974380Y-125490523D01*
X151926761Y-125728619D02*
X152641047Y-125966714D01*
X152641047Y-125347666D01*
%TO.C,Q8*%
X166386761Y-130975619D02*
X166291523Y-130928000D01*
X166196285Y-130832761D01*
X166053428Y-130689904D01*
X165958190Y-130642285D01*
X165862952Y-130642285D01*
X165910571Y-130880380D02*
X165815333Y-130832761D01*
X165720095Y-130737523D01*
X165672476Y-130547047D01*
X165672476Y-130213714D01*
X165720095Y-130023238D01*
X165815333Y-129928000D01*
X165910571Y-129880380D01*
X166101047Y-129880380D01*
X166196285Y-129928000D01*
X166291523Y-130023238D01*
X166339142Y-130213714D01*
X166339142Y-130547047D01*
X166291523Y-130737523D01*
X166196285Y-130832761D01*
X166101047Y-130880380D01*
X165910571Y-130880380D01*
X166910571Y-130308952D02*
X166815333Y-130261333D01*
X166767714Y-130213714D01*
X166720095Y-130118476D01*
X166720095Y-130070857D01*
X166767714Y-129975619D01*
X166815333Y-129928000D01*
X166910571Y-129880380D01*
X167101047Y-129880380D01*
X167196285Y-129928000D01*
X167243904Y-129975619D01*
X167291523Y-130070857D01*
X167291523Y-130118476D01*
X167243904Y-130213714D01*
X167196285Y-130261333D01*
X167101047Y-130308952D01*
X166910571Y-130308952D01*
X166815333Y-130356571D01*
X166767714Y-130404190D01*
X166720095Y-130499428D01*
X166720095Y-130689904D01*
X166767714Y-130785142D01*
X166815333Y-130832761D01*
X166910571Y-130880380D01*
X167101047Y-130880380D01*
X167196285Y-130832761D01*
X167243904Y-130785142D01*
X167291523Y-130689904D01*
X167291523Y-130499428D01*
X167243904Y-130404190D01*
X167196285Y-130356571D01*
X167101047Y-130308952D01*
%TO.C,IC2*%
X154609809Y-95780380D02*
X154609809Y-94780380D01*
X155657428Y-95685142D02*
X155609809Y-95732761D01*
X155466952Y-95780380D01*
X155371714Y-95780380D01*
X155228857Y-95732761D01*
X155133619Y-95637523D01*
X155086000Y-95542285D01*
X155038380Y-95351809D01*
X155038380Y-95208952D01*
X155086000Y-95018476D01*
X155133619Y-94923238D01*
X155228857Y-94828000D01*
X155371714Y-94780380D01*
X155466952Y-94780380D01*
X155609809Y-94828000D01*
X155657428Y-94875619D01*
X156038380Y-94875619D02*
X156086000Y-94828000D01*
X156181238Y-94780380D01*
X156419333Y-94780380D01*
X156514571Y-94828000D01*
X156562190Y-94875619D01*
X156609809Y-94970857D01*
X156609809Y-95066095D01*
X156562190Y-95208952D01*
X155990761Y-95780380D01*
X156609809Y-95780380D01*
%TO.C,R11*%
X129368619Y-123695142D02*
X129844809Y-123361809D01*
X129368619Y-123123714D02*
X130368619Y-123123714D01*
X130368619Y-123504666D01*
X130321000Y-123599904D01*
X130273380Y-123647523D01*
X130178142Y-123695142D01*
X130035285Y-123695142D01*
X129940047Y-123647523D01*
X129892428Y-123599904D01*
X129844809Y-123504666D01*
X129844809Y-123123714D01*
X129368619Y-124647523D02*
X129368619Y-124076095D01*
X129368619Y-124361809D02*
X130368619Y-124361809D01*
X130225761Y-124266571D01*
X130130523Y-124171333D01*
X130082904Y-124076095D01*
X129368619Y-125599904D02*
X129368619Y-125028476D01*
X129368619Y-125314190D02*
X130368619Y-125314190D01*
X130225761Y-125218952D01*
X130130523Y-125123714D01*
X130082904Y-125028476D01*
%TO.C,R21*%
X126390142Y-78416380D02*
X126056809Y-77940190D01*
X125818714Y-78416380D02*
X125818714Y-77416380D01*
X126199666Y-77416380D01*
X126294904Y-77464000D01*
X126342523Y-77511619D01*
X126390142Y-77606857D01*
X126390142Y-77749714D01*
X126342523Y-77844952D01*
X126294904Y-77892571D01*
X126199666Y-77940190D01*
X125818714Y-77940190D01*
X126771095Y-77511619D02*
X126818714Y-77464000D01*
X126913952Y-77416380D01*
X127152047Y-77416380D01*
X127247285Y-77464000D01*
X127294904Y-77511619D01*
X127342523Y-77606857D01*
X127342523Y-77702095D01*
X127294904Y-77844952D01*
X126723476Y-78416380D01*
X127342523Y-78416380D01*
X128294904Y-78416380D02*
X127723476Y-78416380D01*
X128009190Y-78416380D02*
X128009190Y-77416380D01*
X127913952Y-77559238D01*
X127818714Y-77654476D01*
X127723476Y-77702095D01*
%TO.C,R4*%
X144335333Y-123333380D02*
X144002000Y-122857190D01*
X143763904Y-123333380D02*
X143763904Y-122333380D01*
X144144857Y-122333380D01*
X144240095Y-122381000D01*
X144287714Y-122428619D01*
X144335333Y-122523857D01*
X144335333Y-122666714D01*
X144287714Y-122761952D01*
X144240095Y-122809571D01*
X144144857Y-122857190D01*
X143763904Y-122857190D01*
X145192476Y-122666714D02*
X145192476Y-123333380D01*
X144954380Y-122285761D02*
X144716285Y-123000047D01*
X145335333Y-123000047D01*
%TO.C,Q5*%
X137315761Y-83030619D02*
X137220523Y-82983000D01*
X137125285Y-82887761D01*
X136982428Y-82744904D01*
X136887190Y-82697285D01*
X136791952Y-82697285D01*
X136839571Y-82935380D02*
X136744333Y-82887761D01*
X136649095Y-82792523D01*
X136601476Y-82602047D01*
X136601476Y-82268714D01*
X136649095Y-82078238D01*
X136744333Y-81983000D01*
X136839571Y-81935380D01*
X137030047Y-81935380D01*
X137125285Y-81983000D01*
X137220523Y-82078238D01*
X137268142Y-82268714D01*
X137268142Y-82602047D01*
X137220523Y-82792523D01*
X137125285Y-82887761D01*
X137030047Y-82935380D01*
X136839571Y-82935380D01*
X138172904Y-81935380D02*
X137696714Y-81935380D01*
X137649095Y-82411571D01*
X137696714Y-82363952D01*
X137791952Y-82316333D01*
X138030047Y-82316333D01*
X138125285Y-82363952D01*
X138172904Y-82411571D01*
X138220523Y-82506809D01*
X138220523Y-82744904D01*
X138172904Y-82840142D01*
X138125285Y-82887761D01*
X138030047Y-82935380D01*
X137791952Y-82935380D01*
X137696714Y-82887761D01*
X137649095Y-82840142D01*
%TO.C,R12*%
X155926380Y-130183857D02*
X155450190Y-130517190D01*
X155926380Y-130755285D02*
X154926380Y-130755285D01*
X154926380Y-130374333D01*
X154974000Y-130279095D01*
X155021619Y-130231476D01*
X155116857Y-130183857D01*
X155259714Y-130183857D01*
X155354952Y-130231476D01*
X155402571Y-130279095D01*
X155450190Y-130374333D01*
X155450190Y-130755285D01*
X155926380Y-129231476D02*
X155926380Y-129802904D01*
X155926380Y-129517190D02*
X154926380Y-129517190D01*
X155069238Y-129612428D01*
X155164476Y-129707666D01*
X155212095Y-129802904D01*
X155021619Y-128850523D02*
X154974000Y-128802904D01*
X154926380Y-128707666D01*
X154926380Y-128469571D01*
X154974000Y-128374333D01*
X155021619Y-128326714D01*
X155116857Y-128279095D01*
X155212095Y-128279095D01*
X155354952Y-128326714D01*
X155926380Y-128898142D01*
X155926380Y-128279095D01*
%TO.C,R29*%
X143494857Y-99784285D02*
X143244857Y-99427142D01*
X143066285Y-99784285D02*
X143066285Y-99034285D01*
X143352000Y-99034285D01*
X143423428Y-99070000D01*
X143459142Y-99105714D01*
X143494857Y-99177142D01*
X143494857Y-99284285D01*
X143459142Y-99355714D01*
X143423428Y-99391428D01*
X143352000Y-99427142D01*
X143066285Y-99427142D01*
X143780571Y-99105714D02*
X143816285Y-99070000D01*
X143887714Y-99034285D01*
X144066285Y-99034285D01*
X144137714Y-99070000D01*
X144173428Y-99105714D01*
X144209142Y-99177142D01*
X144209142Y-99248571D01*
X144173428Y-99355714D01*
X143744857Y-99784285D01*
X144209142Y-99784285D01*
X144566285Y-99784285D02*
X144709142Y-99784285D01*
X144780571Y-99748571D01*
X144816285Y-99712857D01*
X144887714Y-99605714D01*
X144923428Y-99462857D01*
X144923428Y-99177142D01*
X144887714Y-99105714D01*
X144852000Y-99070000D01*
X144780571Y-99034285D01*
X144637714Y-99034285D01*
X144566285Y-99070000D01*
X144530571Y-99105714D01*
X144494857Y-99177142D01*
X144494857Y-99355714D01*
X144530571Y-99427142D01*
X144566285Y-99462857D01*
X144637714Y-99498571D01*
X144780571Y-99498571D01*
X144852000Y-99462857D01*
X144887714Y-99427142D01*
X144923428Y-99355714D01*
%TO.C,C18*%
X126373142Y-80334142D02*
X126325523Y-80381761D01*
X126182666Y-80429380D01*
X126087428Y-80429380D01*
X125944571Y-80381761D01*
X125849333Y-80286523D01*
X125801714Y-80191285D01*
X125754095Y-80000809D01*
X125754095Y-79857952D01*
X125801714Y-79667476D01*
X125849333Y-79572238D01*
X125944571Y-79477000D01*
X126087428Y-79429380D01*
X126182666Y-79429380D01*
X126325523Y-79477000D01*
X126373142Y-79524619D01*
X127325523Y-80429380D02*
X126754095Y-80429380D01*
X127039809Y-80429380D02*
X127039809Y-79429380D01*
X126944571Y-79572238D01*
X126849333Y-79667476D01*
X126754095Y-79715095D01*
X127896952Y-79857952D02*
X127801714Y-79810333D01*
X127754095Y-79762714D01*
X127706476Y-79667476D01*
X127706476Y-79619857D01*
X127754095Y-79524619D01*
X127801714Y-79477000D01*
X127896952Y-79429380D01*
X128087428Y-79429380D01*
X128182666Y-79477000D01*
X128230285Y-79524619D01*
X128277904Y-79619857D01*
X128277904Y-79667476D01*
X128230285Y-79762714D01*
X128182666Y-79810333D01*
X128087428Y-79857952D01*
X127896952Y-79857952D01*
X127801714Y-79905571D01*
X127754095Y-79953190D01*
X127706476Y-80048428D01*
X127706476Y-80238904D01*
X127754095Y-80334142D01*
X127801714Y-80381761D01*
X127896952Y-80429380D01*
X128087428Y-80429380D01*
X128182666Y-80381761D01*
X128230285Y-80334142D01*
X128277904Y-80238904D01*
X128277904Y-80048428D01*
X128230285Y-79953190D01*
X128182666Y-79905571D01*
X128087428Y-79857952D01*
%TO.C,C20*%
X124632857Y-134881142D02*
X124585238Y-134833523D01*
X124537619Y-134690666D01*
X124537619Y-134595428D01*
X124585238Y-134452571D01*
X124680476Y-134357333D01*
X124775714Y-134309714D01*
X124966190Y-134262095D01*
X125109047Y-134262095D01*
X125299523Y-134309714D01*
X125394761Y-134357333D01*
X125490000Y-134452571D01*
X125537619Y-134595428D01*
X125537619Y-134690666D01*
X125490000Y-134833523D01*
X125442380Y-134881142D01*
X125442380Y-135262095D02*
X125490000Y-135309714D01*
X125537619Y-135404952D01*
X125537619Y-135643047D01*
X125490000Y-135738285D01*
X125442380Y-135785904D01*
X125347142Y-135833523D01*
X125251904Y-135833523D01*
X125109047Y-135785904D01*
X124537619Y-135214476D01*
X124537619Y-135833523D01*
X125537619Y-136452571D02*
X125537619Y-136547809D01*
X125490000Y-136643047D01*
X125442380Y-136690666D01*
X125347142Y-136738285D01*
X125156666Y-136785904D01*
X124918571Y-136785904D01*
X124728095Y-136738285D01*
X124632857Y-136690666D01*
X124585238Y-136643047D01*
X124537619Y-136547809D01*
X124537619Y-136452571D01*
X124585238Y-136357333D01*
X124632857Y-136309714D01*
X124728095Y-136262095D01*
X124918571Y-136214476D01*
X125156666Y-136214476D01*
X125347142Y-136262095D01*
X125442380Y-136309714D01*
X125490000Y-136357333D01*
X125537619Y-136452571D01*
%TO.C,Q2*%
X145186761Y-115465619D02*
X145091523Y-115418000D01*
X144996285Y-115322761D01*
X144853428Y-115179904D01*
X144758190Y-115132285D01*
X144662952Y-115132285D01*
X144710571Y-115370380D02*
X144615333Y-115322761D01*
X144520095Y-115227523D01*
X144472476Y-115037047D01*
X144472476Y-114703714D01*
X144520095Y-114513238D01*
X144615333Y-114418000D01*
X144710571Y-114370380D01*
X144901047Y-114370380D01*
X144996285Y-114418000D01*
X145091523Y-114513238D01*
X145139142Y-114703714D01*
X145139142Y-115037047D01*
X145091523Y-115227523D01*
X144996285Y-115322761D01*
X144901047Y-115370380D01*
X144710571Y-115370380D01*
X145520095Y-114465619D02*
X145567714Y-114418000D01*
X145662952Y-114370380D01*
X145901047Y-114370380D01*
X145996285Y-114418000D01*
X146043904Y-114465619D01*
X146091523Y-114560857D01*
X146091523Y-114656095D01*
X146043904Y-114798952D01*
X145472476Y-115370380D01*
X146091523Y-115370380D01*
%TO.C,R1*%
X140019333Y-125338380D02*
X139686000Y-124862190D01*
X139447904Y-125338380D02*
X139447904Y-124338380D01*
X139828857Y-124338380D01*
X139924095Y-124386000D01*
X139971714Y-124433619D01*
X140019333Y-124528857D01*
X140019333Y-124671714D01*
X139971714Y-124766952D01*
X139924095Y-124814571D01*
X139828857Y-124862190D01*
X139447904Y-124862190D01*
X140971714Y-125338380D02*
X140400285Y-125338380D01*
X140686000Y-125338380D02*
X140686000Y-124338380D01*
X140590761Y-124481238D01*
X140495523Y-124576476D01*
X140400285Y-124624095D01*
%TO.C,R16*%
X138745142Y-86666380D02*
X138411809Y-86190190D01*
X138173714Y-86666380D02*
X138173714Y-85666380D01*
X138554666Y-85666380D01*
X138649904Y-85714000D01*
X138697523Y-85761619D01*
X138745142Y-85856857D01*
X138745142Y-85999714D01*
X138697523Y-86094952D01*
X138649904Y-86142571D01*
X138554666Y-86190190D01*
X138173714Y-86190190D01*
X139697523Y-86666380D02*
X139126095Y-86666380D01*
X139411809Y-86666380D02*
X139411809Y-85666380D01*
X139316571Y-85809238D01*
X139221333Y-85904476D01*
X139126095Y-85952095D01*
X140554666Y-85666380D02*
X140364190Y-85666380D01*
X140268952Y-85714000D01*
X140221333Y-85761619D01*
X140126095Y-85904476D01*
X140078476Y-86094952D01*
X140078476Y-86475904D01*
X140126095Y-86571142D01*
X140173714Y-86618761D01*
X140268952Y-86666380D01*
X140459428Y-86666380D01*
X140554666Y-86618761D01*
X140602285Y-86571142D01*
X140649904Y-86475904D01*
X140649904Y-86237809D01*
X140602285Y-86142571D01*
X140554666Y-86094952D01*
X140459428Y-86047333D01*
X140268952Y-86047333D01*
X140173714Y-86094952D01*
X140126095Y-86142571D01*
X140078476Y-86237809D01*
%TO.C,D1*%
X148532380Y-136334095D02*
X147532380Y-136334095D01*
X147532380Y-136096000D01*
X147580000Y-135953142D01*
X147675238Y-135857904D01*
X147770476Y-135810285D01*
X147960952Y-135762666D01*
X148103809Y-135762666D01*
X148294285Y-135810285D01*
X148389523Y-135857904D01*
X148484761Y-135953142D01*
X148532380Y-136096000D01*
X148532380Y-136334095D01*
X148532380Y-134810285D02*
X148532380Y-135381714D01*
X148532380Y-135096000D02*
X147532380Y-135096000D01*
X147675238Y-135191238D01*
X147770476Y-135286476D01*
X147818095Y-135381714D01*
%TO.C,R33*%
X159029142Y-136747380D02*
X158695809Y-136271190D01*
X158457714Y-136747380D02*
X158457714Y-135747380D01*
X158838666Y-135747380D01*
X158933904Y-135795000D01*
X158981523Y-135842619D01*
X159029142Y-135937857D01*
X159029142Y-136080714D01*
X158981523Y-136175952D01*
X158933904Y-136223571D01*
X158838666Y-136271190D01*
X158457714Y-136271190D01*
X159362476Y-135747380D02*
X159981523Y-135747380D01*
X159648190Y-136128333D01*
X159791047Y-136128333D01*
X159886285Y-136175952D01*
X159933904Y-136223571D01*
X159981523Y-136318809D01*
X159981523Y-136556904D01*
X159933904Y-136652142D01*
X159886285Y-136699761D01*
X159791047Y-136747380D01*
X159505333Y-136747380D01*
X159410095Y-136699761D01*
X159362476Y-136652142D01*
X160314857Y-135747380D02*
X160933904Y-135747380D01*
X160600571Y-136128333D01*
X160743428Y-136128333D01*
X160838666Y-136175952D01*
X160886285Y-136223571D01*
X160933904Y-136318809D01*
X160933904Y-136556904D01*
X160886285Y-136652142D01*
X160838666Y-136699761D01*
X160743428Y-136747380D01*
X160457714Y-136747380D01*
X160362476Y-136699761D01*
X160314857Y-136652142D01*
%TO.C,IC6*%
X170857809Y-105559380D02*
X170857809Y-104559380D01*
X171905428Y-105464142D02*
X171857809Y-105511761D01*
X171714952Y-105559380D01*
X171619714Y-105559380D01*
X171476857Y-105511761D01*
X171381619Y-105416523D01*
X171334000Y-105321285D01*
X171286380Y-105130809D01*
X171286380Y-104987952D01*
X171334000Y-104797476D01*
X171381619Y-104702238D01*
X171476857Y-104607000D01*
X171619714Y-104559380D01*
X171714952Y-104559380D01*
X171857809Y-104607000D01*
X171905428Y-104654619D01*
X172762571Y-104559380D02*
X172572095Y-104559380D01*
X172476857Y-104607000D01*
X172429238Y-104654619D01*
X172334000Y-104797476D01*
X172286380Y-104987952D01*
X172286380Y-105368904D01*
X172334000Y-105464142D01*
X172381619Y-105511761D01*
X172476857Y-105559380D01*
X172667333Y-105559380D01*
X172762571Y-105511761D01*
X172810190Y-105464142D01*
X172857809Y-105368904D01*
X172857809Y-105130809D01*
X172810190Y-105035571D01*
X172762571Y-104987952D01*
X172667333Y-104940333D01*
X172476857Y-104940333D01*
X172381619Y-104987952D01*
X172334000Y-105035571D01*
X172286380Y-105130809D01*
%TO.C,C6*%
X134722333Y-100800142D02*
X134674714Y-100847761D01*
X134531857Y-100895380D01*
X134436619Y-100895380D01*
X134293761Y-100847761D01*
X134198523Y-100752523D01*
X134150904Y-100657285D01*
X134103285Y-100466809D01*
X134103285Y-100323952D01*
X134150904Y-100133476D01*
X134198523Y-100038238D01*
X134293761Y-99943000D01*
X134436619Y-99895380D01*
X134531857Y-99895380D01*
X134674714Y-99943000D01*
X134722333Y-99990619D01*
X135579476Y-99895380D02*
X135389000Y-99895380D01*
X135293761Y-99943000D01*
X135246142Y-99990619D01*
X135150904Y-100133476D01*
X135103285Y-100323952D01*
X135103285Y-100704904D01*
X135150904Y-100800142D01*
X135198523Y-100847761D01*
X135293761Y-100895380D01*
X135484238Y-100895380D01*
X135579476Y-100847761D01*
X135627095Y-100800142D01*
X135674714Y-100704904D01*
X135674714Y-100466809D01*
X135627095Y-100371571D01*
X135579476Y-100323952D01*
X135484238Y-100276333D01*
X135293761Y-100276333D01*
X135198523Y-100323952D01*
X135150904Y-100371571D01*
X135103285Y-100466809D01*
%TO.C,R27*%
X126508619Y-134907142D02*
X126984809Y-134573809D01*
X126508619Y-134335714D02*
X127508619Y-134335714D01*
X127508619Y-134716666D01*
X127461000Y-134811904D01*
X127413380Y-134859523D01*
X127318142Y-134907142D01*
X127175285Y-134907142D01*
X127080047Y-134859523D01*
X127032428Y-134811904D01*
X126984809Y-134716666D01*
X126984809Y-134335714D01*
X127413380Y-135288095D02*
X127461000Y-135335714D01*
X127508619Y-135430952D01*
X127508619Y-135669047D01*
X127461000Y-135764285D01*
X127413380Y-135811904D01*
X127318142Y-135859523D01*
X127222904Y-135859523D01*
X127080047Y-135811904D01*
X126508619Y-135240476D01*
X126508619Y-135859523D01*
X127508619Y-136192857D02*
X127508619Y-136859523D01*
X126508619Y-136430952D01*
%TO.C,NR2*%
X133476380Y-74548904D02*
X132476380Y-74548904D01*
X133476380Y-73977476D01*
X132476380Y-73977476D01*
X133476380Y-72929857D02*
X133000190Y-73263190D01*
X133476380Y-73501285D02*
X132476380Y-73501285D01*
X132476380Y-73120333D01*
X132524000Y-73025095D01*
X132571619Y-72977476D01*
X132666857Y-72929857D01*
X132809714Y-72929857D01*
X132904952Y-72977476D01*
X132952571Y-73025095D01*
X133000190Y-73120333D01*
X133000190Y-73501285D01*
X132571619Y-72548904D02*
X132524000Y-72501285D01*
X132476380Y-72406047D01*
X132476380Y-72167952D01*
X132524000Y-72072714D01*
X132571619Y-72025095D01*
X132666857Y-71977476D01*
X132762095Y-71977476D01*
X132904952Y-72025095D01*
X133476380Y-72596523D01*
X133476380Y-71977476D01*
%TO.C,C15*%
X160077142Y-73977857D02*
X160124761Y-74025476D01*
X160172380Y-74168333D01*
X160172380Y-74263571D01*
X160124761Y-74406428D01*
X160029523Y-74501666D01*
X159934285Y-74549285D01*
X159743809Y-74596904D01*
X159600952Y-74596904D01*
X159410476Y-74549285D01*
X159315238Y-74501666D01*
X159220000Y-74406428D01*
X159172380Y-74263571D01*
X159172380Y-74168333D01*
X159220000Y-74025476D01*
X159267619Y-73977857D01*
X160172380Y-73025476D02*
X160172380Y-73596904D01*
X160172380Y-73311190D02*
X159172380Y-73311190D01*
X159315238Y-73406428D01*
X159410476Y-73501666D01*
X159458095Y-73596904D01*
X159172380Y-72120714D02*
X159172380Y-72596904D01*
X159648571Y-72644523D01*
X159600952Y-72596904D01*
X159553333Y-72501666D01*
X159553333Y-72263571D01*
X159600952Y-72168333D01*
X159648571Y-72120714D01*
X159743809Y-72073095D01*
X159981904Y-72073095D01*
X160077142Y-72120714D01*
X160124761Y-72168333D01*
X160172380Y-72263571D01*
X160172380Y-72501666D01*
X160124761Y-72596904D01*
X160077142Y-72644523D01*
%TO.C,R35*%
X160955380Y-132675857D02*
X160479190Y-133009190D01*
X160955380Y-133247285D02*
X159955380Y-133247285D01*
X159955380Y-132866333D01*
X160003000Y-132771095D01*
X160050619Y-132723476D01*
X160145857Y-132675857D01*
X160288714Y-132675857D01*
X160383952Y-132723476D01*
X160431571Y-132771095D01*
X160479190Y-132866333D01*
X160479190Y-133247285D01*
X159955380Y-132342523D02*
X159955380Y-131723476D01*
X160336333Y-132056809D01*
X160336333Y-131913952D01*
X160383952Y-131818714D01*
X160431571Y-131771095D01*
X160526809Y-131723476D01*
X160764904Y-131723476D01*
X160860142Y-131771095D01*
X160907761Y-131818714D01*
X160955380Y-131913952D01*
X160955380Y-132199666D01*
X160907761Y-132294904D01*
X160860142Y-132342523D01*
X159955380Y-130818714D02*
X159955380Y-131294904D01*
X160431571Y-131342523D01*
X160383952Y-131294904D01*
X160336333Y-131199666D01*
X160336333Y-130961571D01*
X160383952Y-130866333D01*
X160431571Y-130818714D01*
X160526809Y-130771095D01*
X160764904Y-130771095D01*
X160860142Y-130818714D01*
X160907761Y-130866333D01*
X160955380Y-130961571D01*
X160955380Y-131199666D01*
X160907761Y-131294904D01*
X160860142Y-131342523D01*
%TO.C,F1*%
X146456666Y-143263571D02*
X146123333Y-143263571D01*
X146123333Y-143787380D02*
X146123333Y-142787380D01*
X146599523Y-142787380D01*
X147504285Y-143787380D02*
X146932857Y-143787380D01*
X147218571Y-143787380D02*
X147218571Y-142787380D01*
X147123333Y-142930238D01*
X147028095Y-143025476D01*
X146932857Y-143073095D01*
%TO.C,R2*%
X135453333Y-124586380D02*
X135120000Y-124110190D01*
X134881904Y-124586380D02*
X134881904Y-123586380D01*
X135262857Y-123586380D01*
X135358095Y-123634000D01*
X135405714Y-123681619D01*
X135453333Y-123776857D01*
X135453333Y-123919714D01*
X135405714Y-124014952D01*
X135358095Y-124062571D01*
X135262857Y-124110190D01*
X134881904Y-124110190D01*
X135834285Y-123681619D02*
X135881904Y-123634000D01*
X135977142Y-123586380D01*
X136215238Y-123586380D01*
X136310476Y-123634000D01*
X136358095Y-123681619D01*
X136405714Y-123776857D01*
X136405714Y-123872095D01*
X136358095Y-124014952D01*
X135786666Y-124586380D01*
X136405714Y-124586380D01*
%TO.C,Q7*%
X172864761Y-123719619D02*
X172769523Y-123672000D01*
X172674285Y-123576761D01*
X172531428Y-123433904D01*
X172436190Y-123386285D01*
X172340952Y-123386285D01*
X172388571Y-123624380D02*
X172293333Y-123576761D01*
X172198095Y-123481523D01*
X172150476Y-123291047D01*
X172150476Y-122957714D01*
X172198095Y-122767238D01*
X172293333Y-122672000D01*
X172388571Y-122624380D01*
X172579047Y-122624380D01*
X172674285Y-122672000D01*
X172769523Y-122767238D01*
X172817142Y-122957714D01*
X172817142Y-123291047D01*
X172769523Y-123481523D01*
X172674285Y-123576761D01*
X172579047Y-123624380D01*
X172388571Y-123624380D01*
X173150476Y-122624380D02*
X173817142Y-122624380D01*
X173388571Y-123624380D01*
%TO.C,D5*%
X131750380Y-99128095D02*
X130750380Y-99128095D01*
X130750380Y-98890000D01*
X130798000Y-98747142D01*
X130893238Y-98651904D01*
X130988476Y-98604285D01*
X131178952Y-98556666D01*
X131321809Y-98556666D01*
X131512285Y-98604285D01*
X131607523Y-98651904D01*
X131702761Y-98747142D01*
X131750380Y-98890000D01*
X131750380Y-99128095D01*
X130750380Y-97651904D02*
X130750380Y-98128095D01*
X131226571Y-98175714D01*
X131178952Y-98128095D01*
X131131333Y-98032857D01*
X131131333Y-97794761D01*
X131178952Y-97699523D01*
X131226571Y-97651904D01*
X131321809Y-97604285D01*
X131559904Y-97604285D01*
X131655142Y-97651904D01*
X131702761Y-97699523D01*
X131750380Y-97794761D01*
X131750380Y-98032857D01*
X131702761Y-98128095D01*
X131655142Y-98175714D01*
%TO.C,Q10*%
X133142571Y-104074619D02*
X133047333Y-104027000D01*
X132952095Y-103931761D01*
X132809238Y-103788904D01*
X132714000Y-103741285D01*
X132618761Y-103741285D01*
X132666380Y-103979380D02*
X132571142Y-103931761D01*
X132475904Y-103836523D01*
X132428285Y-103646047D01*
X132428285Y-103312714D01*
X132475904Y-103122238D01*
X132571142Y-103027000D01*
X132666380Y-102979380D01*
X132856857Y-102979380D01*
X132952095Y-103027000D01*
X133047333Y-103122238D01*
X133094952Y-103312714D01*
X133094952Y-103646047D01*
X133047333Y-103836523D01*
X132952095Y-103931761D01*
X132856857Y-103979380D01*
X132666380Y-103979380D01*
X134047333Y-103979380D02*
X133475904Y-103979380D01*
X133761619Y-103979380D02*
X133761619Y-102979380D01*
X133666380Y-103122238D01*
X133571142Y-103217476D01*
X133475904Y-103265095D01*
X134666380Y-102979380D02*
X134761619Y-102979380D01*
X134856857Y-103027000D01*
X134904476Y-103074619D01*
X134952095Y-103169857D01*
X134999714Y-103360333D01*
X134999714Y-103598428D01*
X134952095Y-103788904D01*
X134904476Y-103884142D01*
X134856857Y-103931761D01*
X134761619Y-103979380D01*
X134666380Y-103979380D01*
X134571142Y-103931761D01*
X134523523Y-103884142D01*
X134475904Y-103788904D01*
X134428285Y-103598428D01*
X134428285Y-103360333D01*
X134475904Y-103169857D01*
X134523523Y-103074619D01*
X134571142Y-103027000D01*
X134666380Y-102979380D01*
%TO.C,NR4*%
X133560380Y-64932904D02*
X132560380Y-64932904D01*
X133560380Y-64361476D01*
X132560380Y-64361476D01*
X133560380Y-63313857D02*
X133084190Y-63647190D01*
X133560380Y-63885285D02*
X132560380Y-63885285D01*
X132560380Y-63504333D01*
X132608000Y-63409095D01*
X132655619Y-63361476D01*
X132750857Y-63313857D01*
X132893714Y-63313857D01*
X132988952Y-63361476D01*
X133036571Y-63409095D01*
X133084190Y-63504333D01*
X133084190Y-63885285D01*
X132893714Y-62456714D02*
X133560380Y-62456714D01*
X132512761Y-62694809D02*
X133227047Y-62932904D01*
X133227047Y-62313857D01*
%TO.C,R28*%
X140361142Y-109367380D02*
X140027809Y-108891190D01*
X139789714Y-109367380D02*
X139789714Y-108367380D01*
X140170666Y-108367380D01*
X140265904Y-108415000D01*
X140313523Y-108462619D01*
X140361142Y-108557857D01*
X140361142Y-108700714D01*
X140313523Y-108795952D01*
X140265904Y-108843571D01*
X140170666Y-108891190D01*
X139789714Y-108891190D01*
X140742095Y-108462619D02*
X140789714Y-108415000D01*
X140884952Y-108367380D01*
X141123047Y-108367380D01*
X141218285Y-108415000D01*
X141265904Y-108462619D01*
X141313523Y-108557857D01*
X141313523Y-108653095D01*
X141265904Y-108795952D01*
X140694476Y-109367380D01*
X141313523Y-109367380D01*
X141884952Y-108795952D02*
X141789714Y-108748333D01*
X141742095Y-108700714D01*
X141694476Y-108605476D01*
X141694476Y-108557857D01*
X141742095Y-108462619D01*
X141789714Y-108415000D01*
X141884952Y-108367380D01*
X142075428Y-108367380D01*
X142170666Y-108415000D01*
X142218285Y-108462619D01*
X142265904Y-108557857D01*
X142265904Y-108605476D01*
X142218285Y-108700714D01*
X142170666Y-108748333D01*
X142075428Y-108795952D01*
X141884952Y-108795952D01*
X141789714Y-108843571D01*
X141742095Y-108891190D01*
X141694476Y-108986428D01*
X141694476Y-109176904D01*
X141742095Y-109272142D01*
X141789714Y-109319761D01*
X141884952Y-109367380D01*
X142075428Y-109367380D01*
X142170666Y-109319761D01*
X142218285Y-109272142D01*
X142265904Y-109176904D01*
X142265904Y-108986428D01*
X142218285Y-108891190D01*
X142170666Y-108843571D01*
X142075428Y-108795952D01*
%TO.C,IC7*%
X128791809Y-72526380D02*
X128791809Y-71526380D01*
X129839428Y-72431142D02*
X129791809Y-72478761D01*
X129648952Y-72526380D01*
X129553714Y-72526380D01*
X129410857Y-72478761D01*
X129315619Y-72383523D01*
X129268000Y-72288285D01*
X129220380Y-72097809D01*
X129220380Y-71954952D01*
X129268000Y-71764476D01*
X129315619Y-71669238D01*
X129410857Y-71574000D01*
X129553714Y-71526380D01*
X129648952Y-71526380D01*
X129791809Y-71574000D01*
X129839428Y-71621619D01*
X130172761Y-71526380D02*
X130839428Y-71526380D01*
X130410857Y-72526380D01*
%TO.C,Q11*%
X133108571Y-89374619D02*
X133013333Y-89327000D01*
X132918095Y-89231761D01*
X132775238Y-89088904D01*
X132680000Y-89041285D01*
X132584761Y-89041285D01*
X132632380Y-89279380D02*
X132537142Y-89231761D01*
X132441904Y-89136523D01*
X132394285Y-88946047D01*
X132394285Y-88612714D01*
X132441904Y-88422238D01*
X132537142Y-88327000D01*
X132632380Y-88279380D01*
X132822857Y-88279380D01*
X132918095Y-88327000D01*
X133013333Y-88422238D01*
X133060952Y-88612714D01*
X133060952Y-88946047D01*
X133013333Y-89136523D01*
X132918095Y-89231761D01*
X132822857Y-89279380D01*
X132632380Y-89279380D01*
X134013333Y-89279380D02*
X133441904Y-89279380D01*
X133727619Y-89279380D02*
X133727619Y-88279380D01*
X133632380Y-88422238D01*
X133537142Y-88517476D01*
X133441904Y-88565095D01*
X134965714Y-89279380D02*
X134394285Y-89279380D01*
X134680000Y-89279380D02*
X134680000Y-88279380D01*
X134584761Y-88422238D01*
X134489523Y-88517476D01*
X134394285Y-88565095D01*
%TO.C,R22*%
X132703142Y-81849380D02*
X132369809Y-81373190D01*
X132131714Y-81849380D02*
X132131714Y-80849380D01*
X132512666Y-80849380D01*
X132607904Y-80897000D01*
X132655523Y-80944619D01*
X132703142Y-81039857D01*
X132703142Y-81182714D01*
X132655523Y-81277952D01*
X132607904Y-81325571D01*
X132512666Y-81373190D01*
X132131714Y-81373190D01*
X133084095Y-80944619D02*
X133131714Y-80897000D01*
X133226952Y-80849380D01*
X133465047Y-80849380D01*
X133560285Y-80897000D01*
X133607904Y-80944619D01*
X133655523Y-81039857D01*
X133655523Y-81135095D01*
X133607904Y-81277952D01*
X133036476Y-81849380D01*
X133655523Y-81849380D01*
X134036476Y-80944619D02*
X134084095Y-80897000D01*
X134179333Y-80849380D01*
X134417428Y-80849380D01*
X134512666Y-80897000D01*
X134560285Y-80944619D01*
X134607904Y-81039857D01*
X134607904Y-81135095D01*
X134560285Y-81277952D01*
X133988857Y-81849380D01*
X134607904Y-81849380D01*
%TO.C,TH1*%
X121268380Y-105057714D02*
X121268380Y-104486285D01*
X122268380Y-104772000D02*
X121268380Y-104772000D01*
X122268380Y-104152952D02*
X121268380Y-104152952D01*
X121744571Y-104152952D02*
X121744571Y-103581523D01*
X122268380Y-103581523D02*
X121268380Y-103581523D01*
X122268380Y-102581523D02*
X122268380Y-103152952D01*
X122268380Y-102867238D02*
X121268380Y-102867238D01*
X121411238Y-102962476D01*
X121506476Y-103057714D01*
X121554095Y-103152952D01*
%TO.C,R23*%
X127709380Y-90305857D02*
X127233190Y-90639190D01*
X127709380Y-90877285D02*
X126709380Y-90877285D01*
X126709380Y-90496333D01*
X126757000Y-90401095D01*
X126804619Y-90353476D01*
X126899857Y-90305857D01*
X127042714Y-90305857D01*
X127137952Y-90353476D01*
X127185571Y-90401095D01*
X127233190Y-90496333D01*
X127233190Y-90877285D01*
X126804619Y-89924904D02*
X126757000Y-89877285D01*
X126709380Y-89782047D01*
X126709380Y-89543952D01*
X126757000Y-89448714D01*
X126804619Y-89401095D01*
X126899857Y-89353476D01*
X126995095Y-89353476D01*
X127137952Y-89401095D01*
X127709380Y-89972523D01*
X127709380Y-89353476D01*
X126709380Y-89020142D02*
X126709380Y-88401095D01*
X127090333Y-88734428D01*
X127090333Y-88591571D01*
X127137952Y-88496333D01*
X127185571Y-88448714D01*
X127280809Y-88401095D01*
X127518904Y-88401095D01*
X127614142Y-88448714D01*
X127661761Y-88496333D01*
X127709380Y-88591571D01*
X127709380Y-88877285D01*
X127661761Y-88972523D01*
X127614142Y-89020142D01*
D11*
%TO.C,D1Diagram*%
X144655000Y-134908400D02*
X143905700Y-136059020D01*
X144655000Y-134908400D02*
X145455100Y-136059020D01*
X145455100Y-134908400D02*
X143854900Y-134908400D01*
X144655000Y-134908400D02*
X144655000Y-134006700D01*
X143905700Y-136059020D02*
X145455100Y-136059020D01*
X144655000Y-136059020D02*
X144655000Y-137057240D01*
%TO.C,D5Diagram*%
X129642000Y-98837600D02*
X129642000Y-99739300D01*
X129642000Y-98837600D02*
X130391300Y-97686980D01*
X129642000Y-97686980D02*
X129642000Y-96688760D01*
X130391300Y-97686980D02*
X128841900Y-97686980D01*
X128841900Y-98837600D02*
X130442100Y-98837600D01*
X129642000Y-98837600D02*
X128841900Y-97686980D01*
%TO.C,D3Diagram*%
X167276600Y-84075100D02*
X167276600Y-82474900D01*
X166125980Y-82525700D02*
X166125980Y-84075100D01*
X167276600Y-83275000D02*
X166125980Y-84075100D01*
X167276600Y-83275000D02*
X166125980Y-82525700D01*
X167276600Y-83275000D02*
X168178300Y-83275000D01*
X166125980Y-83275000D02*
X165127760Y-83275000D01*
%TD*%
M02*
