%TF.GenerationSoftware,KiCad,Pcbnew,(6.0.2)*%
%TF.CreationDate,2022-09-26T21:45:02-05:00*%
%TF.ProjectId,IF-GBP-02,49462d47-4250-42d3-9032-2e6b69636164,rev?*%
%TF.SameCoordinates,Original*%
%TF.FileFunction,Copper,L1,Top*%
%TF.FilePolarity,Positive*%
%FSLAX46Y46*%
G04 Gerber Fmt 4.6, Leading zero omitted, Abs format (unit mm)*
G04 Created by KiCad (PCBNEW (6.0.2)) date 2022-09-26 21:45:02*
%MOMM*%
%LPD*%
G01*
G04 APERTURE LIST*
G04 Aperture macros list*
%AMRoundRect*
0 Rectangle with rounded corners*
0 $1 Rounding radius*
0 $2 $3 $4 $5 $6 $7 $8 $9 X,Y pos of 4 corners*
0 Add a 4 corners polygon primitive as box body*
4,1,4,$2,$3,$4,$5,$6,$7,$8,$9,$2,$3,0*
0 Add four circle primitives for the rounded corners*
1,1,$1+$1,$2,$3*
1,1,$1+$1,$4,$5*
1,1,$1+$1,$6,$7*
1,1,$1+$1,$8,$9*
0 Add four rect primitives between the rounded corners*
20,1,$1+$1,$2,$3,$4,$5,0*
20,1,$1+$1,$4,$5,$6,$7,0*
20,1,$1+$1,$6,$7,$8,$9,0*
20,1,$1+$1,$8,$9,$2,$3,0*%
G04 Aperture macros list end*
%TA.AperFunction,ComponentPad*%
%ADD10RoundRect,0.575000X-0.575000X-2.650000X0.575000X-2.650000X0.575000X2.650000X-0.575000X2.650000X0*%
%TD*%
%TA.AperFunction,ComponentPad*%
%ADD11RoundRect,0.425000X-0.425000X-1.700000X0.425000X-1.700000X0.425000X1.700000X-0.425000X1.700000X0*%
%TD*%
%TA.AperFunction,SMDPad,CuDef*%
%ADD12R,0.800000X0.400000*%
%TD*%
%TA.AperFunction,SMDPad,CuDef*%
%ADD13R,1.230000X1.000000*%
%TD*%
%TA.AperFunction,SMDPad,CuDef*%
%ADD14R,1.250000X4.200000*%
%TD*%
%TA.AperFunction,SMDPad,CuDef*%
%ADD15R,1.000000X1.230000*%
%TD*%
%TA.AperFunction,SMDPad,CuDef*%
%ADD16R,2.000000X0.400000*%
%TD*%
%TA.AperFunction,SMDPad,CuDef*%
%ADD17R,1.500000X1.000000*%
%TD*%
%TA.AperFunction,SMDPad,CuDef*%
%ADD18R,2.500000X1.000000*%
%TD*%
%TA.AperFunction,SMDPad,CuDef*%
%ADD19RoundRect,0.625000X-0.765000X0.625000X-0.765000X-0.625000X0.765000X-0.625000X0.765000X0.625000X0*%
%TD*%
%TA.AperFunction,SMDPad,CuDef*%
%ADD20R,0.870000X1.900000*%
%TD*%
%TA.AperFunction,SMDPad,CuDef*%
%ADD21R,1.000000X1.500000*%
%TD*%
%TA.AperFunction,SMDPad,CuDef*%
%ADD22R,1.000000X2.500000*%
%TD*%
%TA.AperFunction,SMDPad,CuDef*%
%ADD23RoundRect,0.625000X0.625000X0.765000X-0.625000X0.765000X-0.625000X-0.765000X0.625000X-0.765000X0*%
%TD*%
%TA.AperFunction,SMDPad,CuDef*%
%ADD24R,2.450000X0.750000*%
%TD*%
%TA.AperFunction,SMDPad,CuDef*%
%ADD25R,0.750000X2.450000*%
%TD*%
%TA.AperFunction,SMDPad,CuDef*%
%ADD26R,1.750000X2.250000*%
%TD*%
%TA.AperFunction,SMDPad,CuDef*%
%ADD27R,1.500000X2.250000*%
%TD*%
%TA.AperFunction,SMDPad,CuDef*%
%ADD28RoundRect,0.625000X-0.625000X-0.765000X0.625000X-0.765000X0.625000X0.765000X-0.625000X0.765000X0*%
%TD*%
%TA.AperFunction,SMDPad,CuDef*%
%ADD29R,0.850000X1.000000*%
%TD*%
%TA.AperFunction,SMDPad,CuDef*%
%ADD30R,0.650000X1.000000*%
%TD*%
%TA.AperFunction,SMDPad,CuDef*%
%ADD31R,0.750000X0.750000*%
%TD*%
%TA.AperFunction,ComponentPad*%
%ADD32C,2.100000*%
%TD*%
%TA.AperFunction,ComponentPad*%
%ADD33C,1.500000*%
%TD*%
%TA.AperFunction,ComponentPad*%
%ADD34C,2.250000*%
%TD*%
%TA.AperFunction,ComponentPad*%
%ADD35C,2.200000*%
%TD*%
%TA.AperFunction,ComponentPad*%
%ADD36C,2.000000*%
%TD*%
%TA.AperFunction,ComponentPad*%
%ADD37C,1.250000*%
%TD*%
%TA.AperFunction,ComponentPad*%
%ADD38R,4.000000X2.500000*%
%TD*%
%TA.AperFunction,ViaPad*%
%ADD39C,0.800000*%
%TD*%
%TA.AperFunction,Conductor*%
%ADD40C,0.550000*%
%TD*%
%TA.AperFunction,Conductor*%
%ADD41C,0.399800*%
%TD*%
%TA.AperFunction,Conductor*%
%ADD42C,0.250000*%
%TD*%
G04 APERTURE END LIST*
D10*
%TO.P,J2,1,Pin_1*%
%TO.N,/9V+*%
X162465000Y-138803000D03*
D11*
X165044000Y-139319000D03*
%TO.P,J2,2,Pin_2*%
%TO.N,/9V-*%
X125670000Y-63755000D03*
D10*
X123097000Y-63240000D03*
%TD*%
D12*
%TO.P,NR3,1,R1.1*%
%TO.N,/CE1*%
X136107000Y-70774000D03*
%TO.P,NR3,2,R2.1*%
%TO.N,/A10*%
X136105000Y-69940000D03*
%TO.P,NR3,3,R3.1*%
%TO.N,/OE*%
X136109000Y-69106000D03*
%TO.P,NR3,4,R4.1*%
%TO.N,/WE*%
X136107000Y-68353000D03*
%TO.P,NR3,5,R4.2*%
%TO.N,/VCC*%
X134319000Y-68350000D03*
%TO.P,NR3,6,R3.2*%
X134320000Y-69107000D03*
%TO.P,NR3,7,R2.2*%
X134319000Y-69939000D03*
%TO.P,NR3,8,R1.2*%
X134319000Y-70772000D03*
%TD*%
D13*
%TO.P,R8,1*%
%TO.N,/Route20*%
X139108000Y-113753000D03*
%TO.P,R8,2*%
%TO.N,/Route15*%
X141370000Y-113753000D03*
%TD*%
D14*
%TO.P,X1,1,1*%
%TO.N,/XOUT*%
X157885000Y-78082000D03*
%TO.P,X1,2,2*%
%TO.N,/GND*%
X160426000Y-78071000D03*
%TO.P,X1,3,3*%
%TO.N,/XIN*%
X162928000Y-78080000D03*
%TD*%
D13*
%TO.P,R14,1*%
%TO.N,/Route19*%
X135335000Y-96963000D03*
%TO.P,R14,2*%
%TO.N,/Route23*%
X137597000Y-96963000D03*
%TD*%
%TO.P,C16,1*%
%TO.N,/Reset*%
X165512000Y-75021000D03*
%TO.P,C16,2*%
%TO.N,/GND*%
X167774000Y-75021000D03*
%TD*%
D15*
%TO.P,R17,1*%
%TO.N,/Route25*%
X139946000Y-91483000D03*
%TO.P,R17,2*%
%TO.N,/9V.Postfuse*%
X139946000Y-93745000D03*
%TD*%
D12*
%TO.P,NR1,1,R1.1*%
%TO.N,/A7*%
X136066000Y-78198000D03*
%TO.P,NR1,2,R2.1*%
%TO.N,/A6*%
X136064000Y-77364000D03*
%TO.P,NR1,3,R3.1*%
%TO.N,/A5*%
X136068000Y-76530000D03*
%TO.P,NR1,4,R4.1*%
%TO.N,/A4*%
X136066000Y-75777000D03*
%TO.P,NR1,5,R4.2*%
%TO.N,/VCC*%
X134278000Y-75774000D03*
%TO.P,NR1,6,R3.2*%
X134279000Y-76531000D03*
%TO.P,NR1,7,R2.2*%
X134278000Y-77363000D03*
%TO.P,NR1,8,R1.2*%
X134278000Y-78196000D03*
%TD*%
D13*
%TO.P,R24,1*%
%TO.N,/VCC*%
X175497000Y-133601000D03*
%TO.P,R24,2*%
%TO.N,/Button*%
X177759000Y-133601000D03*
%TD*%
D15*
%TO.P,C5,1*%
%TO.N,/GND*%
X153300000Y-119382000D03*
%TO.P,C5,2*%
%TO.N,/VCC*%
X153300000Y-117120000D03*
%TD*%
D13*
%TO.P,R10,1*%
%TO.N,/Route8*%
X160944000Y-121260000D03*
%TO.P,R10,2*%
%TO.N,/VCC*%
X163206000Y-121260000D03*
%TD*%
D16*
%TO.P,IC5,1,I1*%
%TO.N,/IC5.I1*%
X168881000Y-91296000D03*
%TO.P,IC5,2,I2*%
%TO.N,/IC5.I2*%
X168881000Y-91973000D03*
%TO.P,IC5,3,I3*%
%TO.N,/IC5.I3*%
X168881000Y-92647000D03*
%TO.P,IC5,4,I4*%
%TO.N,/IC5.I4*%
X168880000Y-93283000D03*
%TO.P,IC5,5,I5*%
%TO.N,/IC5.I5*%
X168880000Y-93914000D03*
%TO.P,IC5,6,I6*%
%TO.N,/IC5.I6*%
X168887000Y-94550000D03*
%TO.P,IC5,7,I7*%
%TO.N,/IC5.I7*%
X168883000Y-95223000D03*
%TO.P,IC5,8,I8*%
%TO.N,/IC5.I8*%
X168880000Y-95863000D03*
%TO.P,IC5,9,GND*%
%TO.N,/GND*%
X168882000Y-96496000D03*
%TO.P,IC5,10,N/C*%
%TO.N,unconnected-(IC5-Pad10)*%
X175035000Y-96495000D03*
%TO.P,IC5,11,O8*%
%TO.N,/IC5.O8*%
X175035000Y-95858000D03*
%TO.P,IC5,12,O7*%
%TO.N,/IC5.O7*%
X175035000Y-95225000D03*
%TO.P,IC5,13,O6*%
%TO.N,/IC5.O6*%
X175037000Y-94550000D03*
%TO.P,IC5,14,O5*%
%TO.N,/IC5.O5*%
X175036000Y-93918000D03*
%TO.P,IC5,15,O4*%
%TO.N,/IC5.O4*%
X175035000Y-93280000D03*
%TO.P,IC5,16,O3*%
%TO.N,/IC5.O3*%
X175035000Y-92645000D03*
%TO.P,IC5,17,O2*%
%TO.N,/IC5.O2*%
X175033000Y-91973000D03*
%TO.P,IC5,18,O1*%
%TO.N,/IC5.O1*%
X175035000Y-91295000D03*
%TD*%
D15*
%TO.P,R13,1*%
%TO.N,/P47*%
X125352000Y-102090000D03*
%TO.P,R13,2*%
%TO.N,/Link.P2*%
X125352000Y-104352000D03*
%TD*%
%TO.P,R9,1*%
%TO.N,/GND*%
X157901000Y-127313000D03*
%TO.P,R9,2*%
%TO.N,/Route8*%
X157901000Y-125051000D03*
%TD*%
%TO.P,C19,1*%
%TO.N,/GND*%
X181232000Y-108859000D03*
%TO.P,C19,2*%
%TO.N,/P51*%
X181232000Y-111121000D03*
%TD*%
D13*
%TO.P,R3,1*%
%TO.N,/Route3*%
X139008000Y-119514000D03*
%TO.P,R3,2*%
%TO.N,/Route4*%
X141270000Y-119514000D03*
%TD*%
D15*
%TO.P,R6,1*%
%TO.N,/P45*%
X123278000Y-121197000D03*
%TO.P,R6,2*%
%TO.N,/Link.P5*%
X123278000Y-123459000D03*
%TD*%
D13*
%TO.P,D3,1,K*%
%TO.N,/Reset*%
X165554000Y-81529500D03*
%TO.P,D3,2,A*%
%TO.N,/Off.GND*%
X167776000Y-81530500D03*
%TD*%
%TO.P,R5,1*%
%TO.N,/Route6*%
X143383000Y-119430000D03*
%TO.P,R5,2*%
%TO.N,/Route5*%
X145645000Y-119430000D03*
%TD*%
D17*
%TO.P,IC1,1*%
%TO.N,/Route8*%
X160183000Y-125180000D03*
D18*
%TO.P,IC1,2,GND*%
%TO.N,/GND*%
X160677000Y-126653000D03*
D19*
X163093000Y-126650000D03*
D17*
%TO.P,IC1,3,+*%
%TO.N,/Route15*%
X160188000Y-128168000D03*
%TD*%
D13*
%TO.P,C14,1*%
%TO.N,/VCC*%
X169838000Y-119311000D03*
%TO.P,C14,2*%
%TO.N,/GND*%
X172100000Y-119311000D03*
%TD*%
%TO.P,R32,1*%
%TO.N,/Route27*%
X135788000Y-106298000D03*
%TO.P,R32,2*%
%TO.N,/CN1.P3*%
X138050000Y-106298000D03*
%TD*%
%TO.P,Q3,1,B*%
%TO.N,/Route20*%
X138968000Y-115583000D03*
%TO.P,Q3,2,E*%
%TO.N,/GND*%
X138968000Y-117567000D03*
%TO.P,Q3,3,C*%
%TO.N,/Route7*%
X141271000Y-116574000D03*
%TD*%
%TO.P,C17,1*%
%TO.N,/GND*%
X152933000Y-110939000D03*
%TO.P,C17,2*%
%TO.N,/VCC*%
X155195000Y-110939000D03*
%TD*%
%TO.P,R30,1*%
%TO.N,/P50*%
X139859000Y-103443000D03*
%TO.P,R30,2*%
%TO.N,/VCC*%
X142121000Y-103443000D03*
%TD*%
%TO.P,R34,1*%
%TO.N,/P52*%
X163549000Y-134063000D03*
%TO.P,R34,2*%
%TO.N,/Route13*%
X165811000Y-134063000D03*
%TD*%
D15*
%TO.P,R26,1*%
%TO.N,/P61*%
X129079000Y-131100000D03*
%TO.P,R26,2*%
%TO.N,/9V.Prefuse*%
X129079000Y-133362000D03*
%TD*%
D20*
%TO.P,IC3,1,NC*%
%TO.N,unconnected-(IC3-Pad1)*%
X138625000Y-78745000D03*
%TO.P,IC3,2,A12*%
%TO.N,/A12*%
X139933000Y-78745000D03*
%TO.P,IC3,3,A7*%
%TO.N,/A7*%
X141206000Y-78745000D03*
%TO.P,IC3,4,A6*%
%TO.N,/A6*%
X142475000Y-78743000D03*
%TO.P,IC3,5,A5*%
%TO.N,/A5*%
X143744000Y-78745000D03*
%TO.P,IC3,6,A4*%
%TO.N,/A4*%
X145015000Y-78745000D03*
%TO.P,IC3,7,A3*%
%TO.N,/A3*%
X146286000Y-78745000D03*
%TO.P,IC3,8,A2*%
%TO.N,/A2*%
X147595000Y-78745000D03*
%TO.P,IC3,9,A1*%
%TO.N,/A1*%
X148823000Y-78744000D03*
%TO.P,IC3,10,A0*%
%TO.N,/A0*%
X150096000Y-78747000D03*
%TO.P,IC3,11,I/O1*%
%TO.N,/D0*%
X151367000Y-78742000D03*
%TO.P,IC3,12,I/O2*%
%TO.N,/D1*%
X152636000Y-78744000D03*
%TO.P,IC3,13,I/O3*%
%TO.N,/D2*%
X153908000Y-78745000D03*
%TO.P,IC3,14,GND*%
%TO.N,/GND*%
X155175000Y-78743000D03*
%TO.P,IC3,15,I/O4*%
%TO.N,/D3*%
X155177000Y-67157000D03*
%TO.P,IC3,16,I/O5*%
%TO.N,/D4*%
X153904000Y-67154000D03*
%TO.P,IC3,17,I/O6*%
%TO.N,/D5*%
X152634000Y-67156000D03*
%TO.P,IC3,18,I/O7*%
%TO.N,/D6*%
X151366000Y-67155000D03*
%TO.P,IC3,19,I/O8*%
%TO.N,/D7*%
X150095000Y-67152000D03*
%TO.P,IC3,20,CE1*%
%TO.N,/CE1*%
X148825000Y-67156000D03*
%TO.P,IC3,21,A10*%
%TO.N,/A10*%
X147596000Y-67155000D03*
%TO.P,IC3,22,OE*%
%TO.N,/OE*%
X146285000Y-67151000D03*
%TO.P,IC3,23,A11*%
%TO.N,/A11*%
X145016000Y-67155000D03*
%TO.P,IC3,24,A9*%
%TO.N,/A9*%
X143745000Y-67156000D03*
%TO.P,IC3,25,A8*%
%TO.N,/A8*%
X142475000Y-67157000D03*
%TO.P,IC3,26,CE2*%
%TO.N,/VCC*%
X141206000Y-67156000D03*
%TO.P,IC3,27,WE*%
%TO.N,/WE*%
X139936000Y-67151000D03*
%TO.P,IC3,28,VCC*%
%TO.N,/VCC*%
X138626000Y-67155000D03*
%TD*%
D21*
%TO.P,Q6,1,GND*%
%TO.N,/Route16*%
X169291000Y-124154000D03*
D22*
%TO.P,Q6,2,VIN*%
%TO.N,/CN1.P2*%
X167818000Y-124648000D03*
D23*
X167821000Y-127064000D03*
D21*
%TO.P,Q6,3,VOUT*%
%TO.N,/VCC*%
X166303000Y-124159000D03*
%TD*%
D13*
%TO.P,C12,1*%
%TO.N,/P50*%
X139854000Y-101447000D03*
%TO.P,C12,2*%
%TO.N,/GND*%
X142116000Y-101447000D03*
%TD*%
D15*
%TO.P,R7,1*%
%TO.N,/GND*%
X136896000Y-119340000D03*
%TO.P,R7,2*%
%TO.N,/Route20*%
X136896000Y-117078000D03*
%TD*%
D13*
%TO.P,Q4,1,B*%
%TO.N,/Route23*%
X130288000Y-82887000D03*
%TO.P,Q4,2,E*%
%TO.N,/Route19*%
X130288000Y-84871000D03*
%TO.P,Q4,3,C*%
%TO.N,/Route24*%
X132591000Y-83878000D03*
%TD*%
%TO.P,R36,1*%
%TO.N,/GND*%
X155249000Y-138195000D03*
%TO.P,R36,2*%
%TO.N,/Route14*%
X157511000Y-138195000D03*
%TD*%
D15*
%TO.P,Q9,1,B*%
%TO.N,/Route13*%
X175984000Y-139555000D03*
%TO.P,Q9,2,E*%
%TO.N,/Route14*%
X177968000Y-139555000D03*
%TO.P,Q9,3,C*%
%TO.N,/Route12*%
X176975000Y-137252000D03*
%TD*%
%TO.P,Q14,1,B*%
%TO.N,/VCC*%
X136869000Y-92625500D03*
%TO.P,Q14,2,E*%
%TO.N,/P53*%
X134885000Y-92625500D03*
%TO.P,Q14,3,C*%
%TO.N,/Route23*%
X135878000Y-94928500D03*
%TD*%
%TO.P,C4,1*%
%TO.N,/Route9*%
X153908000Y-127313000D03*
%TO.P,C4,2*%
%TO.N,/LED.Anode*%
X153908000Y-125051000D03*
%TD*%
%TO.P,Q8,1,B*%
%TO.N,/Route13*%
X163690000Y-132082000D03*
%TO.P,Q8,2,E*%
%TO.N,/Route14*%
X165674000Y-132082000D03*
%TO.P,Q8,3,C*%
%TO.N,/Route16*%
X164681000Y-129779000D03*
%TD*%
D24*
%TO.P,IC2,1,P76*%
%TO.N,/D6*%
X163803000Y-105644000D03*
%TO.P,IC2,2,P77*%
%TO.N,/D7*%
X163807000Y-104652000D03*
%TO.P,IC2,3,P00*%
%TO.N,/IC6.I8*%
X163806000Y-103654000D03*
%TO.P,IC2,4,P01*%
%TO.N,/IC6.I7*%
X163806000Y-102665000D03*
%TO.P,IC2,5,P02*%
%TO.N,/IC6.I6*%
X163805000Y-101639000D03*
%TO.P,IC2,6,P03*%
%TO.N,/IC6.I5*%
X163805000Y-100601000D03*
%TO.P,IC2,7,P04*%
%TO.N,/IC6.I4*%
X163801000Y-99607000D03*
%TO.P,IC2,8,P05*%
%TO.N,/IC6.I3*%
X163807000Y-98617000D03*
%TO.P,IC2,9,P06*%
%TO.N,/IC6.I2*%
X163803000Y-97625000D03*
%TO.P,IC2,10,P07*%
%TO.N,/IC6.I1*%
X163802000Y-96596000D03*
%TO.P,IC2,11,P10_INT0*%
%TO.N,/IC5.I8*%
X163805000Y-95561000D03*
%TO.P,IC2,12,P11_INT1*%
%TO.N,/IC5.I7*%
X163805000Y-94565000D03*
%TO.P,IC2,13,P12_INT2/TC1*%
%TO.N,/IC5.I6*%
X163808000Y-93579000D03*
%TO.P,IC2,14,P13_DVO*%
%TO.N,/IC5.I5*%
X163808000Y-92587000D03*
%TO.P,IC2,15,P14_PPG*%
%TO.N,/IC5.I4*%
X163806000Y-91595000D03*
%TO.P,IC2,16,P15_TC2*%
%TO.N,/IC5.I3*%
X163809000Y-90603000D03*
%TO.P,IC2,17,P16*%
%TO.N,/IC5.I2*%
X163810000Y-89571000D03*
%TO.P,IC2,18,P17*%
%TO.N,/IC5.I1*%
X163810000Y-88575000D03*
%TO.P,IC2,19,P20_INT5/STOP*%
%TO.N,/Button*%
X163807000Y-87579000D03*
D25*
%TO.P,IC2,20,TEST*%
%TO.N,/GND*%
X161265000Y-85127000D03*
%TO.P,IC2,21,P21_XTIN*%
%TO.N,/WE*%
X160234000Y-85124000D03*
%TO.P,IC2,22,P22_XTOUT*%
%TO.N,/CE1*%
X159242000Y-85129000D03*
%TO.P,IC2,23,RESET*%
%TO.N,/Reset*%
X158250000Y-85129000D03*
%TO.P,IC2,24,XIN*%
%TO.N,/XIN*%
X157258000Y-85128000D03*
%TO.P,IC2,25,XOUT*%
%TO.N,/XOUT*%
X156266000Y-85124000D03*
%TO.P,IC2,26,VSS*%
%TO.N,/GND*%
X155271000Y-85128000D03*
%TO.P,IC2,27,P30*%
%TO.N,/A0*%
X154282000Y-85125000D03*
%TO.P,IC2,28,P31*%
%TO.N,/A1*%
X153247000Y-85120000D03*
%TO.P,IC2,29,P32*%
%TO.N,/A2*%
X152255000Y-85124000D03*
%TO.P,IC2,30,P33*%
%TO.N,/A3*%
X151227000Y-85125000D03*
%TO.P,IC2,31,P34*%
%TO.N,/A4*%
X150235000Y-85129000D03*
%TO.P,IC2,32,P35*%
%TO.N,/A5*%
X149204000Y-85130000D03*
D24*
%TO.P,IC2,33,P36*%
%TO.N,/A6*%
X146670000Y-87585000D03*
%TO.P,IC2,34,P37*%
%TO.N,/A7*%
X146663000Y-88578000D03*
%TO.P,IC2,35,P40*%
%TO.N,/A8*%
X146663000Y-89568000D03*
%TO.P,IC2,36,P41*%
%TO.N,/A9*%
X146668000Y-90602000D03*
%TO.P,IC2,37,P42_SCK1*%
%TO.N,/A10*%
X146668000Y-91595000D03*
%TO.P,IC2,38,P43_SI1*%
%TO.N,/A11*%
X146665000Y-92587000D03*
%TO.P,IC2,39,P44_SO1*%
%TO.N,/A12*%
X146669000Y-93579000D03*
%TO.P,IC2,40,P45_SCK2*%
%TO.N,/P45*%
X146670000Y-94568000D03*
%TO.P,IC2,41,P46_SI2*%
%TO.N,/P46*%
X146670000Y-95564000D03*
%TO.P,IC2,42,P47_SO2*%
%TO.N,/P47*%
X146668000Y-96595000D03*
%TO.P,IC2,43,P50_INT3/TC3*%
%TO.N,/P50*%
X146665000Y-97623000D03*
%TO.P,IC2,44,P51_INT4/TC4*%
%TO.N,/P51*%
X146669000Y-98615000D03*
%TO.P,IC2,45,P52_PWM/PDO*%
%TO.N,/P52*%
X146672000Y-99611000D03*
%TO.P,IC2,46,P53*%
%TO.N,/P53*%
X146674000Y-100599000D03*
%TO.P,IC2,47,P54*%
%TO.N,/OE*%
X146671000Y-101638000D03*
%TO.P,IC2,48,VASS*%
%TO.N,/GND*%
X146672000Y-102663000D03*
%TO.P,IC2,49,VAREF*%
%TO.N,/VCC*%
X146673000Y-103653000D03*
%TO.P,IC2,50,P60_AIN0*%
%TO.N,/P60*%
X146673000Y-104645000D03*
%TO.P,IC2,51,P61_AIN1*%
%TO.N,/P61*%
X146672000Y-105643000D03*
D25*
%TO.P,IC2,52,P62_AIN2*%
%TO.N,/GND*%
X149163000Y-107985000D03*
%TO.P,IC2,53,P63_AIN3*%
X150194000Y-107985000D03*
%TO.P,IC2,54,P64_AIN4*%
X151185000Y-107984000D03*
%TO.P,IC2,55,P65_AIN5*%
X152216000Y-107981000D03*
%TO.P,IC2,56,P66_AIN6*%
X153212000Y-107984000D03*
%TO.P,IC2,57,P67_AIN7*%
X154241000Y-107984000D03*
%TO.P,IC2,58,VDD*%
%TO.N,/VCC*%
X155235000Y-107984000D03*
%TO.P,IC2,59,P70*%
%TO.N,/D0*%
X156224000Y-107988000D03*
%TO.P,IC2,60,P71*%
%TO.N,/D1*%
X157221000Y-107983000D03*
%TO.P,IC2,61,P72*%
%TO.N,/D2*%
X158213000Y-107983000D03*
%TO.P,IC2,62,P73*%
%TO.N,/D3*%
X159205000Y-107983000D03*
%TO.P,IC2,63,P74*%
%TO.N,/D4*%
X160193000Y-107980000D03*
%TO.P,IC2,64,P75*%
%TO.N,/D5*%
X161229000Y-107983000D03*
%TD*%
D15*
%TO.P,R11,1*%
%TO.N,/P46*%
X129864000Y-126554000D03*
%TO.P,R11,2*%
%TO.N,/Link.P3*%
X129864000Y-128816000D03*
%TD*%
D13*
%TO.P,R21,1*%
%TO.N,/9V.Postfuse*%
X129243000Y-77917000D03*
%TO.P,R21,2*%
%TO.N,/Route21*%
X131505000Y-77917000D03*
%TD*%
%TO.P,R4,1*%
%TO.N,/Route4*%
X143392000Y-121416000D03*
%TO.P,R4,2*%
%TO.N,/Route5*%
X145654000Y-121416000D03*
%TD*%
D15*
%TO.P,Q5,1,B*%
%TO.N,/Route24*%
X134560000Y-84182500D03*
%TO.P,Q5,2,E*%
%TO.N,/GND*%
X136544000Y-84182500D03*
%TO.P,Q5,3,C*%
%TO.N,/Route23*%
X135551000Y-81879500D03*
%TD*%
%TO.P,R12,1*%
%TO.N,/Route9*%
X155904000Y-127313000D03*
%TO.P,R12,2*%
%TO.N,/Route8*%
X155904000Y-125051000D03*
%TD*%
D13*
%TO.P,R29,1*%
%TO.N,/VCC*%
X139795000Y-99391000D03*
%TO.P,R29,2*%
%TO.N,/P51*%
X142057000Y-99391000D03*
%TD*%
%TO.P,C18,1*%
%TO.N,/GND*%
X129233000Y-79942000D03*
%TO.P,C18,2*%
%TO.N,/Route21*%
X131495000Y-79942000D03*
%TD*%
D15*
%TO.P,C20,1*%
%TO.N,/GND*%
X125070000Y-131100000D03*
%TO.P,C20,2*%
%TO.N,/P61*%
X125070000Y-133362000D03*
%TD*%
D13*
%TO.P,Q2,1,B*%
%TO.N,/Route7*%
X143398000Y-115657000D03*
%TO.P,Q2,2,E*%
%TO.N,/Route6*%
X143398000Y-117641000D03*
%TO.P,Q2,3,C*%
%TO.N,/GND*%
X145701000Y-116648000D03*
%TD*%
%TO.P,R1,1*%
%TO.N,/9V.Postfuse*%
X138964000Y-123397000D03*
%TO.P,R1,2*%
%TO.N,/Route2*%
X141226000Y-123397000D03*
%TD*%
%TO.P,R16,1*%
%TO.N,/Route19*%
X134740000Y-86171000D03*
%TO.P,R16,2*%
%TO.N,/9V.Postfuse*%
X137002000Y-86171000D03*
%TD*%
D26*
%TO.P,D1,1,K*%
%TO.N,/GND*%
X146182000Y-137769000D03*
%TO.P,D1,2,A*%
%TO.N,/Route1*%
X146186000Y-133355000D03*
%TD*%
D13*
%TO.P,R33,1*%
%TO.N,/VCC*%
X155248000Y-136177000D03*
%TO.P,R33,2*%
%TO.N,/P52*%
X157510000Y-136177000D03*
%TD*%
D16*
%TO.P,IC6,1,I1*%
%TO.N,/IC6.I1*%
X168892500Y-98634500D03*
%TO.P,IC6,2,I2*%
%TO.N,/IC6.I2*%
X168892500Y-99311500D03*
%TO.P,IC6,3,I3*%
%TO.N,/IC6.I3*%
X168892500Y-99985500D03*
%TO.P,IC6,4,I4*%
%TO.N,/IC6.I4*%
X168891500Y-100621500D03*
%TO.P,IC6,5,I5*%
%TO.N,/IC6.I5*%
X168891500Y-101252500D03*
%TO.P,IC6,6,I6*%
%TO.N,/IC6.I6*%
X168898500Y-101888500D03*
%TO.P,IC6,7,I7*%
%TO.N,/IC6.I7*%
X168894500Y-102561500D03*
%TO.P,IC6,8,I8*%
%TO.N,/IC6.I8*%
X168891500Y-103201500D03*
%TO.P,IC6,9,GND*%
%TO.N,/GND*%
X168893500Y-103834500D03*
%TO.P,IC6,10,N/C*%
%TO.N,unconnected-(IC6-Pad10)*%
X175046500Y-103833500D03*
%TO.P,IC6,11,O8*%
%TO.N,/IC6.O8*%
X175046500Y-103196500D03*
%TO.P,IC6,12,O7*%
%TO.N,/IC6.O7*%
X175046500Y-102563500D03*
%TO.P,IC6,13,O6*%
%TO.N,/IC6.O6*%
X175048500Y-101888500D03*
%TO.P,IC6,14,O5*%
%TO.N,/IC6.O5*%
X175047500Y-101256500D03*
%TO.P,IC6,15,O4*%
%TO.N,/IC6.O4*%
X175046500Y-100618500D03*
%TO.P,IC6,16,O3*%
%TO.N,/IC6.O3*%
X175046500Y-99983500D03*
%TO.P,IC6,17,O2*%
%TO.N,/IC6.O2*%
X175044500Y-99311500D03*
%TO.P,IC6,18,O1*%
%TO.N,/IC6.O1*%
X175046500Y-98633500D03*
%TD*%
D13*
%TO.P,C6,1*%
%TO.N,/Route19*%
X135348000Y-98955000D03*
%TO.P,C6,2*%
%TO.N,/Route23*%
X137610000Y-98955000D03*
%TD*%
D15*
%TO.P,R27,1*%
%TO.N,/GND*%
X127058000Y-131102000D03*
%TO.P,R27,2*%
%TO.N,/P61*%
X127058000Y-133364000D03*
%TD*%
D12*
%TO.P,NR2,1,R1.1*%
%TO.N,/A3*%
X136063000Y-74504000D03*
%TO.P,NR2,2,R2.1*%
%TO.N,/A2*%
X136061000Y-73670000D03*
%TO.P,NR2,3,R3.1*%
%TO.N,/A1*%
X136065000Y-72836000D03*
%TO.P,NR2,4,R4.1*%
%TO.N,/A0*%
X136063000Y-72083000D03*
%TO.P,NR2,5,R4.2*%
%TO.N,/VCC*%
X134275000Y-72080000D03*
%TO.P,NR2,6,R3.2*%
X134276000Y-72837000D03*
%TO.P,NR2,7,R2.2*%
X134275000Y-73669000D03*
%TO.P,NR2,8,R1.2*%
X134275000Y-74502000D03*
%TD*%
D15*
%TO.P,C15,1*%
%TO.N,/VCC*%
X158137000Y-72219000D03*
%TO.P,C15,2*%
%TO.N,/GND*%
X158137000Y-74481000D03*
%TD*%
%TO.P,R35,1*%
%TO.N,/Route14*%
X161861000Y-133180000D03*
%TO.P,R35,2*%
%TO.N,/VCC*%
X161861000Y-130918000D03*
%TD*%
D27*
%TO.P,F1,1*%
%TO.N,/9V+*%
X145468500Y-141341000D03*
%TO.P,F1,2*%
%TO.N,/9V.F1*%
X148059500Y-141341000D03*
%TD*%
D13*
%TO.P,R2,1*%
%TO.N,/Route3*%
X138979000Y-121494000D03*
%TO.P,R2,2*%
%TO.N,/Route2*%
X141241000Y-121494000D03*
%TD*%
D21*
%TO.P,Q7,1,B*%
%TO.N,/Route12*%
X171363000Y-128246000D03*
D28*
%TO.P,Q7,2,E*%
%TO.N,/CN1.P2*%
X172833000Y-125336000D03*
D22*
X172836000Y-127752000D03*
D21*
%TO.P,Q7,3,C*%
%TO.N,/GND*%
X174351000Y-128241000D03*
%TD*%
D15*
%TO.P,D5,1,K*%
%TO.N,/Route19*%
X132858000Y-97236000D03*
%TO.P,D5,2,A*%
%TO.N,/Off.GND*%
X132857000Y-99458000D03*
%TD*%
%TO.P,Q10,1,B*%
%TO.N,/Route27*%
X135985000Y-103405000D03*
%TO.P,Q10,2,E*%
%TO.N,/GND*%
X137969000Y-103405000D03*
%TO.P,Q10,3,C*%
%TO.N,/P50*%
X136976000Y-101102000D03*
%TD*%
D12*
%TO.P,NR4,1,R1.1*%
%TO.N,/A8*%
X136063000Y-64862000D03*
%TO.P,NR4,2,R2.1*%
%TO.N,/A9*%
X136061000Y-64028000D03*
%TO.P,NR4,3,R3.1*%
%TO.N,/A11*%
X136065000Y-63194000D03*
%TO.P,NR4,4,R4.1*%
%TO.N,/VCC*%
X136063000Y-62441000D03*
%TO.P,NR4,5,R4.2*%
%TO.N,/A12*%
X134275000Y-62438000D03*
%TO.P,NR4,6,R3.2*%
%TO.N,/VCC*%
X134276000Y-63195000D03*
%TO.P,NR4,7,R2.2*%
X134275000Y-64027000D03*
%TO.P,NR4,8,R1.2*%
X134275000Y-64860000D03*
%TD*%
D13*
%TO.P,R28,1*%
%TO.N,/P60*%
X139921000Y-107441000D03*
%TO.P,R28,2*%
%TO.N,/VCC*%
X142183000Y-107441000D03*
%TD*%
D15*
%TO.P,IC7,1,E*%
%TO.N,/Route20*%
X128676500Y-75892500D03*
%TO.P,IC7,2,B*%
%TO.N,/Route21*%
X130663500Y-75890500D03*
D29*
%TO.P,IC7,3,C*%
%TO.N,/GND*%
X128675500Y-73426500D03*
D30*
X129706500Y-73428500D03*
D29*
%TO.P,IC7,4*%
%TO.N,N/C*%
X130700500Y-73428500D03*
%TD*%
D15*
%TO.P,Q11,1,B*%
%TO.N,/Route19*%
X134874000Y-90495500D03*
%TO.P,Q11,2,E*%
%TO.N,/Route15*%
X136858000Y-90495500D03*
%TO.P,Q11,3,C*%
%TO.N,/Route25*%
X135865000Y-88192500D03*
%TD*%
D13*
%TO.P,R22,1*%
%TO.N,/Route21*%
X133282000Y-79944000D03*
%TO.P,R22,2*%
%TO.N,/GND*%
X135544000Y-79944000D03*
%TD*%
D31*
%TO.P,TH1,1*%
%TO.N,/P60*%
X123443000Y-103002000D03*
%TO.P,TH1,2*%
%TO.N,/GND*%
X123441000Y-104510000D03*
%TD*%
D15*
%TO.P,R23,1*%
%TO.N,/GND*%
X128639000Y-90903000D03*
%TO.P,R23,2*%
%TO.N,/LED.Cathode*%
X128639000Y-88641000D03*
%TD*%
D32*
%TO.P,L1,1,1*%
%TO.N,/LED.Anode*%
X156339000Y-116728000D03*
%TO.P,L1,2,2*%
%TO.N,/Route1*%
X156341000Y-121772000D03*
%TD*%
D33*
%TO.P,SW2,1,A*%
%TO.N,/Off.GND*%
X139395000Y-135468000D03*
%TO.P,SW2,2,B*%
%TO.N,/GND*%
X137412000Y-135470000D03*
%TO.P,SW2,3,C*%
%TO.N,/9V-*%
X135389000Y-135469100D03*
%TO.P,SW2,4,A*%
%TO.N,unconnected-(SW2-Pad4)*%
X139397000Y-137889000D03*
%TO.P,SW2,5,B*%
%TO.N,/9V.F1*%
X137411000Y-137889000D03*
%TO.P,SW2,6,C*%
%TO.N,/9V.Prefuse*%
X135389000Y-137889000D03*
D34*
%TO.P,SW2,7,Case_GND*%
%TO.N,/GND*%
X141976000Y-133921000D03*
X141977100Y-139473000D03*
%TO.P,SW2,8,Case_GND*%
X132768000Y-139440000D03*
X132768000Y-133879000D03*
%TD*%
D32*
%TO.P,F2,1*%
%TO.N,/9V.Postfuse*%
X157295000Y-131299000D03*
%TO.P,F2,2*%
%TO.N,/9V.Prefuse*%
X133094000Y-131183000D03*
%TD*%
%TO.P,C2,1*%
%TO.N,/LED.Anode*%
X166340000Y-114564000D03*
%TO.P,C2,2*%
%TO.N,/GND*%
X166300300Y-119602400D03*
%TD*%
D35*
%TO.P,CN1,1,Pin_1*%
%TO.N,/VCC*%
X176950000Y-121545000D03*
%TO.P,CN1,2,Pin_2*%
%TO.N,/CN1.P2*%
X176953000Y-118997000D03*
%TO.P,CN1,3,Pin_3*%
%TO.N,/CN1.P3*%
X176947000Y-116460000D03*
%TO.P,CN1,4,Pin_4*%
%TO.N,/GND*%
X176949000Y-113921000D03*
%TO.P,CN1,5,Pin_5*%
%TO.N,/P51*%
X176944000Y-111342000D03*
%TO.P,CN1,6,Pin_6*%
%TO.N,/GND*%
X176946000Y-108795000D03*
%TD*%
D32*
%TO.P,Q1,1,B*%
%TO.N,/Route2*%
X147562000Y-128995000D03*
%TO.P,Q1,2,C*%
%TO.N,/Route1*%
X145105000Y-128999000D03*
%TO.P,Q1,3,E*%
%TO.N,/9V.Postfuse*%
X142606000Y-129001000D03*
%TD*%
%TO.P,C3,1*%
%TO.N,/VCC*%
X149478000Y-115776000D03*
%TO.P,C3,2*%
%TO.N,/GND*%
X149641000Y-120770000D03*
%TD*%
%TO.P,SW1,1,1*%
%TO.N,/Button*%
X173175000Y-140083000D03*
%TO.P,SW1,2,2*%
X173177000Y-131552000D03*
%TO.P,SW1,3,K*%
%TO.N,/GND*%
X168688000Y-140043000D03*
%TO.P,SW1,4,A*%
%TO.N,unconnected-(SW1-Pad4)*%
X168613000Y-131513000D03*
%TD*%
%TO.P,L2,1,1*%
%TO.N,/LED.Anode*%
X172058000Y-109511000D03*
%TO.P,L2,2,2*%
%TO.N,/VCC*%
X172103000Y-113558000D03*
%TD*%
D36*
%TO.P,LED1,1,K*%
%TO.N,/LED.Cathode*%
X124038300Y-85023300D03*
%TO.P,LED1,2,A*%
%TO.N,/LED.Anode*%
X124074000Y-90026000D03*
%TD*%
D32*
%TO.P,C1,1*%
%TO.N,/9V.Postfuse*%
X151856000Y-133578000D03*
%TO.P,C1,2*%
%TO.N,/GND*%
X151897700Y-138611300D03*
%TD*%
D37*
%TO.P,CN2,1,Pin_1*%
%TO.N,/LED.Anode*%
X182178000Y-85060500D03*
%TO.P,CN2,2,Pin_2*%
X180195000Y-86052700D03*
%TO.P,CN2,3,Pin_3*%
%TO.N,/IC5.O1*%
X182177000Y-87044000D03*
%TO.P,CN2,4,Pin_4*%
%TO.N,/IC5.O2*%
X180196000Y-88038000D03*
%TO.P,CN2,5,Pin_5*%
%TO.N,/IC5.O3*%
X182183000Y-89067000D03*
%TO.P,CN2,6,Pin_6*%
%TO.N,/IC5.O4*%
X180196000Y-90104000D03*
%TO.P,CN2,7,Pin_7*%
%TO.N,/IC5.O5*%
X182179000Y-91094000D03*
%TO.P,CN2,8,Pin_8*%
%TO.N,/IC5.O6*%
X180198000Y-92084000D03*
%TO.P,CN2,9,Pin_9*%
%TO.N,/IC5.O7*%
X182179000Y-93077000D03*
%TO.P,CN2,10,Pin_10*%
%TO.N,/IC5.O8*%
X180193000Y-94071000D03*
%TO.P,CN2,11,Pin_11*%
%TO.N,/IC6.O1*%
X182180000Y-95103000D03*
%TO.P,CN2,12,Pin_12*%
%TO.N,/IC6.O2*%
X180195000Y-96054000D03*
%TO.P,CN2,13,Pin_13*%
%TO.N,/IC6.O3*%
X182178000Y-97088000D03*
%TO.P,CN2,14,Pin_14*%
%TO.N,/IC6.O4*%
X180191000Y-98079000D03*
%TO.P,CN2,15,Pin_15*%
%TO.N,/IC6.O5*%
X182178000Y-99109000D03*
%TO.P,CN2,16,Pin_16*%
%TO.N,/IC6.O6*%
X180195000Y-100106000D03*
%TO.P,CN2,17,Pin_17*%
%TO.N,/IC6.O7*%
X182176000Y-101096000D03*
%TO.P,CN2,18,Pin_18*%
%TO.N,/IC6.O8*%
X180197000Y-102129000D03*
%TD*%
D33*
%TO.P,CN3,1,Pin_1*%
%TO.N,unconnected-(CN3-Pad1)*%
X125709000Y-110864000D03*
%TO.P,CN3,2,Pin_2*%
%TO.N,/Link.P2*%
X123688000Y-110860000D03*
%TO.P,CN3,3,Pin_3*%
%TO.N,/Link.P3*%
X125708000Y-112887000D03*
%TO.P,CN3,4,Pin_4*%
%TO.N,unconnected-(CN3-Pad4)*%
X123680000Y-112887000D03*
%TO.P,CN3,5,Pin_5*%
%TO.N,/Link.P5*%
X125706000Y-114869000D03*
%TO.P,CN3,6,Pin_6*%
%TO.N,/GND*%
X123685000Y-114874000D03*
D38*
%TO.P,CN3,7,GND*%
X123922000Y-108030000D03*
%TO.P,CN3,8,GND*%
X123922000Y-117696000D03*
%TD*%
D39*
%TO.N,/GND*%
X131431600Y-108205000D03*
X140619400Y-105549200D03*
%TO.N,/VCC*%
X139795000Y-95170700D03*
X135194100Y-67695500D03*
X143505500Y-107225500D03*
X155235000Y-93672500D03*
%TO.N,/P53*%
X137966900Y-90975500D03*
X151224300Y-90975500D03*
%TO.N,/D6*%
X151366000Y-74466300D03*
X165989500Y-104061300D03*
%TO.N,/D7*%
X161967500Y-91489900D03*
X150095000Y-68827400D03*
%TO.N,/WE*%
X137365000Y-68800100D03*
X159923300Y-83293000D03*
%TO.N,/CE1*%
X149083000Y-74601500D03*
X159198200Y-82481700D03*
%TO.N,/A4*%
X150126800Y-86959300D03*
X145598600Y-81396400D03*
%TO.N,/A8*%
X144485400Y-88725400D03*
X142475000Y-68888500D03*
X136788100Y-67558000D03*
%TO.N,/A9*%
X135335900Y-65657000D03*
X142024900Y-80744700D03*
X144234300Y-69385300D03*
%TO.N,/A10*%
X148217800Y-84334500D03*
X146045700Y-70664800D03*
%TO.N,/A11*%
X145016000Y-68717400D03*
X149907000Y-88165200D03*
X137075500Y-64089900D03*
%TO.N,/P45*%
X143867300Y-95085300D03*
X123278000Y-119807500D03*
%TO.N,/P46*%
X129475500Y-104203300D03*
X144821600Y-95564000D03*
%TO.N,/P47*%
X142739900Y-96595000D03*
X126177100Y-98234300D03*
%TO.N,/P51*%
X175202700Y-109419200D03*
X148525700Y-98663200D03*
%TO.N,/P52*%
X157830600Y-134675100D03*
X144630400Y-102134800D03*
%TO.N,/OE*%
X153640800Y-87784700D03*
X145982700Y-69582900D03*
%TO.N,/P60*%
X139921000Y-108547400D03*
X129029700Y-115270700D03*
%TO.N,/P61*%
X128253900Y-116661600D03*
X140333100Y-109957700D03*
%TO.N,/D0*%
X156544700Y-87372800D03*
X151367000Y-77184900D03*
%TO.N,/D1*%
X157221000Y-88753000D03*
X152636000Y-80886700D03*
%TO.N,/D2*%
X153908000Y-82207800D03*
X158213000Y-87405900D03*
%TO.N,/D4*%
X160193000Y-92186300D03*
X154154900Y-74198800D03*
%TO.N,/D5*%
X160823500Y-90326400D03*
X153154700Y-74314500D03*
%TO.N,/Off.GND*%
X167776000Y-79384700D03*
%TO.N,/CN1.P3*%
X145647800Y-110684100D03*
X173677000Y-121007900D03*
%TO.N,/Route20*%
X128064200Y-78852800D03*
X134820100Y-102265100D03*
%TO.N,/Route23*%
X137091300Y-95178000D03*
X131439500Y-85788300D03*
%TO.N,/9V.Postfuse*%
X131354200Y-96737400D03*
X140739300Y-96737400D03*
X128075000Y-77116100D03*
%TD*%
D40*
%TO.N,/GND*%
X173055300Y-129487000D02*
X174330100Y-129487000D01*
X140994900Y-104149100D02*
X140994900Y-102702300D01*
X158137000Y-74481000D02*
X159411100Y-74481000D01*
X149163000Y-107985000D02*
X149163000Y-106284900D01*
X129233000Y-80917100D02*
X129247700Y-80931800D01*
X164032100Y-80659800D02*
X161265000Y-83426900D01*
X157951600Y-128453700D02*
X157901000Y-128403100D01*
X167774000Y-74045900D02*
X164666400Y-74045900D01*
X122062500Y-117521000D02*
X121446900Y-117521000D01*
X155175000Y-79455500D02*
X155175000Y-78743000D01*
X153300000Y-119382000D02*
X152324900Y-119382000D01*
X172100000Y-119311000D02*
X172100000Y-118335900D01*
X150936900Y-126181200D02*
X155580500Y-130824800D01*
X166300300Y-121262700D02*
X163093000Y-124470000D01*
X157901000Y-127313000D02*
X157901000Y-128215500D01*
X164032100Y-75495900D02*
X164032100Y-80659800D01*
X129537300Y-97316800D02*
X131431600Y-99211100D01*
X140097800Y-115947200D02*
X141201700Y-114843300D01*
X124094900Y-131100000D02*
X124094900Y-134198400D01*
X153742600Y-138611300D02*
X154158900Y-138195000D01*
X140675400Y-104468600D02*
X140994900Y-104149100D01*
X141201700Y-114843300D02*
X142298700Y-114843300D01*
X164666400Y-74045900D02*
X164032100Y-74680200D01*
X155271000Y-80264100D02*
X155175000Y-80168100D01*
X129233000Y-79942000D02*
X128142900Y-79942000D01*
X151185000Y-106638000D02*
X151185000Y-106283900D01*
X157161900Y-75331000D02*
X157161900Y-74481000D01*
X129247700Y-80931800D02*
X134556200Y-80931800D01*
X160677000Y-126653000D02*
X161720100Y-126653000D01*
X151185000Y-107984000D02*
X151185000Y-107133900D01*
X172813500Y-112032800D02*
X175608300Y-114827600D01*
X176514900Y-113921000D02*
X175608300Y-114827600D01*
X163093000Y-124470000D02*
X163093000Y-126650000D01*
X163093000Y-126650000D02*
X162405100Y-126650000D01*
X150194000Y-107985000D02*
X150194000Y-107134900D01*
X149641000Y-120770000D02*
X150936900Y-120770000D01*
X176949000Y-113921000D02*
X176514900Y-113921000D01*
X170082600Y-103876700D02*
X170082600Y-110432700D01*
X161720100Y-126653000D02*
X161720100Y-128623300D01*
X155175000Y-77317900D02*
X157161900Y-75331000D01*
X154241000Y-106283900D02*
X154241000Y-93428700D01*
X168688000Y-133854300D02*
X173055300Y-129487000D01*
X129614100Y-90903000D02*
X129614100Y-86297400D01*
X123922000Y-108205000D02*
X121473200Y-108205000D01*
X136896000Y-119340000D02*
X137871100Y-119340000D01*
X150194000Y-107134900D02*
X150194000Y-106709800D01*
X155271000Y-85128000D02*
X155271000Y-86828100D01*
X128639000Y-90903000D02*
X129537300Y-90903000D01*
X146672000Y-102663000D02*
X148372100Y-102663000D01*
X138968000Y-116591900D02*
X139821200Y-116591900D01*
X141977100Y-133922100D02*
X141976000Y-133921000D01*
X129704500Y-72451400D02*
X128675500Y-72451400D01*
X161720100Y-126653000D02*
X162402100Y-126653000D01*
X170082600Y-103876700D02*
X168935700Y-103876700D01*
X154157800Y-132247500D02*
X154157800Y-138193900D01*
X154241000Y-106283900D02*
X153212000Y-106283900D01*
X153212000Y-106600700D02*
X152892200Y-106280900D01*
X144992900Y-103009900D02*
X145339800Y-102663000D01*
X155249000Y-138195000D02*
X154158900Y-138195000D01*
X131431600Y-99211100D02*
X131431600Y-108205000D01*
X123441000Y-104510000D02*
X123441000Y-105360100D01*
X128675500Y-72938900D02*
X128675500Y-72451400D01*
X145339800Y-102663000D02*
X146672000Y-102663000D01*
X151016900Y-106469900D02*
X150194000Y-106469900D01*
X153212000Y-106600700D02*
X153212000Y-106283900D01*
X127162200Y-74452200D02*
X127162200Y-79188300D01*
X129154200Y-85837500D02*
X129154200Y-80995900D01*
X121446900Y-108205000D02*
X121446900Y-106504100D01*
X161265000Y-85127000D02*
X161265000Y-83426900D01*
X142116000Y-102422100D02*
X143680200Y-102422100D01*
X170104100Y-103876700D02*
X170082600Y-103876700D01*
X158710500Y-129212600D02*
X157951600Y-128453700D01*
X171682700Y-112032800D02*
X172813500Y-112032800D01*
X170373700Y-98029900D02*
X170373700Y-103607100D01*
X150194000Y-106709800D02*
X150194000Y-106469900D01*
X122076400Y-108808200D02*
X121473200Y-108205000D01*
X142116000Y-101447000D02*
X142116000Y-102422100D01*
X175608300Y-114827600D02*
X172100000Y-118335900D01*
X161720100Y-128623300D02*
X161130800Y-129212600D01*
X155271000Y-92398700D02*
X155271000Y-86828100D01*
X157951600Y-128453700D02*
X155580500Y-130824800D01*
X170082600Y-110432700D02*
X171682700Y-112032800D01*
X151823400Y-106283900D02*
X151185000Y-106283900D01*
X143680200Y-102422100D02*
X144268000Y-103009900D01*
D41*
X168882000Y-96538200D02*
X168882000Y-96496000D01*
D40*
X126047100Y-131102000D02*
X126045100Y-131100000D01*
X176946000Y-108795000D02*
X180192900Y-108795000D01*
X121473200Y-108205000D02*
X121446900Y-108205000D01*
X164032100Y-75495900D02*
X160426000Y-75495900D01*
X167774000Y-75021000D02*
X167774000Y-74045900D01*
X160426000Y-78071000D02*
X160426000Y-75495900D01*
X164032100Y-74680200D02*
X164032100Y-75495900D01*
X154157800Y-138193900D02*
X154158900Y-138195000D01*
X146494100Y-117623100D02*
X149641000Y-120770000D01*
X129154200Y-80995900D02*
X129233000Y-80917100D01*
X122076400Y-114874000D02*
X123685000Y-114874000D01*
X129537300Y-90903000D02*
X129537300Y-97316800D01*
X145701000Y-116648000D02*
X145701000Y-117623100D01*
X155175000Y-79455500D02*
X155175000Y-80168100D01*
X137871100Y-118663900D02*
X138968000Y-117567000D01*
X121446900Y-115503500D02*
X122076400Y-114874000D01*
X146182000Y-137769000D02*
X144831900Y-137769000D01*
X154241000Y-107133900D02*
X154241000Y-106283900D01*
X153212000Y-107558900D02*
X152933000Y-107837900D01*
X157901000Y-128403100D02*
X157901000Y-128215500D01*
X125070000Y-131100000D02*
X126045100Y-131100000D01*
X168688000Y-140043000D02*
X168688000Y-133854300D01*
X140097800Y-116315300D02*
X140097800Y-115947200D01*
D41*
X168935700Y-103876700D02*
X168893500Y-103834500D01*
D40*
X129706500Y-73428500D02*
X129706500Y-72453400D01*
X150194000Y-104484900D02*
X148372100Y-102663000D01*
X124094900Y-134198400D02*
X124400900Y-134504400D01*
X180192900Y-108795000D02*
X180256900Y-108859000D01*
X174330100Y-129487000D02*
X174351000Y-129466100D01*
X151185000Y-106638000D02*
X151016900Y-106469900D01*
X142460200Y-114681800D02*
X144709900Y-114681800D01*
X134556200Y-80931800D02*
X135544000Y-79944000D01*
X129537300Y-90903000D02*
X129614100Y-90903000D01*
X149769100Y-106284900D02*
X149163000Y-106284900D01*
X166300300Y-119602400D02*
X166300300Y-121262700D01*
X150194000Y-106469900D02*
X150194000Y-104484900D01*
X152216000Y-107981000D02*
X152216000Y-107130900D01*
X157649500Y-74481000D02*
X158137000Y-74481000D01*
X128675500Y-72938900D02*
X127162200Y-74452200D01*
X121446900Y-117521000D02*
X121446900Y-115503500D01*
X140619400Y-105549200D02*
X140619400Y-104468600D01*
X142298700Y-114843300D02*
X142460200Y-114681800D01*
X129706500Y-72453400D02*
X129704500Y-72451400D01*
X155271000Y-85128000D02*
X155271000Y-80264100D01*
X125070000Y-131100000D02*
X124282500Y-131100000D01*
X136544000Y-80944000D02*
X135544000Y-79944000D01*
X136544000Y-84182500D02*
X136544000Y-80944000D01*
X127915900Y-79942000D02*
X128142900Y-79942000D01*
X129614100Y-86297400D02*
X129154200Y-85837500D01*
X141275100Y-102422100D02*
X142116000Y-102422100D01*
X152216000Y-107130900D02*
X152216000Y-106676500D01*
X122076400Y-114874000D02*
X122076400Y-108808200D01*
X152892200Y-106280900D02*
X152216000Y-106280900D01*
X181232000Y-108859000D02*
X180256900Y-108859000D01*
X145701000Y-116648000D02*
X145701000Y-115672900D01*
X139032600Y-104468600D02*
X140619400Y-104468600D01*
X144268000Y-103009900D02*
X144992900Y-103009900D01*
X123922000Y-117521000D02*
X122062500Y-117521000D01*
X153212000Y-107133900D02*
X153212000Y-106600700D01*
X137969000Y-103405000D02*
X139032600Y-104468600D01*
X154241000Y-93428700D02*
X155271000Y-92398700D01*
X150194000Y-106709800D02*
X149769100Y-106284900D01*
X127162200Y-79188300D02*
X127915900Y-79942000D01*
X157649500Y-74481000D02*
X157161900Y-74481000D01*
X128675500Y-73426500D02*
X128675500Y-72938900D01*
X138968000Y-117567000D02*
X138968000Y-116591900D01*
X153212000Y-107558900D02*
X153212000Y-107133900D01*
X141977100Y-137769000D02*
X141977100Y-133922100D01*
X132768000Y-139440000D02*
X132768000Y-133879000D01*
X168882000Y-96538200D02*
X170373700Y-98029900D01*
X170373700Y-103607100D02*
X170104100Y-103876700D01*
X141977100Y-137769000D02*
X144831900Y-137769000D01*
X161130800Y-129212600D02*
X158710500Y-129212600D01*
X152933000Y-107837900D02*
X152933000Y-110939000D01*
X122062500Y-117521000D02*
X122062500Y-129067600D01*
X152216000Y-106676500D02*
X152216000Y-106280900D01*
X159411100Y-74481000D02*
X160426000Y-75495900D01*
X174351000Y-128241000D02*
X174351000Y-129466100D01*
X144709900Y-114681800D02*
X145701000Y-115672900D01*
X139821200Y-116591900D02*
X140097800Y-116315300D01*
X162405100Y-126650000D02*
X162402100Y-126653000D01*
X129233000Y-79942000D02*
X129233000Y-80917100D01*
X152216000Y-106676500D02*
X151823400Y-106283900D01*
X154241000Y-107984000D02*
X154241000Y-107133900D01*
X145701000Y-117623100D02*
X146494100Y-117623100D01*
X121446900Y-106504100D02*
X122590900Y-105360100D01*
X151185000Y-107133900D02*
X151185000Y-106638000D01*
X124282500Y-131100000D02*
X124094900Y-131100000D01*
X132142600Y-134504400D02*
X132768000Y-133879000D01*
X153212000Y-107984000D02*
X153212000Y-107558900D01*
X140994900Y-102702300D02*
X141275100Y-102422100D01*
X150936900Y-120770000D02*
X150936900Y-126181200D01*
X155175000Y-78743000D02*
X155175000Y-77317900D01*
X124400900Y-134504400D02*
X132142600Y-134504400D01*
X155580500Y-130824800D02*
X154157800Y-132247500D01*
X122062500Y-129067600D02*
X124094900Y-131100000D01*
X140619400Y-104468600D02*
X140675400Y-104468600D01*
X137871100Y-119340000D02*
X137871100Y-118663900D01*
X151897700Y-138611300D02*
X153742600Y-138611300D01*
X122590900Y-105360100D02*
X123441000Y-105360100D01*
X127058000Y-131102000D02*
X126047100Y-131102000D01*
X150936900Y-120770000D02*
X152324900Y-119382000D01*
X141977100Y-139473000D02*
X141977100Y-137769000D01*
%TO.N,/VCC*%
X134712600Y-72080000D02*
X135150100Y-72080000D01*
X163206000Y-120677600D02*
X155195000Y-112666600D01*
X137844100Y-93433900D02*
X139580900Y-95170700D01*
X155235000Y-107984000D02*
X155235000Y-93672500D01*
X149478000Y-115776000D02*
X150980900Y-115776000D01*
X161861000Y-130918000D02*
X161861000Y-129827900D01*
X134276000Y-63195000D02*
X135150500Y-63195000D01*
X160885900Y-130918000D02*
X160350300Y-130918000D01*
X134278000Y-75774000D02*
X134715600Y-75774000D01*
X135154100Y-76986900D02*
X135154100Y-76531000D01*
X134817500Y-70772000D02*
X135194100Y-70772000D01*
X134537800Y-70772000D02*
X134756600Y-70772000D01*
X163206000Y-120677600D02*
X163206000Y-120284900D01*
X135150500Y-62478400D02*
X135187900Y-62441000D01*
X155235000Y-109923900D02*
X155235000Y-107984000D01*
X141206000Y-65730900D02*
X141200900Y-65725800D01*
X134757600Y-69107000D02*
X134757600Y-68350000D01*
X155195000Y-110939000D02*
X155195000Y-111914100D01*
X136500600Y-62441000D02*
X136063000Y-62441000D01*
X160350300Y-130918000D02*
X156066400Y-135201900D01*
X163206000Y-121260000D02*
X163206000Y-120677600D01*
X152812500Y-117120000D02*
X152324900Y-117120000D01*
X155195000Y-110939000D02*
X155195000Y-109963900D01*
X143211100Y-103443000D02*
X143528100Y-103760000D01*
X134850000Y-72837000D02*
X135151100Y-72837000D01*
X134537800Y-69939000D02*
X134756600Y-69939000D01*
X143290000Y-107441000D02*
X143505500Y-107225500D01*
X134538300Y-68350000D02*
X134460700Y-68350000D01*
X134850000Y-72837000D02*
X135150100Y-72536900D01*
X138626000Y-64128900D02*
X136938100Y-62441000D01*
X134537800Y-69939000D02*
X134537800Y-70772000D01*
X134715600Y-75774000D02*
X135153100Y-75774000D01*
X134279000Y-76531000D02*
X134716600Y-76531000D01*
X134853000Y-76531000D02*
X135153100Y-76230900D01*
X156066400Y-135201900D02*
X155248000Y-135201900D01*
X134775000Y-73669000D02*
X135151100Y-73292900D01*
X134757600Y-69107000D02*
X135195100Y-69107000D01*
X139580900Y-95170700D02*
X139795000Y-95170700D01*
X134337400Y-64027000D02*
X134275000Y-64089400D01*
X134756600Y-69939000D02*
X134866300Y-69939000D01*
X175497000Y-122998000D02*
X175497000Y-133601000D01*
X134866300Y-69939000D02*
X135195100Y-69610200D01*
X135150100Y-74502000D02*
X135150100Y-73669000D01*
X134715600Y-77363000D02*
X134778000Y-77363000D01*
X155784600Y-65656100D02*
X141280800Y-65656100D01*
X135194100Y-71598500D02*
X135194100Y-70772000D01*
X134275000Y-64089400D02*
X134275000Y-64860000D01*
X134337400Y-64027000D02*
X134399800Y-64027000D01*
X169838000Y-115823000D02*
X169838000Y-118067500D01*
X134320000Y-69107000D02*
X134757600Y-69107000D01*
X152812500Y-114296600D02*
X155195000Y-111914100D01*
X142183000Y-107441000D02*
X142183000Y-104480100D01*
X135150100Y-72536900D02*
X135150100Y-72080000D01*
X146566000Y-103760000D02*
X146673000Y-103653000D01*
X134278000Y-77363000D02*
X134715600Y-77363000D01*
X134275000Y-73669000D02*
X134712600Y-73669000D01*
X155248000Y-136177000D02*
X155248000Y-135201900D01*
X166303000Y-124159000D02*
X166303000Y-122933900D01*
X169838000Y-120286100D02*
X168950800Y-120286100D01*
X134275000Y-72080000D02*
X134712600Y-72080000D01*
X135194100Y-67695500D02*
X135194100Y-68350000D01*
X172103000Y-113558000D02*
X169838000Y-115823000D01*
X134715600Y-75774000D02*
X134715600Y-74502000D01*
X138626000Y-67155000D02*
X138626000Y-65725800D01*
X143273100Y-107441000D02*
X143290000Y-107441000D01*
X158137000Y-68008500D02*
X155784600Y-65656100D01*
X134319000Y-68350000D02*
X134460700Y-68350000D01*
X136500600Y-62441000D02*
X136938100Y-62441000D01*
X152812500Y-117120000D02*
X152812500Y-114296600D01*
X134756600Y-70772000D02*
X134817500Y-70772000D01*
X134276000Y-72837000D02*
X134713600Y-72837000D01*
X141206000Y-67156000D02*
X141206000Y-65730900D01*
X142183000Y-107441000D02*
X143273100Y-107441000D01*
X141280800Y-65656100D02*
X141206000Y-65730900D01*
X134460700Y-65045700D02*
X134275000Y-64860000D01*
X164321700Y-128377600D02*
X163311300Y-128377600D01*
X143528100Y-103760000D02*
X146566000Y-103760000D01*
X135195100Y-69610200D02*
X135195100Y-69107000D01*
X134716600Y-76531000D02*
X134853000Y-76531000D01*
X134715600Y-74502000D02*
X135150100Y-74502000D01*
X134275000Y-64027000D02*
X134337400Y-64027000D01*
X134712600Y-72080000D02*
X135194100Y-71598500D01*
X155195000Y-109963900D02*
X155235000Y-109923900D01*
X136869000Y-92625500D02*
X137844100Y-92625500D01*
X153300000Y-117120000D02*
X152812500Y-117120000D01*
X134278000Y-78196000D02*
X135153100Y-78196000D01*
X155195000Y-112666600D02*
X155195000Y-111914100D01*
X166303000Y-124159000D02*
X166303000Y-125384100D01*
X134319000Y-69939000D02*
X134537800Y-69939000D01*
X169838000Y-119311000D02*
X169838000Y-120286100D01*
X163311300Y-128377600D02*
X161861000Y-129827900D01*
X139795000Y-99391000D02*
X139795000Y-98415900D01*
X165423400Y-118067500D02*
X169838000Y-118067500D01*
X134460700Y-68350000D02*
X134460700Y-65045700D01*
X135150500Y-63276300D02*
X135150500Y-63195000D01*
X176950000Y-121545000D02*
X175497000Y-122998000D01*
X138626000Y-65725800D02*
X138626000Y-64128900D01*
X139795000Y-95170700D02*
X139795000Y-98415900D01*
X135150500Y-63195000D02*
X135150500Y-62478400D01*
X142121000Y-103443000D02*
X143211100Y-103443000D01*
X134399800Y-64027000D02*
X135150500Y-63276300D01*
X158137000Y-72219000D02*
X158137000Y-68008500D01*
X163206000Y-120284900D02*
X165423400Y-118067500D01*
X134778000Y-77363000D02*
X135153100Y-77363000D01*
X168950800Y-120286100D02*
X166303000Y-122933900D01*
X134537800Y-70772000D02*
X134319000Y-70772000D01*
X134713600Y-72837000D02*
X134850000Y-72837000D01*
X169838000Y-118067500D02*
X169838000Y-119311000D01*
X134538300Y-68350000D02*
X134757600Y-68350000D01*
X134853000Y-76531000D02*
X135154100Y-76531000D01*
X135153100Y-76230900D02*
X135153100Y-75774000D01*
X150980900Y-115776000D02*
X152324900Y-117120000D01*
X142183000Y-104480100D02*
X142121000Y-104418100D01*
X161861000Y-130918000D02*
X160885900Y-130918000D01*
X136063000Y-62441000D02*
X135187900Y-62441000D01*
X135151100Y-73292900D02*
X135151100Y-72837000D01*
X134778000Y-77363000D02*
X135154100Y-76986900D01*
X134712600Y-73669000D02*
X134775000Y-73669000D01*
X134775000Y-73669000D02*
X135150100Y-73669000D01*
X166303000Y-125384100D02*
X165792400Y-125894700D01*
X135153100Y-78196000D02*
X135153100Y-77363000D01*
X142121000Y-103443000D02*
X142121000Y-104418100D01*
X134275000Y-74502000D02*
X134715600Y-74502000D01*
X165792400Y-126906900D02*
X164321700Y-128377600D01*
X134757600Y-68350000D02*
X135194100Y-68350000D01*
X165792400Y-125894700D02*
X165792400Y-126906900D01*
X141200900Y-65725800D02*
X138626000Y-65725800D01*
X137844100Y-92625500D02*
X137844100Y-93433900D01*
D42*
%TO.N,/P53*%
X136447900Y-91435700D02*
X135710100Y-92173500D01*
X135710100Y-92173500D02*
X135710100Y-92625500D01*
X137966900Y-90975500D02*
X137506700Y-91435700D01*
X134885000Y-92625500D02*
X135710100Y-92625500D01*
X148224100Y-100599000D02*
X151224300Y-97598800D01*
X146674000Y-100599000D02*
X148224100Y-100599000D01*
X151224300Y-97598800D02*
X151224300Y-90975500D01*
X137506700Y-91435700D02*
X136447900Y-91435700D01*
%TO.N,/P50*%
X140926000Y-100030000D02*
X139854000Y-101102000D01*
X139854000Y-101274500D02*
X139854000Y-101102000D01*
X139854000Y-101274500D02*
X139854000Y-101447000D01*
X136976000Y-101102000D02*
X139854000Y-101102000D01*
X139859000Y-103443000D02*
X139859000Y-102617900D01*
X139854000Y-102612900D02*
X139859000Y-102617900D01*
X146665000Y-97623000D02*
X142250300Y-97623000D01*
X139854000Y-101447000D02*
X139854000Y-102612900D01*
X142250300Y-97623000D02*
X140926000Y-98947300D01*
X140926000Y-98947300D02*
X140926000Y-100030000D01*
%TO.N,/D6*%
X151366000Y-74466300D02*
X151366000Y-67155000D01*
X165989500Y-105007600D02*
X165989500Y-104061300D01*
X165353100Y-105644000D02*
X165989500Y-105007600D01*
X163803000Y-105644000D02*
X165353100Y-105644000D01*
%TO.N,/D7*%
X161967500Y-104362600D02*
X161967500Y-91489900D01*
X162256900Y-104652000D02*
X161967500Y-104362600D01*
X150095000Y-68827400D02*
X150095000Y-67152000D01*
X163807000Y-104652000D02*
X162256900Y-104652000D01*
%TO.N,/IC6.I8*%
X168891500Y-103201500D02*
X165808600Y-103201500D01*
X163806000Y-103654000D02*
X165356100Y-103654000D01*
X165808600Y-103201500D02*
X165356100Y-103654000D01*
%TO.N,/IC6.I7*%
X163806000Y-102665000D02*
X167465900Y-102665000D01*
X168894500Y-102561500D02*
X167569400Y-102561500D01*
X167465900Y-102665000D02*
X167569400Y-102561500D01*
%TO.N,/IC6.I6*%
X163805000Y-101639000D02*
X165355100Y-101639000D01*
X165604600Y-101888500D02*
X168898500Y-101888500D01*
X165355100Y-101639000D02*
X165604600Y-101888500D01*
%TO.N,/IC6.I5*%
X163805000Y-100601000D02*
X165355100Y-100601000D01*
X166006600Y-101252500D02*
X168891500Y-101252500D01*
X165355100Y-100601000D02*
X166006600Y-101252500D01*
%TO.N,/IC6.I4*%
X168891500Y-100621500D02*
X166365600Y-100621500D01*
X163801000Y-99607000D02*
X165351100Y-99607000D01*
X166365600Y-100621500D02*
X165351100Y-99607000D01*
%TO.N,/IC6.I3*%
X163807000Y-98617000D02*
X165357100Y-98617000D01*
X165357100Y-98617000D02*
X166725600Y-99985500D01*
X166725600Y-99985500D02*
X168892500Y-99985500D01*
%TO.N,/IC6.I2*%
X167039600Y-99311500D02*
X168892500Y-99311500D01*
X163803000Y-97625000D02*
X165353100Y-97625000D01*
X165353100Y-97625000D02*
X167039600Y-99311500D01*
%TO.N,/IC6.I1*%
X163802000Y-96596000D02*
X165528900Y-96596000D01*
X165528900Y-96596000D02*
X167567400Y-98634500D01*
X168892500Y-98634500D02*
X167567400Y-98634500D01*
%TO.N,/IC5.I8*%
X165355100Y-95561000D02*
X165657100Y-95863000D01*
X163805000Y-95561000D02*
X165355100Y-95561000D01*
X165657100Y-95863000D02*
X168880000Y-95863000D01*
%TO.N,/IC5.I7*%
X163805000Y-94565000D02*
X165355100Y-94565000D01*
X165355100Y-94565000D02*
X166013100Y-95223000D01*
X166013100Y-95223000D02*
X168883000Y-95223000D01*
%TO.N,/IC5.I6*%
X166329100Y-94550000D02*
X165358100Y-93579000D01*
X163808000Y-93579000D02*
X165358100Y-93579000D01*
X168887000Y-94550000D02*
X166329100Y-94550000D01*
%TO.N,/IC5.I5*%
X166685100Y-93914000D02*
X168880000Y-93914000D01*
X165358100Y-92587000D02*
X166685100Y-93914000D01*
X163808000Y-92587000D02*
X165358100Y-92587000D01*
%TO.N,/IC5.I4*%
X165740900Y-91595000D02*
X167428900Y-93283000D01*
X163806000Y-91595000D02*
X165740900Y-91595000D01*
X167428900Y-93283000D02*
X168880000Y-93283000D01*
%TO.N,/IC5.I3*%
X167555900Y-92647000D02*
X165511900Y-90603000D01*
X168881000Y-92647000D02*
X167555900Y-92647000D01*
X165511900Y-90603000D02*
X163809000Y-90603000D01*
%TO.N,/IC5.I2*%
X167547700Y-91973000D02*
X165145700Y-89571000D01*
X165145700Y-89571000D02*
X163810000Y-89571000D01*
X168881000Y-91973000D02*
X167547700Y-91973000D01*
%TO.N,/IC5.I1*%
X165360100Y-88575000D02*
X165360100Y-89100200D01*
X165360100Y-89100200D02*
X167555900Y-91296000D01*
X168881000Y-91296000D02*
X167555900Y-91296000D01*
X163810000Y-88575000D02*
X165360100Y-88575000D01*
%TO.N,/Button*%
X171472500Y-110891800D02*
X170682800Y-110102100D01*
X173177000Y-131552000D02*
X173177000Y-134463600D01*
X173177000Y-134463600D02*
X173177000Y-140081000D01*
X166828200Y-87579000D02*
X163807000Y-87579000D01*
X182104900Y-129667600D02*
X182104900Y-108156900D01*
X177759000Y-133601000D02*
X177759000Y-134013500D01*
X170682800Y-110102100D02*
X170682800Y-106344200D01*
X177759000Y-134013500D02*
X182104900Y-129667600D01*
X172636600Y-110891800D02*
X171472500Y-110891800D01*
X173177000Y-134463600D02*
X177308900Y-134463600D01*
X176196400Y-107332000D02*
X172636600Y-110891800D01*
X182104900Y-108156900D02*
X181280000Y-107332000D01*
X170977500Y-106049500D02*
X170977500Y-91728300D01*
X170682800Y-106344200D02*
X170977500Y-106049500D01*
X170977500Y-91728300D02*
X166828200Y-87579000D01*
X181280000Y-107332000D02*
X176196400Y-107332000D01*
X177308900Y-134463600D02*
X177759000Y-134013500D01*
X173177000Y-140081000D02*
X173175000Y-140083000D01*
%TO.N,/WE*%
X139936000Y-67151000D02*
X139936000Y-68426100D01*
X137365000Y-68432100D02*
X139930000Y-68432100D01*
X139930000Y-68432100D02*
X139936000Y-68426100D01*
X136832100Y-68353000D02*
X136911200Y-68432100D01*
X136107000Y-68353000D02*
X136832100Y-68353000D01*
X136911200Y-68432100D02*
X137365000Y-68432100D01*
X160234000Y-83573900D02*
X160204200Y-83573900D01*
X137365000Y-68800100D02*
X137365000Y-68432100D01*
X160204200Y-83573900D02*
X159923300Y-83293000D01*
X160234000Y-85124000D02*
X160234000Y-83573900D01*
%TO.N,/CE1*%
X148825000Y-74343500D02*
X148825000Y-71418100D01*
X137476200Y-71418100D02*
X136832100Y-70774000D01*
X148825000Y-71418100D02*
X148825000Y-67156000D01*
X148825000Y-71418100D02*
X137476200Y-71418100D01*
X149083000Y-74601500D02*
X148825000Y-74343500D01*
X159242000Y-85129000D02*
X159198200Y-85085200D01*
X159198200Y-85085200D02*
X159198200Y-82481700D01*
X136107000Y-70774000D02*
X136832100Y-70774000D01*
%TO.N,/Reset*%
X165512000Y-80662400D02*
X165512000Y-75021000D01*
X165554000Y-81116900D02*
X165554000Y-81529500D01*
X165554000Y-81116900D02*
X165554000Y-80704400D01*
X158250000Y-86679100D02*
X161780500Y-86679100D01*
X165554000Y-80704400D02*
X165512000Y-80662400D01*
X161780500Y-86679100D02*
X165554000Y-82905600D01*
X165554000Y-82905600D02*
X165554000Y-81529500D01*
X158250000Y-85129000D02*
X158250000Y-86679100D01*
%TO.N,/XIN*%
X160101200Y-80505100D02*
X162928000Y-80505100D01*
X162928000Y-78080000D02*
X162928000Y-80505100D01*
X157258000Y-85128000D02*
X157258000Y-83348300D01*
X157258000Y-83348300D02*
X160101200Y-80505100D01*
%TO.N,/XOUT*%
X157885000Y-80507100D02*
X156266000Y-82126100D01*
X156266000Y-82126100D02*
X156266000Y-85124000D01*
X157885000Y-78082000D02*
X157885000Y-80507100D01*
%TO.N,/A0*%
X150096000Y-78747000D02*
X150096000Y-79421200D01*
X150096000Y-78747000D02*
X150096000Y-77471900D01*
X150096000Y-79421200D02*
X154249700Y-83574900D01*
X154249700Y-83574900D02*
X154282000Y-83574900D01*
X150096000Y-77471900D02*
X144707100Y-72083000D01*
X154282000Y-85125000D02*
X154282000Y-83574900D01*
X144707100Y-72083000D02*
X136063000Y-72083000D01*
%TO.N,/A1*%
X148823000Y-77468900D02*
X144190100Y-72836000D01*
X153247000Y-85120000D02*
X153247000Y-83569900D01*
X153247000Y-83569900D02*
X153025400Y-83569900D01*
X148823000Y-79367500D02*
X148823000Y-78744000D01*
X144190100Y-72836000D02*
X136065000Y-72836000D01*
X148823000Y-78744000D02*
X148823000Y-77468900D01*
X153025400Y-83569900D02*
X148823000Y-79367500D01*
%TO.N,/A2*%
X147595000Y-78745000D02*
X147595000Y-77469900D01*
X147595000Y-77469900D02*
X143795100Y-73670000D01*
X152255000Y-85124000D02*
X152255000Y-83573900D01*
X152255000Y-83573900D02*
X148701200Y-80020100D01*
X143795100Y-73670000D02*
X136061000Y-73670000D01*
X148701200Y-80020100D02*
X147595000Y-80020100D01*
X147595000Y-78745000D02*
X147595000Y-80020100D01*
%TO.N,/A3*%
X146286000Y-78745000D02*
X146286000Y-80020100D01*
X143320100Y-74504000D02*
X136063000Y-74504000D01*
X151227000Y-83574900D02*
X149840800Y-83574900D01*
X146286000Y-77469900D02*
X143320100Y-74504000D01*
X146286000Y-78745000D02*
X146286000Y-77469900D01*
X151227000Y-85125000D02*
X151227000Y-83574900D01*
X149840800Y-83574900D02*
X146286000Y-80020100D01*
%TO.N,/A4*%
X145015000Y-80797000D02*
X145015000Y-78745000D01*
X145015000Y-78745000D02*
X145015000Y-77469900D01*
X150126800Y-86787300D02*
X150126800Y-86959300D01*
X150235000Y-86679100D02*
X150126800Y-86787300D01*
X145015000Y-77469900D02*
X143322100Y-75777000D01*
X150235000Y-85129000D02*
X150235000Y-86679100D01*
X143322100Y-75777000D02*
X136066000Y-75777000D01*
X145598600Y-81396400D02*
X145598600Y-81380600D01*
X145598600Y-81380600D02*
X145015000Y-80797000D01*
%TO.N,/A5*%
X149204000Y-83579900D02*
X146741000Y-83579900D01*
X149204000Y-85130000D02*
X149204000Y-83579900D01*
X143744000Y-80162600D02*
X143744000Y-80020100D01*
X144873400Y-81712300D02*
X144873400Y-81292000D01*
X144873400Y-81292000D02*
X143744000Y-80162600D01*
X143744000Y-78745000D02*
X143744000Y-77469900D01*
X142804100Y-76530000D02*
X136068000Y-76530000D01*
X146741000Y-83579900D02*
X144873400Y-81712300D01*
X143744000Y-77469900D02*
X142804100Y-76530000D01*
X143744000Y-78745000D02*
X143744000Y-80020100D01*
%TO.N,/A6*%
X136895700Y-77364000D02*
X136064000Y-77364000D01*
X137240000Y-77019700D02*
X136895700Y-77364000D01*
X144423300Y-81478600D02*
X142475000Y-79530300D01*
X146670000Y-87585000D02*
X145119900Y-87585000D01*
X142475000Y-78743000D02*
X142475000Y-77467900D01*
X145119900Y-87585000D02*
X144423300Y-86888400D01*
X142475000Y-79530300D02*
X142475000Y-78743000D01*
X142026800Y-77019700D02*
X137240000Y-77019700D01*
X144423300Y-86888400D02*
X144423300Y-81478600D01*
X142475000Y-77467900D02*
X142026800Y-77019700D01*
%TO.N,/A7*%
X143814200Y-86972300D02*
X143814200Y-81506000D01*
X141206000Y-78745000D02*
X141206000Y-77469900D01*
X145419900Y-88578000D02*
X143814200Y-86972300D01*
X141868000Y-80019500D02*
X141206000Y-79357500D01*
X146663000Y-88578000D02*
X145419900Y-88578000D01*
X137519200Y-77469900D02*
X141206000Y-77469900D01*
X142327700Y-80019500D02*
X141868000Y-80019500D01*
X136066000Y-78198000D02*
X136791100Y-78198000D01*
X141206000Y-79357500D02*
X141206000Y-78745000D01*
X136791100Y-78198000D02*
X137519200Y-77469900D01*
X143814200Y-81506000D02*
X142327700Y-80019500D01*
%TO.N,/A8*%
X142475000Y-67157000D02*
X142475000Y-68888500D01*
X145112900Y-89568000D02*
X145112900Y-89352900D01*
X145112900Y-89352900D02*
X144485400Y-88725400D01*
X136063000Y-64862000D02*
X136788100Y-64862000D01*
X146663000Y-89568000D02*
X145112900Y-89568000D01*
X136788100Y-67558000D02*
X136788100Y-64862000D01*
%TO.N,/A9*%
X146668000Y-90602000D02*
X145117900Y-90602000D01*
X142024900Y-87509000D02*
X142024900Y-80744700D01*
X143745000Y-67156000D02*
X143745000Y-68431100D01*
X136061000Y-64028000D02*
X135335900Y-64028000D01*
X145117900Y-90602000D02*
X142024900Y-87509000D01*
X135335900Y-64028000D02*
X135335900Y-65657000D01*
X143745000Y-68431100D02*
X144234300Y-68920400D01*
X144234300Y-68920400D02*
X144234300Y-69385300D01*
%TO.N,/A10*%
X137481000Y-70590900D02*
X136830100Y-69940000D01*
X146668000Y-91595000D02*
X148218100Y-91595000D01*
X148248100Y-91565000D02*
X148248100Y-84364800D01*
X148248100Y-84364800D02*
X148217800Y-84334500D01*
X147596000Y-68430100D02*
X147596000Y-69040600D01*
X147596000Y-69040600D02*
X146045700Y-70590900D01*
X146045700Y-70590900D02*
X146045700Y-70664800D01*
X146045700Y-70590900D02*
X137481000Y-70590900D01*
X147596000Y-67155000D02*
X147596000Y-68430100D01*
X136105000Y-69940000D02*
X136830100Y-69940000D01*
X148218100Y-91595000D02*
X148248100Y-91565000D01*
%TO.N,/A11*%
X149907000Y-90895100D02*
X149907000Y-88165200D01*
X146665000Y-92587000D02*
X148215100Y-92587000D01*
X136065000Y-63194000D02*
X136790100Y-63194000D01*
X136790100Y-63194000D02*
X136790100Y-63804500D01*
X145016000Y-67155000D02*
X145016000Y-68430100D01*
X148215100Y-92587000D02*
X149907000Y-90895100D01*
X145016000Y-68430100D02*
X145016000Y-68717400D01*
X136790100Y-63804500D02*
X137075500Y-64089900D01*
%TO.N,/A12*%
X146669000Y-93579000D02*
X145118900Y-93579000D01*
X145118900Y-93579000D02*
X139933000Y-88393100D01*
X137281400Y-80031400D02*
X136366700Y-79116700D01*
X139933000Y-80031400D02*
X137281400Y-80031400D01*
X139933000Y-88393100D02*
X139933000Y-80031400D01*
X139933000Y-80031400D02*
X139933000Y-78745000D01*
X134275000Y-62438000D02*
X133549900Y-62438000D01*
X133549900Y-78551400D02*
X133549900Y-62438000D01*
X134115200Y-79116700D02*
X133549900Y-78551400D01*
X136366700Y-79116700D02*
X134115200Y-79116700D01*
%TO.N,/P45*%
X123278000Y-119807500D02*
X123278000Y-121197000D01*
X144384600Y-94568000D02*
X143867300Y-95085300D01*
X146670000Y-94568000D02*
X144384600Y-94568000D01*
%TO.N,/P46*%
X146670000Y-95564000D02*
X144821600Y-95564000D01*
X129754800Y-125504700D02*
X129754800Y-104482600D01*
X129864000Y-125613900D02*
X129754800Y-125504700D01*
X129864000Y-126554000D02*
X129864000Y-125613900D01*
X129754800Y-104482600D02*
X129475500Y-104203300D01*
%TO.N,/P47*%
X142739900Y-96595000D02*
X146668000Y-96595000D01*
X126177100Y-102090000D02*
X126177100Y-98234300D01*
X125352000Y-102090000D02*
X126177100Y-102090000D01*
%TO.N,/P51*%
X180406900Y-111121000D02*
X180185900Y-111342000D01*
X142057000Y-99391000D02*
X142997100Y-99391000D01*
X176944000Y-111160500D02*
X175202700Y-109419200D01*
X181232000Y-111121000D02*
X180406900Y-111121000D01*
X180185900Y-111342000D02*
X176944000Y-111342000D01*
X148525700Y-98663200D02*
X148267300Y-98663200D01*
X146669000Y-98615000D02*
X148219100Y-98615000D01*
X176944000Y-111342000D02*
X176944000Y-111160500D01*
X142997100Y-99391000D02*
X143773100Y-98615000D01*
X148267300Y-98663200D02*
X148219100Y-98615000D01*
X143773100Y-98615000D02*
X146669000Y-98615000D01*
%TO.N,/P52*%
X145121900Y-99611000D02*
X144630400Y-100102500D01*
X159560100Y-137111800D02*
X159560100Y-137779400D01*
X162608900Y-134063000D02*
X159560100Y-137111800D01*
X156570900Y-137116100D02*
X157510000Y-136177000D01*
X156680200Y-139020200D02*
X156570900Y-138910900D01*
X156570900Y-138910900D02*
X156570900Y-137116100D01*
X146672000Y-99611000D02*
X145121900Y-99611000D01*
X157830600Y-134675100D02*
X157510000Y-134995700D01*
X158319300Y-139020200D02*
X156680200Y-139020200D01*
X157510000Y-134995700D02*
X157510000Y-136177000D01*
X159560100Y-137779400D02*
X158319300Y-139020200D01*
X144630400Y-100102500D02*
X144630400Y-102134800D01*
X163549000Y-134063000D02*
X162608900Y-134063000D01*
%TO.N,/OE*%
X136645500Y-69106000D02*
X136109000Y-69106000D01*
X146285000Y-67151000D02*
X146285000Y-69280600D01*
X153640800Y-96218300D02*
X153640800Y-87784700D01*
X146285000Y-69280600D02*
X145982700Y-69582900D01*
X137680300Y-70140800D02*
X136645500Y-69106000D01*
X145982700Y-69582900D02*
X145424800Y-70140800D01*
X148221100Y-101638000D02*
X153640800Y-96218300D01*
X146671000Y-101638000D02*
X148221100Y-101638000D01*
X145424800Y-70140800D02*
X137680300Y-70140800D01*
%TO.N,/P60*%
X146673000Y-104645000D02*
X145122900Y-104645000D01*
X144252300Y-107505300D02*
X144252300Y-105515600D01*
X144252300Y-105515600D02*
X145122900Y-104645000D01*
X143491500Y-108266100D02*
X144252300Y-107505300D01*
X125670000Y-103030200D02*
X129029700Y-106389900D01*
X139921000Y-107441000D02*
X139921000Y-108215600D01*
X129029700Y-106389900D02*
X129029700Y-115270700D01*
X123443000Y-103002000D02*
X124143100Y-103002000D01*
X124171300Y-103030200D02*
X125670000Y-103030200D01*
X124143100Y-103002000D02*
X124171300Y-103030200D01*
X139921000Y-108266100D02*
X143491500Y-108266100D01*
X139921000Y-108266100D02*
X139921000Y-108547400D01*
X139921000Y-108215600D02*
X139921000Y-108266100D01*
%TO.N,/P61*%
X127883100Y-133364000D02*
X127883100Y-131470800D01*
X125070000Y-133362000D02*
X125895100Y-133362000D01*
X140333100Y-109957600D02*
X142509600Y-109957600D01*
X142509600Y-109957600D02*
X145121900Y-107345300D01*
X127058000Y-133364000D02*
X127883100Y-133364000D01*
X145121900Y-107345300D02*
X145121900Y-105643000D01*
X128666500Y-131100000D02*
X128253900Y-131100000D01*
X140333100Y-109957700D02*
X140333100Y-109957600D01*
X127883100Y-131470800D02*
X128253900Y-131100000D01*
X127058000Y-133364000D02*
X125897100Y-133364000D01*
X128666500Y-131100000D02*
X129079000Y-131100000D01*
X125897100Y-133364000D02*
X125895100Y-133362000D01*
X146672000Y-105643000D02*
X145121900Y-105643000D01*
X128253900Y-131100000D02*
X128253900Y-116661600D01*
%TO.N,/D0*%
X151367000Y-78742000D02*
X151367000Y-77184900D01*
X156224000Y-87693500D02*
X156544700Y-87372800D01*
X156224000Y-107988000D02*
X156224000Y-87693500D01*
%TO.N,/D1*%
X152636000Y-78744000D02*
X152636000Y-80886700D01*
X157221000Y-107983000D02*
X157221000Y-88753000D01*
%TO.N,/D2*%
X153908000Y-82207800D02*
X153908000Y-78745000D01*
X158213000Y-107983000D02*
X158213000Y-87405900D01*
%TO.N,/D3*%
X166819000Y-82277300D02*
X166819000Y-77764200D01*
X168734500Y-74087400D02*
X167865600Y-73218500D01*
X167865600Y-73218500D02*
X157538700Y-73218500D01*
X166819000Y-77764200D02*
X168734500Y-75848700D01*
X159205000Y-107983000D02*
X159205000Y-89891300D01*
X157538700Y-73218500D02*
X155177000Y-70856800D01*
X155177000Y-70856800D02*
X155177000Y-67157000D01*
X159205000Y-89891300D02*
X166819000Y-82277300D01*
X168734500Y-75848700D02*
X168734500Y-74087400D01*
%TO.N,/D4*%
X160193000Y-107980000D02*
X160193000Y-92186300D01*
X153904000Y-73947900D02*
X154154900Y-74198800D01*
X153904000Y-67154000D02*
X153904000Y-73947900D01*
%TO.N,/D5*%
X153154700Y-68951800D02*
X153154700Y-74314500D01*
X152634000Y-67156000D02*
X152634000Y-68431100D01*
X161229000Y-107983000D02*
X161229000Y-90731900D01*
X161229000Y-90731900D02*
X160823500Y-90326400D01*
X152634000Y-68431100D02*
X153154700Y-68951800D01*
%TO.N,/IC5.O8*%
X179262000Y-94071000D02*
X177475000Y-95858000D01*
X180193000Y-94071000D02*
X179262000Y-94071000D01*
X177475000Y-95858000D02*
X175035000Y-95858000D01*
%TO.N,/IC5.O7*%
X179572800Y-93077000D02*
X182179000Y-93077000D01*
X175035000Y-95225000D02*
X177424800Y-95225000D01*
X177424800Y-95225000D02*
X179572800Y-93077000D01*
%TO.N,/IC5.O6*%
X177463100Y-94550000D02*
X175037000Y-94550000D01*
X179929100Y-92084000D02*
X177463100Y-94550000D01*
X180198000Y-92084000D02*
X179929100Y-92084000D01*
%TO.N,/IC5.O5*%
X179755900Y-91094000D02*
X176931900Y-93918000D01*
X176931900Y-93918000D02*
X175036000Y-93918000D01*
X182179000Y-91094000D02*
X179755900Y-91094000D01*
%TO.N,/IC5.O4*%
X179927100Y-90104000D02*
X176751100Y-93280000D01*
X176751100Y-93280000D02*
X175035000Y-93280000D01*
X180196000Y-90104000D02*
X179927100Y-90104000D01*
%TO.N,/IC5.O3*%
X179879800Y-89067000D02*
X176360100Y-92586700D01*
X182183000Y-89067000D02*
X179879800Y-89067000D01*
X176360100Y-92586700D02*
X176360100Y-92645000D01*
X175035000Y-92645000D02*
X176360100Y-92645000D01*
%TO.N,/IC5.O2*%
X180196000Y-88038000D02*
X176261000Y-91973000D01*
X176261000Y-91973000D02*
X175033000Y-91973000D01*
%TO.N,/IC5.O1*%
X179286000Y-87044000D02*
X175035000Y-91295000D01*
X182177000Y-87044000D02*
X179286000Y-87044000D01*
%TO.N,/IC6.O8*%
X179129500Y-103196500D02*
X175046500Y-103196500D01*
X180197000Y-102129000D02*
X179129500Y-103196500D01*
%TO.N,/IC6.O7*%
X179764500Y-101096000D02*
X182176000Y-101096000D01*
X178297000Y-102563500D02*
X179764500Y-101096000D01*
X175046500Y-102563500D02*
X178297000Y-102563500D01*
%TO.N,/IC6.O6*%
X180077800Y-100106000D02*
X178295300Y-101888500D01*
X178295300Y-101888500D02*
X175048500Y-101888500D01*
X180195000Y-100106000D02*
X180077800Y-100106000D01*
%TO.N,/IC6.O5*%
X175047500Y-101256500D02*
X177650200Y-101256500D01*
X179797700Y-99109000D02*
X182178000Y-99109000D01*
X177650200Y-101256500D02*
X179797700Y-99109000D01*
%TO.N,/IC6.O4*%
X177651500Y-100618500D02*
X175046500Y-100618500D01*
X180191000Y-98079000D02*
X177651500Y-100618500D01*
%TO.N,/IC6.O3*%
X179766000Y-97088000D02*
X176870500Y-99983500D01*
X176870500Y-99983500D02*
X175046500Y-99983500D01*
X182178000Y-97088000D02*
X179766000Y-97088000D01*
%TO.N,/IC6.O2*%
X180195000Y-96054000D02*
X179979100Y-96054000D01*
X179979100Y-96054000D02*
X176721600Y-99311500D01*
X176721600Y-99311500D02*
X175044500Y-99311500D01*
%TO.N,/IC6.O1*%
X182180000Y-95103000D02*
X179787700Y-95103000D01*
X179787700Y-95103000D02*
X176371600Y-98519100D01*
X176371600Y-98519100D02*
X176371600Y-98633500D01*
X175046500Y-98633500D02*
X176371600Y-98633500D01*
D40*
%TO.N,/Off.GND*%
X132857000Y-120464500D02*
X132857000Y-100548100D01*
X132857000Y-99458000D02*
X132857000Y-100548100D01*
X139395000Y-127002500D02*
X132857000Y-120464500D01*
X139395000Y-135468000D02*
X139395000Y-127002500D01*
X167776000Y-79384700D02*
X167776000Y-81530500D01*
%TO.N,/9V-*%
X121494600Y-64842400D02*
X123097000Y-63240000D01*
X130354900Y-99195300D02*
X121494600Y-90335000D01*
X135389000Y-135469100D02*
X135389000Y-129328200D01*
X121494600Y-90335000D02*
X121494600Y-64842400D01*
X130354900Y-124294100D02*
X130354900Y-99195300D01*
X135389000Y-129328200D02*
X130354900Y-124294100D01*
D42*
%TO.N,/CN1.P2*%
X172833000Y-125336000D02*
X172833000Y-123117000D01*
X167818000Y-127061000D02*
X167818000Y-124648000D01*
X167821000Y-127064000D02*
X167818000Y-127061000D01*
X172836000Y-127752000D02*
X172836000Y-125339000D01*
X172833000Y-123117000D02*
X172788900Y-123072900D01*
X172836000Y-125339000D02*
X172833000Y-125336000D01*
X172833000Y-123117000D02*
X176953000Y-118997000D01*
X172788900Y-123072900D02*
X167818000Y-123072900D01*
X167818000Y-124648000D02*
X167818000Y-123072900D01*
%TO.N,/CN1.P3*%
X138050000Y-108703700D02*
X138050000Y-106298000D01*
X173677000Y-119730000D02*
X173677000Y-121007900D01*
X176947000Y-116460000D02*
X173677000Y-119730000D01*
X140030400Y-110684100D02*
X138050000Y-108703700D01*
X145647800Y-110684100D02*
X140030400Y-110684100D01*
%TO.N,/Link.P5*%
X123278000Y-123459000D02*
X124103100Y-123459000D01*
X125706000Y-114869000D02*
X126253300Y-115416300D01*
X126253300Y-115416300D02*
X126253300Y-121308800D01*
X126253300Y-121308800D02*
X124103100Y-123459000D01*
%TO.N,/Link.P3*%
X125708000Y-112887000D02*
X125708000Y-112974300D01*
X129864000Y-128816000D02*
X129038900Y-128816000D01*
X129038900Y-116305200D02*
X129038900Y-128816000D01*
X125708000Y-112974300D02*
X129038900Y-116305200D01*
%TO.N,/Link.P2*%
X126247200Y-109416800D02*
X126247200Y-104422100D01*
X125875200Y-109788800D02*
X126247200Y-109416800D01*
X123688000Y-110860000D02*
X124759200Y-109788800D01*
X125352000Y-104352000D02*
X126177100Y-104352000D01*
X126247200Y-104422100D02*
X126177100Y-104352000D01*
X124759200Y-109788800D02*
X125875200Y-109788800D01*
D40*
%TO.N,/9V+*%
X145468500Y-141341000D02*
X147087100Y-142959600D01*
X158308400Y-142959600D02*
X162465000Y-138803000D01*
X147087100Y-142959600D02*
X158308400Y-142959600D01*
D42*
%TO.N,/Route7*%
X141271000Y-116574000D02*
X141271000Y-115748900D01*
X143398000Y-115657000D02*
X141362900Y-115657000D01*
X141362900Y-115657000D02*
X141271000Y-115748900D01*
%TO.N,/Route6*%
X143398000Y-118466100D02*
X143383000Y-118481100D01*
X143398000Y-117641000D02*
X143398000Y-118466100D01*
X143383000Y-118481100D02*
X143383000Y-119430000D01*
%TO.N,/Route20*%
X137721100Y-117078000D02*
X137721100Y-116829900D01*
X139108000Y-114617900D02*
X139108000Y-113753000D01*
X136896000Y-117078000D02*
X136070900Y-117078000D01*
X138968000Y-114757900D02*
X139108000Y-114617900D01*
X136070900Y-117078000D02*
X134820100Y-115827200D01*
X129881900Y-78852800D02*
X128064200Y-78852800D01*
X129501600Y-75892500D02*
X129501600Y-76491900D01*
X136896000Y-117078000D02*
X137721100Y-117078000D01*
X137721100Y-116829900D02*
X138968000Y-115583000D01*
X130183200Y-78551500D02*
X129881900Y-78852800D01*
X130183200Y-77173500D02*
X130183200Y-78551500D01*
X128676500Y-75892500D02*
X129501600Y-75892500D01*
X129501600Y-76491900D02*
X130183200Y-77173500D01*
X138968000Y-115583000D02*
X138968000Y-114757900D01*
X134820100Y-115827200D02*
X134820100Y-102265100D01*
%TO.N,/Route23*%
X137610000Y-97801100D02*
X137597000Y-97788100D01*
X136952600Y-95178000D02*
X137091300Y-95178000D01*
X136703100Y-94928500D02*
X136952600Y-95178000D01*
X137597000Y-96137900D02*
X137597000Y-95683700D01*
X135551000Y-81879500D02*
X135385200Y-81879500D01*
X135355500Y-81879500D02*
X135385200Y-81879500D01*
X137610000Y-98955000D02*
X137610000Y-97801100D01*
X137597000Y-96963000D02*
X137597000Y-97788100D01*
X130288000Y-82887000D02*
X131439500Y-82887000D01*
X135355500Y-81879500D02*
X134824500Y-81879500D01*
X131439500Y-82887000D02*
X133817000Y-82887000D01*
X137597000Y-96963000D02*
X137597000Y-96137900D01*
X137597000Y-95683700D02*
X137091300Y-95178000D01*
X136073500Y-94928500D02*
X136043800Y-94928500D01*
X131439500Y-82887000D02*
X131439500Y-85788300D01*
X133817000Y-82887000D02*
X134824500Y-81879500D01*
X135878000Y-94928500D02*
X136043800Y-94928500D01*
X136073500Y-94928500D02*
X136703100Y-94928500D01*
%TO.N,/Route19*%
X135348000Y-97801100D02*
X135335000Y-97788100D01*
X133211700Y-86534300D02*
X133436600Y-86534300D01*
X135335000Y-96963000D02*
X135335000Y-97788100D01*
X132478000Y-86667300D02*
X133078700Y-86667300D01*
X134874000Y-90495500D02*
X134874000Y-90025400D01*
X132858000Y-92041400D02*
X132858000Y-97236000D01*
X132345000Y-86534300D02*
X132478000Y-86667300D01*
X133436600Y-86534300D02*
X133799900Y-86171000D01*
X134121900Y-97236000D02*
X134394900Y-96963000D01*
X130288000Y-85696100D02*
X131126200Y-86534300D01*
X134740000Y-89421400D02*
X134740000Y-86171000D01*
X135335000Y-96963000D02*
X134394900Y-96963000D01*
X132858000Y-97236000D02*
X134121900Y-97236000D01*
X131126200Y-86534300D02*
X132345000Y-86534300D01*
X133078700Y-86667300D02*
X133211700Y-86534300D01*
X134740000Y-86171000D02*
X133799900Y-86171000D01*
X134874000Y-90025400D02*
X134874000Y-89555400D01*
X135348000Y-98955000D02*
X135348000Y-97801100D01*
X134874000Y-90025400D02*
X132858000Y-92041400D01*
X130288000Y-84871000D02*
X130288000Y-85696100D01*
X134874000Y-89555400D02*
X134740000Y-89421400D01*
%TO.N,/Route24*%
X132591000Y-83878000D02*
X133531100Y-83878000D01*
X134560000Y-84182500D02*
X133734900Y-84182500D01*
X133734900Y-84081800D02*
X133531100Y-83878000D01*
X133734900Y-84182500D02*
X133734900Y-84081800D01*
%TO.N,/Route15*%
X144574400Y-113340400D02*
X149337200Y-118103200D01*
X154125200Y-120211600D02*
X153082800Y-121254000D01*
X134497700Y-91435700D02*
X134058200Y-91875200D01*
X136032900Y-90944600D02*
X135541800Y-91435700D01*
X136032900Y-90495500D02*
X136032900Y-90944600D01*
X153082800Y-125843200D02*
X153230800Y-125991200D01*
X158726200Y-127781300D02*
X159112900Y-128168000D01*
X141370000Y-113753000D02*
X141370000Y-113340400D01*
X153626800Y-118103200D02*
X154125200Y-118601600D01*
X141370000Y-113340400D02*
X144574400Y-113340400D01*
X154125200Y-118601600D02*
X154125200Y-120211600D01*
X153230800Y-125991200D02*
X158174200Y-125991200D01*
X153082800Y-121254000D02*
X153082800Y-125843200D01*
X141370000Y-113340400D02*
X141370000Y-112927900D01*
X136150800Y-101852200D02*
X136810200Y-102511600D01*
X160188000Y-128168000D02*
X159112900Y-128168000D01*
X158174200Y-125991200D02*
X158726200Y-126543200D01*
X135249600Y-95881700D02*
X135898800Y-95881700D01*
X136150800Y-99931800D02*
X136150800Y-101852200D01*
X135898800Y-95881700D02*
X136288200Y-96271100D01*
X135541800Y-91435700D02*
X134497700Y-91435700D01*
X134058200Y-91875200D02*
X134058200Y-94690300D01*
X136810200Y-102511600D02*
X136810200Y-108368100D01*
X136858000Y-90495500D02*
X136032900Y-90495500D01*
X136810200Y-108368100D02*
X141370000Y-112927900D01*
X149337200Y-118103200D02*
X153626800Y-118103200D01*
X136288200Y-96271100D02*
X136288200Y-99794400D01*
X136288200Y-99794400D02*
X136150800Y-99931800D01*
X134058200Y-94690300D02*
X135249600Y-95881700D01*
X158726200Y-126543200D02*
X158726200Y-127781300D01*
%TO.N,/Route25*%
X139120900Y-91483000D02*
X139120900Y-90623300D01*
X139120900Y-90623300D02*
X136690100Y-88192500D01*
X139946000Y-91483000D02*
X139120900Y-91483000D01*
X135865000Y-88192500D02*
X136690100Y-88192500D01*
%TO.N,/Route27*%
X135985000Y-103405000D02*
X135985000Y-104345100D01*
X135788000Y-104542100D02*
X135788000Y-106298000D01*
X135985000Y-104345100D02*
X135788000Y-104542100D01*
%TO.N,/Route13*%
X175158900Y-140707300D02*
X175158900Y-139555000D01*
X165811000Y-134063000D02*
X165811000Y-133237900D01*
X164630200Y-131141800D02*
X166385400Y-131141800D01*
X173953700Y-141912500D02*
X175158900Y-140707300D01*
X165811000Y-134063000D02*
X165811000Y-134888100D01*
X163690000Y-132082000D02*
X164630200Y-131141800D01*
X166502000Y-131258400D02*
X166502000Y-132892500D01*
X165811000Y-134888100D02*
X166844300Y-135921400D01*
X166844300Y-135921400D02*
X166844300Y-140802900D01*
X166502000Y-132892500D02*
X166156600Y-133237900D01*
X175984000Y-139555000D02*
X175158900Y-139555000D01*
X166844300Y-140802900D02*
X167953900Y-141912500D01*
X167953900Y-141912500D02*
X173953700Y-141912500D01*
X166385400Y-131141800D02*
X166502000Y-131258400D01*
X166156600Y-133237900D02*
X165811000Y-133237900D01*
%TO.N,/Route14*%
X164266600Y-133180000D02*
X161861000Y-133180000D01*
X164266600Y-133180000D02*
X164870800Y-133784200D01*
X164870800Y-133784200D02*
X164870800Y-135877700D01*
X161861000Y-134120100D02*
X158611200Y-137369900D01*
X164848900Y-132597700D02*
X164266600Y-133180000D01*
X158611200Y-137369900D02*
X157511000Y-137369900D01*
X174846600Y-142367000D02*
X177142900Y-140070700D01*
X166394200Y-137401100D02*
X166394200Y-140989400D01*
X161861000Y-133180000D02*
X161861000Y-134120100D01*
X166394200Y-140989400D02*
X167771800Y-142367000D01*
X167771800Y-142367000D02*
X174846600Y-142367000D01*
X177968000Y-139555000D02*
X177142900Y-139555000D01*
X165674000Y-132082000D02*
X164848900Y-132082000D01*
X177142900Y-140070700D02*
X177142900Y-139555000D01*
X164848900Y-132082000D02*
X164848900Y-132597700D01*
X157511000Y-138195000D02*
X157511000Y-137369900D01*
X164870800Y-135877700D02*
X166394200Y-137401100D01*
%TO.N,/Route12*%
X173767100Y-141462400D02*
X174629000Y-140600500D01*
X167294400Y-140616400D02*
X168140400Y-141462400D01*
X171363000Y-129321100D02*
X168835100Y-129321100D01*
X174629000Y-140600500D02*
X174629000Y-138772900D01*
X168140400Y-141462400D02*
X173767100Y-141462400D01*
X167294400Y-135044100D02*
X167294400Y-140616400D01*
X167192000Y-130964200D02*
X167192000Y-134941700D01*
X174629000Y-138772900D02*
X176149900Y-137252000D01*
X171363000Y-128246000D02*
X171363000Y-129321100D01*
X168835100Y-129321100D02*
X167192000Y-130964200D01*
X176975000Y-137252000D02*
X176149900Y-137252000D01*
X167192000Y-134941700D02*
X167294400Y-135044100D01*
%TO.N,/Route16*%
X166414200Y-128870900D02*
X168798300Y-128870900D01*
X165506100Y-129779000D02*
X166414200Y-128870900D01*
X168798300Y-128870900D02*
X169487700Y-128181500D01*
X169291000Y-124154000D02*
X169291000Y-125229100D01*
X169487700Y-128181500D02*
X169487700Y-125425800D01*
X169487700Y-125425800D02*
X169291000Y-125229100D01*
X164681000Y-129779000D02*
X165506100Y-129779000D01*
D40*
%TO.N,/9V.F1*%
X148059500Y-141341000D02*
X146834400Y-141341000D01*
X142619300Y-141095800D02*
X143974300Y-139740800D01*
X137411000Y-137889000D02*
X140617800Y-141095800D01*
X146459300Y-139740800D02*
X146834400Y-140115900D01*
X140617800Y-141095800D02*
X142619300Y-141095800D01*
X146834400Y-140115900D02*
X146834400Y-141341000D01*
X143974300Y-139740800D02*
X146459300Y-139740800D01*
%TO.N,/9V.Prefuse*%
X129079000Y-133362000D02*
X130054100Y-133362000D01*
X134144600Y-134873200D02*
X134377600Y-134640200D01*
X134377600Y-134640200D02*
X134377600Y-132466600D01*
X133094000Y-131183000D02*
X132233100Y-131183000D01*
X135389000Y-137889000D02*
X134144600Y-136644600D01*
X134377600Y-132466600D02*
X133094000Y-131183000D01*
X134144600Y-136644600D02*
X134144600Y-134873200D01*
X132233100Y-131183000D02*
X130054100Y-133362000D01*
D42*
%TO.N,/Route8*%
X155904000Y-125051000D02*
X157901000Y-125051000D01*
X160183000Y-125180000D02*
X161258100Y-125180000D01*
X160944000Y-121260000D02*
X160944000Y-122085100D01*
X158978900Y-125051000D02*
X159107900Y-125180000D01*
X161258100Y-125180000D02*
X161258100Y-122399200D01*
X161258100Y-122399200D02*
X160944000Y-122085100D01*
X160183000Y-125180000D02*
X159107900Y-125180000D01*
X157901000Y-125051000D02*
X158978900Y-125051000D01*
%TO.N,/Route21*%
X131505000Y-79481900D02*
X131505000Y-77917000D01*
X131488600Y-75890500D02*
X131488600Y-77075500D01*
X131495000Y-79942000D02*
X131965100Y-79942000D01*
X131965100Y-79942000D02*
X131505000Y-79481900D01*
X130663500Y-75890500D02*
X131488600Y-75890500D01*
X132437100Y-79944000D02*
X132435100Y-79942000D01*
X131965100Y-79942000D02*
X132435100Y-79942000D01*
X133282000Y-79944000D02*
X132437100Y-79944000D01*
X131488600Y-77075500D02*
X131505000Y-77091900D01*
X131505000Y-77917000D02*
X131505000Y-77091900D01*
%TO.N,/LED.Cathode*%
X128639000Y-88641000D02*
X127813900Y-88641000D01*
X124196200Y-85023300D02*
X127813900Y-88641000D01*
X124038300Y-85023300D02*
X124196200Y-85023300D01*
%TO.N,/Route9*%
X155904000Y-127313000D02*
X153908000Y-127313000D01*
%TO.N,/LED.Anode*%
X180195000Y-86052700D02*
X178596200Y-86052700D01*
X178596200Y-86052700D02*
X172058000Y-92590900D01*
X172058000Y-92590900D02*
X172058000Y-109511000D01*
X153908000Y-125051000D02*
X153908000Y-121456600D01*
X156339000Y-119025600D02*
X156339000Y-116728000D01*
X153908000Y-121456600D02*
X156339000Y-119025600D01*
%TO.N,/Route4*%
X143392000Y-120590900D02*
X141521800Y-120590900D01*
X141521800Y-120590900D02*
X141270000Y-120339100D01*
X143392000Y-121416000D02*
X143392000Y-120590900D01*
X141270000Y-119514000D02*
X141270000Y-120339100D01*
%TO.N,/Route5*%
X145645000Y-120581900D02*
X145645000Y-119430000D01*
X145654000Y-120590900D02*
X145645000Y-120581900D01*
X145654000Y-121416000D02*
X145654000Y-120590900D01*
D40*
%TO.N,/9V.Postfuse*%
X138964000Y-125359000D02*
X138964000Y-123397000D01*
X133854500Y-118287500D02*
X138964000Y-123397000D01*
X140921100Y-93563200D02*
X140921100Y-90611500D01*
X137002000Y-86171000D02*
X137002000Y-87146100D01*
X129243000Y-77917000D02*
X128152900Y-77917000D01*
X139946000Y-93745000D02*
X140433600Y-93745000D01*
X137455700Y-87146100D02*
X137002000Y-87146100D01*
X140433600Y-93745000D02*
X140739300Y-93745000D01*
X128152900Y-77194000D02*
X128152900Y-77917000D01*
X133575900Y-98347000D02*
X133854500Y-98625600D01*
X133854500Y-98625600D02*
X133854500Y-118287500D01*
X132083100Y-98347000D02*
X133575900Y-98347000D01*
X140739300Y-93745000D02*
X140921100Y-93563200D01*
X142606000Y-129001000D02*
X138964000Y-125359000D01*
X131354200Y-97618100D02*
X132083100Y-98347000D01*
X128075000Y-77116100D02*
X128152900Y-77194000D01*
X140739300Y-93745000D02*
X140739300Y-96737400D01*
X131354200Y-96737400D02*
X131354200Y-97618100D01*
X140921100Y-90611500D02*
X137455700Y-87146100D01*
D42*
%TO.N,/Route2*%
X141241000Y-123397000D02*
X142166100Y-123397000D01*
X141241000Y-121494000D02*
X141241000Y-123397000D01*
X142166100Y-123599100D02*
X142166100Y-123397000D01*
X147562000Y-128995000D02*
X142166100Y-123599100D01*
X141226000Y-123397000D02*
X141241000Y-123397000D01*
%TO.N,/Route3*%
X139008000Y-120639900D02*
X139008000Y-119514000D01*
X138979000Y-121494000D02*
X138979000Y-120668900D01*
X138979000Y-120668900D02*
X139008000Y-120639900D01*
%TO.N,/Route1*%
X145105000Y-130823900D02*
X146186000Y-131904900D01*
X145105000Y-128999000D02*
X145105000Y-130823900D01*
X146186000Y-133355000D02*
X146186000Y-131904900D01*
%TD*%
M02*
