M48
; DRILL file {KiCad (6.0.2)} date Mon Sep 26 21:45:04 2022
; FORMAT={-:-/ absolute / metric / decimal}
; #@! TF.CreationDate,2022-09-26T21:45:04-05:00
; #@! TF.GenerationSoftware,Kicad,Pcbnew,(6.0.2)
; #@! TF.FileFunction,Plated,1,2,PTH
FMAT,2
METRIC
; #@! TA.AperFunction,Plated,PTH,ViaDrill
T1C0.400
; #@! TA.AperFunction,Plated,PTH,ComponentDrill
T2C0.750
; #@! TA.AperFunction,Plated,PTH,ComponentDrill
T3C0.800
; #@! TA.AperFunction,Plated,PTH,ComponentDrill
T4C1.000
; #@! TA.AperFunction,Plated,PTH,ComponentDrill
T5C1.150
; #@! TA.AperFunction,Plated,PTH,ComponentDrill
T6C1.200
; #@! TA.AperFunction,Plated,PTH,ComponentDrill
T7C1.300
; #@! TA.AperFunction,Plated,PTH,ComponentDrill
T8C1.750
%
G90
G05
T1
X123.278Y-119.807
X126.177Y-98.234
X128.064Y-78.853
X128.075Y-77.116
X128.254Y-116.662
X129.03Y-115.271
X129.475Y-104.203
X131.354Y-96.737
X131.432Y-108.205
X131.439Y-85.788
X134.82Y-102.265
X135.194Y-67.695
X135.336Y-65.657
X136.788Y-67.558
X137.076Y-64.09
X137.091Y-95.178
X137.365Y-68.8
X137.967Y-90.975
X139.795Y-95.171
X139.921Y-108.547
X140.333Y-109.958
X140.619Y-105.549
X140.739Y-96.737
X142.025Y-80.745
X142.475Y-68.888
X142.74Y-96.595
X143.505Y-107.225
X143.867Y-95.085
X144.234Y-69.385
X144.485Y-88.725
X144.63Y-102.135
X144.822Y-95.564
X145.016Y-68.717
X145.599Y-81.396
X145.648Y-110.684
X145.983Y-69.583
X146.046Y-70.665
X148.218Y-84.334
X148.526Y-98.663
X149.083Y-74.602
X149.907Y-88.165
X150.095Y-68.827
X150.127Y-86.959
X151.224Y-90.975
X151.366Y-74.466
X151.367Y-77.185
X152.636Y-80.887
X153.155Y-74.314
X153.641Y-87.785
X153.908Y-82.208
X154.155Y-74.199
X155.235Y-93.672
X156.545Y-87.373
X157.221Y-88.753
X157.831Y-134.675
X158.213Y-87.406
X159.198Y-82.482
X159.923Y-83.293
X160.193Y-92.186
X160.823Y-90.326
X161.968Y-91.49
X165.989Y-104.061
X167.776Y-79.385
X173.677Y-121.008
X175.203Y-109.419
T2
X180.191Y-98.079
X180.193Y-94.071
X180.195Y-86.053
X180.195Y-96.054
X180.195Y-100.106
X180.196Y-88.038
X180.196Y-90.104
X180.197Y-102.129
X180.198Y-92.084
X182.176Y-101.096
X182.177Y-87.044
X182.178Y-85.06
X182.178Y-97.088
X182.178Y-99.109
X182.179Y-91.094
X182.179Y-93.077
X182.18Y-95.103
X182.183Y-89.067
T3
X123.68Y-112.887
X123.685Y-114.874
X123.688Y-110.86
X125.706Y-114.869
X125.708Y-112.887
X125.709Y-110.864
T4
X124.038Y-85.023
X124.074Y-90.026
X135.389Y-135.469
X135.389Y-137.889
X137.411Y-137.889
X137.412Y-135.47
X139.395Y-135.468
X139.397Y-137.889
X176.944Y-111.342
X176.946Y-108.795
X176.947Y-116.46
X176.949Y-113.921
X176.95Y-121.545
X176.953Y-118.997
T6
X133.094Y-131.183
X142.606Y-129.001
X145.105Y-128.999
X147.562Y-128.995
X149.478Y-115.776
X149.641Y-120.77
X151.856Y-133.578
X151.898Y-138.611
X156.339Y-116.728
X156.341Y-121.772
X157.295Y-131.299
X166.3Y-119.602
X166.34Y-114.564
X168.613Y-131.513
X168.688Y-140.043
X172.058Y-109.511
X172.103Y-113.558
X173.175Y-140.083
X173.177Y-131.552
T7
X132.768Y-133.879
X132.768Y-139.44
X141.976Y-133.921
X141.977Y-139.473
T8
X123.922Y-108.205
X123.922Y-117.521
T5
G00X123.097Y-62.425
M15
G01X123.097Y-64.055
M16
G05
G00X125.67Y-62.505
M15
G01X125.67Y-65.005
M16
G05
G00X162.465Y-137.988
M15
G01X162.465Y-139.618
M16
G05
G00X165.044Y-138.069
M15
G01X165.044Y-140.569
M16
G05
T0
M30
