M48
; DRILL file {KiCad (6.0.2)} date Fri Sep 23 13:38:25 2022
; FORMAT={-:-/ absolute / metric / decimal}
; #@! TF.CreationDate,2022-09-23T13:38:25-05:00
; #@! TF.GenerationSoftware,Kicad,Pcbnew,(6.0.2)
; #@! TF.FileFunction,Plated,1,2,PTH
FMAT,2
METRIC
; #@! TA.AperFunction,Plated,PTH,ViaDrill
T1C0.400
; #@! TA.AperFunction,Plated,PTH,ComponentDrill
T2C0.750
; #@! TA.AperFunction,Plated,PTH,ComponentDrill
T3C0.800
; #@! TA.AperFunction,Plated,PTH,ComponentDrill
T4C1.000
; #@! TA.AperFunction,Plated,PTH,ComponentDrill
T5C1.150
; #@! TA.AperFunction,Plated,PTH,ComponentDrill
T6C1.200
; #@! TA.AperFunction,Plated,PTH,ComponentDrill
T7C1.300
; #@! TA.AperFunction,Plated,PTH,ComponentDrill
T8C1.750
%
G90
G05
T1
X123.278Y-119.98
X127.04Y-103.198
X129.0Y-94.78
X130.01Y-95.866
X130.037Y-132.203
X131.497Y-100.331
X134.803Y-100.6
X136.958Y-89.085
X137.006Y-94.115
X138.403Y-107.413
X138.56Y-108.494
X139.806Y-108.56
X140.9Y-71.066
X141.361Y-68.961
X141.37Y-114.856
X142.751Y-68.751
X142.894Y-95.437
X143.654Y-88.425
X143.751Y-69.069
X144.33Y-91.324
X144.645Y-122.431
X144.815Y-69.166
X144.828Y-100.834
X144.832Y-90.4
X144.838Y-95.564
X146.469Y-68.837
X147.675Y-113.56
X148.059Y-86.583
X148.506Y-94.146
X148.723Y-99.275
X149.481Y-96.73
X150.095Y-69.745
X150.231Y-86.957
X151.076Y-80.387
X152.056Y-73.027
X152.636Y-81.083
X152.892Y-73.969
X153.894Y-82.372
X153.904Y-75.299
X154.125Y-114.284
X154.393Y-76.3
X156.137Y-88.338
X156.901Y-88.989
X158.076Y-88.963
X158.826Y-88.271
X159.554Y-88.995
X160.254Y-82.754
X160.697Y-87.854
X161.551Y-128.242
X161.908Y-89.067
X162.034Y-120.196
X165.023Y-122.016
X165.72Y-104.376
X167.436Y-84.722
X172.091Y-118.026
T2
X180.191Y-98.079
X180.193Y-94.071
X180.195Y-86.053
X180.195Y-96.054
X180.195Y-100.106
X180.196Y-88.038
X180.196Y-90.104
X180.197Y-102.129
X180.198Y-92.084
X182.176Y-101.096
X182.177Y-87.044
X182.178Y-85.06
X182.178Y-97.088
X182.178Y-99.109
X182.179Y-91.094
X182.179Y-93.077
X182.18Y-95.103
X182.183Y-89.067
T3
X123.68Y-112.887
X123.685Y-114.874
X123.688Y-110.86
X125.706Y-114.869
X125.708Y-112.887
X125.709Y-110.864
T4
X124.038Y-85.023
X124.074Y-90.026
X135.389Y-135.469
X135.389Y-137.889
X137.411Y-137.889
X137.412Y-135.47
X139.395Y-135.468
X139.397Y-137.889
X176.944Y-111.342
X176.946Y-108.795
X176.947Y-116.46
X176.949Y-113.921
X176.95Y-121.545
X176.953Y-118.997
T6
X133.094Y-131.183
X142.606Y-129.001
X145.105Y-128.999
X147.562Y-128.995
X149.478Y-115.776
X149.641Y-120.77
X151.856Y-133.578
X151.898Y-138.611
X156.339Y-116.728
X156.341Y-121.772
X157.295Y-131.299
X166.3Y-119.602
X166.34Y-114.564
X168.613Y-131.513
X168.688Y-140.043
X172.058Y-109.511
X172.103Y-113.558
X173.175Y-140.083
X173.177Y-131.552
T7
X132.768Y-133.879
X132.768Y-139.44
X141.976Y-133.921
X141.977Y-139.473
T8
X123.922Y-108.205
X123.922Y-117.521
T5
G00X123.097Y-62.425
M15
G01X123.097Y-64.055
M16
G05
G00X125.67Y-62.505
M15
G01X125.67Y-65.005
M16
G05
G00X162.465Y-137.988
M15
G01X162.465Y-139.618
M16
G05
G00X165.044Y-138.069
M15
G01X165.044Y-140.569
M16
G05
T0
M30
