%TF.GenerationSoftware,KiCad,Pcbnew,(6.0.2)*%
%TF.CreationDate,2022-09-08T00:06:53-05:00*%
%TF.ProjectId,IF-GBP-02,49462d47-4250-42d3-9032-2e6b69636164,rev?*%
%TF.SameCoordinates,Original*%
%TF.FileFunction,Soldermask,Top*%
%TF.FilePolarity,Negative*%
%FSLAX46Y46*%
G04 Gerber Fmt 4.6, Leading zero omitted, Abs format (unit mm)*
G04 Created by KiCad (PCBNEW (6.0.2)) date 2022-09-08 00:06:53*
%MOMM*%
%LPD*%
G01*
G04 APERTURE LIST*
G04 Aperture macros list*
%AMRoundRect*
0 Rectangle with rounded corners*
0 $1 Rounding radius*
0 $2 $3 $4 $5 $6 $7 $8 $9 X,Y pos of 4 corners*
0 Add a 4 corners polygon primitive as box body*
4,1,4,$2,$3,$4,$5,$6,$7,$8,$9,$2,$3,0*
0 Add four circle primitives for the rounded corners*
1,1,$1+$1,$2,$3*
1,1,$1+$1,$4,$5*
1,1,$1+$1,$6,$7*
1,1,$1+$1,$8,$9*
0 Add four rect primitives between the rounded corners*
20,1,$1+$1,$2,$3,$4,$5,0*
20,1,$1+$1,$4,$5,$6,$7,0*
20,1,$1+$1,$6,$7,$8,$9,0*
20,1,$1+$1,$8,$9,$2,$3,0*%
G04 Aperture macros list end*
%ADD10C,3.700000*%
%ADD11C,2.200000*%
%ADD12C,2.100000*%
%ADD13C,1.500000*%
%ADD14C,2.250000*%
%ADD15C,2.000000*%
%ADD16C,1.250000*%
%ADD17R,4.000000X2.500000*%
%ADD18RoundRect,0.575000X0.575000X2.650000X-0.575000X2.650000X-0.575000X-2.650000X0.575000X-2.650000X0*%
%ADD19RoundRect,0.425000X0.425000X1.700000X-0.425000X1.700000X-0.425000X-1.700000X0.425000X-1.700000X0*%
G04 APERTURE END LIST*
D10*
%TO.C,Hole4*%
X177833000Y-70550000D03*
%TD*%
%TO.C,Hole6*%
X177711000Y-138765000D03*
%TD*%
D11*
%TO.C,Hole7*%
X123801000Y-128756000D03*
%TD*%
D12*
%TO.C,L1*%
X145322000Y-116728000D03*
X145320000Y-121772000D03*
%TD*%
D11*
%TO.C,Hole1*%
X125312000Y-63395000D03*
%TD*%
D13*
%TO.C,SW2*%
X162266000Y-135468000D03*
X164249000Y-135470000D03*
X166272000Y-135469100D03*
X162264000Y-137889000D03*
X164250000Y-137889000D03*
X166272000Y-137889000D03*
D14*
X159685000Y-133921000D03*
X159683900Y-139473000D03*
X168893000Y-139440000D03*
X168893000Y-133879000D03*
%TD*%
D11*
%TO.C,Hole8*%
X128287000Y-88840000D03*
%TD*%
D10*
%TO.C,Hole2*%
X123868000Y-70570000D03*
%TD*%
D12*
%TO.C,F2*%
X144366000Y-131299000D03*
X168567000Y-131183000D03*
%TD*%
%TO.C,C2*%
X135321000Y-114564000D03*
X135360700Y-119602400D03*
%TD*%
D11*
%TO.C,CN1*%
X124711000Y-121545000D03*
X124708000Y-118997000D03*
X124714000Y-116460000D03*
X124712000Y-113921000D03*
X124717000Y-111342000D03*
X124715000Y-108795000D03*
%TD*%
D12*
%TO.C,Q1*%
X154099000Y-128995000D03*
X156556000Y-128999000D03*
X159055000Y-129001000D03*
%TD*%
%TO.C,C3*%
X152183000Y-115776000D03*
X152020000Y-120770000D03*
%TD*%
%TO.C,SW1*%
X128486000Y-140083000D03*
X128484000Y-131552000D03*
X132973000Y-140043000D03*
X133048000Y-131513000D03*
%TD*%
D11*
%TO.C,Hole5*%
X177860000Y-77549000D03*
%TD*%
D12*
%TO.C,L2*%
X129603000Y-109511000D03*
X129558000Y-113558000D03*
%TD*%
D11*
%TO.C,Hole3*%
X172424000Y-63320000D03*
%TD*%
D15*
%TO.C,LED1*%
X177622700Y-85023300D03*
X177587000Y-90026000D03*
%TD*%
D12*
%TO.C,C1*%
X149805000Y-133578000D03*
X149763300Y-138611300D03*
%TD*%
D16*
%TO.C,CN2*%
X119483000Y-85060500D03*
X121466000Y-86052700D03*
X119484000Y-87044000D03*
X121465000Y-88038000D03*
X119478000Y-89067000D03*
X121465000Y-90104000D03*
X119482000Y-91094000D03*
X121463000Y-92084000D03*
X119482000Y-93077000D03*
X121468000Y-94071000D03*
X119481000Y-95103000D03*
X121466000Y-96054000D03*
X119483000Y-97088000D03*
X121470000Y-98079000D03*
X119483000Y-99109000D03*
X121466000Y-100106000D03*
X119485000Y-101096000D03*
X121464000Y-102129000D03*
%TD*%
D13*
%TO.C,CN3*%
X175952000Y-110864000D03*
X177973000Y-110860000D03*
X175953000Y-112887000D03*
X177981000Y-112887000D03*
X175955000Y-114869000D03*
X177976000Y-114874000D03*
D17*
X177739000Y-108030000D03*
X177739000Y-117696000D03*
%TD*%
D18*
%TO.C,J2*%
X139196000Y-138803000D03*
D19*
X136617000Y-139319000D03*
X175991000Y-63755000D03*
D18*
X178564000Y-63240000D03*
%TD*%
M02*
