%TF.GenerationSoftware,KiCad,Pcbnew,(6.0.2)*%
%TF.CreationDate,2022-09-23T13:38:23-05:00*%
%TF.ProjectId,IF-GBP-02,49462d47-4250-42d3-9032-2e6b69636164,rev?*%
%TF.SameCoordinates,Original*%
%TF.FileFunction,Copper,L1,Top*%
%TF.FilePolarity,Positive*%
%FSLAX46Y46*%
G04 Gerber Fmt 4.6, Leading zero omitted, Abs format (unit mm)*
G04 Created by KiCad (PCBNEW (6.0.2)) date 2022-09-23 13:38:23*
%MOMM*%
%LPD*%
G01*
G04 APERTURE LIST*
G04 Aperture macros list*
%AMRoundRect*
0 Rectangle with rounded corners*
0 $1 Rounding radius*
0 $2 $3 $4 $5 $6 $7 $8 $9 X,Y pos of 4 corners*
0 Add a 4 corners polygon primitive as box body*
4,1,4,$2,$3,$4,$5,$6,$7,$8,$9,$2,$3,0*
0 Add four circle primitives for the rounded corners*
1,1,$1+$1,$2,$3*
1,1,$1+$1,$4,$5*
1,1,$1+$1,$6,$7*
1,1,$1+$1,$8,$9*
0 Add four rect primitives between the rounded corners*
20,1,$1+$1,$2,$3,$4,$5,0*
20,1,$1+$1,$4,$5,$6,$7,0*
20,1,$1+$1,$6,$7,$8,$9,0*
20,1,$1+$1,$8,$9,$2,$3,0*%
G04 Aperture macros list end*
%TA.AperFunction,SMDPad,CuDef*%
%ADD10R,1.000000X1.500000*%
%TD*%
%TA.AperFunction,SMDPad,CuDef*%
%ADD11RoundRect,0.625000X0.625000X0.765000X-0.625000X0.765000X-0.625000X-0.765000X0.625000X-0.765000X0*%
%TD*%
%TA.AperFunction,SMDPad,CuDef*%
%ADD12R,1.000000X2.500000*%
%TD*%
%TA.AperFunction,ComponentPad*%
%ADD13RoundRect,0.575000X-0.575000X-2.650000X0.575000X-2.650000X0.575000X2.650000X-0.575000X2.650000X0*%
%TD*%
%TA.AperFunction,ComponentPad*%
%ADD14RoundRect,0.425000X-0.425000X-1.700000X0.425000X-1.700000X0.425000X1.700000X-0.425000X1.700000X0*%
%TD*%
%TA.AperFunction,SMDPad,CuDef*%
%ADD15R,0.800000X0.400000*%
%TD*%
%TA.AperFunction,SMDPad,CuDef*%
%ADD16R,1.230000X1.000000*%
%TD*%
%TA.AperFunction,SMDPad,CuDef*%
%ADD17R,1.250000X4.200000*%
%TD*%
%TA.AperFunction,SMDPad,CuDef*%
%ADD18R,1.000000X1.230000*%
%TD*%
%TA.AperFunction,SMDPad,CuDef*%
%ADD19R,2.000000X0.400000*%
%TD*%
%TA.AperFunction,SMDPad,CuDef*%
%ADD20R,1.500000X1.000000*%
%TD*%
%TA.AperFunction,SMDPad,CuDef*%
%ADD21R,2.500000X1.000000*%
%TD*%
%TA.AperFunction,SMDPad,CuDef*%
%ADD22RoundRect,0.625000X-0.765000X0.625000X-0.765000X-0.625000X0.765000X-0.625000X0.765000X0.625000X0*%
%TD*%
%TA.AperFunction,SMDPad,CuDef*%
%ADD23R,0.870000X1.900000*%
%TD*%
%TA.AperFunction,SMDPad,CuDef*%
%ADD24R,2.450000X0.750000*%
%TD*%
%TA.AperFunction,SMDPad,CuDef*%
%ADD25R,0.750000X2.450000*%
%TD*%
%TA.AperFunction,SMDPad,CuDef*%
%ADD26R,1.750000X2.250000*%
%TD*%
%TA.AperFunction,SMDPad,CuDef*%
%ADD27R,1.500000X2.250000*%
%TD*%
%TA.AperFunction,SMDPad,CuDef*%
%ADD28RoundRect,0.625000X-0.625000X-0.765000X0.625000X-0.765000X0.625000X0.765000X-0.625000X0.765000X0*%
%TD*%
%TA.AperFunction,SMDPad,CuDef*%
%ADD29R,0.850000X1.000000*%
%TD*%
%TA.AperFunction,SMDPad,CuDef*%
%ADD30R,0.650000X1.000000*%
%TD*%
%TA.AperFunction,SMDPad,CuDef*%
%ADD31R,0.750000X0.750000*%
%TD*%
%TA.AperFunction,ComponentPad*%
%ADD32C,2.100000*%
%TD*%
%TA.AperFunction,ComponentPad*%
%ADD33C,1.500000*%
%TD*%
%TA.AperFunction,ComponentPad*%
%ADD34C,2.250000*%
%TD*%
%TA.AperFunction,ComponentPad*%
%ADD35C,2.200000*%
%TD*%
%TA.AperFunction,ComponentPad*%
%ADD36C,2.000000*%
%TD*%
%TA.AperFunction,ComponentPad*%
%ADD37C,1.250000*%
%TD*%
%TA.AperFunction,ComponentPad*%
%ADD38R,4.000000X2.500000*%
%TD*%
%TA.AperFunction,ViaPad*%
%ADD39C,0.800000*%
%TD*%
%TA.AperFunction,Conductor*%
%ADD40C,0.250000*%
%TD*%
%TA.AperFunction,Conductor*%
%ADD41C,0.550000*%
%TD*%
%TA.AperFunction,Conductor*%
%ADD42C,0.399800*%
%TD*%
G04 APERTURE END LIST*
D10*
%TO.P,Q6,1,B*%
%TO.N,Net-(Q6-Pad1)*%
X169291000Y-124154000D03*
D11*
%TO.P,Q6,2,E*%
%TO.N,/CN1.P2*%
X167821000Y-127064000D03*
D12*
X167818000Y-124648000D03*
D10*
%TO.P,Q6,3,C*%
%TO.N,/VCC*%
X166303000Y-124159000D03*
%TD*%
D13*
%TO.P,J2,1,Pin_1*%
%TO.N,/9V+*%
X162465000Y-138803000D03*
D14*
X165044000Y-139319000D03*
%TO.P,J2,2,Pin_2*%
%TO.N,/9V-*%
X125670000Y-63755000D03*
D13*
X123097000Y-63240000D03*
%TD*%
D15*
%TO.P,NR3,1,R1.1*%
%TO.N,/CE1*%
X136107000Y-70774000D03*
%TO.P,NR3,2,R2.1*%
%TO.N,/A10*%
X136105000Y-69940000D03*
%TO.P,NR3,3,R3.1*%
%TO.N,/OE*%
X136109000Y-69106000D03*
%TO.P,NR3,4,R4.1*%
%TO.N,/WE*%
X136107000Y-68353000D03*
%TO.P,NR3,5,R4.2*%
%TO.N,/VCC*%
X134319000Y-68350000D03*
%TO.P,NR3,6,R3.2*%
X134320000Y-69107000D03*
%TO.P,NR3,7,R2.2*%
X134319000Y-69939000D03*
%TO.P,NR3,8,R1.2*%
X134319000Y-70772000D03*
%TD*%
D16*
%TO.P,R8,1*%
%TO.N,Net-(Q3-Pad1)*%
X139108000Y-113753000D03*
%TO.P,R8,2*%
%TO.N,Net-(Q11-Pad2)*%
X141370000Y-113753000D03*
%TD*%
D17*
%TO.P,X1,1,1*%
%TO.N,/XOUT*%
X157885000Y-78082000D03*
%TO.P,X1,2,2*%
%TO.N,/GND*%
X160426000Y-78071000D03*
%TO.P,X1,3,3*%
%TO.N,/XIN*%
X162928000Y-78080000D03*
%TD*%
D16*
%TO.P,R14,1*%
%TO.N,Net-(C6-Pad1)*%
X135335000Y-96963000D03*
%TO.P,R14,2*%
%TO.N,Net-(C6-Pad2)*%
X137597000Y-96963000D03*
%TD*%
%TO.P,C16,1*%
%TO.N,/Reset*%
X165512000Y-75021000D03*
%TO.P,C16,2*%
%TO.N,/GND*%
X167774000Y-75021000D03*
%TD*%
D18*
%TO.P,R17,1*%
%TO.N,Net-(Q11-Pad3)*%
X139946000Y-91483000D03*
%TO.P,R17,2*%
%TO.N,/GND*%
X139946000Y-93745000D03*
%TD*%
D15*
%TO.P,NR1,1,R1.1*%
%TO.N,/A7*%
X136066000Y-78198000D03*
%TO.P,NR1,2,R2.1*%
%TO.N,/A6*%
X136064000Y-77364000D03*
%TO.P,NR1,3,R3.1*%
%TO.N,/A5*%
X136068000Y-76530000D03*
%TO.P,NR1,4,R4.1*%
%TO.N,/A4*%
X136066000Y-75777000D03*
%TO.P,NR1,5,R4.2*%
%TO.N,/VCC*%
X134278000Y-75774000D03*
%TO.P,NR1,6,R3.2*%
X134279000Y-76531000D03*
%TO.P,NR1,7,R2.2*%
X134278000Y-77363000D03*
%TO.P,NR1,8,R1.2*%
X134278000Y-78196000D03*
%TD*%
D16*
%TO.P,R24,1*%
%TO.N,/VCC*%
X175497000Y-133601000D03*
%TO.P,R24,2*%
%TO.N,/Button*%
X177759000Y-133601000D03*
%TD*%
D18*
%TO.P,C5,1*%
%TO.N,/GND*%
X153300000Y-119382000D03*
%TO.P,C5,2*%
%TO.N,/VCC*%
X153300000Y-117120000D03*
%TD*%
D16*
%TO.P,R10,1*%
%TO.N,Net-(R12-Pad2)*%
X160944000Y-121260000D03*
%TO.P,R10,2*%
%TO.N,/VCC*%
X163206000Y-121260000D03*
%TD*%
D19*
%TO.P,IC5,1,I1*%
%TO.N,/IC5.I1*%
X168881000Y-91296000D03*
%TO.P,IC5,2,I2*%
%TO.N,/IC5.I2*%
X168881000Y-91973000D03*
%TO.P,IC5,3,I3*%
%TO.N,/IC5.I3*%
X168881000Y-92647000D03*
%TO.P,IC5,4,I4*%
%TO.N,/IC5.I4*%
X168880000Y-93283000D03*
%TO.P,IC5,5,I5*%
%TO.N,/IC5.I5*%
X168880000Y-93914000D03*
%TO.P,IC5,6,I6*%
%TO.N,/IC5.I6*%
X168887000Y-94550000D03*
%TO.P,IC5,7,I7*%
%TO.N,/IC5.I7*%
X168883000Y-95223000D03*
%TO.P,IC5,8,I8*%
%TO.N,/IC5.I8*%
X168880000Y-95863000D03*
%TO.P,IC5,9,GND*%
%TO.N,/GND*%
X168882000Y-96496000D03*
%TO.P,IC5,10,N/C*%
%TO.N,unconnected-(IC5-Pad10)*%
X175035000Y-96495000D03*
%TO.P,IC5,11,O8*%
%TO.N,/IC5.O8*%
X175035000Y-95858000D03*
%TO.P,IC5,12,O7*%
%TO.N,/IC5.O7*%
X175035000Y-95225000D03*
%TO.P,IC5,13,O6*%
%TO.N,/IC5.O6*%
X175037000Y-94550000D03*
%TO.P,IC5,14,O5*%
%TO.N,/IC5.O5*%
X175036000Y-93918000D03*
%TO.P,IC5,15,O4*%
%TO.N,/IC5.O4*%
X175035000Y-93280000D03*
%TO.P,IC5,16,O3*%
%TO.N,/IC5.O3*%
X175035000Y-92645000D03*
%TO.P,IC5,17,O2*%
%TO.N,/IC5.O2*%
X175033000Y-91973000D03*
%TO.P,IC5,18,O1*%
%TO.N,/IC5.O1*%
X175035000Y-91295000D03*
%TD*%
D18*
%TO.P,R13,1*%
%TO.N,/P47*%
X125352000Y-102090000D03*
%TO.P,R13,2*%
%TO.N,/Link.P2*%
X125352000Y-104352000D03*
%TD*%
%TO.P,R9,1*%
%TO.N,/GND*%
X157901000Y-127313000D03*
%TO.P,R9,2*%
%TO.N,Net-(R12-Pad2)*%
X157901000Y-125051000D03*
%TD*%
%TO.P,C19,1*%
%TO.N,/GND*%
X181232000Y-108859000D03*
%TO.P,C19,2*%
%TO.N,/P51*%
X181232000Y-111121000D03*
%TD*%
D16*
%TO.P,R3,1*%
%TO.N,Net-(R2-Pad1)*%
X139008000Y-119514000D03*
%TO.P,R3,2*%
%TO.N,Net-(R3-Pad2)*%
X141270000Y-119514000D03*
%TD*%
D18*
%TO.P,R6,1*%
%TO.N,/P45*%
X123278000Y-121197000D03*
%TO.P,R6,2*%
%TO.N,/Link.P5*%
X123278000Y-123459000D03*
%TD*%
D16*
%TO.P,D3,1,K*%
%TO.N,/Reset*%
X165554000Y-81529500D03*
%TO.P,D3,2,A*%
%TO.N,/Off.GND*%
X167776000Y-81530500D03*
%TD*%
%TO.P,R5,1*%
%TO.N,Net-(R5-Pad1)*%
X143383000Y-119430000D03*
%TO.P,R5,2*%
%TO.N,Net-(R4-Pad2)*%
X145645000Y-119430000D03*
%TD*%
D20*
%TO.P,IC1,1*%
%TO.N,Net-(R12-Pad2)*%
X160183000Y-125180000D03*
D21*
%TO.P,IC1,2,GND*%
%TO.N,/GND*%
X160677000Y-126653000D03*
D22*
X163093000Y-126650000D03*
D20*
%TO.P,IC1,3,+*%
%TO.N,Net-(Q11-Pad2)*%
X160188000Y-128168000D03*
%TD*%
D16*
%TO.P,C14,1*%
%TO.N,/VCC*%
X169838000Y-119311000D03*
%TO.P,C14,2*%
%TO.N,/GND*%
X172100000Y-119311000D03*
%TD*%
%TO.P,R32,1*%
%TO.N,Net-(Q10-Pad1)*%
X135788000Y-106298000D03*
%TO.P,R32,2*%
%TO.N,/CN1.P3*%
X138050000Y-106298000D03*
%TD*%
%TO.P,Q3,1,B*%
%TO.N,Net-(Q3-Pad1)*%
X138968000Y-115583000D03*
%TO.P,Q3,2,E*%
%TO.N,/GND*%
X138968000Y-117567000D03*
%TO.P,Q3,3,C*%
%TO.N,Net-(Q2-Pad1)*%
X141271000Y-116574000D03*
%TD*%
%TO.P,C17,1*%
%TO.N,/GND*%
X152933000Y-110939000D03*
%TO.P,C17,2*%
%TO.N,/VCC*%
X155195000Y-110939000D03*
%TD*%
%TO.P,R30,1*%
%TO.N,/P50*%
X139859000Y-103443000D03*
%TO.P,R30,2*%
%TO.N,/VCC*%
X142121000Y-103443000D03*
%TD*%
%TO.P,R34,1*%
%TO.N,/P52*%
X163549000Y-134063000D03*
%TO.P,R34,2*%
%TO.N,Net-(Q8-Pad1)*%
X165811000Y-134063000D03*
%TD*%
D18*
%TO.P,R26,1*%
%TO.N,/P61*%
X129079000Y-131100000D03*
%TO.P,R26,2*%
%TO.N,Net-(SW2-Pad6)*%
X129079000Y-133362000D03*
%TD*%
D23*
%TO.P,IC3,1,NC*%
%TO.N,unconnected-(IC3-Pad1)*%
X138625000Y-78745000D03*
%TO.P,IC3,2,A12*%
%TO.N,/A12*%
X139933000Y-78745000D03*
%TO.P,IC3,3,A7*%
%TO.N,/A7*%
X141206000Y-78745000D03*
%TO.P,IC3,4,A6*%
%TO.N,/A6*%
X142475000Y-78743000D03*
%TO.P,IC3,5,A5*%
%TO.N,/A5*%
X143744000Y-78745000D03*
%TO.P,IC3,6,A4*%
%TO.N,/A4*%
X145015000Y-78745000D03*
%TO.P,IC3,7,A3*%
%TO.N,/A3*%
X146286000Y-78745000D03*
%TO.P,IC3,8,A2*%
%TO.N,/A2*%
X147595000Y-78745000D03*
%TO.P,IC3,9,A1*%
%TO.N,/A1*%
X148823000Y-78744000D03*
%TO.P,IC3,10,A0*%
%TO.N,/A0*%
X150096000Y-78747000D03*
%TO.P,IC3,11,I/O1*%
%TO.N,/D0*%
X151367000Y-78742000D03*
%TO.P,IC3,12,I/O2*%
%TO.N,/D1*%
X152636000Y-78744000D03*
%TO.P,IC3,13,I/O3*%
%TO.N,/D2*%
X153908000Y-78745000D03*
%TO.P,IC3,14,GND*%
%TO.N,/GND*%
X155175000Y-78743000D03*
%TO.P,IC3,15,I/O4*%
%TO.N,/D3*%
X155177000Y-67157000D03*
%TO.P,IC3,16,I/O5*%
%TO.N,/D4*%
X153904000Y-67154000D03*
%TO.P,IC3,17,I/O6*%
%TO.N,/D5*%
X152634000Y-67156000D03*
%TO.P,IC3,18,I/O7*%
%TO.N,/D6*%
X151366000Y-67155000D03*
%TO.P,IC3,19,I/O8*%
%TO.N,/D7*%
X150095000Y-67152000D03*
%TO.P,IC3,20,CE1*%
%TO.N,/CE1*%
X148825000Y-67156000D03*
%TO.P,IC3,21,A10*%
%TO.N,/A10*%
X147596000Y-67155000D03*
%TO.P,IC3,22,OE*%
%TO.N,/OE*%
X146285000Y-67151000D03*
%TO.P,IC3,23,A11*%
%TO.N,/A11*%
X145016000Y-67155000D03*
%TO.P,IC3,24,A9*%
%TO.N,/A9*%
X143745000Y-67156000D03*
%TO.P,IC3,25,A8*%
%TO.N,/A8*%
X142475000Y-67157000D03*
%TO.P,IC3,26,CE2*%
%TO.N,/VCC*%
X141206000Y-67156000D03*
%TO.P,IC3,27,WE*%
%TO.N,/WE*%
X139936000Y-67151000D03*
%TO.P,IC3,28,VCC*%
%TO.N,/VCC*%
X138626000Y-67155000D03*
%TD*%
D16*
%TO.P,C12,1*%
%TO.N,/P50*%
X139854000Y-101447000D03*
%TO.P,C12,2*%
%TO.N,/GND*%
X142116000Y-101447000D03*
%TD*%
D18*
%TO.P,R7,1*%
%TO.N,/GND*%
X136896000Y-119340000D03*
%TO.P,R7,2*%
%TO.N,Net-(Q3-Pad1)*%
X136896000Y-117078000D03*
%TD*%
D16*
%TO.P,Q4,1,B*%
%TO.N,Net-(C6-Pad2)*%
X130288000Y-82887000D03*
%TO.P,Q4,2,E*%
%TO.N,Net-(C6-Pad1)*%
X130288000Y-84871000D03*
%TO.P,Q4,3,C*%
%TO.N,Net-(Q4-Pad3)*%
X132591000Y-83878000D03*
%TD*%
%TO.P,R36,1*%
%TO.N,/GND*%
X155249000Y-138195000D03*
%TO.P,R36,2*%
%TO.N,Net-(R35-Pad1)*%
X157511000Y-138195000D03*
%TD*%
D18*
%TO.P,Q9,1,B*%
%TO.N,Net-(Q8-Pad1)*%
X175984000Y-139555000D03*
%TO.P,Q9,2,E*%
%TO.N,Net-(R35-Pad1)*%
X177968000Y-139555000D03*
%TO.P,Q9,3,C*%
%TO.N,Net-(Q7-Pad1)*%
X176975000Y-137252000D03*
%TD*%
%TO.P,Q14,1,B*%
%TO.N,/VCC*%
X136869000Y-92625500D03*
%TO.P,Q14,2,E*%
%TO.N,/P53*%
X134885000Y-92625500D03*
%TO.P,Q14,3,C*%
%TO.N,Net-(C6-Pad2)*%
X135878000Y-94928500D03*
%TD*%
%TO.P,C4,1*%
%TO.N,Net-(C4-Pad1)*%
X153908000Y-127313000D03*
%TO.P,C4,2*%
%TO.N,Net-(L1-Pad1)*%
X153908000Y-125051000D03*
%TD*%
%TO.P,Q8,1,B*%
%TO.N,Net-(Q8-Pad1)*%
X163690000Y-132082000D03*
%TO.P,Q8,2,E*%
%TO.N,Net-(R35-Pad1)*%
X165674000Y-132082000D03*
%TO.P,Q8,3,C*%
%TO.N,Net-(Q6-Pad1)*%
X164681000Y-129779000D03*
%TD*%
D24*
%TO.P,IC2,1,P76*%
%TO.N,/D6*%
X163803000Y-105644000D03*
%TO.P,IC2,2,P77*%
%TO.N,/D7*%
X163807000Y-104652000D03*
%TO.P,IC2,3,P00*%
%TO.N,/IC6.I8*%
X163806000Y-103654000D03*
%TO.P,IC2,4,P01*%
%TO.N,/IC6.I7*%
X163806000Y-102665000D03*
%TO.P,IC2,5,P02*%
%TO.N,/IC6.I6*%
X163805000Y-101639000D03*
%TO.P,IC2,6,P03*%
%TO.N,/IC6.I5*%
X163805000Y-100601000D03*
%TO.P,IC2,7,P04*%
%TO.N,/IC6.I4*%
X163801000Y-99607000D03*
%TO.P,IC2,8,P05*%
%TO.N,/IC6.I3*%
X163807000Y-98617000D03*
%TO.P,IC2,9,P06*%
%TO.N,/IC6.I2*%
X163803000Y-97625000D03*
%TO.P,IC2,10,P07*%
%TO.N,/IC6.I1*%
X163802000Y-96596000D03*
%TO.P,IC2,11,P10_INT0*%
%TO.N,/IC5.I8*%
X163805000Y-95561000D03*
%TO.P,IC2,12,P11_INT1*%
%TO.N,/IC5.I7*%
X163805000Y-94565000D03*
%TO.P,IC2,13,P12_INT2/TC1*%
%TO.N,/IC5.I6*%
X163808000Y-93579000D03*
%TO.P,IC2,14,P13_DVO*%
%TO.N,/IC5.I5*%
X163808000Y-92587000D03*
%TO.P,IC2,15,P14_PPG*%
%TO.N,/IC5.I4*%
X163806000Y-91595000D03*
%TO.P,IC2,16,P15_TC2*%
%TO.N,/IC5.I3*%
X163809000Y-90603000D03*
%TO.P,IC2,17,P16*%
%TO.N,/IC5.I2*%
X163810000Y-89571000D03*
%TO.P,IC2,18,P17*%
%TO.N,/IC5.I1*%
X163810000Y-88575000D03*
%TO.P,IC2,19,P20_INT5/STOP*%
%TO.N,/Button*%
X163807000Y-87579000D03*
D25*
%TO.P,IC2,20,TEST*%
%TO.N,/GND*%
X161265000Y-85127000D03*
%TO.P,IC2,21,P21_XTIN*%
%TO.N,/WE*%
X160234000Y-85124000D03*
%TO.P,IC2,22,P22_XTOUT*%
%TO.N,/CE1*%
X159242000Y-85129000D03*
%TO.P,IC2,23,RESET*%
%TO.N,/Reset*%
X158250000Y-85129000D03*
%TO.P,IC2,24,XIN*%
%TO.N,/XIN*%
X157258000Y-85128000D03*
%TO.P,IC2,25,XOUT*%
%TO.N,/XOUT*%
X156266000Y-85124000D03*
%TO.P,IC2,26,VSS*%
%TO.N,/GND*%
X155271000Y-85128000D03*
%TO.P,IC2,27,P30*%
%TO.N,/A0*%
X154282000Y-85125000D03*
%TO.P,IC2,28,P31*%
%TO.N,/A1*%
X153247000Y-85120000D03*
%TO.P,IC2,29,P32*%
%TO.N,/A2*%
X152255000Y-85124000D03*
%TO.P,IC2,30,P33*%
%TO.N,/A3*%
X151227000Y-85125000D03*
%TO.P,IC2,31,P34*%
%TO.N,/A4*%
X150235000Y-85129000D03*
%TO.P,IC2,32,P35*%
%TO.N,/A5*%
X149204000Y-85130000D03*
D24*
%TO.P,IC2,33,P36*%
%TO.N,/A6*%
X146670000Y-87585000D03*
%TO.P,IC2,34,P37*%
%TO.N,/A7*%
X146663000Y-88578000D03*
%TO.P,IC2,35,P40*%
%TO.N,/A8*%
X146663000Y-89568000D03*
%TO.P,IC2,36,P41*%
%TO.N,/A9*%
X146668000Y-90602000D03*
%TO.P,IC2,37,P42_SCK1*%
%TO.N,/A10*%
X146668000Y-91595000D03*
%TO.P,IC2,38,P43_SI1*%
%TO.N,/A11*%
X146665000Y-92587000D03*
%TO.P,IC2,39,P44_SO1*%
%TO.N,/A12*%
X146669000Y-93579000D03*
%TO.P,IC2,40,P45_SCK2*%
%TO.N,/P45*%
X146670000Y-94568000D03*
%TO.P,IC2,41,P46_SI2*%
%TO.N,/P46*%
X146670000Y-95564000D03*
%TO.P,IC2,42,P47_SO2*%
%TO.N,/P47*%
X146668000Y-96595000D03*
%TO.P,IC2,43,P50_INT3/TC3*%
%TO.N,/P50*%
X146665000Y-97623000D03*
%TO.P,IC2,44,P51_INT4/TC4*%
%TO.N,/P51*%
X146669000Y-98615000D03*
%TO.P,IC2,45,P52_PWM/PDO*%
%TO.N,/P52*%
X146672000Y-99611000D03*
%TO.P,IC2,46,P53*%
%TO.N,/P53*%
X146674000Y-100599000D03*
%TO.P,IC2,47,P54*%
%TO.N,/OE*%
X146671000Y-101638000D03*
%TO.P,IC2,48,VASS*%
%TO.N,/GND*%
X146672000Y-102663000D03*
%TO.P,IC2,49,VAREF*%
%TO.N,/VCC*%
X146673000Y-103653000D03*
%TO.P,IC2,50,P60_AIN0*%
%TO.N,/P60*%
X146673000Y-104645000D03*
%TO.P,IC2,51,P61_AIN1*%
%TO.N,/P61*%
X146672000Y-105643000D03*
D25*
%TO.P,IC2,52,P62_AIN2*%
%TO.N,/GND*%
X149163000Y-107985000D03*
%TO.P,IC2,53,P63_AIN3*%
X150194000Y-107985000D03*
%TO.P,IC2,54,P64_AIN4*%
X151185000Y-107984000D03*
%TO.P,IC2,55,P65_AIN5*%
X152216000Y-107981000D03*
%TO.P,IC2,56,P66_AIN6*%
X153212000Y-107984000D03*
%TO.P,IC2,57,P67_AIN7*%
X154241000Y-107984000D03*
%TO.P,IC2,58,VDD*%
%TO.N,/VCC*%
X155235000Y-107984000D03*
%TO.P,IC2,59,P70*%
%TO.N,/D0*%
X156224000Y-107988000D03*
%TO.P,IC2,60,P71*%
%TO.N,/D1*%
X157221000Y-107983000D03*
%TO.P,IC2,61,P72*%
%TO.N,/D2*%
X158213000Y-107983000D03*
%TO.P,IC2,62,P73*%
%TO.N,/D3*%
X159205000Y-107983000D03*
%TO.P,IC2,63,P74*%
%TO.N,/D4*%
X160193000Y-107980000D03*
%TO.P,IC2,64,P75*%
%TO.N,/D5*%
X161229000Y-107983000D03*
%TD*%
D18*
%TO.P,R11,1*%
%TO.N,/P46*%
X129864000Y-126554000D03*
%TO.P,R11,2*%
%TO.N,/Link.P3*%
X129864000Y-128816000D03*
%TD*%
D16*
%TO.P,R21,1*%
%TO.N,/GND*%
X129243000Y-77917000D03*
%TO.P,R21,2*%
%TO.N,Net-(IC7-Pad2)*%
X131505000Y-77917000D03*
%TD*%
%TO.P,R4,1*%
%TO.N,Net-(R3-Pad2)*%
X143392000Y-121416000D03*
%TO.P,R4,2*%
%TO.N,Net-(R4-Pad2)*%
X145654000Y-121416000D03*
%TD*%
D18*
%TO.P,Q5,1,B*%
%TO.N,Net-(Q4-Pad3)*%
X134560000Y-84182500D03*
%TO.P,Q5,2,E*%
%TO.N,/GND*%
X136544000Y-84182500D03*
%TO.P,Q5,3,C*%
%TO.N,Net-(C6-Pad2)*%
X135551000Y-81879500D03*
%TD*%
%TO.P,R12,1*%
%TO.N,Net-(C4-Pad1)*%
X155904000Y-127313000D03*
%TO.P,R12,2*%
%TO.N,Net-(R12-Pad2)*%
X155904000Y-125051000D03*
%TD*%
D16*
%TO.P,R29,1*%
%TO.N,/VCC*%
X139795000Y-99391000D03*
%TO.P,R29,2*%
%TO.N,/P51*%
X142057000Y-99391000D03*
%TD*%
%TO.P,C18,1*%
%TO.N,/GND*%
X129233000Y-79942000D03*
%TO.P,C18,2*%
%TO.N,Net-(IC7-Pad2)*%
X131495000Y-79942000D03*
%TD*%
D18*
%TO.P,C20,1*%
%TO.N,/GND*%
X125070000Y-131100000D03*
%TO.P,C20,2*%
%TO.N,/P61*%
X125070000Y-133362000D03*
%TD*%
D16*
%TO.P,Q2,1,B*%
%TO.N,Net-(Q2-Pad1)*%
X143398000Y-115657000D03*
%TO.P,Q2,2,E*%
%TO.N,Net-(R5-Pad1)*%
X143398000Y-117641000D03*
%TO.P,Q2,3,C*%
%TO.N,/GND*%
X145701000Y-116648000D03*
%TD*%
%TO.P,R1,1*%
%TO.N,/GND*%
X138964000Y-123397000D03*
%TO.P,R1,2*%
%TO.N,Net-(R2-Pad2)*%
X141226000Y-123397000D03*
%TD*%
%TO.P,R16,1*%
%TO.N,Net-(C6-Pad1)*%
X134740000Y-86171000D03*
%TO.P,R16,2*%
%TO.N,/GND*%
X137002000Y-86171000D03*
%TD*%
D26*
%TO.P,D1,1,K*%
%TO.N,/GND*%
X146182000Y-137769000D03*
%TO.P,D1,2,A*%
%TO.N,Net-(Q1-Pad2)*%
X146186000Y-133355000D03*
%TD*%
D16*
%TO.P,R33,1*%
%TO.N,/VCC*%
X155248000Y-136177000D03*
%TO.P,R33,2*%
%TO.N,/P52*%
X157510000Y-136177000D03*
%TD*%
D19*
%TO.P,IC6,1,I1*%
%TO.N,/IC6.I1*%
X168892500Y-98634500D03*
%TO.P,IC6,2,I2*%
%TO.N,/IC6.I2*%
X168892500Y-99311500D03*
%TO.P,IC6,3,I3*%
%TO.N,/IC6.I3*%
X168892500Y-99985500D03*
%TO.P,IC6,4,I4*%
%TO.N,/IC6.I4*%
X168891500Y-100621500D03*
%TO.P,IC6,5,I5*%
%TO.N,/IC6.I5*%
X168891500Y-101252500D03*
%TO.P,IC6,6,I6*%
%TO.N,/IC6.I6*%
X168898500Y-101888500D03*
%TO.P,IC6,7,I7*%
%TO.N,/IC6.I7*%
X168894500Y-102561500D03*
%TO.P,IC6,8,I8*%
%TO.N,/IC6.I8*%
X168891500Y-103201500D03*
%TO.P,IC6,9,GND*%
%TO.N,/GND*%
X168893500Y-103834500D03*
%TO.P,IC6,10,N/C*%
%TO.N,unconnected-(IC6-Pad10)*%
X175046500Y-103833500D03*
%TO.P,IC6,11,O8*%
%TO.N,/IC6.O8*%
X175046500Y-103196500D03*
%TO.P,IC6,12,O7*%
%TO.N,/IC6.O7*%
X175046500Y-102563500D03*
%TO.P,IC6,13,O6*%
%TO.N,/IC6.O6*%
X175048500Y-101888500D03*
%TO.P,IC6,14,O5*%
%TO.N,/IC6.O5*%
X175047500Y-101256500D03*
%TO.P,IC6,15,O4*%
%TO.N,/IC6.O4*%
X175046500Y-100618500D03*
%TO.P,IC6,16,O3*%
%TO.N,/IC6.O3*%
X175046500Y-99983500D03*
%TO.P,IC6,17,O2*%
%TO.N,/IC6.O2*%
X175044500Y-99311500D03*
%TO.P,IC6,18,O1*%
%TO.N,/IC6.O1*%
X175046500Y-98633500D03*
%TD*%
D16*
%TO.P,C6,1*%
%TO.N,Net-(C6-Pad1)*%
X135348000Y-98955000D03*
%TO.P,C6,2*%
%TO.N,Net-(C6-Pad2)*%
X137610000Y-98955000D03*
%TD*%
D18*
%TO.P,R27,1*%
%TO.N,/GND*%
X127058000Y-131102000D03*
%TO.P,R27,2*%
%TO.N,/P61*%
X127058000Y-133364000D03*
%TD*%
D15*
%TO.P,NR2,1,R1.1*%
%TO.N,/A3*%
X136063000Y-74504000D03*
%TO.P,NR2,2,R2.1*%
%TO.N,/A2*%
X136061000Y-73670000D03*
%TO.P,NR2,3,R3.1*%
%TO.N,/A1*%
X136065000Y-72836000D03*
%TO.P,NR2,4,R4.1*%
%TO.N,/A0*%
X136063000Y-72083000D03*
%TO.P,NR2,5,R4.2*%
%TO.N,/VCC*%
X134275000Y-72080000D03*
%TO.P,NR2,6,R3.2*%
X134276000Y-72837000D03*
%TO.P,NR2,7,R2.2*%
X134275000Y-73669000D03*
%TO.P,NR2,8,R1.2*%
X134275000Y-74502000D03*
%TD*%
D18*
%TO.P,C15,1*%
%TO.N,/VCC*%
X158137000Y-72219000D03*
%TO.P,C15,2*%
%TO.N,/GND*%
X158137000Y-74481000D03*
%TD*%
%TO.P,R35,1*%
%TO.N,Net-(R35-Pad1)*%
X161861000Y-133180000D03*
%TO.P,R35,2*%
%TO.N,/VCC*%
X161861000Y-130918000D03*
%TD*%
D27*
%TO.P,F1,1*%
%TO.N,/9V+*%
X145468500Y-141341000D03*
%TO.P,F1,2*%
%TO.N,Net-(SW2-Pad5)*%
X148059500Y-141341000D03*
%TD*%
D16*
%TO.P,R2,1*%
%TO.N,Net-(R2-Pad1)*%
X138979000Y-121494000D03*
%TO.P,R2,2*%
%TO.N,Net-(R2-Pad2)*%
X141241000Y-121494000D03*
%TD*%
D10*
%TO.P,Q7,1,B*%
%TO.N,Net-(Q7-Pad1)*%
X171363000Y-128246000D03*
D28*
%TO.P,Q7,2,E*%
%TO.N,/CN1.P2*%
X172833000Y-125336000D03*
D12*
X172836000Y-127752000D03*
D10*
%TO.P,Q7,3,C*%
%TO.N,/GND*%
X174351000Y-128241000D03*
%TD*%
D18*
%TO.P,D5,1,K*%
%TO.N,Net-(C6-Pad1)*%
X132858000Y-97236000D03*
%TO.P,D5,2,A*%
%TO.N,/Off.GND*%
X132857000Y-99458000D03*
%TD*%
%TO.P,Q10,1,B*%
%TO.N,Net-(Q10-Pad1)*%
X135985000Y-103405000D03*
%TO.P,Q10,2,E*%
%TO.N,/GND*%
X137969000Y-103405000D03*
%TO.P,Q10,3,C*%
%TO.N,/P50*%
X136976000Y-101102000D03*
%TD*%
D15*
%TO.P,NR4,1,R1.1*%
%TO.N,/A8*%
X136063000Y-64862000D03*
%TO.P,NR4,2,R2.1*%
%TO.N,/A9*%
X136061000Y-64028000D03*
%TO.P,NR4,3,R3.1*%
%TO.N,/A11*%
X136065000Y-63194000D03*
%TO.P,NR4,4,R4.1*%
%TO.N,/VCC*%
X136063000Y-62441000D03*
%TO.P,NR4,5,R4.2*%
%TO.N,/A12*%
X134275000Y-62438000D03*
%TO.P,NR4,6,R3.2*%
%TO.N,/VCC*%
X134276000Y-63195000D03*
%TO.P,NR4,7,R2.2*%
X134275000Y-64027000D03*
%TO.P,NR4,8,R1.2*%
X134275000Y-64860000D03*
%TD*%
D16*
%TO.P,R28,1*%
%TO.N,/P60*%
X139921000Y-107441000D03*
%TO.P,R28,2*%
%TO.N,/VCC*%
X142183000Y-107441000D03*
%TD*%
D18*
%TO.P,IC7,1,E*%
%TO.N,Net-(Q3-Pad1)*%
X128676500Y-75892500D03*
%TO.P,IC7,2,B*%
%TO.N,Net-(IC7-Pad2)*%
X130663500Y-75890500D03*
D29*
%TO.P,IC7,3,C*%
%TO.N,/GND*%
X128675500Y-73426500D03*
D30*
X129706500Y-73428500D03*
D29*
%TO.P,IC7,4*%
%TO.N,N/C*%
X130700500Y-73428500D03*
%TD*%
D18*
%TO.P,Q11,1,B*%
%TO.N,Net-(C6-Pad1)*%
X134874000Y-90495500D03*
%TO.P,Q11,2,E*%
%TO.N,Net-(Q11-Pad2)*%
X136858000Y-90495500D03*
%TO.P,Q11,3,C*%
%TO.N,Net-(Q11-Pad3)*%
X135865000Y-88192500D03*
%TD*%
D16*
%TO.P,R22,1*%
%TO.N,Net-(IC7-Pad2)*%
X133282000Y-79944000D03*
%TO.P,R22,2*%
%TO.N,/GND*%
X135544000Y-79944000D03*
%TD*%
D31*
%TO.P,TH1,1*%
%TO.N,/P60*%
X123443000Y-103002000D03*
%TO.P,TH1,2*%
%TO.N,/GND*%
X123441000Y-104510000D03*
%TD*%
D18*
%TO.P,R23,1*%
%TO.N,/GND*%
X128639000Y-90903000D03*
%TO.P,R23,2*%
%TO.N,Net-(LED1-Pad1)*%
X128639000Y-88641000D03*
%TD*%
D32*
%TO.P,L1,1,1*%
%TO.N,Net-(L1-Pad1)*%
X156339000Y-116728000D03*
%TO.P,L1,2,2*%
%TO.N,Net-(Q1-Pad2)*%
X156341000Y-121772000D03*
%TD*%
D33*
%TO.P,SW2,1,A*%
%TO.N,/Off.GND*%
X139395000Y-135468000D03*
%TO.P,SW2,2,B*%
%TO.N,/GND*%
X137412000Y-135470000D03*
%TO.P,SW2,3,C*%
%TO.N,/9V-*%
X135389000Y-135469100D03*
%TO.P,SW2,4,A*%
%TO.N,unconnected-(SW2-Pad4)*%
X139397000Y-137889000D03*
%TO.P,SW2,5,B*%
%TO.N,Net-(SW2-Pad5)*%
X137411000Y-137889000D03*
%TO.P,SW2,6,C*%
%TO.N,Net-(SW2-Pad6)*%
X135389000Y-137889000D03*
D34*
%TO.P,SW2,7,Case_GND*%
%TO.N,/GND*%
X141976000Y-133921000D03*
X141977100Y-139473000D03*
%TO.P,SW2,8,Case_GND*%
X132768000Y-139440000D03*
X132768000Y-133879000D03*
%TD*%
D32*
%TO.P,F2,1*%
%TO.N,/GND*%
X157295000Y-131299000D03*
%TO.P,F2,2*%
%TO.N,Net-(SW2-Pad6)*%
X133094000Y-131183000D03*
%TD*%
%TO.P,C2,1*%
%TO.N,Net-(L1-Pad1)*%
X166340000Y-114564000D03*
%TO.P,C2,2*%
%TO.N,/GND*%
X166300300Y-119602400D03*
%TD*%
D35*
%TO.P,CN1,1,Pin_1*%
%TO.N,/VCC*%
X176950000Y-121545000D03*
%TO.P,CN1,2,Pin_2*%
%TO.N,/CN1.P2*%
X176953000Y-118997000D03*
%TO.P,CN1,3,Pin_3*%
%TO.N,/CN1.P3*%
X176947000Y-116460000D03*
%TO.P,CN1,4,Pin_4*%
%TO.N,/GND*%
X176949000Y-113921000D03*
%TO.P,CN1,5,Pin_5*%
%TO.N,/P51*%
X176944000Y-111342000D03*
%TO.P,CN1,6,Pin_6*%
%TO.N,/GND*%
X176946000Y-108795000D03*
%TD*%
D32*
%TO.P,Q1,1,B*%
%TO.N,Net-(R2-Pad2)*%
X147562000Y-128995000D03*
%TO.P,Q1,2,C*%
%TO.N,Net-(Q1-Pad2)*%
X145105000Y-128999000D03*
%TO.P,Q1,3,E*%
%TO.N,/GND*%
X142606000Y-129001000D03*
%TD*%
%TO.P,C3,1*%
%TO.N,/VCC*%
X149478000Y-115776000D03*
%TO.P,C3,2*%
%TO.N,/GND*%
X149641000Y-120770000D03*
%TD*%
%TO.P,SW1,1,1*%
%TO.N,/Button*%
X173175000Y-140083000D03*
%TO.P,SW1,2,2*%
X173177000Y-131552000D03*
%TO.P,SW1,3,K*%
%TO.N,/GND*%
X168688000Y-140043000D03*
%TO.P,SW1,4,A*%
%TO.N,unconnected-(SW1-Pad4)*%
X168613000Y-131513000D03*
%TD*%
%TO.P,L2,1,1*%
%TO.N,Net-(L1-Pad1)*%
X172058000Y-109511000D03*
%TO.P,L2,2,2*%
%TO.N,/VCC*%
X172103000Y-113558000D03*
%TD*%
D36*
%TO.P,LED1,1,K*%
%TO.N,Net-(LED1-Pad1)*%
X124038300Y-85023300D03*
%TO.P,LED1,2,A*%
%TO.N,Net-(L1-Pad1)*%
X124074000Y-90026000D03*
%TD*%
D32*
%TO.P,C1,1*%
%TO.N,/GND*%
X151856000Y-133578000D03*
%TO.P,C1,2*%
X151897700Y-138611300D03*
%TD*%
D37*
%TO.P,CN2,1,Pin_1*%
%TO.N,Net-(L1-Pad1)*%
X182178000Y-85060500D03*
%TO.P,CN2,2,Pin_2*%
X180195000Y-86052700D03*
%TO.P,CN2,3,Pin_3*%
%TO.N,/IC5.O1*%
X182177000Y-87044000D03*
%TO.P,CN2,4,Pin_4*%
%TO.N,/IC5.O2*%
X180196000Y-88038000D03*
%TO.P,CN2,5,Pin_5*%
%TO.N,/IC5.O3*%
X182183000Y-89067000D03*
%TO.P,CN2,6,Pin_6*%
%TO.N,/IC5.O4*%
X180196000Y-90104000D03*
%TO.P,CN2,7,Pin_7*%
%TO.N,/IC5.O5*%
X182179000Y-91094000D03*
%TO.P,CN2,8,Pin_8*%
%TO.N,/IC5.O6*%
X180198000Y-92084000D03*
%TO.P,CN2,9,Pin_9*%
%TO.N,/IC5.O7*%
X182179000Y-93077000D03*
%TO.P,CN2,10,Pin_10*%
%TO.N,/IC5.O8*%
X180193000Y-94071000D03*
%TO.P,CN2,11,Pin_11*%
%TO.N,/IC6.O1*%
X182180000Y-95103000D03*
%TO.P,CN2,12,Pin_12*%
%TO.N,/IC6.O2*%
X180195000Y-96054000D03*
%TO.P,CN2,13,Pin_13*%
%TO.N,/IC6.O3*%
X182178000Y-97088000D03*
%TO.P,CN2,14,Pin_14*%
%TO.N,/IC6.O4*%
X180191000Y-98079000D03*
%TO.P,CN2,15,Pin_15*%
%TO.N,/IC6.O5*%
X182178000Y-99109000D03*
%TO.P,CN2,16,Pin_16*%
%TO.N,/IC6.O6*%
X180195000Y-100106000D03*
%TO.P,CN2,17,Pin_17*%
%TO.N,/IC6.O7*%
X182176000Y-101096000D03*
%TO.P,CN2,18,Pin_18*%
%TO.N,/IC6.O8*%
X180197000Y-102129000D03*
%TD*%
D33*
%TO.P,CN3,1,Pin_1*%
%TO.N,unconnected-(CN3-Pad1)*%
X125709000Y-110864000D03*
%TO.P,CN3,2,Pin_2*%
%TO.N,/Link.P2*%
X123688000Y-110860000D03*
%TO.P,CN3,3,Pin_3*%
%TO.N,/Link.P3*%
X125708000Y-112887000D03*
%TO.P,CN3,4,Pin_4*%
%TO.N,unconnected-(CN3-Pad4)*%
X123680000Y-112887000D03*
%TO.P,CN3,5,Pin_5*%
%TO.N,/Link.P5*%
X125706000Y-114869000D03*
%TO.P,CN3,6,Pin_6*%
%TO.N,/GND*%
X123685000Y-114874000D03*
D38*
%TO.P,CN3,7,GND*%
X123922000Y-108030000D03*
%TO.P,CN3,8,GND*%
X123922000Y-117696000D03*
%TD*%
D39*
%TO.N,Net-(Q3-Pad1)*%
X131496800Y-100331400D03*
X138560100Y-108493600D03*
%TO.N,/GND*%
X172091200Y-118025900D03*
X162034200Y-120196100D03*
%TO.N,/VCC*%
X147675300Y-113560400D03*
%TO.N,/P53*%
X149481500Y-96729600D03*
X137005600Y-94114800D03*
%TO.N,Net-(Q11-Pad2)*%
X141370000Y-114856100D03*
X136958100Y-89085400D03*
X161550600Y-128241700D03*
%TO.N,/D6*%
X161907600Y-89067400D03*
X152055900Y-73027200D03*
%TO.N,/D7*%
X150095500Y-69744500D03*
X165720200Y-104375600D03*
%TO.N,/Button*%
X165023400Y-122016400D03*
%TO.N,/WE*%
X160253600Y-82754400D03*
X141360500Y-68961000D03*
%TO.N,/A8*%
X143654000Y-88425100D03*
X142750700Y-68750900D03*
%TO.N,/A9*%
X144832100Y-90400100D03*
X143750900Y-69068700D03*
%TO.N,/A10*%
X144330200Y-91323700D03*
X140899800Y-71066500D03*
%TO.N,/A11*%
X148058600Y-86582800D03*
X144814900Y-69166100D03*
%TO.N,/P45*%
X123278000Y-119979600D03*
X148506100Y-94145900D03*
%TO.N,/P46*%
X144838500Y-95564000D03*
X130009700Y-95866200D03*
%TO.N,/P47*%
X129000200Y-94779600D03*
X142894500Y-95437000D03*
%TO.N,/P51*%
X148723400Y-99275400D03*
%TO.N,/P52*%
X144828000Y-100833600D03*
X154125200Y-114284200D03*
%TO.N,/OE*%
X150231100Y-86957400D03*
X146468800Y-68836600D03*
%TO.N,/P60*%
X127040200Y-103197800D03*
X139805700Y-108560400D03*
%TO.N,/P61*%
X130037300Y-132202700D03*
X144645400Y-122430900D03*
%TO.N,/D0*%
X156136900Y-88338500D03*
X151076300Y-80387200D03*
%TO.N,/D1*%
X156901200Y-88988700D03*
X152636000Y-81083300D03*
%TO.N,/D2*%
X158076500Y-88962700D03*
X153894100Y-82372400D03*
%TO.N,/D3*%
X154392800Y-76299600D03*
X158825700Y-88270700D03*
%TO.N,/D4*%
X159553700Y-88995400D03*
X153904000Y-75299500D03*
%TO.N,/D5*%
X160697300Y-87854400D03*
X152892300Y-73969500D03*
%TO.N,/Off.GND*%
X134802800Y-100600200D03*
X167435700Y-84722200D03*
%TO.N,/CN1.P3*%
X138403000Y-107413300D03*
%TD*%
D40*
%TO.N,Net-(Q2-Pad1)*%
X141271000Y-116574000D02*
X141271000Y-115748900D01*
X141362900Y-115657000D02*
X141271000Y-115748900D01*
X143398000Y-115657000D02*
X141362900Y-115657000D01*
%TO.N,Net-(R5-Pad1)*%
X143398000Y-117641000D02*
X143398000Y-118466100D01*
X143398000Y-118466100D02*
X143383000Y-118481100D01*
X143383000Y-118481100D02*
X143383000Y-119430000D01*
%TO.N,Net-(Q3-Pad1)*%
X128280200Y-77228900D02*
X128280200Y-84496500D01*
X128280200Y-84496500D02*
X131496800Y-87713100D01*
X131496800Y-87713100D02*
X131496800Y-100331400D01*
X139108000Y-113753000D02*
X139108000Y-112927900D01*
X128676500Y-76832600D02*
X128280200Y-77228900D01*
X138968000Y-115583000D02*
X138968000Y-116408100D01*
X139108000Y-114617900D02*
X139108000Y-113753000D01*
X138968000Y-114757900D02*
X139108000Y-114617900D01*
X138391000Y-116408100D02*
X138968000Y-116408100D01*
X139108000Y-112927900D02*
X138560100Y-112380000D01*
X136896000Y-117078000D02*
X137721100Y-117078000D01*
X128676500Y-75892500D02*
X128676500Y-76832600D01*
X137721100Y-117078000D02*
X138391000Y-116408100D01*
X138560100Y-112380000D02*
X138560100Y-108493600D01*
X138968000Y-115583000D02*
X138968000Y-114757900D01*
%TO.N,Net-(C6-Pad2)*%
X135355500Y-81879500D02*
X134725900Y-81879500D01*
X137610000Y-98955000D02*
X137610000Y-97801100D01*
X134040400Y-93916000D02*
X135052900Y-94928500D01*
X134040400Y-91831500D02*
X134040400Y-93916000D01*
X135383700Y-86996200D02*
X135039800Y-87340100D01*
X133718400Y-82887000D02*
X130288000Y-82887000D01*
X135412500Y-91560500D02*
X134311400Y-91560500D01*
X135540700Y-81879500D02*
X135680200Y-82019000D01*
X135878000Y-94928500D02*
X135052900Y-94928500D01*
X137597000Y-96963000D02*
X137597000Y-96137900D01*
X135540700Y-81879500D02*
X135385200Y-81879500D01*
X137597000Y-96963000D02*
X137597000Y-97788100D01*
X135680200Y-82019000D02*
X135680200Y-86814500D01*
X135498500Y-86996200D02*
X135383700Y-86996200D01*
X135878000Y-94928500D02*
X136703100Y-94928500D01*
X135039800Y-87340100D02*
X135039800Y-88942700D01*
X135355500Y-81879500D02*
X135385200Y-81879500D01*
X136703100Y-94928500D02*
X136703100Y-95244000D01*
X135680200Y-86814500D02*
X135498500Y-86996200D01*
X134725900Y-81879500D02*
X133718400Y-82887000D01*
X135699200Y-91273800D02*
X135412500Y-91560500D01*
X135699200Y-89602100D02*
X135699200Y-91273800D01*
X137610000Y-97801100D02*
X137597000Y-97788100D01*
X136703100Y-95244000D02*
X137597000Y-96137900D01*
X134311400Y-91560500D02*
X134040400Y-91831500D01*
X135551000Y-81879500D02*
X135540700Y-81879500D01*
X135039800Y-88942700D02*
X135699200Y-89602100D01*
D41*
%TO.N,/GND*%
X125370000Y-131100000D02*
X125294800Y-131100000D01*
X124820800Y-59513000D02*
X127569800Y-62262000D01*
X151159500Y-137769000D02*
X147532100Y-137769000D01*
X129247700Y-80931800D02*
X134556200Y-80931800D01*
X160918200Y-73988800D02*
X160426000Y-74481000D01*
X127569800Y-65124500D02*
X128675500Y-66230200D01*
X160426000Y-74481000D02*
X158137000Y-74481000D01*
X122499400Y-105266500D02*
X122499400Y-96067500D01*
X151897700Y-138507200D02*
X153846700Y-138507200D01*
X152216000Y-107769900D02*
X153212000Y-107769900D01*
X153212000Y-107876900D02*
X152933000Y-108155900D01*
X127569800Y-62262000D02*
X127569800Y-65124500D01*
X167774000Y-75508500D02*
X167774000Y-75021000D01*
X146791100Y-115786000D02*
X146791100Y-116648000D01*
X151185000Y-107559900D02*
X151185000Y-107558900D01*
X128378700Y-130009800D02*
X128033100Y-130355400D01*
X150194000Y-107985000D02*
X150194000Y-107559900D01*
X160426000Y-78071000D02*
X160426000Y-80646100D01*
X146182000Y-137769000D02*
X147532100Y-137769000D01*
X166300300Y-119602400D02*
X168935700Y-116967000D01*
X170373700Y-96538400D02*
X170373700Y-103607100D01*
X168882000Y-96538200D02*
X170373500Y-96538200D01*
X162034200Y-126653000D02*
X162402100Y-126653000D01*
X136544000Y-85272600D02*
X137002000Y-85730600D01*
X132768000Y-133879000D02*
X132768000Y-133695900D01*
X152933000Y-108155900D02*
X152933000Y-110939000D01*
X166741800Y-73988800D02*
X160918200Y-73988800D01*
X129233000Y-79942000D02*
X129233000Y-80917100D01*
X149163000Y-107985000D02*
X149163000Y-113414100D01*
X127058000Y-131102000D02*
X126047100Y-131102000D01*
X155175000Y-79455500D02*
X155175000Y-78743000D01*
X172091200Y-118327100D02*
X172100000Y-118335900D01*
X160426000Y-76924200D02*
X160426000Y-78071000D01*
X141030800Y-104064600D02*
X140677200Y-104418200D01*
X155271000Y-85128000D02*
X155271000Y-83427900D01*
X122593000Y-105360100D02*
X121446900Y-106506200D01*
X153212000Y-107769900D02*
X153212000Y-107558900D01*
X137002000Y-86171000D02*
X137002000Y-87146100D01*
X160677000Y-126653000D02*
X158951900Y-126653000D01*
X121407300Y-60192700D02*
X122087000Y-59513000D01*
X137871100Y-118663900D02*
X137871100Y-119340000D01*
X146672000Y-102663000D02*
X144971900Y-102663000D01*
X153212000Y-107876900D02*
X153212000Y-107769900D01*
X126047100Y-131102000D02*
X126045100Y-131100000D01*
X174606200Y-122792300D02*
X174606200Y-126760700D01*
X132768000Y-133695900D02*
X130054200Y-130982100D01*
X125070000Y-131100000D02*
X125182400Y-131100000D01*
X138964000Y-124372100D02*
X141976000Y-127384100D01*
X150194000Y-107559900D02*
X151185000Y-107559900D01*
X130054200Y-130251900D02*
X129812100Y-130009800D01*
D42*
X168882000Y-96538200D02*
X168882000Y-96496000D01*
D41*
X172091200Y-118025900D02*
X172091200Y-118327100D01*
X132768000Y-133879000D02*
X132768000Y-139440000D01*
X128675500Y-66230200D02*
X128675500Y-72451400D01*
X161265000Y-81485100D02*
X161265000Y-85127000D01*
X122138500Y-113327500D02*
X123685000Y-114874000D01*
X144831900Y-136776900D02*
X141976000Y-133921000D01*
X136544000Y-84182500D02*
X136544000Y-80944000D01*
X170373500Y-78595600D02*
X167774000Y-75996100D01*
X122593000Y-105360100D02*
X122499400Y-105266500D01*
X154241000Y-107984000D02*
X154241000Y-107558900D01*
X170104100Y-103876700D02*
X168935700Y-103876700D01*
X160426000Y-80646100D02*
X161265000Y-81485100D01*
X127058000Y-131102000D02*
X128033100Y-131102000D01*
X153846700Y-138507200D02*
X154158900Y-138195000D01*
X123441000Y-105360100D02*
X122593000Y-105360100D01*
X152216000Y-107981000D02*
X152216000Y-107769900D01*
X151897700Y-138507200D02*
X151159500Y-137769000D01*
X160677000Y-126653000D02*
X162030600Y-126653000D01*
X129233000Y-80917100D02*
X129247700Y-80931800D01*
X153212000Y-107984000D02*
X153212000Y-107876900D01*
X176946000Y-108795000D02*
X180192900Y-108795000D01*
X162405100Y-126650000D02*
X162402100Y-126653000D01*
X128639000Y-90903000D02*
X127663900Y-90903000D01*
X146182000Y-137769000D02*
X144831900Y-137769000D01*
X129243000Y-77917000D02*
X129243000Y-78892100D01*
X170373500Y-96538200D02*
X170373500Y-78595600D01*
X153300000Y-119382000D02*
X152324900Y-119382000D01*
X125182400Y-131100000D02*
X125294800Y-131100000D01*
X129706500Y-73428500D02*
X129706500Y-72940900D01*
X129688300Y-77471700D02*
X129243000Y-77917000D01*
X143755900Y-101447000D02*
X142116000Y-101447000D01*
X130054200Y-130982100D02*
X130054200Y-130251900D01*
X129704500Y-72451400D02*
X128675500Y-72451400D01*
X134556200Y-80931800D02*
X135544000Y-79944000D01*
X157295000Y-131299000D02*
X157295000Y-129009100D01*
X155271000Y-86828100D02*
X154241000Y-87858100D01*
X121446900Y-127364500D02*
X121446900Y-117521000D01*
X151185000Y-107558900D02*
X152216000Y-107558900D01*
X141976000Y-127384100D02*
X141976000Y-129001000D01*
X163093000Y-126650000D02*
X162405100Y-126650000D01*
X136896000Y-119340000D02*
X137871100Y-119340000D01*
X137002000Y-87146100D02*
X137419600Y-87146100D01*
X167774000Y-75021000D02*
X166741800Y-73988800D01*
X155271000Y-85128000D02*
X155271000Y-86828100D01*
X154241000Y-87858100D02*
X154241000Y-107133900D01*
X172100000Y-119311000D02*
X172100000Y-120286100D01*
X162030600Y-126653000D02*
X162034200Y-126653000D01*
X149980400Y-119837200D02*
X146791100Y-116648000D01*
X128675500Y-73426500D02*
X128675500Y-72451400D01*
X170373700Y-103607100D02*
X170104100Y-103876700D01*
X138964000Y-123397000D02*
X138964000Y-124372100D01*
X155271000Y-83427900D02*
X155271000Y-80264100D01*
X170373500Y-96538200D02*
X170373700Y-96538400D01*
X142606000Y-129001000D02*
X141976000Y-129001000D01*
X172100000Y-120286100D02*
X174606200Y-122792300D01*
X154241000Y-107558900D02*
X154241000Y-107133900D01*
X172100000Y-119311000D02*
X172100000Y-118335900D01*
X155175000Y-79455500D02*
X155175000Y-80168100D01*
X149163000Y-106284900D02*
X149163000Y-103453900D01*
X158876100Y-127313000D02*
X158876100Y-126728800D01*
X128033100Y-130355400D02*
X128033100Y-131102000D01*
X122087000Y-59513000D02*
X124820800Y-59513000D01*
X141030800Y-102654100D02*
X141030800Y-104064600D01*
X137002000Y-85730600D02*
X137002000Y-86171000D01*
X150435600Y-119382000D02*
X149980400Y-119837200D01*
X150194000Y-107559900D02*
X150194000Y-107134900D01*
X142116000Y-102422100D02*
X141262800Y-102422100D01*
X129233000Y-78902100D02*
X129233000Y-79942000D01*
X136896000Y-119340000D02*
X136896000Y-121329000D01*
X136544000Y-84182500D02*
X136544000Y-85272600D01*
X121407300Y-84646400D02*
X121407300Y-60192700D01*
X125370000Y-131100000D02*
X126045100Y-131100000D01*
X129706500Y-72453400D02*
X129704500Y-72451400D01*
X149163000Y-107134900D02*
X149163000Y-107985000D01*
X123441000Y-104510000D02*
X123441000Y-105360100D01*
X138968000Y-117567000D02*
X137871100Y-118663900D01*
X157295000Y-129009100D02*
X157901000Y-128403100D01*
X149163000Y-113414100D02*
X146791100Y-115786000D01*
X155249000Y-138195000D02*
X154158900Y-138195000D01*
X136896000Y-121329000D02*
X138964000Y-123397000D01*
X141976000Y-129001000D02*
X141976000Y-133921000D01*
X149163000Y-103453900D02*
X148372100Y-102663000D01*
X140921100Y-90647600D02*
X140921100Y-93745000D01*
X157901000Y-127313000D02*
X157901000Y-128403100D01*
X151185000Y-107984000D02*
X151185000Y-107559900D01*
X155271000Y-80264100D02*
X155175000Y-80168100D01*
X168935700Y-116967000D02*
X168935700Y-103876700D01*
D42*
X168935700Y-103876700D02*
X168893500Y-103834500D01*
D41*
X160426000Y-76924200D02*
X160426000Y-75558400D01*
X139946000Y-93745000D02*
X140921100Y-93745000D01*
X157901000Y-127313000D02*
X158876100Y-127313000D01*
X136544000Y-80944000D02*
X135544000Y-79944000D01*
X129706500Y-72940900D02*
X129688300Y-72959100D01*
X150194000Y-107134900D02*
X150194000Y-106709800D01*
X129706500Y-72940900D02*
X129706500Y-72453400D01*
X129688300Y-72959100D02*
X129688300Y-77471700D01*
X140677200Y-104418200D02*
X138982200Y-104418200D01*
X152324900Y-119382000D02*
X150435600Y-119382000D01*
X149163000Y-107134900D02*
X149163000Y-106284900D01*
X123922000Y-108205000D02*
X122138500Y-108205000D01*
X138982200Y-104418200D02*
X137969000Y-103405000D01*
X122138500Y-108205000D02*
X122138500Y-113327500D01*
X144831900Y-137769000D02*
X144831900Y-136776900D01*
X181232000Y-108859000D02*
X180256900Y-108859000D01*
X122499400Y-96067500D02*
X127663900Y-90903000D01*
X180192900Y-108795000D02*
X180256900Y-108859000D01*
X146672000Y-102663000D02*
X148372100Y-102663000D01*
X149769100Y-106284900D02*
X149163000Y-106284900D01*
X149980400Y-119837200D02*
X149641000Y-120176600D01*
X162034200Y-126653000D02*
X162034200Y-120196100D01*
X174606200Y-126760700D02*
X174351000Y-127015900D01*
X150194000Y-106709800D02*
X149769100Y-106284900D01*
X127663900Y-90903000D02*
X121407300Y-84646400D01*
X142116000Y-101447000D02*
X142116000Y-102422100D01*
X145701000Y-116648000D02*
X146791100Y-116648000D01*
X123922000Y-117521000D02*
X121446900Y-117521000D01*
X137419600Y-87146100D02*
X140921100Y-90647600D01*
X144971900Y-102663000D02*
X143755900Y-101447000D01*
X129243000Y-78892100D02*
X129233000Y-78902100D01*
X158876100Y-126728800D02*
X158951900Y-126653000D01*
X141262800Y-102422100D02*
X141030800Y-102654100D01*
X149641000Y-120176600D02*
X149641000Y-120770000D01*
X167774000Y-75508500D02*
X167774000Y-75996100D01*
X151897700Y-138611300D02*
X151897700Y-138507200D01*
X121446900Y-106506200D02*
X121446900Y-108205000D01*
X129812100Y-130009800D02*
X128378700Y-130009800D01*
X174351000Y-128241000D02*
X174351000Y-127015900D01*
X122138500Y-108205000D02*
X121446900Y-108205000D01*
X152216000Y-107769900D02*
X152216000Y-107558900D01*
X160426000Y-74481000D02*
X160426000Y-75558400D01*
X154241000Y-107558900D02*
X153212000Y-107558900D01*
X125182400Y-131100000D02*
X121446900Y-127364500D01*
D40*
%TO.N,Net-(C6-Pad1)*%
X134552500Y-89233900D02*
X134552500Y-87183600D01*
X133575000Y-90969400D02*
X134048900Y-90495500D01*
X134740000Y-86171000D02*
X133799900Y-86171000D01*
X135335000Y-96963000D02*
X134394900Y-96963000D01*
X130288000Y-84871000D02*
X130288000Y-85696100D01*
X135348000Y-98955000D02*
X135348000Y-97801100D01*
X133325000Y-85696100D02*
X133799900Y-86171000D01*
X134874000Y-89555400D02*
X134552500Y-89233900D01*
X134874000Y-90495500D02*
X134048900Y-90495500D01*
X133575000Y-96788100D02*
X134220000Y-96788100D01*
X134552500Y-87183600D02*
X134740000Y-86996100D01*
X135348000Y-97801100D02*
X135335000Y-97788100D01*
X135335000Y-96963000D02*
X135335000Y-97788100D01*
X134740000Y-86171000D02*
X134740000Y-86996100D01*
X132858000Y-97236000D02*
X133305900Y-96788100D01*
X133305900Y-96788100D02*
X133575000Y-96788100D01*
X130288000Y-85696100D02*
X133325000Y-85696100D01*
X133575000Y-96788100D02*
X133575000Y-90969400D01*
X134220000Y-96788100D02*
X134394900Y-96963000D01*
X134874000Y-90495500D02*
X134874000Y-89555400D01*
%TO.N,Net-(Q4-Pad3)*%
X134560000Y-84182500D02*
X133734900Y-84182500D01*
X133734900Y-84081800D02*
X133531100Y-83878000D01*
X133734900Y-84182500D02*
X133734900Y-84081800D01*
X132591000Y-83878000D02*
X133531100Y-83878000D01*
%TO.N,Net-(Q11-Pad3)*%
X139120900Y-91483000D02*
X139120900Y-90222700D01*
X139120900Y-90222700D02*
X137090700Y-88192500D01*
X139946000Y-91483000D02*
X139120900Y-91483000D01*
X137090700Y-88192500D02*
X136690100Y-88192500D01*
X135865000Y-88192500D02*
X136690100Y-88192500D01*
D41*
%TO.N,/VCC*%
X134276000Y-72837000D02*
X134493800Y-72837000D01*
X163311300Y-128377600D02*
X161861000Y-129827900D01*
X166303000Y-124159000D02*
X166303000Y-123546400D01*
X155195000Y-110939000D02*
X155195000Y-112555900D01*
X134320000Y-69107000D02*
X134428400Y-69107000D01*
X134894000Y-68350000D02*
X135195100Y-68651100D01*
X136314500Y-99970900D02*
X136000800Y-100284600D01*
X134275000Y-72080000D02*
X134428400Y-72080000D01*
X134275000Y-64860000D02*
X134493800Y-64860000D01*
X134712600Y-64027000D02*
X134712600Y-63195000D01*
X152996300Y-115776000D02*
X149478000Y-115776000D01*
X136000800Y-101973200D02*
X136219800Y-102192200D01*
X171132100Y-107985800D02*
X170475600Y-108642300D01*
X134279000Y-76531000D02*
X134496800Y-76531000D01*
X146673000Y-103653000D02*
X144972900Y-103653000D01*
X166763500Y-72219000D02*
X171132100Y-76587600D01*
X138875600Y-97496500D02*
X139795000Y-98415900D01*
X163206000Y-120037800D02*
X155724100Y-112555900D01*
X139795000Y-99391000D02*
X139795000Y-98903400D01*
X134319000Y-69939000D02*
X134373700Y-69939000D01*
X165792400Y-124057000D02*
X165792400Y-126906900D01*
X152602400Y-62441000D02*
X136063000Y-62441000D01*
X135153100Y-78196000D02*
X135153100Y-77363000D01*
X169563300Y-120286100D02*
X169838000Y-120286100D01*
X134275000Y-64027000D02*
X134493800Y-64027000D01*
X134778000Y-77363000D02*
X135153100Y-77363000D01*
X134493800Y-64860000D02*
X135648400Y-66014600D01*
X163206000Y-120888600D02*
X163206000Y-121260000D01*
X144972900Y-103653000D02*
X144850800Y-103775100D01*
X139795000Y-98903400D02*
X139795000Y-98415900D01*
X136590100Y-102192200D02*
X136960200Y-102562300D01*
X134373700Y-69939000D02*
X134373700Y-70772000D01*
X138630100Y-65725800D02*
X138626000Y-65729900D01*
X139795000Y-98903400D02*
X138727500Y-99970900D01*
X134494800Y-72837000D02*
X134493800Y-72838000D01*
X135154100Y-76102400D02*
X135154100Y-76531000D01*
X136219800Y-102192200D02*
X136590100Y-102192200D01*
X138727500Y-99970900D02*
X136314500Y-99970900D01*
X153300000Y-117120000D02*
X153300000Y-116029900D01*
X134428400Y-69107000D02*
X135195100Y-69107000D01*
X148373100Y-106213800D02*
X147675300Y-106911600D01*
X134373700Y-70772000D02*
X134428400Y-70772000D01*
X169838000Y-118335900D02*
X170465100Y-118335900D01*
X135187900Y-63158200D02*
X135151100Y-63195000D01*
X134496800Y-77363000D02*
X134496800Y-76531000D01*
X134493800Y-74502000D02*
X134715600Y-74502000D01*
X155248000Y-136177000D02*
X155248000Y-135201900D01*
X144850800Y-103775100D02*
X142121000Y-103775100D01*
X134496800Y-76531000D02*
X135154100Y-76531000D01*
X142183000Y-107441000D02*
X142183000Y-105279500D01*
X142121000Y-105217500D02*
X142121000Y-104418100D01*
X134712600Y-63195000D02*
X135151100Y-63195000D01*
X165792400Y-126906900D02*
X164321700Y-128377600D01*
X134275000Y-74502000D02*
X134493800Y-74502000D01*
X134428400Y-70772000D02*
X134428400Y-72080000D01*
X170475600Y-108642300D02*
X170475600Y-111930600D01*
X169838000Y-119311000D02*
X169838000Y-118335900D01*
X175497000Y-132625900D02*
X175497000Y-122998000D01*
X137844100Y-92625500D02*
X138875600Y-93657000D01*
X134428400Y-72080000D02*
X134493800Y-72080000D01*
X135195100Y-68651100D02*
X135195100Y-69107000D01*
X153300000Y-116029900D02*
X153250200Y-116029900D01*
X135648400Y-66014600D02*
X135194100Y-66468900D01*
X147675300Y-106911600D02*
X147675300Y-113560400D01*
X171132100Y-76587600D02*
X171132100Y-107985800D01*
X138875600Y-93657000D02*
X138875600Y-97496500D01*
X164321700Y-128377600D02*
X163311300Y-128377600D01*
X134496800Y-75774000D02*
X134715600Y-75774000D01*
X142121000Y-103775100D02*
X142121000Y-104418100D01*
X134715600Y-77363000D02*
X134778000Y-77363000D01*
X134493800Y-73669000D02*
X134493800Y-74502000D01*
X161861000Y-130918000D02*
X161861000Y-129827900D01*
X163206000Y-120284900D02*
X163206000Y-120037800D01*
X158137000Y-67975600D02*
X152602400Y-62441000D01*
X175497000Y-133601000D02*
X175497000Y-132625900D01*
X135187900Y-62441000D02*
X135187900Y-63158200D01*
X163206000Y-120888600D02*
X163206000Y-120284900D01*
X172103000Y-116698000D02*
X176950000Y-121545000D01*
X155235000Y-109923900D02*
X155195000Y-109963900D01*
X141206000Y-67156000D02*
X141206000Y-65730900D01*
X134493800Y-72838000D02*
X134493800Y-73669000D01*
X142121000Y-103443000D02*
X142121000Y-103775100D01*
X158137000Y-72219000D02*
X166763500Y-72219000D01*
X161861000Y-130918000D02*
X160885900Y-130918000D01*
X170475600Y-111930600D02*
X172103000Y-113558000D01*
X158137000Y-72219000D02*
X158137000Y-67975600D01*
X135194100Y-66468900D02*
X135194100Y-68350000D01*
X155724100Y-112555900D02*
X155195000Y-112555900D01*
X134278000Y-78196000D02*
X135153100Y-78196000D01*
X152996300Y-114153400D02*
X152996300Y-115776000D01*
X154593800Y-112555900D02*
X152996300Y-114153400D01*
X155248000Y-135201900D02*
X156602000Y-135201900D01*
X163206000Y-121260000D02*
X163206000Y-122235100D01*
X155195000Y-110939000D02*
X155195000Y-109963900D01*
X155235000Y-107984000D02*
X155235000Y-109923900D01*
X134715600Y-75774000D02*
X134715600Y-74502000D01*
X134715600Y-75774000D02*
X134825700Y-75774000D01*
X136063000Y-62441000D02*
X135187900Y-62441000D01*
X163970500Y-122235100D02*
X165792400Y-124057000D01*
X134825700Y-75774000D02*
X135154100Y-76102400D01*
X134493800Y-64027000D02*
X134712600Y-64027000D01*
X137961500Y-105217500D02*
X142121000Y-105217500D01*
X134278000Y-75774000D02*
X134496800Y-75774000D01*
X163206000Y-122235100D02*
X163970500Y-122235100D01*
X136869000Y-92625500D02*
X137844100Y-92625500D01*
X175497000Y-122998000D02*
X176950000Y-121545000D01*
X134894000Y-68350000D02*
X135194100Y-68350000D01*
X134276000Y-63195000D02*
X134712600Y-63195000D01*
X141206000Y-65730900D02*
X141200900Y-65725800D01*
X134493800Y-72837000D02*
X134494800Y-72837000D01*
X156602000Y-135201900D02*
X160885900Y-130918000D01*
X136960200Y-102562300D02*
X136960200Y-104216200D01*
X142183000Y-105279500D02*
X142121000Y-105217500D01*
X141200900Y-65725800D02*
X138630100Y-65725800D01*
X134278000Y-77363000D02*
X134496800Y-77363000D01*
X134428400Y-69939000D02*
X134428400Y-69107000D01*
X136000800Y-100284600D02*
X136000800Y-101973200D01*
X146673000Y-103653000D02*
X148036500Y-103653000D01*
X172103000Y-113558000D02*
X172103000Y-116698000D01*
X134373700Y-69939000D02*
X134428400Y-69939000D01*
X134493800Y-72080000D02*
X134493800Y-72837000D01*
X155195000Y-112555900D02*
X154593800Y-112555900D01*
X134275000Y-73669000D02*
X134493800Y-73669000D01*
X138626000Y-67155000D02*
X138626000Y-65729900D01*
X153250200Y-116029900D02*
X152996300Y-115776000D01*
X134496800Y-77363000D02*
X134715600Y-77363000D01*
X169838000Y-119311000D02*
X169838000Y-120286100D01*
X135648400Y-66014600D02*
X135933100Y-65729900D01*
X135933100Y-65729900D02*
X138626000Y-65729900D01*
X148036500Y-103653000D02*
X148373100Y-103989600D01*
X136960200Y-104216200D02*
X137961500Y-105217500D01*
X134319000Y-70772000D02*
X134373700Y-70772000D01*
X148373100Y-103989600D02*
X148373100Y-106213800D01*
X166303000Y-123546400D02*
X169563300Y-120286100D01*
X165792400Y-124057000D02*
X166303000Y-123546400D01*
X134493800Y-64027000D02*
X134493800Y-64860000D01*
X170465100Y-118335900D02*
X172103000Y-116698000D01*
X134319000Y-68350000D02*
X134756600Y-68350000D01*
X134756600Y-68350000D02*
X134894000Y-68350000D01*
D40*
%TO.N,/P53*%
X134885000Y-92625500D02*
X135710100Y-92625500D01*
X136768900Y-94114800D02*
X135710100Y-93056000D01*
X148461000Y-100599000D02*
X149481500Y-99578500D01*
X135710100Y-93056000D02*
X135710100Y-92625500D01*
X149481500Y-99578500D02*
X149481500Y-96729600D01*
X137005600Y-94114800D02*
X136768900Y-94114800D01*
X146674000Y-100599000D02*
X148461000Y-100599000D01*
%TO.N,Net-(Q10-Pad1)*%
X135985000Y-105275900D02*
X135985000Y-104345100D01*
X135788000Y-106298000D02*
X135788000Y-105472900D01*
X135788000Y-105472900D02*
X135985000Y-105275900D01*
X135985000Y-103405000D02*
X135985000Y-104345100D01*
%TO.N,Net-(Q11-Pad2)*%
X141370000Y-113753000D02*
X141370000Y-114856100D01*
X136858000Y-89555400D02*
X136958100Y-89455300D01*
X136858000Y-90495500D02*
X136858000Y-89555400D01*
X161336800Y-128241700D02*
X161550600Y-128241700D01*
X160188000Y-128168000D02*
X161263100Y-128168000D01*
X161263100Y-128168000D02*
X161336800Y-128241700D01*
X136958100Y-89455300D02*
X136958100Y-89085400D01*
%TO.N,Net-(Q8-Pad1)*%
X165811000Y-134063000D02*
X165811000Y-133237900D01*
X168496400Y-132892500D02*
X166502000Y-132892500D01*
X163690000Y-132082000D02*
X164630200Y-131141800D01*
X175158900Y-139555000D02*
X168496400Y-132892500D01*
X164630200Y-131141800D02*
X166385400Y-131141800D01*
X166385400Y-131141800D02*
X166502000Y-131258400D01*
X166156600Y-133237900D02*
X165811000Y-133237900D01*
X175984000Y-139555000D02*
X175158900Y-139555000D01*
X166502000Y-131258400D02*
X166502000Y-132892500D01*
X166502000Y-132892500D02*
X166156600Y-133237900D01*
%TO.N,Net-(R35-Pad1)*%
X172583600Y-141463200D02*
X166998100Y-135877700D01*
X161861000Y-134120100D02*
X158611200Y-137369900D01*
X165934400Y-135877700D02*
X164870800Y-134814100D01*
X165674000Y-132082000D02*
X164848900Y-132082000D01*
X161861000Y-133180000D02*
X161861000Y-134120100D01*
X177968000Y-139555000D02*
X177142900Y-139555000D01*
X164870800Y-134814100D02*
X164870800Y-133784200D01*
X164848900Y-132597700D02*
X164266600Y-133180000D01*
X177142900Y-139555000D02*
X177142900Y-140070700D01*
X158611200Y-137369900D02*
X157511000Y-137369900D01*
X164266600Y-133180000D02*
X161861000Y-133180000D01*
X177142900Y-140070700D02*
X175750400Y-141463200D01*
X157511000Y-138195000D02*
X157511000Y-137369900D01*
X175750400Y-141463200D02*
X172583600Y-141463200D01*
X164848900Y-132082000D02*
X164848900Y-132597700D01*
X166998100Y-135877700D02*
X165934400Y-135877700D01*
X164870800Y-133784200D02*
X164266600Y-133180000D01*
%TO.N,Net-(Q7-Pad1)*%
X171363000Y-132465100D02*
X176149900Y-137252000D01*
X171363000Y-128246000D02*
X171363000Y-132465100D01*
X176975000Y-137252000D02*
X176149900Y-137252000D01*
%TO.N,/P50*%
X137868700Y-101034400D02*
X137801100Y-101102000D01*
X140761900Y-100023400D02*
X140163400Y-100621900D01*
X139859000Y-102277100D02*
X139859000Y-103443000D01*
X139854000Y-101034400D02*
X139854000Y-100621900D01*
X142201000Y-97623000D02*
X140761900Y-99062100D01*
X139854000Y-101447000D02*
X139854000Y-102272100D01*
X136976000Y-101102000D02*
X137801100Y-101102000D01*
X139854000Y-102272100D02*
X139859000Y-102277100D01*
X146665000Y-97623000D02*
X142201000Y-97623000D01*
X139854000Y-101447000D02*
X139854000Y-101034400D01*
X140761900Y-99062100D02*
X140761900Y-100023400D01*
X140163400Y-100621900D02*
X139854000Y-100621900D01*
X139854000Y-101034400D02*
X137868700Y-101034400D01*
%TO.N,Net-(Q6-Pad1)*%
X167843900Y-129779000D02*
X164681000Y-129779000D01*
X169291000Y-125229100D02*
X169399600Y-125337700D01*
X169399600Y-125337700D02*
X169399600Y-128223300D01*
X169291000Y-124154000D02*
X169291000Y-125229100D01*
X169399600Y-128223300D02*
X167843900Y-129779000D01*
%TO.N,Net-(SW2-Pad5)*%
X141747400Y-136793300D02*
X138506700Y-136793300D01*
X144844900Y-139890800D02*
X141747400Y-136793300D01*
X146984400Y-140517900D02*
X146357300Y-139890800D01*
X138506700Y-136793300D02*
X137411000Y-137889000D01*
X146357300Y-139890800D02*
X144844900Y-139890800D01*
X148059500Y-141341000D02*
X146984400Y-141341000D01*
X146984400Y-141341000D02*
X146984400Y-140517900D01*
%TO.N,Net-(SW2-Pad6)*%
X134218200Y-132307200D02*
X134218200Y-136718200D01*
X133388800Y-140937100D02*
X135389000Y-138936900D01*
X133094000Y-131183000D02*
X134218200Y-132307200D01*
X132210100Y-140937100D02*
X133388800Y-140937100D01*
X135389000Y-138936900D02*
X135389000Y-137889000D01*
X129079000Y-133362000D02*
X129079000Y-137806000D01*
X134218200Y-136718200D02*
X135389000Y-137889000D01*
X129079000Y-137806000D02*
X132210100Y-140937100D01*
%TO.N,Net-(R12-Pad2)*%
X160944000Y-121260000D02*
X160944000Y-122085100D01*
X157901000Y-125051000D02*
X158978900Y-125051000D01*
X159645500Y-123383600D02*
X160944000Y-122085100D01*
X158978900Y-125051000D02*
X159107900Y-125180000D01*
X160183000Y-125180000D02*
X159645500Y-125180000D01*
X159645500Y-125180000D02*
X159645500Y-123383600D01*
X159645500Y-125180000D02*
X159107900Y-125180000D01*
X155904000Y-125051000D02*
X157901000Y-125051000D01*
%TO.N,/D6*%
X151366000Y-72337300D02*
X151366000Y-67155000D01*
X162252900Y-105644000D02*
X161907600Y-105298700D01*
X152055900Y-73027200D02*
X151366000Y-72337300D01*
X163803000Y-105644000D02*
X162252900Y-105644000D01*
X161907600Y-105298700D02*
X161907600Y-89067400D01*
%TO.N,/D7*%
X165443800Y-104652000D02*
X165720200Y-104375600D01*
X163807000Y-104652000D02*
X165443800Y-104652000D01*
X150095000Y-69744000D02*
X150095000Y-67152000D01*
X150095500Y-69744500D02*
X150095000Y-69744000D01*
%TO.N,/IC6.I8*%
X165808600Y-103201500D02*
X165356100Y-103654000D01*
X167566400Y-103201500D02*
X165808600Y-103201500D01*
X168891500Y-103201500D02*
X167566400Y-103201500D01*
X163806000Y-103654000D02*
X165356100Y-103654000D01*
%TO.N,/IC6.I7*%
X167569400Y-102561500D02*
X165459600Y-102561500D01*
X168894500Y-102561500D02*
X167569400Y-102561500D01*
X165459600Y-102561500D02*
X165356100Y-102665000D01*
X163806000Y-102665000D02*
X165356100Y-102665000D01*
%TO.N,/IC6.I6*%
X168898500Y-101888500D02*
X167573400Y-101888500D01*
X167573400Y-101888500D02*
X165604600Y-101888500D01*
X163805000Y-101639000D02*
X165355100Y-101639000D01*
X165604600Y-101888500D02*
X165355100Y-101639000D01*
%TO.N,/IC6.I5*%
X166006600Y-101252500D02*
X168891500Y-101252500D01*
X163805000Y-100601000D02*
X165355100Y-100601000D01*
X165355100Y-100601000D02*
X166006600Y-101252500D01*
%TO.N,/IC6.I4*%
X163801000Y-99607000D02*
X165351100Y-99607000D01*
X166365600Y-100621500D02*
X165351100Y-99607000D01*
X168891500Y-100621500D02*
X166365600Y-100621500D01*
%TO.N,/IC6.I3*%
X166725600Y-99985500D02*
X168892500Y-99985500D01*
X163807000Y-98617000D02*
X165357100Y-98617000D01*
X165357100Y-98617000D02*
X166725600Y-99985500D01*
%TO.N,/IC6.I2*%
X163803000Y-97625000D02*
X165353100Y-97625000D01*
X165353100Y-97625000D02*
X167039600Y-99311500D01*
X167039600Y-99311500D02*
X168892500Y-99311500D01*
%TO.N,/IC6.I1*%
X163802000Y-96596000D02*
X165528900Y-96596000D01*
X165528900Y-96596000D02*
X167567400Y-98634500D01*
X168892500Y-98634500D02*
X167567400Y-98634500D01*
%TO.N,/IC5.I8*%
X165657100Y-95863000D02*
X168880000Y-95863000D01*
X165355100Y-95561000D02*
X165657100Y-95863000D01*
X163805000Y-95561000D02*
X165355100Y-95561000D01*
%TO.N,/IC5.I7*%
X166013100Y-95223000D02*
X168883000Y-95223000D01*
X165355100Y-94565000D02*
X166013100Y-95223000D01*
X163805000Y-94565000D02*
X165355100Y-94565000D01*
%TO.N,/IC5.I6*%
X166329100Y-94550000D02*
X165358100Y-93579000D01*
X163808000Y-93579000D02*
X165358100Y-93579000D01*
X168887000Y-94550000D02*
X166329100Y-94550000D01*
%TO.N,/IC5.I5*%
X165358100Y-92587000D02*
X166685100Y-93914000D01*
X166685100Y-93914000D02*
X168880000Y-93914000D01*
X163808000Y-92587000D02*
X165358100Y-92587000D01*
%TO.N,/IC5.I4*%
X165356100Y-91595000D02*
X167044100Y-93283000D01*
X163806000Y-91595000D02*
X165356100Y-91595000D01*
X167044100Y-93283000D02*
X168880000Y-93283000D01*
%TO.N,/IC5.I3*%
X167403100Y-92647000D02*
X168881000Y-92647000D01*
X163809000Y-90603000D02*
X165359100Y-90603000D01*
X165359100Y-90603000D02*
X167403100Y-92647000D01*
%TO.N,/IC5.I2*%
X163810000Y-89571000D02*
X165360100Y-89571000D01*
X165360100Y-89777200D02*
X165360100Y-89571000D01*
X168881000Y-91973000D02*
X167555900Y-91973000D01*
X167555900Y-91973000D02*
X165360100Y-89777200D01*
%TO.N,/IC5.I1*%
X168881000Y-91296000D02*
X167555900Y-91296000D01*
X163810000Y-88575000D02*
X165360100Y-88575000D01*
X167555900Y-91296000D02*
X167555900Y-90770800D01*
X167555900Y-90770800D02*
X165360100Y-88575000D01*
%TO.N,/Button*%
X177308900Y-134876200D02*
X177759000Y-134426100D01*
X174518200Y-134876200D02*
X177308900Y-134876200D01*
X161178400Y-105475900D02*
X161178400Y-88657500D01*
X161178400Y-88657500D02*
X162256900Y-87579000D01*
X165023400Y-122016400D02*
X164146200Y-121139200D01*
X163807000Y-87579000D02*
X162256900Y-87579000D01*
X173177000Y-133535000D02*
X174518200Y-134876200D01*
X173177000Y-131552000D02*
X173177000Y-133535000D01*
X164146200Y-121139200D02*
X164146200Y-108443700D01*
X164146200Y-108443700D02*
X161178400Y-105475900D01*
X177759000Y-133601000D02*
X177759000Y-134426100D01*
%TO.N,/WE*%
X139936000Y-67151000D02*
X139936000Y-68315500D01*
X160234000Y-85124000D02*
X160234000Y-83573900D01*
X139873600Y-68377900D02*
X139936000Y-68315500D01*
X160253600Y-83554300D02*
X160253600Y-82754400D01*
X160234000Y-83573900D02*
X160253600Y-83554300D01*
X140425200Y-68961000D02*
X139873600Y-68409400D01*
X139873600Y-68409400D02*
X139873600Y-68377900D01*
X139779600Y-68503400D02*
X139873600Y-68409400D01*
X136982500Y-68503400D02*
X139779600Y-68503400D01*
X136832100Y-68353000D02*
X136982500Y-68503400D01*
X141360500Y-68961000D02*
X140425200Y-68961000D01*
X136107000Y-68353000D02*
X136832100Y-68353000D01*
%TO.N,/CE1*%
X137884700Y-71826600D02*
X136832100Y-70774000D01*
X136107000Y-70774000D02*
X136832100Y-70774000D01*
X157028300Y-75651400D02*
X155640900Y-77038800D01*
X148825000Y-71826600D02*
X148825000Y-67156000D01*
X148825000Y-71826600D02*
X137884700Y-71826600D01*
X159242000Y-85129000D02*
X159242000Y-76234700D01*
X155640900Y-77038800D02*
X154037200Y-77038800D01*
X158658700Y-75651400D02*
X157028300Y-75651400D01*
X159242000Y-76234700D02*
X158658700Y-75651400D01*
X154037200Y-77038800D02*
X148825000Y-71826600D01*
%TO.N,/Reset*%
X161834500Y-86679100D02*
X161977800Y-86535800D01*
X161977800Y-86535800D02*
X161977800Y-75837600D01*
X165512000Y-80662400D02*
X165512000Y-75616700D01*
X161977800Y-75837600D02*
X162198700Y-75616700D01*
X158250000Y-86679100D02*
X161834500Y-86679100D01*
X165512000Y-75616700D02*
X165512000Y-75021000D01*
X165554000Y-81529500D02*
X165554000Y-80704400D01*
X162198700Y-75616700D02*
X165512000Y-75616700D01*
X165554000Y-80704400D02*
X165512000Y-80662400D01*
X158250000Y-85129000D02*
X158250000Y-86679100D01*
%TO.N,/XIN*%
X162021000Y-87129200D02*
X162928000Y-86222200D01*
X157709100Y-87129200D02*
X162021000Y-87129200D01*
X162928000Y-86222200D02*
X162928000Y-78080000D01*
X157258000Y-86678100D02*
X157709100Y-87129200D01*
X157258000Y-85128000D02*
X157258000Y-86678100D01*
%TO.N,/XOUT*%
X156266000Y-82126100D02*
X157885000Y-80507100D01*
X156266000Y-85124000D02*
X156266000Y-82126100D01*
X157885000Y-78082000D02*
X157885000Y-80507100D01*
%TO.N,/A0*%
X150096000Y-78747000D02*
X150096000Y-80526000D01*
X136981800Y-72276700D02*
X144900800Y-72276700D01*
X151609500Y-81113200D02*
X154071200Y-83574900D01*
X150096000Y-80526000D02*
X150683200Y-81113200D01*
X150096000Y-78747000D02*
X150096000Y-77471900D01*
X150683200Y-81113200D02*
X151609500Y-81113200D01*
X144900800Y-72276700D02*
X150096000Y-77471900D01*
X154071200Y-83574900D02*
X154282000Y-83574900D01*
X136063000Y-72083000D02*
X136788100Y-72083000D01*
X154282000Y-85125000D02*
X154282000Y-83574900D01*
X136788100Y-72083000D02*
X136981800Y-72276700D01*
%TO.N,/A1*%
X151240400Y-81563300D02*
X153247000Y-83569900D01*
X153247000Y-85120000D02*
X153247000Y-83569900D01*
X144190100Y-72836000D02*
X148823000Y-77468900D01*
X136065000Y-72836000D02*
X144190100Y-72836000D01*
X148823000Y-78744000D02*
X148823000Y-80019100D01*
X148823000Y-78744000D02*
X148823000Y-77468900D01*
X150367200Y-81563300D02*
X151240400Y-81563300D01*
X148823000Y-80019100D02*
X150367200Y-81563300D01*
%TO.N,/A2*%
X147595000Y-77469900D02*
X143795100Y-73670000D01*
X147595000Y-78745000D02*
X147595000Y-80020100D01*
X147595000Y-80020100D02*
X149588300Y-82013400D01*
X152255000Y-85124000D02*
X152255000Y-83573900D01*
X150694500Y-82013400D02*
X152255000Y-83573900D01*
X147595000Y-78745000D02*
X147595000Y-77469900D01*
X149588300Y-82013400D02*
X150694500Y-82013400D01*
X143795100Y-73670000D02*
X136061000Y-73670000D01*
%TO.N,/A3*%
X146286000Y-78745000D02*
X146286000Y-80020100D01*
X151227000Y-83574900D02*
X150776900Y-83124800D01*
X151227000Y-85125000D02*
X151227000Y-83574900D01*
X149390700Y-83124800D02*
X146286000Y-80020100D01*
X150776900Y-83124800D02*
X149390700Y-83124800D01*
X146286000Y-78745000D02*
X146286000Y-77469900D01*
X143320100Y-74504000D02*
X136063000Y-74504000D01*
X146286000Y-77469900D02*
X143320100Y-74504000D01*
%TO.N,/A4*%
X143322100Y-75777000D02*
X136791100Y-75777000D01*
X145015000Y-78745000D02*
X145015000Y-80020100D01*
X145015000Y-77670700D02*
X145015000Y-78745000D01*
X136066000Y-75777000D02*
X136791100Y-75777000D01*
X150235000Y-83578900D02*
X148573800Y-83578900D01*
X145015000Y-77670700D02*
X145015000Y-77469900D01*
X148573800Y-83578900D02*
X145015000Y-80020100D01*
X145015000Y-77469900D02*
X143322100Y-75777000D01*
X150235000Y-85129000D02*
X150235000Y-83578900D01*
%TO.N,/A5*%
X142752800Y-76478700D02*
X136844400Y-76478700D01*
X144094100Y-80020100D02*
X143744000Y-80020100D01*
X143744000Y-77469900D02*
X142752800Y-76478700D01*
X143744000Y-78745000D02*
X143744000Y-77469900D01*
X136068000Y-76530000D02*
X136793100Y-76530000D01*
X149204000Y-85130000D02*
X144094100Y-80020100D01*
X136844400Y-76478700D02*
X136793100Y-76530000D01*
X143744000Y-78745000D02*
X143744000Y-80020100D01*
%TO.N,/A6*%
X137186300Y-76966800D02*
X136789100Y-77364000D01*
X146670000Y-87585000D02*
X145119900Y-87585000D01*
X136064000Y-77364000D02*
X136789100Y-77364000D01*
X142475000Y-84940100D02*
X142475000Y-78743000D01*
X142475000Y-77467900D02*
X141973900Y-76966800D01*
X142475000Y-78743000D02*
X142475000Y-77467900D01*
X141973900Y-76966800D02*
X137186300Y-76966800D01*
X145119900Y-87585000D02*
X142475000Y-84940100D01*
%TO.N,/A7*%
X141206000Y-84671100D02*
X141206000Y-78745000D01*
X136066000Y-78198000D02*
X136791100Y-78198000D01*
X146663000Y-88578000D02*
X145112900Y-88578000D01*
X141206000Y-78745000D02*
X141206000Y-77469900D01*
X141206000Y-77469900D02*
X137519200Y-77469900D01*
X145112900Y-88578000D02*
X141206000Y-84671100D01*
X137519200Y-77469900D02*
X136791100Y-78198000D01*
%TO.N,/A8*%
X142475000Y-67157000D02*
X142475000Y-65881900D01*
X142475000Y-65881900D02*
X141455100Y-64862000D01*
X141455100Y-64862000D02*
X136063000Y-64862000D01*
X142475000Y-68475200D02*
X142475000Y-67157000D01*
X142750700Y-68750900D02*
X142475000Y-68475200D01*
X144796900Y-89568000D02*
X143654000Y-88425100D01*
X146663000Y-89568000D02*
X144796900Y-89568000D01*
%TO.N,/A9*%
X145117900Y-90602000D02*
X145034000Y-90602000D01*
X143745000Y-65880900D02*
X141892100Y-64028000D01*
X145034000Y-90602000D02*
X144832100Y-90400100D01*
X146668000Y-90602000D02*
X145117900Y-90602000D01*
X143745000Y-67156000D02*
X143745000Y-65880900D01*
X143745000Y-69062800D02*
X143750900Y-69068700D01*
X143745000Y-67156000D02*
X143745000Y-69062800D01*
X141892100Y-64028000D02*
X136061000Y-64028000D01*
%TO.N,/A10*%
X136105000Y-69940000D02*
X139136700Y-69940000D01*
X144846600Y-91323700D02*
X144330200Y-91323700D01*
X139136700Y-69940000D02*
X140263200Y-71066500D01*
X140263200Y-71066500D02*
X140899800Y-71066500D01*
X140899800Y-71066500D02*
X145356200Y-71066500D01*
X145117900Y-91595000D02*
X144846600Y-91323700D01*
X147596000Y-68826700D02*
X147596000Y-67155000D01*
X146668000Y-91595000D02*
X145117900Y-91595000D01*
X145356200Y-71066500D02*
X147596000Y-68826700D01*
%TO.N,/A11*%
X145016000Y-67155000D02*
X145016000Y-68430100D01*
X144814900Y-68631200D02*
X145016000Y-68430100D01*
X142330100Y-63194000D02*
X136065000Y-63194000D01*
X148270800Y-86795000D02*
X148058600Y-86582800D01*
X145016000Y-67155000D02*
X145016000Y-65879900D01*
X148215100Y-92587000D02*
X148270800Y-92531300D01*
X146665000Y-92587000D02*
X148215100Y-92587000D01*
X145016000Y-65879900D02*
X142330100Y-63194000D01*
X148270800Y-92531300D02*
X148270800Y-86795000D01*
X144814900Y-69166100D02*
X144814900Y-68631200D01*
%TO.N,/A12*%
X145118900Y-93579000D02*
X139933000Y-88393100D01*
X146669000Y-93579000D02*
X145118900Y-93579000D01*
X134275000Y-62438000D02*
X133549900Y-62438000D01*
X139933000Y-88393100D02*
X139933000Y-80059600D01*
X138013900Y-80059600D02*
X137071000Y-79116700D01*
X139933000Y-80059600D02*
X138013900Y-80059600D01*
X137071000Y-79116700D02*
X134115200Y-79116700D01*
X139933000Y-80059600D02*
X139933000Y-78745000D01*
X133549900Y-78551400D02*
X133549900Y-62438000D01*
X134115200Y-79116700D02*
X133549900Y-78551400D01*
%TO.N,/P45*%
X123278000Y-121197000D02*
X123278000Y-120256900D01*
X123278000Y-120256900D02*
X123278000Y-119979600D01*
X146670000Y-94568000D02*
X148220100Y-94568000D01*
X148220100Y-94431900D02*
X148506100Y-94145900D01*
X148220100Y-94568000D02*
X148220100Y-94431900D01*
%TO.N,/P46*%
X146670000Y-95564000D02*
X144838500Y-95564000D01*
X129864000Y-126554000D02*
X129864000Y-125613900D01*
X129864000Y-125613900D02*
X130009700Y-125468200D01*
X130009700Y-125468200D02*
X130009700Y-95866200D01*
%TO.N,/P47*%
X144052500Y-96595000D02*
X142894500Y-95437000D01*
X129000200Y-94779600D02*
X125352000Y-98427800D01*
X125352000Y-98427800D02*
X125352000Y-102090000D01*
X146668000Y-96595000D02*
X144052500Y-96595000D01*
%TO.N,/P51*%
X143773100Y-98615000D02*
X146669000Y-98615000D01*
X142057000Y-99391000D02*
X142997100Y-99391000D01*
X142997100Y-99391000D02*
X143773100Y-98615000D01*
X180185900Y-111342000D02*
X180406900Y-111121000D01*
X176944000Y-111342000D02*
X180185900Y-111342000D01*
X148219100Y-98771100D02*
X148723400Y-99275400D01*
X181232000Y-111121000D02*
X180406900Y-111121000D01*
X146669000Y-98615000D02*
X148219100Y-98615000D01*
X148219100Y-98615000D02*
X148219100Y-98771100D01*
%TO.N,/P52*%
X145121900Y-99611000D02*
X145121900Y-100539700D01*
X156570900Y-138910900D02*
X156680200Y-139020200D01*
X153080900Y-121255900D02*
X154125200Y-120211600D01*
X157510000Y-136177000D02*
X156570900Y-137116100D01*
X156680200Y-139020200D02*
X158319300Y-139020200D01*
X154208600Y-136720000D02*
X154208600Y-133651600D01*
X146672000Y-99611000D02*
X145121900Y-99611000D01*
X154208600Y-133651600D02*
X153080900Y-132523900D01*
X145121900Y-100539700D02*
X144828000Y-100833600D01*
X156570900Y-137116100D02*
X156570900Y-138910900D01*
X159560100Y-137111800D02*
X162608900Y-134063000D01*
X153080900Y-132523900D02*
X153080900Y-121255900D01*
X156570900Y-137116100D02*
X154604700Y-137116100D01*
X159560100Y-137779400D02*
X159560100Y-137111800D01*
X154604700Y-137116100D02*
X154208600Y-136720000D01*
X154125200Y-120211600D02*
X154125200Y-114284200D01*
X163549000Y-134063000D02*
X162608900Y-134063000D01*
X158319300Y-139020200D02*
X159560100Y-137779400D01*
%TO.N,/OE*%
X145365400Y-69940000D02*
X140091500Y-69940000D01*
X146468800Y-68609900D02*
X146468800Y-68836600D01*
X148221100Y-101638000D02*
X150231100Y-99628000D01*
X140091500Y-69940000D02*
X139257500Y-69106000D01*
X146671000Y-101638000D02*
X148221100Y-101638000D01*
X139257500Y-69106000D02*
X136109000Y-69106000D01*
X146285000Y-67151000D02*
X146285000Y-68426100D01*
X150231100Y-99628000D02*
X150231100Y-86957400D01*
X146468800Y-68836600D02*
X145365400Y-69940000D01*
X146285000Y-68426100D02*
X146468800Y-68609900D01*
%TO.N,/P60*%
X123443000Y-103002000D02*
X124143100Y-103002000D01*
X139921000Y-108445100D02*
X139921000Y-108266100D01*
X146673000Y-104645000D02*
X145122900Y-104645000D01*
X139921000Y-107441000D02*
X139921000Y-108266100D01*
X143338800Y-106429100D02*
X145122900Y-104645000D01*
X139805700Y-108560400D02*
X139921000Y-108445100D01*
X124338900Y-103197800D02*
X127040200Y-103197800D01*
X139921000Y-108266100D02*
X142956800Y-108266100D01*
X124143100Y-103002000D02*
X124338900Y-103197800D01*
X143338800Y-107884100D02*
X143338800Y-106429100D01*
X142956800Y-108266100D02*
X143338800Y-107884100D01*
%TO.N,/P61*%
X129874700Y-132040100D02*
X129079000Y-132040100D01*
X127058000Y-133364000D02*
X127883100Y-133364000D01*
X146672000Y-105643000D02*
X145121900Y-105643000D01*
X144645400Y-106119500D02*
X144645400Y-122430900D01*
X125070000Y-133362000D02*
X125895100Y-133362000D01*
X125897100Y-133364000D02*
X125895100Y-133362000D01*
X128817600Y-132040100D02*
X127883100Y-132974600D01*
X129079000Y-132040100D02*
X128817600Y-132040100D01*
X145121900Y-105643000D02*
X144645400Y-106119500D01*
X129079000Y-131100000D02*
X129079000Y-132040100D01*
X127883100Y-132974600D02*
X127883100Y-133364000D01*
X130037300Y-132202700D02*
X129874700Y-132040100D01*
X127058000Y-133364000D02*
X125897100Y-133364000D01*
%TO.N,/D0*%
X151076300Y-80307800D02*
X151076300Y-80387200D01*
X156224000Y-107988000D02*
X156224000Y-106437900D01*
X151367000Y-80017100D02*
X151076300Y-80307800D01*
X156136900Y-88338500D02*
X156136900Y-106350800D01*
X156136900Y-106350800D02*
X156224000Y-106437900D01*
X151367000Y-78742000D02*
X151367000Y-80017100D01*
%TO.N,/D1*%
X152636000Y-78744000D02*
X152636000Y-81083300D01*
X157221000Y-106432900D02*
X156901200Y-106113100D01*
X157221000Y-107983000D02*
X157221000Y-106432900D01*
X156901200Y-106113100D02*
X156901200Y-88988700D01*
%TO.N,/D2*%
X153894100Y-80034000D02*
X153908000Y-80020100D01*
X158213000Y-106432900D02*
X158076500Y-106296400D01*
X153908000Y-78745000D02*
X153908000Y-80020100D01*
X158076500Y-106296400D02*
X158076500Y-88962700D01*
X153894100Y-82372400D02*
X153894100Y-80034000D01*
X158213000Y-107983000D02*
X158213000Y-106432900D01*
%TO.N,/D3*%
X159205000Y-107983000D02*
X159205000Y-106432900D01*
X159205000Y-106432900D02*
X158825700Y-106053600D01*
X158825700Y-106053600D02*
X158825700Y-88270700D01*
X155177000Y-67157000D02*
X155177000Y-75515400D01*
X155177000Y-75515400D02*
X154392800Y-76299600D01*
%TO.N,/D4*%
X153904000Y-67154000D02*
X153904000Y-75299500D01*
X160193000Y-107980000D02*
X160193000Y-106429900D01*
X160193000Y-106429900D02*
X159553700Y-105790600D01*
X159553700Y-105790600D02*
X159553700Y-88995400D01*
%TO.N,/D5*%
X160697300Y-105898100D02*
X160697300Y-87854400D01*
X161229000Y-106429800D02*
X160697300Y-105898100D01*
X161229000Y-107983000D02*
X161229000Y-106429800D01*
X152892300Y-68689400D02*
X152892300Y-73969500D01*
X152634000Y-67156000D02*
X152634000Y-68431100D01*
X152634000Y-68431100D02*
X152892300Y-68689400D01*
%TO.N,/IC5.O8*%
X178406000Y-95858000D02*
X180193000Y-94071000D01*
X175035000Y-95858000D02*
X178406000Y-95858000D01*
%TO.N,/IC5.O7*%
X179841700Y-93077000D02*
X182179000Y-93077000D01*
X175035000Y-95225000D02*
X177693700Y-95225000D01*
X177693700Y-95225000D02*
X179841700Y-93077000D01*
%TO.N,/IC5.O6*%
X177732000Y-94550000D02*
X180198000Y-92084000D01*
X175037000Y-94550000D02*
X177732000Y-94550000D01*
%TO.N,/IC5.O5*%
X179789900Y-91094000D02*
X176965900Y-93918000D01*
X182179000Y-91094000D02*
X179789900Y-91094000D01*
X176965900Y-93918000D02*
X175036000Y-93918000D01*
%TO.N,/IC5.O4*%
X176360100Y-93280000D02*
X179536100Y-90104000D01*
X175035000Y-93280000D02*
X176360100Y-93280000D01*
X179536100Y-90104000D02*
X180196000Y-90104000D01*
%TO.N,/IC5.O3*%
X183130100Y-88119900D02*
X182183000Y-89067000D01*
X173709900Y-92645000D02*
X173707800Y-92642900D01*
X182548800Y-86052700D02*
X183130100Y-86634000D01*
X173707800Y-92642900D02*
X173707800Y-90958500D01*
X173707800Y-90958500D02*
X179592300Y-85074000D01*
X179592300Y-85074000D02*
X180640600Y-85074000D01*
X175035000Y-92645000D02*
X173709900Y-92645000D01*
X180640600Y-85074000D02*
X181619300Y-86052700D01*
X181619300Y-86052700D02*
X182548800Y-86052700D01*
X183130100Y-86634000D02*
X183130100Y-88119900D01*
%TO.N,/IC5.O2*%
X175033000Y-91973000D02*
X176358100Y-91973000D01*
X180196000Y-88038000D02*
X176358100Y-91875900D01*
X176358100Y-91875900D02*
X176358100Y-91973000D01*
%TO.N,/IC5.O1*%
X179286000Y-87044000D02*
X182177000Y-87044000D01*
X175035000Y-91295000D02*
X179286000Y-87044000D01*
%TO.N,/IC6.O8*%
X175046500Y-103196500D02*
X179129500Y-103196500D01*
X179129500Y-103196500D02*
X180197000Y-102129000D01*
%TO.N,/IC6.O7*%
X175046500Y-102563500D02*
X178374200Y-102563500D01*
X179841700Y-101096000D02*
X182176000Y-101096000D01*
X178374200Y-102563500D02*
X179841700Y-101096000D01*
%TO.N,/IC6.O6*%
X178412500Y-101888500D02*
X180195000Y-100106000D01*
X175048500Y-101888500D02*
X178412500Y-101888500D01*
%TO.N,/IC6.O5*%
X175047500Y-101256500D02*
X177650200Y-101256500D01*
X177650200Y-101256500D02*
X179797700Y-99109000D01*
X179797700Y-99109000D02*
X182178000Y-99109000D01*
%TO.N,/IC6.O4*%
X177651500Y-100618500D02*
X180191000Y-98079000D01*
X175046500Y-100618500D02*
X177651500Y-100618500D01*
%TO.N,/IC6.O3*%
X176902200Y-99983500D02*
X179797700Y-97088000D01*
X175046500Y-99983500D02*
X176902200Y-99983500D01*
X179797700Y-97088000D02*
X182178000Y-97088000D01*
%TO.N,/IC6.O2*%
X175044500Y-99311500D02*
X176937500Y-99311500D01*
X176937500Y-99311500D02*
X180195000Y-96054000D01*
%TO.N,/IC6.O1*%
X179797700Y-95103000D02*
X176371600Y-98529100D01*
X175046500Y-98633500D02*
X176371600Y-98633500D01*
X176371600Y-98529100D02*
X176371600Y-98633500D01*
X182180000Y-95103000D02*
X179797700Y-95103000D01*
D41*
%TO.N,/Off.GND*%
X167776000Y-81530500D02*
X167776000Y-84381900D01*
X132857000Y-99458000D02*
X133832100Y-99458000D01*
X139395000Y-129212600D02*
X134686300Y-124503900D01*
X139395000Y-135468000D02*
X139395000Y-129212600D01*
X134686300Y-100312200D02*
X133832100Y-99458000D01*
X167776000Y-84381900D02*
X167435700Y-84722200D01*
X134686300Y-100600200D02*
X134802800Y-100600200D01*
X134686300Y-124503900D02*
X134686300Y-100600200D01*
X134686300Y-100600200D02*
X134686300Y-100312200D01*
%TO.N,/9V-*%
X130884800Y-99705900D02*
X130621700Y-99969000D01*
X130884800Y-126540800D02*
X135389000Y-131045000D01*
X130621700Y-99969000D02*
X130621700Y-100693800D01*
X125670000Y-63755000D02*
X125670000Y-64815700D01*
X130884800Y-88371300D02*
X130884800Y-99705900D01*
X127194800Y-84681300D02*
X130884800Y-88371300D01*
X125670000Y-64815700D02*
X127194800Y-66340500D01*
X130884800Y-100956900D02*
X130884800Y-126540800D01*
X130621700Y-100693800D02*
X130884800Y-100956900D01*
X127194800Y-66340500D02*
X127194800Y-84681300D01*
X135389000Y-131045000D02*
X135389000Y-135469100D01*
D40*
%TO.N,Net-(IC7-Pad2)*%
X131505000Y-79106900D02*
X131505000Y-77917000D01*
X132437100Y-79944000D02*
X132435100Y-79942000D01*
X131495000Y-79942000D02*
X131495000Y-79116900D01*
X131505000Y-77917000D02*
X131505000Y-77091900D01*
X133282000Y-79944000D02*
X132437100Y-79944000D01*
X131488600Y-77075500D02*
X131505000Y-77091900D01*
X131495000Y-79116900D02*
X131505000Y-79106900D01*
X131488600Y-75890500D02*
X131488600Y-77075500D01*
X131495000Y-79942000D02*
X132435100Y-79942000D01*
X130663500Y-75890500D02*
X131488600Y-75890500D01*
%TO.N,Net-(LED1-Pad1)*%
X124196200Y-85023300D02*
X124038300Y-85023300D01*
X128639000Y-88641000D02*
X127813900Y-88641000D01*
X127813900Y-88641000D02*
X124196200Y-85023300D01*
%TO.N,/CN1.P2*%
X174704700Y-134426100D02*
X176246600Y-134426100D01*
X174515700Y-134237100D02*
X174704700Y-134426100D01*
X172833000Y-125336000D02*
X172833000Y-126173900D01*
X176246600Y-134426100D02*
X176492000Y-134180700D01*
X172833000Y-125336000D02*
X170569900Y-123072900D01*
X176492000Y-134180700D02*
X176492000Y-131240200D01*
X167818000Y-124648000D02*
X167818000Y-127061000D01*
X172836000Y-127574000D02*
X172836000Y-126176900D01*
X172836000Y-127574000D02*
X172836000Y-127752000D01*
X172939100Y-129327100D02*
X174568200Y-130956200D01*
X172836000Y-129327100D02*
X172939100Y-129327100D01*
X174568200Y-132614100D02*
X174515700Y-132666600D01*
X172833000Y-126173900D02*
X172836000Y-126176900D01*
X167818000Y-127061000D02*
X167821000Y-127064000D01*
X178385600Y-123649100D02*
X178385600Y-120429600D01*
X176395700Y-125639000D02*
X178385600Y-123649100D01*
X170569900Y-123072900D02*
X167818000Y-123072900D01*
X174515700Y-132666600D02*
X174515700Y-134237100D01*
X176492000Y-131240200D02*
X176395700Y-131143900D01*
X176395700Y-131143900D02*
X176395700Y-125639000D01*
X174568200Y-130956200D02*
X174568200Y-132614100D01*
X167818000Y-124648000D02*
X167818000Y-123072900D01*
X172836000Y-127752000D02*
X172836000Y-129327100D01*
X178385600Y-120429600D02*
X176953000Y-118997000D01*
%TO.N,Net-(C4-Pad1)*%
X155904000Y-127313000D02*
X153908000Y-127313000D01*
%TO.N,Net-(L1-Pad1)*%
X175666900Y-105902100D02*
X178718800Y-105902100D01*
X172058000Y-109511000D02*
X175666900Y-105902100D01*
X183663300Y-86439800D02*
X182284000Y-85060500D01*
X182284000Y-85060500D02*
X182178000Y-85060500D01*
X156339000Y-118819600D02*
X156339000Y-116728000D01*
X153908000Y-125051000D02*
X153908000Y-121250600D01*
X178718800Y-105902100D02*
X183663300Y-100957600D01*
X153908000Y-121250600D02*
X156339000Y-118819600D01*
X183663300Y-100957600D02*
X183663300Y-86439800D01*
%TO.N,Net-(R3-Pad2)*%
X141270000Y-119514000D02*
X141270000Y-120339100D01*
X141521800Y-120590900D02*
X141270000Y-120339100D01*
X143392000Y-120590900D02*
X141521800Y-120590900D01*
X143392000Y-121416000D02*
X143392000Y-120590900D01*
%TO.N,Net-(R4-Pad2)*%
X145654000Y-120590900D02*
X145645000Y-120581900D01*
X145645000Y-120581900D02*
X145645000Y-119430000D01*
X145654000Y-121416000D02*
X145654000Y-120590900D01*
%TO.N,Net-(R2-Pad2)*%
X141226000Y-123397000D02*
X142166100Y-123397000D01*
X142166100Y-123599100D02*
X147562000Y-128995000D01*
X141241000Y-121494000D02*
X141241000Y-122319100D01*
X142166100Y-123397000D02*
X142166100Y-123599100D01*
X141241000Y-122319100D02*
X141226000Y-122334100D01*
X141226000Y-122334100D02*
X141226000Y-123397000D01*
%TO.N,Net-(R2-Pad1)*%
X138979000Y-121494000D02*
X138979000Y-120668900D01*
X138979000Y-120668900D02*
X139008000Y-120639900D01*
X139008000Y-120639900D02*
X139008000Y-119514000D01*
%TO.N,Net-(Q1-Pad2)*%
X146186000Y-133355000D02*
X146186000Y-131904900D01*
X146186000Y-131904900D02*
X145105000Y-130823900D01*
X145105000Y-130823900D02*
X145105000Y-128999000D01*
%TO.N,/CN1.P3*%
X138050000Y-107123100D02*
X138112800Y-107123100D01*
X138050000Y-106298000D02*
X138050000Y-107123100D01*
X138112800Y-107123100D02*
X138403000Y-107413300D01*
%TO.N,/Link.P5*%
X126247200Y-121314900D02*
X126247200Y-115410200D01*
X126247200Y-115410200D02*
X125706000Y-114869000D01*
X123278000Y-123459000D02*
X124103100Y-123459000D01*
X124103100Y-123459000D02*
X126247200Y-121314900D01*
%TO.N,/Link.P3*%
X129038900Y-116217900D02*
X125708000Y-112887000D01*
X129038900Y-128816000D02*
X129038900Y-116217900D01*
X129864000Y-128816000D02*
X129038900Y-128816000D01*
%TO.N,/Link.P2*%
X126177100Y-104352000D02*
X126281800Y-104456700D01*
X124942800Y-109605200D02*
X123688000Y-110860000D01*
X126281800Y-109380400D02*
X126057000Y-109605200D01*
X126057000Y-109605200D02*
X124942800Y-109605200D01*
X126281800Y-104456700D02*
X126281800Y-109380400D01*
X125352000Y-104352000D02*
X126177100Y-104352000D01*
D41*
%TO.N,/9V+*%
X147079900Y-142952400D02*
X158315600Y-142952400D01*
X145468500Y-141341000D02*
X147079900Y-142952400D01*
X158315600Y-142952400D02*
X162465000Y-138803000D01*
%TD*%
M02*
