M48
; DRILL file {KiCad (6.0.2)} date Sun Sep 25 18:27:02 2022
; FORMAT={-:-/ absolute / metric / decimal}
; #@! TF.CreationDate,2022-09-25T18:27:02-05:00
; #@! TF.GenerationSoftware,Kicad,Pcbnew,(6.0.2)
; #@! TF.FileFunction,Plated,1,2,PTH
FMAT,2
METRIC
; #@! TA.AperFunction,Plated,PTH,ViaDrill
T1C0.400
; #@! TA.AperFunction,Plated,PTH,ComponentDrill
T2C0.750
; #@! TA.AperFunction,Plated,PTH,ComponentDrill
T3C0.800
; #@! TA.AperFunction,Plated,PTH,ComponentDrill
T4C1.000
; #@! TA.AperFunction,Plated,PTH,ComponentDrill
T5C1.150
; #@! TA.AperFunction,Plated,PTH,ComponentDrill
T6C1.200
; #@! TA.AperFunction,Plated,PTH,ComponentDrill
T7C1.300
; #@! TA.AperFunction,Plated,PTH,ComponentDrill
T8C1.750
%
G90
G05
T1
X123.442Y-119.764
X126.335Y-103.348
X126.47Y-102.069
X127.032Y-100.452
X127.949Y-77.32
X128.182Y-78.853
X130.214Y-87.128
X131.199Y-104.297
X131.898Y-94.044
X133.467Y-120.29
X134.77Y-94.044
X135.457Y-102.137
X137.774Y-87.301
X138.017Y-95.186
X139.308Y-95.46
X140.804Y-68.708
X140.894Y-97.566
X141.243Y-109.301
X142.074Y-93.48
X142.196Y-68.796
X142.793Y-86.65
X143.086Y-93.218
X143.469Y-68.707
X143.469Y-85.646
X144.047Y-70.255
X144.109Y-90.429
X144.252Y-93.578
X144.531Y-68.706
X144.841Y-102.765
X145.417Y-69.531
X146.405Y-86.399
X147.716Y-84.389
X148.495Y-98.266
X148.518Y-99.48
X150.106Y-117.511
X150.41Y-74.95
X151.366Y-68.707
X151.976Y-80.404
X152.029Y-77.137
X152.634Y-73.758
X152.636Y-81.515
X153.908Y-82.254
X155.177Y-70.001
X156.183Y-90.275
X156.926Y-82.048
X157.221Y-89.466
X158.213Y-88.088
X158.325Y-134.627
X159.205Y-90.067
X159.832Y-89.086
X160.257Y-83.048
X160.438Y-87.854
X165.65Y-87.678
X166.156Y-88.879
X169.257Y-104.641
X170.976Y-74.697
X172.501Y-121.239
T2
X180.191Y-98.079
X180.193Y-94.071
X180.195Y-86.053
X180.195Y-96.054
X180.195Y-100.106
X180.196Y-88.038
X180.196Y-90.104
X180.197Y-102.129
X180.198Y-92.084
X182.176Y-101.096
X182.177Y-87.044
X182.178Y-85.06
X182.178Y-97.088
X182.178Y-99.109
X182.179Y-91.094
X182.179Y-93.077
X182.18Y-95.103
X182.183Y-89.067
T3
X123.68Y-112.887
X123.685Y-114.874
X123.688Y-110.86
X125.706Y-114.869
X125.708Y-112.887
X125.709Y-110.864
T4
X124.038Y-85.023
X124.074Y-90.026
X135.389Y-135.469
X135.389Y-137.889
X137.411Y-137.889
X137.412Y-135.47
X139.395Y-135.468
X139.397Y-137.889
X176.944Y-111.342
X176.946Y-108.795
X176.947Y-116.46
X176.949Y-113.921
X176.95Y-121.545
X176.953Y-118.997
T6
X133.094Y-131.183
X142.606Y-129.001
X145.105Y-128.999
X147.562Y-128.995
X149.478Y-115.776
X149.641Y-120.77
X151.856Y-133.578
X151.898Y-138.611
X156.339Y-116.728
X156.341Y-121.772
X157.295Y-131.299
X166.3Y-119.602
X166.34Y-114.564
X168.613Y-131.513
X168.688Y-140.043
X172.058Y-109.511
X172.103Y-113.558
X173.175Y-140.083
X173.177Y-131.552
T7
X132.768Y-133.879
X132.768Y-139.44
X141.976Y-133.921
X141.977Y-139.473
T8
X123.922Y-108.205
X123.922Y-117.521
T5
G00X123.097Y-62.425
M15
G01X123.097Y-64.055
M16
G05
G00X125.67Y-62.505
M15
G01X125.67Y-65.005
M16
G05
G00X162.465Y-137.988
M15
G01X162.465Y-139.618
M16
G05
G00X165.044Y-138.069
M15
G01X165.044Y-140.569
M16
G05
T0
M30
