M48
; DRILL file {KiCad (6.0.2)} date Sun Sep 11 13:52:51 2022
; FORMAT={-:-/ absolute / metric / decimal}
; #@! TF.CreationDate,2022-09-11T13:52:51-05:00
; #@! TF.GenerationSoftware,Kicad,Pcbnew,(6.0.2)
; #@! TF.FileFunction,Plated,1,2,PTH
FMAT,2
METRIC
; #@! TA.AperFunction,Plated,PTH,ViaDrill
T1C0.400
; #@! TA.AperFunction,Plated,PTH,ComponentDrill
T2C0.750
; #@! TA.AperFunction,Plated,PTH,ComponentDrill
T3C0.800
; #@! TA.AperFunction,Plated,PTH,ComponentDrill
T4C1.000
; #@! TA.AperFunction,Plated,PTH,ComponentDrill
T5C1.150
; #@! TA.AperFunction,Plated,PTH,ComponentDrill
T6C1.200
; #@! TA.AperFunction,Plated,PTH,ComponentDrill
T7C1.300
; #@! TA.AperFunction,Plated,PTH,ComponentDrill
T8C1.750
%
G90
G05
T1
X126.495Y-121.96
X131.307Y-97.912
X136.009Y-87.232
X136.567Y-85.402
X140.293Y-110.115
X140.293Y-134.603
X141.798Y-105.761
X142.108Y-83.099
X143.714Y-106.119
X144.597Y-69.48
X144.787Y-102.171
X145.743Y-68.672
X145.822Y-102.534
X147.094Y-123.166
X147.224Y-81.899
X147.228Y-80.822
X147.288Y-102.706
X147.605Y-68.718
X148.621Y-120.865
X149.062Y-81.231
X149.062Y-103.271
X150.249Y-117.808
X150.711Y-95.564
X152.17Y-70.458
X152.17Y-86.971
X153.145Y-101.252
X155.377Y-69.95
X155.4Y-86.498
X155.422Y-68.745
X156.772Y-68.831
X156.828Y-92.143
X157.499Y-96.039
X157.585Y-90.602
X157.608Y-89.418
X157.949Y-100.599
X157.964Y-102.663
X157.964Y-114.08
X158.56Y-123.007
X159.008Y-68.729
X159.056Y-65.6
X159.742Y-95.634
X160.065Y-106.211
X160.366Y-65.333
X160.964Y-97.981
X161.272Y-95.165
X161.685Y-106.339
X161.776Y-68.822
X161.776Y-71.428
X162.416Y-90.205
X163.193Y-111.092
X163.682Y-110.167
X164.043Y-111.751
X164.431Y-88.919
X165.036Y-108.375
X167.478Y-122.567
X169.153Y-69.346
X169.238Y-126.554
X172.888Y-127.44
X174.303Y-104.966
X175.418Y-122.941
T2
X119.478Y-89.067
X119.481Y-95.103
X119.482Y-91.094
X119.482Y-93.077
X119.483Y-85.06
X119.483Y-97.088
X119.483Y-99.109
X119.484Y-87.044
X119.485Y-101.096
X121.463Y-92.084
X121.464Y-102.129
X121.465Y-88.038
X121.465Y-90.104
X121.466Y-86.053
X121.466Y-96.054
X121.466Y-100.106
X121.468Y-94.071
X121.47Y-98.079
T3
X175.952Y-110.864
X175.953Y-112.887
X175.955Y-114.869
X177.973Y-110.86
X177.976Y-114.874
X177.981Y-112.887
T4
X124.708Y-118.997
X124.711Y-121.545
X124.712Y-113.921
X124.714Y-116.46
X124.715Y-108.795
X124.717Y-111.342
X162.264Y-137.889
X162.266Y-135.468
X164.249Y-135.47
X164.25Y-137.889
X166.272Y-135.469
X166.272Y-137.889
X177.587Y-90.026
X177.623Y-85.023
T6
X128.484Y-131.552
X128.486Y-140.083
X129.558Y-113.558
X129.603Y-109.511
X132.973Y-140.043
X133.048Y-131.513
X135.321Y-114.564
X135.361Y-119.602
X144.366Y-131.299
X145.32Y-121.772
X145.322Y-116.728
X149.763Y-138.611
X149.805Y-133.578
X152.02Y-120.77
X152.183Y-115.776
X154.099Y-128.995
X156.556Y-128.999
X159.055Y-129.001
X168.567Y-131.183
T7
X159.684Y-139.473
X159.685Y-133.921
X168.893Y-133.879
X168.893Y-139.44
T8
X177.739Y-108.205
X177.739Y-117.521
T5
G00X136.617Y-140.569
M15
G01X136.617Y-138.069
M16
G05
G00X139.196Y-139.618
M15
G01X139.196Y-137.988
M16
G05
G00X175.991Y-65.005
M15
G01X175.991Y-62.505
M16
G05
G00X178.564Y-64.055
M15
G01X178.564Y-62.425
M16
G05
T0
M30
