%TF.GenerationSoftware,KiCad,Pcbnew,(6.0.2)*%
%TF.CreationDate,2022-09-08T00:06:53-05:00*%
%TF.ProjectId,IF-GBP-02,49462d47-4250-42d3-9032-2e6b69636164,rev?*%
%TF.SameCoordinates,Original*%
%TF.FileFunction,Copper,L2,Bot*%
%TF.FilePolarity,Positive*%
%FSLAX46Y46*%
G04 Gerber Fmt 4.6, Leading zero omitted, Abs format (unit mm)*
G04 Created by KiCad (PCBNEW (6.0.2)) date 2022-09-08 00:06:53*
%MOMM*%
%LPD*%
G01*
G04 APERTURE LIST*
G04 Aperture macros list*
%AMRoundRect*
0 Rectangle with rounded corners*
0 $1 Rounding radius*
0 $2 $3 $4 $5 $6 $7 $8 $9 X,Y pos of 4 corners*
0 Add a 4 corners polygon primitive as box body*
4,1,4,$2,$3,$4,$5,$6,$7,$8,$9,$2,$3,0*
0 Add four circle primitives for the rounded corners*
1,1,$1+$1,$2,$3*
1,1,$1+$1,$4,$5*
1,1,$1+$1,$6,$7*
1,1,$1+$1,$8,$9*
0 Add four rect primitives between the rounded corners*
20,1,$1+$1,$2,$3,$4,$5,0*
20,1,$1+$1,$4,$5,$6,$7,0*
20,1,$1+$1,$6,$7,$8,$9,0*
20,1,$1+$1,$8,$9,$2,$3,0*%
G04 Aperture macros list end*
%TA.AperFunction,ComponentPad*%
%ADD10C,2.100000*%
%TD*%
%TA.AperFunction,ComponentPad*%
%ADD11C,1.500000*%
%TD*%
%TA.AperFunction,ComponentPad*%
%ADD12C,2.250000*%
%TD*%
%TA.AperFunction,ComponentPad*%
%ADD13C,2.200000*%
%TD*%
%TA.AperFunction,ComponentPad*%
%ADD14C,2.000000*%
%TD*%
%TA.AperFunction,ComponentPad*%
%ADD15C,1.250000*%
%TD*%
%TA.AperFunction,ComponentPad*%
%ADD16R,4.000000X2.500000*%
%TD*%
%TA.AperFunction,ComponentPad*%
%ADD17RoundRect,0.575000X0.575000X2.650000X-0.575000X2.650000X-0.575000X-2.650000X0.575000X-2.650000X0*%
%TD*%
%TA.AperFunction,ComponentPad*%
%ADD18RoundRect,0.425000X0.425000X1.700000X-0.425000X1.700000X-0.425000X-1.700000X0.425000X-1.700000X0*%
%TD*%
%TA.AperFunction,SMDPad,CuDef*%
%ADD19R,0.800000X0.400000*%
%TD*%
%TA.AperFunction,SMDPad,CuDef*%
%ADD20R,1.230000X1.000000*%
%TD*%
%TA.AperFunction,SMDPad,CuDef*%
%ADD21R,1.250000X4.200000*%
%TD*%
%TA.AperFunction,SMDPad,CuDef*%
%ADD22R,1.000000X1.230000*%
%TD*%
%TA.AperFunction,SMDPad,CuDef*%
%ADD23R,2.000000X0.400000*%
%TD*%
%TA.AperFunction,SMDPad,CuDef*%
%ADD24R,1.500000X1.000000*%
%TD*%
%TA.AperFunction,SMDPad,CuDef*%
%ADD25R,2.500000X1.000000*%
%TD*%
%TA.AperFunction,SMDPad,CuDef*%
%ADD26RoundRect,0.625000X-0.765000X0.625000X-0.765000X-0.625000X0.765000X-0.625000X0.765000X0.625000X0*%
%TD*%
%TA.AperFunction,SMDPad,CuDef*%
%ADD27R,0.870000X1.900000*%
%TD*%
%TA.AperFunction,SMDPad,CuDef*%
%ADD28R,1.000000X1.500000*%
%TD*%
%TA.AperFunction,SMDPad,CuDef*%
%ADD29RoundRect,0.625000X-0.625000X-0.765000X0.625000X-0.765000X0.625000X0.765000X-0.625000X0.765000X0*%
%TD*%
%TA.AperFunction,SMDPad,CuDef*%
%ADD30R,1.000000X2.500000*%
%TD*%
%TA.AperFunction,SMDPad,CuDef*%
%ADD31R,2.450000X0.750000*%
%TD*%
%TA.AperFunction,SMDPad,CuDef*%
%ADD32R,0.750000X2.450000*%
%TD*%
%TA.AperFunction,SMDPad,CuDef*%
%ADD33R,1.750000X2.250000*%
%TD*%
%TA.AperFunction,SMDPad,CuDef*%
%ADD34R,1.500000X2.250000*%
%TD*%
%TA.AperFunction,SMDPad,CuDef*%
%ADD35RoundRect,0.625000X0.625000X0.765000X-0.625000X0.765000X-0.625000X-0.765000X0.625000X-0.765000X0*%
%TD*%
%TA.AperFunction,SMDPad,CuDef*%
%ADD36R,0.850000X1.000000*%
%TD*%
%TA.AperFunction,SMDPad,CuDef*%
%ADD37R,0.650000X1.000000*%
%TD*%
%TA.AperFunction,SMDPad,CuDef*%
%ADD38R,0.750000X0.750000*%
%TD*%
%TA.AperFunction,ViaPad*%
%ADD39C,0.800000*%
%TD*%
%TA.AperFunction,Conductor*%
%ADD40C,0.250000*%
%TD*%
%TA.AperFunction,Conductor*%
%ADD41C,0.550000*%
%TD*%
%TA.AperFunction,Conductor*%
%ADD42C,0.399800*%
%TD*%
G04 APERTURE END LIST*
D10*
%TO.P,L1,1,1*%
%TO.N,/LED.Anode*%
X145322000Y-116728000D03*
%TO.P,L1,2,2*%
%TO.N,/Route1*%
X145320000Y-121772000D03*
%TD*%
D11*
%TO.P,SW2,1,A*%
%TO.N,/Off.GND*%
X162266000Y-135468000D03*
%TO.P,SW2,2,B*%
%TO.N,/GND*%
X164249000Y-135470000D03*
%TO.P,SW2,3,C*%
%TO.N,/9V-*%
X166272000Y-135469100D03*
%TO.P,SW2,4,A*%
%TO.N,unconnected-(SW2-Pad4)*%
X162264000Y-137889000D03*
%TO.P,SW2,5,B*%
%TO.N,/9V.F1*%
X164250000Y-137889000D03*
%TO.P,SW2,6,C*%
%TO.N,/9V.Prefuse*%
X166272000Y-137889000D03*
D12*
%TO.P,SW2,7,Case_GND*%
%TO.N,/GND*%
X159685000Y-133921000D03*
X159683900Y-139473000D03*
%TO.P,SW2,8,Case_GND*%
X168893000Y-139440000D03*
X168893000Y-133879000D03*
%TD*%
D10*
%TO.P,F2,1*%
%TO.N,/9V.Postfuse*%
X144366000Y-131299000D03*
%TO.P,F2,2*%
%TO.N,/9V.Prefuse*%
X168567000Y-131183000D03*
%TD*%
%TO.P,C2,1*%
%TO.N,/LED.Anode*%
X135321000Y-114564000D03*
%TO.P,C2,2*%
%TO.N,/Route10*%
X135360700Y-119602400D03*
%TD*%
D13*
%TO.P,CN1,1,Pin_1*%
%TO.N,/VCC*%
X124711000Y-121545000D03*
%TO.P,CN1,2,Pin_2*%
%TO.N,/CN1.P2*%
X124708000Y-118997000D03*
%TO.P,CN1,3,Pin_3*%
%TO.N,/CN1.P3*%
X124714000Y-116460000D03*
%TO.P,CN1,4,Pin_4*%
%TO.N,/GND*%
X124712000Y-113921000D03*
%TO.P,CN1,5,Pin_5*%
%TO.N,/P51*%
X124717000Y-111342000D03*
%TO.P,CN1,6,Pin_6*%
%TO.N,/GND*%
X124715000Y-108795000D03*
%TD*%
D10*
%TO.P,Q1,1,B*%
%TO.N,/Route2*%
X154099000Y-128995000D03*
%TO.P,Q1,2,C*%
%TO.N,/Route1*%
X156556000Y-128999000D03*
%TO.P,Q1,3,E*%
%TO.N,/9V.Postfuse*%
X159055000Y-129001000D03*
%TD*%
%TO.P,C3,1*%
%TO.N,/VCC*%
X152183000Y-115776000D03*
%TO.P,C3,2*%
%TO.N,/Route17*%
X152020000Y-120770000D03*
%TD*%
%TO.P,SW1,1,1*%
%TO.N,/Button*%
X128486000Y-140083000D03*
%TO.P,SW1,2,2*%
X128484000Y-131552000D03*
%TO.P,SW1,3,K*%
%TO.N,/GND*%
X132973000Y-140043000D03*
%TO.P,SW1,4,A*%
%TO.N,unconnected-(SW1-Pad4)*%
X133048000Y-131513000D03*
%TD*%
%TO.P,L2,1,1*%
%TO.N,/LED.Anode*%
X129603000Y-109511000D03*
%TO.P,L2,2,2*%
%TO.N,/VCC*%
X129558000Y-113558000D03*
%TD*%
D14*
%TO.P,LED1,1,K*%
%TO.N,/LED.Cathode*%
X177622700Y-85023300D03*
%TO.P,LED1,2,A*%
%TO.N,/LED.Anode*%
X177587000Y-90026000D03*
%TD*%
D10*
%TO.P,C1,1*%
%TO.N,/9V.Postfuse*%
X149805000Y-133578000D03*
%TO.P,C1,2*%
%TO.N,/GND*%
X149763300Y-138611300D03*
%TD*%
D15*
%TO.P,CN2,1,Pin_1*%
%TO.N,/LED.Anode*%
X119483000Y-85060500D03*
%TO.P,CN2,2,Pin_2*%
X121466000Y-86052700D03*
%TO.P,CN2,3,Pin_3*%
%TO.N,/IC5.O1*%
X119484000Y-87044000D03*
%TO.P,CN2,4,Pin_4*%
%TO.N,/IC5.O2*%
X121465000Y-88038000D03*
%TO.P,CN2,5,Pin_5*%
%TO.N,/IC5.O3*%
X119478000Y-89067000D03*
%TO.P,CN2,6,Pin_6*%
%TO.N,/IC5.O4*%
X121465000Y-90104000D03*
%TO.P,CN2,7,Pin_7*%
%TO.N,/IC5.O5*%
X119482000Y-91094000D03*
%TO.P,CN2,8,Pin_8*%
%TO.N,/IC5.O6*%
X121463000Y-92084000D03*
%TO.P,CN2,9,Pin_9*%
%TO.N,/IC5.O7*%
X119482000Y-93077000D03*
%TO.P,CN2,10,Pin_10*%
%TO.N,/IC5.O8*%
X121468000Y-94071000D03*
%TO.P,CN2,11,Pin_11*%
%TO.N,/IC6.O1*%
X119481000Y-95103000D03*
%TO.P,CN2,12,Pin_12*%
%TO.N,/IC6.O2*%
X121466000Y-96054000D03*
%TO.P,CN2,13,Pin_13*%
%TO.N,/IC6.O3*%
X119483000Y-97088000D03*
%TO.P,CN2,14,Pin_14*%
%TO.N,/IC6.O4*%
X121470000Y-98079000D03*
%TO.P,CN2,15,Pin_15*%
%TO.N,/IC6.O5*%
X119483000Y-99109000D03*
%TO.P,CN2,16,Pin_16*%
%TO.N,/IC6.O6*%
X121466000Y-100106000D03*
%TO.P,CN2,17,Pin_17*%
%TO.N,/IC6.O7*%
X119485000Y-101096000D03*
%TO.P,CN2,18,Pin_18*%
%TO.N,/IC6.O8*%
X121464000Y-102129000D03*
%TD*%
D11*
%TO.P,CN3,1,Pin_1*%
%TO.N,unconnected-(CN3-Pad1)*%
X175952000Y-110864000D03*
%TO.P,CN3,2,Pin_2*%
%TO.N,/Link.P2*%
X177973000Y-110860000D03*
%TO.P,CN3,3,Pin_3*%
%TO.N,/Link.P3*%
X175953000Y-112887000D03*
%TO.P,CN3,4,Pin_4*%
%TO.N,unconnected-(CN3-Pad4)*%
X177981000Y-112887000D03*
%TO.P,CN3,5,Pin_5*%
%TO.N,/Link.P5*%
X175955000Y-114869000D03*
%TO.P,CN3,6,Pin_6*%
%TO.N,/GND*%
X177976000Y-114874000D03*
D16*
%TO.P,CN3,7,GND*%
X177739000Y-108030000D03*
%TO.P,CN3,8,GND*%
X177739000Y-117696000D03*
%TD*%
D17*
%TO.P,J2,1,Pin_1*%
%TO.N,/9V+*%
X139196000Y-138803000D03*
D18*
X136617000Y-139319000D03*
%TO.P,J2,2,Pin_2*%
%TO.N,/9V-*%
X175991000Y-63755000D03*
D17*
X178564000Y-63240000D03*
%TD*%
D19*
%TO.P,NR3,1,R1.1*%
%TO.N,/CE1*%
X165554000Y-70774000D03*
%TO.P,NR3,2,R2.1*%
%TO.N,/A10*%
X165556000Y-69940000D03*
%TO.P,NR3,3,R3.1*%
%TO.N,/OE*%
X165552000Y-69106000D03*
%TO.P,NR3,4,R4.1*%
%TO.N,/WE*%
X165554000Y-68353000D03*
%TO.P,NR3,5,R4.2*%
%TO.N,/Resistor.Bus*%
X167342000Y-68350000D03*
%TO.P,NR3,6,R3.2*%
X167341000Y-69107000D03*
%TO.P,NR3,7,R2.2*%
X167342000Y-69939000D03*
%TO.P,NR3,8,R1.2*%
X167342000Y-70772000D03*
%TD*%
D20*
%TO.P,R8,1*%
%TO.N,/Route20*%
X162553000Y-113753000D03*
%TO.P,R8,2*%
%TO.N,/Route15*%
X160291000Y-113753000D03*
%TD*%
D21*
%TO.P,X1,1,1*%
%TO.N,/XOUT*%
X143776000Y-78082000D03*
%TO.P,X1,2,2*%
%TO.N,/GND*%
X141235000Y-78071000D03*
%TO.P,X1,3,3*%
%TO.N,/XIN*%
X138733000Y-78080000D03*
%TD*%
D20*
%TO.P,R14,1*%
%TO.N,/Route19*%
X166326000Y-96963000D03*
%TO.P,R14,2*%
%TO.N,/Route26*%
X164064000Y-96963000D03*
%TD*%
%TO.P,C16,1*%
%TO.N,/Reset*%
X136149000Y-75021000D03*
%TO.P,C16,2*%
%TO.N,/GND*%
X133887000Y-75021000D03*
%TD*%
D22*
%TO.P,R17,1*%
%TO.N,/Route25*%
X161715000Y-91483000D03*
%TO.P,R17,2*%
%TO.N,/9V.Postfuse*%
X161715000Y-93745000D03*
%TD*%
D19*
%TO.P,NR1,1,R1.1*%
%TO.N,/A7*%
X165595000Y-78198000D03*
%TO.P,NR1,2,R2.1*%
%TO.N,/A6*%
X165597000Y-77364000D03*
%TO.P,NR1,3,R3.1*%
%TO.N,/A5*%
X165593000Y-76530000D03*
%TO.P,NR1,4,R4.1*%
%TO.N,/A4*%
X165595000Y-75777000D03*
%TO.P,NR1,5,R4.2*%
%TO.N,/Resistor.Bus*%
X167383000Y-75774000D03*
%TO.P,NR1,6,R3.2*%
X167382000Y-76531000D03*
%TO.P,NR1,7,R2.2*%
X167383000Y-77363000D03*
%TO.P,NR1,8,R1.2*%
X167383000Y-78196000D03*
%TD*%
D20*
%TO.P,R24,1*%
%TO.N,/VCC*%
X126164000Y-133601000D03*
%TO.P,R24,2*%
%TO.N,/Button*%
X123902000Y-133601000D03*
%TD*%
D22*
%TO.P,C5,1*%
%TO.N,/Route17*%
X148361000Y-119382000D03*
%TO.P,C5,2*%
%TO.N,/VCC*%
X148361000Y-117120000D03*
%TD*%
D20*
%TO.P,R10,1*%
%TO.N,/Route8*%
X140717000Y-121260000D03*
%TO.P,R10,2*%
%TO.N,/VCC*%
X138455000Y-121260000D03*
%TD*%
D23*
%TO.P,IC5,1,I1*%
%TO.N,/IC5.I1*%
X132780000Y-91296000D03*
%TO.P,IC5,2,I2*%
%TO.N,/IC5.I2*%
X132780000Y-91973000D03*
%TO.P,IC5,3,I3*%
%TO.N,/IC5.I3*%
X132780000Y-92647000D03*
%TO.P,IC5,4,I4*%
%TO.N,/IC5.I4*%
X132781000Y-93283000D03*
%TO.P,IC5,5,I5*%
%TO.N,/IC5.I5*%
X132781000Y-93914000D03*
%TO.P,IC5,6,I6*%
%TO.N,/IC5.I6*%
X132774000Y-94550000D03*
%TO.P,IC5,7,I7*%
%TO.N,/IC5.I7*%
X132778000Y-95223000D03*
%TO.P,IC5,8,I8*%
%TO.N,/IC5.I8*%
X132781000Y-95863000D03*
%TO.P,IC5,9,GND*%
%TO.N,/GND*%
X132779000Y-96496000D03*
%TO.P,IC5,10,N/C*%
%TO.N,unconnected-(IC5-Pad10)*%
X126626000Y-96495000D03*
%TO.P,IC5,11,O8*%
%TO.N,/IC5.O8*%
X126626000Y-95858000D03*
%TO.P,IC5,12,O7*%
%TO.N,/IC5.O7*%
X126626000Y-95225000D03*
%TO.P,IC5,13,O6*%
%TO.N,/IC5.O6*%
X126624000Y-94550000D03*
%TO.P,IC5,14,O5*%
%TO.N,/IC5.O5*%
X126625000Y-93918000D03*
%TO.P,IC5,15,O4*%
%TO.N,/IC5.O4*%
X126626000Y-93280000D03*
%TO.P,IC5,16,O3*%
%TO.N,/IC5.O3*%
X126626000Y-92645000D03*
%TO.P,IC5,17,O2*%
%TO.N,/IC5.O2*%
X126628000Y-91973000D03*
%TO.P,IC5,18,O1*%
%TO.N,/IC5.O1*%
X126626000Y-91295000D03*
%TD*%
D22*
%TO.P,R13,1*%
%TO.N,/P47*%
X176309000Y-102090000D03*
%TO.P,R13,2*%
%TO.N,/Link.P2*%
X176309000Y-104352000D03*
%TD*%
%TO.P,R9,1*%
%TO.N,/Route10*%
X143760000Y-127313000D03*
%TO.P,R9,2*%
%TO.N,/Route8*%
X143760000Y-125051000D03*
%TD*%
%TO.P,C19,1*%
%TO.N,/GND*%
X120429000Y-108859000D03*
%TO.P,C19,2*%
%TO.N,/P51*%
X120429000Y-111121000D03*
%TD*%
D20*
%TO.P,R3,1*%
%TO.N,/Route3*%
X162653000Y-119514000D03*
%TO.P,R3,2*%
%TO.N,/Route4*%
X160391000Y-119514000D03*
%TD*%
D22*
%TO.P,R6,1*%
%TO.N,/P45*%
X178383000Y-121197000D03*
%TO.P,R6,2*%
%TO.N,/Link.P5*%
X178383000Y-123459000D03*
%TD*%
D20*
%TO.P,D3,1,K*%
%TO.N,/Reset*%
X136107000Y-81529500D03*
%TO.P,D3,2,A*%
%TO.N,/Off.GND*%
X133885000Y-81530500D03*
%TD*%
%TO.P,R5,1*%
%TO.N,/Route6*%
X158278000Y-119430000D03*
%TO.P,R5,2*%
%TO.N,/Route5*%
X156016000Y-119430000D03*
%TD*%
D24*
%TO.P,IC1,1*%
%TO.N,/Route8*%
X141478000Y-125180000D03*
D25*
%TO.P,IC1,2,GND*%
%TO.N,/Route10*%
X140984000Y-126653000D03*
D26*
X138568000Y-126650000D03*
D24*
%TO.P,IC1,3,+*%
%TO.N,/Route15*%
X141473000Y-128168000D03*
%TD*%
D20*
%TO.P,C14,1*%
%TO.N,/VCC*%
X131823000Y-119311000D03*
%TO.P,C14,2*%
%TO.N,/GND*%
X129561000Y-119311000D03*
%TD*%
%TO.P,R32,1*%
%TO.N,/Route27*%
X165873000Y-106298000D03*
%TO.P,R32,2*%
%TO.N,/CN1.P3*%
X163611000Y-106298000D03*
%TD*%
%TO.P,Q3,1,B*%
%TO.N,/Route20*%
X162693000Y-115583000D03*
%TO.P,Q3,2,E*%
%TO.N,/GND*%
X162693000Y-117567000D03*
%TO.P,Q3,3,C*%
%TO.N,/Route7*%
X160390000Y-116574000D03*
%TD*%
%TO.P,C17,1*%
%TO.N,/GND*%
X148728000Y-110939000D03*
%TO.P,C17,2*%
%TO.N,/VCC*%
X146466000Y-110939000D03*
%TD*%
%TO.P,R30,1*%
%TO.N,/P50*%
X161802000Y-103443000D03*
%TO.P,R30,2*%
%TO.N,/VCC*%
X159540000Y-103443000D03*
%TD*%
%TO.P,R34,1*%
%TO.N,/P52*%
X138112000Y-134063000D03*
%TO.P,R34,2*%
%TO.N,/Route13*%
X135850000Y-134063000D03*
%TD*%
D22*
%TO.P,R26,1*%
%TO.N,/P61*%
X172582000Y-131100000D03*
%TO.P,R26,2*%
%TO.N,/9V.Prefuse*%
X172582000Y-133362000D03*
%TD*%
D27*
%TO.P,IC3,1,NC*%
%TO.N,unconnected-(IC3-Pad1)*%
X163036000Y-78745000D03*
%TO.P,IC3,2,A12*%
%TO.N,/A12*%
X161728000Y-78745000D03*
%TO.P,IC3,3,A7*%
%TO.N,/A7*%
X160455000Y-78745000D03*
%TO.P,IC3,4,A6*%
%TO.N,/A6*%
X159186000Y-78743000D03*
%TO.P,IC3,5,A5*%
%TO.N,/A5*%
X157917000Y-78745000D03*
%TO.P,IC3,6,A4*%
%TO.N,/A4*%
X156646000Y-78745000D03*
%TO.P,IC3,7,A3*%
%TO.N,/A3*%
X155375000Y-78745000D03*
%TO.P,IC3,8,A2*%
%TO.N,/A2*%
X154066000Y-78745000D03*
%TO.P,IC3,9,A1*%
%TO.N,/A1*%
X152838000Y-78744000D03*
%TO.P,IC3,10,A0*%
%TO.N,/A0*%
X151565000Y-78747000D03*
%TO.P,IC3,11,I/O1*%
%TO.N,/D0*%
X150294000Y-78742000D03*
%TO.P,IC3,12,I/O2*%
%TO.N,/D1*%
X149025000Y-78744000D03*
%TO.P,IC3,13,I/O3*%
%TO.N,/D2*%
X147753000Y-78745000D03*
%TO.P,IC3,14,GND*%
%TO.N,/GND*%
X146486000Y-78743000D03*
%TO.P,IC3,15,I/O4*%
%TO.N,/D3*%
X146484000Y-67157000D03*
%TO.P,IC3,16,I/O5*%
%TO.N,/D4*%
X147757000Y-67154000D03*
%TO.P,IC3,17,I/O6*%
%TO.N,/D5*%
X149027000Y-67156000D03*
%TO.P,IC3,18,I/O7*%
%TO.N,/D6*%
X150295000Y-67155000D03*
%TO.P,IC3,19,I/O8*%
%TO.N,/D7*%
X151566000Y-67152000D03*
%TO.P,IC3,20,CE1*%
%TO.N,/CE1*%
X152836000Y-67156000D03*
%TO.P,IC3,21,A10*%
%TO.N,/A10*%
X154065000Y-67155000D03*
%TO.P,IC3,22,OE*%
%TO.N,/OE*%
X155376000Y-67151000D03*
%TO.P,IC3,23,A11*%
%TO.N,/A11*%
X156645000Y-67155000D03*
%TO.P,IC3,24,A9*%
%TO.N,/A9*%
X157916000Y-67156000D03*
%TO.P,IC3,25,A8*%
%TO.N,/A8*%
X159186000Y-67157000D03*
%TO.P,IC3,26,CE2*%
%TO.N,/VCC*%
X160455000Y-67156000D03*
%TO.P,IC3,27,WE*%
%TO.N,/WE*%
X161725000Y-67151000D03*
%TO.P,IC3,28,VCC*%
%TO.N,/VCC*%
X163035000Y-67155000D03*
%TD*%
D28*
%TO.P,Q6,1,GND*%
%TO.N,/Route16*%
X132370000Y-124154000D03*
D29*
%TO.P,Q6,2,VIN*%
%TO.N,/CN1.P2*%
X133840000Y-127064000D03*
D30*
X133843000Y-124648000D03*
D28*
%TO.P,Q6,3,VOUT*%
%TO.N,/VCC*%
X135358000Y-124159000D03*
%TD*%
D20*
%TO.P,C12,1*%
%TO.N,/P50*%
X161807000Y-101447000D03*
%TO.P,C12,2*%
%TO.N,/Route28*%
X159545000Y-101447000D03*
%TD*%
D22*
%TO.P,R7,1*%
%TO.N,/GND*%
X164765000Y-119340000D03*
%TO.P,R7,2*%
%TO.N,/Route20*%
X164765000Y-117078000D03*
%TD*%
D20*
%TO.P,Q4,1,B*%
%TO.N,/Route23*%
X171373000Y-82887000D03*
%TO.P,Q4,2,E*%
%TO.N,/Route19*%
X171373000Y-84871000D03*
%TO.P,Q4,3,C*%
%TO.N,/Route24*%
X169070000Y-83878000D03*
%TD*%
%TO.P,R36,1*%
%TO.N,/GND*%
X146412000Y-138195000D03*
%TO.P,R36,2*%
%TO.N,/Route14*%
X144150000Y-138195000D03*
%TD*%
D22*
%TO.P,Q9,1,B*%
%TO.N,/Route13*%
X125677000Y-139555000D03*
%TO.P,Q9,2,E*%
%TO.N,/Route14*%
X123693000Y-139555000D03*
%TO.P,Q9,3,C*%
%TO.N,/Route12*%
X124686000Y-137252000D03*
%TD*%
%TO.P,Q14,1,B*%
%TO.N,/VCC*%
X164792000Y-92625500D03*
%TO.P,Q14,2,E*%
%TO.N,/P53*%
X166776000Y-92625500D03*
%TO.P,Q14,3,C*%
%TO.N,/Route26*%
X165783000Y-94928500D03*
%TD*%
%TO.P,C4,1*%
%TO.N,/Route9*%
X147753000Y-127313000D03*
%TO.P,C4,2*%
%TO.N,/LED.Anode*%
X147753000Y-125051000D03*
%TD*%
%TO.P,Q8,1,B*%
%TO.N,/Route13*%
X137971000Y-132082000D03*
%TO.P,Q8,2,E*%
%TO.N,/Route14*%
X135987000Y-132082000D03*
%TO.P,Q8,3,C*%
%TO.N,/Route16*%
X136980000Y-129779000D03*
%TD*%
D31*
%TO.P,IC2,1,P76*%
%TO.N,/D6*%
X137858000Y-105644000D03*
%TO.P,IC2,2,P77*%
%TO.N,/D7*%
X137854000Y-104652000D03*
%TO.P,IC2,3,P00*%
%TO.N,/IC6.I8*%
X137855000Y-103654000D03*
%TO.P,IC2,4,P01*%
%TO.N,/IC6.I7*%
X137855000Y-102665000D03*
%TO.P,IC2,5,P02*%
%TO.N,/IC6.I6*%
X137856000Y-101639000D03*
%TO.P,IC2,6,P03*%
%TO.N,/IC6.I5*%
X137856000Y-100601000D03*
%TO.P,IC2,7,P04*%
%TO.N,/IC6.I4*%
X137860000Y-99607000D03*
%TO.P,IC2,8,P05*%
%TO.N,/IC6.I3*%
X137854000Y-98617000D03*
%TO.P,IC2,9,P06*%
%TO.N,/IC6.I2*%
X137858000Y-97625000D03*
%TO.P,IC2,10,P07*%
%TO.N,/IC6.I1*%
X137859000Y-96596000D03*
%TO.P,IC2,11,P10_INT0*%
%TO.N,/IC5.I8*%
X137856000Y-95561000D03*
%TO.P,IC2,12,P11_INT1*%
%TO.N,/IC5.I7*%
X137856000Y-94565000D03*
%TO.P,IC2,13,P12_INT2/TC1*%
%TO.N,/IC5.I6*%
X137853000Y-93579000D03*
%TO.P,IC2,14,P13_DVO*%
%TO.N,/IC5.I5*%
X137853000Y-92587000D03*
%TO.P,IC2,15,P14_PPG*%
%TO.N,/IC5.I4*%
X137855000Y-91595000D03*
%TO.P,IC2,16,P15_TC2*%
%TO.N,/IC5.I3*%
X137852000Y-90603000D03*
%TO.P,IC2,17,P16*%
%TO.N,/IC5.I2*%
X137851000Y-89571000D03*
%TO.P,IC2,18,P17*%
%TO.N,/IC5.I1*%
X137851000Y-88575000D03*
%TO.P,IC2,19,P20_INT5/STOP*%
%TO.N,/Button*%
X137854000Y-87579000D03*
D32*
%TO.P,IC2,20,TEST*%
%TO.N,/GND*%
X140396000Y-85127000D03*
%TO.P,IC2,21,P21_XTIN*%
%TO.N,/WE*%
X141427000Y-85124000D03*
%TO.P,IC2,22,P22_XTOUT*%
%TO.N,/CE1*%
X142419000Y-85129000D03*
%TO.P,IC2,23,RESET*%
%TO.N,/Reset*%
X143411000Y-85129000D03*
%TO.P,IC2,24,XIN*%
%TO.N,/XIN*%
X144403000Y-85128000D03*
%TO.P,IC2,25,XOUT*%
%TO.N,/XOUT*%
X145395000Y-85124000D03*
%TO.P,IC2,26,VSS*%
%TO.N,/GND*%
X146390000Y-85128000D03*
%TO.P,IC2,27,P30*%
%TO.N,/A0*%
X147379000Y-85125000D03*
%TO.P,IC2,28,P31*%
%TO.N,/A1*%
X148414000Y-85120000D03*
%TO.P,IC2,29,P32*%
%TO.N,/A2*%
X149406000Y-85124000D03*
%TO.P,IC2,30,P33*%
%TO.N,/A3*%
X150434000Y-85125000D03*
%TO.P,IC2,31,P34*%
%TO.N,/A4*%
X151426000Y-85129000D03*
%TO.P,IC2,32,P35*%
%TO.N,/A5*%
X152457000Y-85130000D03*
D31*
%TO.P,IC2,33,P36*%
%TO.N,/A6*%
X154991000Y-87585000D03*
%TO.P,IC2,34,P37*%
%TO.N,/A7*%
X154998000Y-88578000D03*
%TO.P,IC2,35,P40*%
%TO.N,/A8*%
X154998000Y-89568000D03*
%TO.P,IC2,36,P41*%
%TO.N,/A9*%
X154993000Y-90602000D03*
%TO.P,IC2,37,P42_SCK1*%
%TO.N,/A10*%
X154993000Y-91595000D03*
%TO.P,IC2,38,P43_SI1*%
%TO.N,/A11*%
X154996000Y-92587000D03*
%TO.P,IC2,39,P44_SO1*%
%TO.N,/A12*%
X154992000Y-93579000D03*
%TO.P,IC2,40,P45_SCK2*%
%TO.N,/P45*%
X154991000Y-94568000D03*
%TO.P,IC2,41,P46_SI2*%
%TO.N,/P46*%
X154991000Y-95564000D03*
%TO.P,IC2,42,P47_SO2*%
%TO.N,/P47*%
X154993000Y-96595000D03*
%TO.P,IC2,43,P50_INT3/TC3*%
%TO.N,/P50*%
X154996000Y-97623000D03*
%TO.P,IC2,44,P51_INT4/TC4*%
%TO.N,/P51*%
X154992000Y-98615000D03*
%TO.P,IC2,45,P52_PWM/PDO*%
%TO.N,/P52*%
X154989000Y-99611000D03*
%TO.P,IC2,46,P53*%
%TO.N,/P53*%
X154987000Y-100599000D03*
%TO.P,IC2,47,P54*%
%TO.N,/OE*%
X154990000Y-101638000D03*
%TO.P,IC2,48,VASS*%
%TO.N,/GND*%
X154989000Y-102663000D03*
%TO.P,IC2,49,VAREF*%
%TO.N,/VCC*%
X154988000Y-103653000D03*
%TO.P,IC2,50,P60_AIN0*%
%TO.N,/P60*%
X154988000Y-104645000D03*
%TO.P,IC2,51,P61_AIN1*%
%TO.N,/P61*%
X154989000Y-105643000D03*
D32*
%TO.P,IC2,52,P62_AIN2*%
%TO.N,/GND*%
X152498000Y-107985000D03*
%TO.P,IC2,53,P63_AIN3*%
X151467000Y-107985000D03*
%TO.P,IC2,54,P64_AIN4*%
X150476000Y-107984000D03*
%TO.P,IC2,55,P65_AIN5*%
X149445000Y-107981000D03*
%TO.P,IC2,56,P66_AIN6*%
X148449000Y-107984000D03*
%TO.P,IC2,57,P67_AIN7*%
X147420000Y-107984000D03*
%TO.P,IC2,58,VDD*%
%TO.N,/VCC*%
X146426000Y-107984000D03*
%TO.P,IC2,59,P70*%
%TO.N,/D0*%
X145437000Y-107988000D03*
%TO.P,IC2,60,P71*%
%TO.N,/D1*%
X144440000Y-107983000D03*
%TO.P,IC2,61,P72*%
%TO.N,/D2*%
X143448000Y-107983000D03*
%TO.P,IC2,62,P73*%
%TO.N,/D3*%
X142456000Y-107983000D03*
%TO.P,IC2,63,P74*%
%TO.N,/D4*%
X141468000Y-107980000D03*
%TO.P,IC2,64,P75*%
%TO.N,/D5*%
X140432000Y-107983000D03*
%TD*%
D22*
%TO.P,R11,1*%
%TO.N,/P46*%
X171797000Y-126554000D03*
%TO.P,R11,2*%
%TO.N,/Link.P3*%
X171797000Y-128816000D03*
%TD*%
D20*
%TO.P,R21,1*%
%TO.N,/9V.Postfuse*%
X172418000Y-77917000D03*
%TO.P,R21,2*%
%TO.N,/Route21*%
X170156000Y-77917000D03*
%TD*%
%TO.P,R4,1*%
%TO.N,/Route4*%
X158269000Y-121416000D03*
%TO.P,R4,2*%
%TO.N,/Route5*%
X156007000Y-121416000D03*
%TD*%
D22*
%TO.P,Q5,1,B*%
%TO.N,/Route24*%
X167101000Y-84182500D03*
%TO.P,Q5,2,E*%
%TO.N,/GND*%
X165117000Y-84182500D03*
%TO.P,Q5,3,C*%
%TO.N,/Route23*%
X166110000Y-81879500D03*
%TD*%
%TO.P,R12,1*%
%TO.N,/Route9*%
X145757000Y-127313000D03*
%TO.P,R12,2*%
%TO.N,/Route8*%
X145757000Y-125051000D03*
%TD*%
D20*
%TO.P,R29,1*%
%TO.N,/VCC*%
X161866000Y-99391000D03*
%TO.P,R29,2*%
%TO.N,/P51*%
X159604000Y-99391000D03*
%TD*%
%TO.P,C18,1*%
%TO.N,/Route22*%
X172428000Y-79942000D03*
%TO.P,C18,2*%
%TO.N,/Route21*%
X170166000Y-79942000D03*
%TD*%
D22*
%TO.P,C20,1*%
%TO.N,/GND*%
X176591000Y-131100000D03*
%TO.P,C20,2*%
%TO.N,/P61*%
X176591000Y-133362000D03*
%TD*%
D20*
%TO.P,Q2,1,B*%
%TO.N,/Route7*%
X158263000Y-115657000D03*
%TO.P,Q2,2,E*%
%TO.N,/Route6*%
X158263000Y-117641000D03*
%TO.P,Q2,3,C*%
%TO.N,/Route17*%
X155960000Y-116648000D03*
%TD*%
%TO.P,R1,1*%
%TO.N,/9V.Postfuse*%
X162697000Y-123397000D03*
%TO.P,R1,2*%
%TO.N,/Route2*%
X160435000Y-123397000D03*
%TD*%
%TO.P,R16,1*%
%TO.N,/Route19*%
X166921000Y-86171000D03*
%TO.P,R16,2*%
%TO.N,/9V.Postfuse*%
X164659000Y-86171000D03*
%TD*%
D33*
%TO.P,D1,1,K*%
%TO.N,/GND*%
X155479000Y-137769000D03*
%TO.P,D1,2,A*%
%TO.N,/Route1*%
X155475000Y-133355000D03*
%TD*%
D20*
%TO.P,R33,1*%
%TO.N,/VCC*%
X146413000Y-136177000D03*
%TO.P,R33,2*%
%TO.N,/P52*%
X144151000Y-136177000D03*
%TD*%
D23*
%TO.P,IC6,1,I1*%
%TO.N,/IC6.I1*%
X132768500Y-98634500D03*
%TO.P,IC6,2,I2*%
%TO.N,/IC6.I2*%
X132768500Y-99311500D03*
%TO.P,IC6,3,I3*%
%TO.N,/IC6.I3*%
X132768500Y-99985500D03*
%TO.P,IC6,4,I4*%
%TO.N,/IC6.I4*%
X132769500Y-100621500D03*
%TO.P,IC6,5,I5*%
%TO.N,/IC6.I5*%
X132769500Y-101252500D03*
%TO.P,IC6,6,I6*%
%TO.N,/IC6.I6*%
X132762500Y-101888500D03*
%TO.P,IC6,7,I7*%
%TO.N,/IC6.I7*%
X132766500Y-102561500D03*
%TO.P,IC6,8,I8*%
%TO.N,/IC6.I8*%
X132769500Y-103201500D03*
%TO.P,IC6,9,GND*%
%TO.N,/GND*%
X132767500Y-103834500D03*
%TO.P,IC6,10,N/C*%
%TO.N,unconnected-(IC6-Pad10)*%
X126614500Y-103833500D03*
%TO.P,IC6,11,O8*%
%TO.N,/IC6.O8*%
X126614500Y-103196500D03*
%TO.P,IC6,12,O7*%
%TO.N,/IC6.O7*%
X126614500Y-102563500D03*
%TO.P,IC6,13,O6*%
%TO.N,/IC6.O6*%
X126612500Y-101888500D03*
%TO.P,IC6,14,O5*%
%TO.N,/IC6.O5*%
X126613500Y-101256500D03*
%TO.P,IC6,15,O4*%
%TO.N,/IC6.O4*%
X126614500Y-100618500D03*
%TO.P,IC6,16,O3*%
%TO.N,/IC6.O3*%
X126614500Y-99983500D03*
%TO.P,IC6,17,O2*%
%TO.N,/IC6.O2*%
X126616500Y-99311500D03*
%TO.P,IC6,18,O1*%
%TO.N,/IC6.O1*%
X126614500Y-98633500D03*
%TD*%
D20*
%TO.P,C6,1*%
%TO.N,/Route19*%
X166313000Y-98955000D03*
%TO.P,C6,2*%
%TO.N,/Route26*%
X164051000Y-98955000D03*
%TD*%
D22*
%TO.P,R27,1*%
%TO.N,/GND*%
X174603000Y-131102000D03*
%TO.P,R27,2*%
%TO.N,/P61*%
X174603000Y-133364000D03*
%TD*%
D19*
%TO.P,NR2,1,R1.1*%
%TO.N,/A3*%
X165598000Y-74504000D03*
%TO.P,NR2,2,R2.1*%
%TO.N,/A2*%
X165600000Y-73670000D03*
%TO.P,NR2,3,R3.1*%
%TO.N,/A1*%
X165596000Y-72836000D03*
%TO.P,NR2,4,R4.1*%
%TO.N,/A0*%
X165598000Y-72083000D03*
%TO.P,NR2,5,R4.2*%
%TO.N,/Resistor.Bus*%
X167386000Y-72080000D03*
%TO.P,NR2,6,R3.2*%
X167385000Y-72837000D03*
%TO.P,NR2,7,R2.2*%
X167386000Y-73669000D03*
%TO.P,NR2,8,R1.2*%
X167386000Y-74502000D03*
%TD*%
D22*
%TO.P,C15,1*%
%TO.N,/VCC*%
X143524000Y-72219000D03*
%TO.P,C15,2*%
%TO.N,/GND*%
X143524000Y-74481000D03*
%TD*%
%TO.P,R35,1*%
%TO.N,/Route14*%
X139800000Y-133180000D03*
%TO.P,R35,2*%
%TO.N,/VCC*%
X139800000Y-130918000D03*
%TD*%
D34*
%TO.P,F1,1*%
%TO.N,/9V+*%
X156192500Y-141341000D03*
%TO.P,F1,2*%
%TO.N,/9V.F1*%
X153601500Y-141341000D03*
%TD*%
D20*
%TO.P,R2,1*%
%TO.N,/Route3*%
X162682000Y-121494000D03*
%TO.P,R2,2*%
%TO.N,/Route2*%
X160420000Y-121494000D03*
%TD*%
D28*
%TO.P,Q7,1,B*%
%TO.N,/Route12*%
X130298000Y-128246000D03*
D35*
%TO.P,Q7,2,E*%
%TO.N,/CN1.P2*%
X128828000Y-125336000D03*
D30*
X128825000Y-127752000D03*
D28*
%TO.P,Q7,3,C*%
%TO.N,/GND*%
X127310000Y-128241000D03*
%TD*%
D22*
%TO.P,D5,1,K*%
%TO.N,/Route19*%
X168803000Y-97236000D03*
%TO.P,D5,2,A*%
%TO.N,/Off.GND*%
X168804000Y-99458000D03*
%TD*%
%TO.P,Q10,1,B*%
%TO.N,/Route27*%
X165676000Y-103405000D03*
%TO.P,Q10,2,E*%
%TO.N,/Route28*%
X163692000Y-103405000D03*
%TO.P,Q10,3,C*%
%TO.N,/P50*%
X164685000Y-101102000D03*
%TD*%
D19*
%TO.P,NR4,1,R1.1*%
%TO.N,/A8*%
X165598000Y-64862000D03*
%TO.P,NR4,2,R2.1*%
%TO.N,/A9*%
X165600000Y-64028000D03*
%TO.P,NR4,3,R3.1*%
%TO.N,/A11*%
X165596000Y-63194000D03*
%TO.P,NR4,4,R4.1*%
%TO.N,/Resistor.Bus*%
X165598000Y-62441000D03*
%TO.P,NR4,5,R4.2*%
%TO.N,/A12*%
X167386000Y-62438000D03*
%TO.P,NR4,6,R3.2*%
%TO.N,/Resistor.Bus*%
X167385000Y-63195000D03*
%TO.P,NR4,7,R2.2*%
X167386000Y-64027000D03*
%TO.P,NR4,8,R1.2*%
X167386000Y-64860000D03*
%TD*%
D20*
%TO.P,R28,1*%
%TO.N,/P60*%
X161740000Y-107441000D03*
%TO.P,R28,2*%
%TO.N,/VCC*%
X159478000Y-107441000D03*
%TD*%
D22*
%TO.P,IC7,1,E*%
%TO.N,/Route20*%
X172984500Y-75892500D03*
%TO.P,IC7,2,B*%
%TO.N,/Route21*%
X170997500Y-75890500D03*
D36*
%TO.P,IC7,3,C*%
%TO.N,/Route22*%
X172985500Y-73426500D03*
D37*
X171954500Y-73428500D03*
D36*
%TO.P,IC7,4*%
%TO.N,N/C*%
X170960500Y-73428500D03*
%TD*%
D22*
%TO.P,Q11,1,B*%
%TO.N,/Route19*%
X166787000Y-90495500D03*
%TO.P,Q11,2,E*%
%TO.N,/Route15*%
X164803000Y-90495500D03*
%TO.P,Q11,3,C*%
%TO.N,/Route25*%
X165796000Y-88192500D03*
%TD*%
D20*
%TO.P,R22,1*%
%TO.N,/Route21*%
X168379000Y-79944000D03*
%TO.P,R22,2*%
%TO.N,/Route22*%
X166117000Y-79944000D03*
%TD*%
D38*
%TO.P,TH1,1*%
%TO.N,/P60*%
X178218000Y-103002000D03*
%TO.P,TH1,2*%
%TO.N,/GND*%
X178220000Y-104510000D03*
%TD*%
D22*
%TO.P,R23,1*%
%TO.N,/GND*%
X173022000Y-90903000D03*
%TO.P,R23,2*%
%TO.N,/LED.Cathode*%
X173022000Y-88641000D03*
%TD*%
D39*
%TO.N,/GND*%
X157964100Y-102663000D03*
X159742000Y-95634000D03*
X157964100Y-114080000D03*
X131306700Y-97912500D03*
X126495200Y-121960300D03*
%TO.N,/VCC*%
X150249300Y-117808100D03*
X161775700Y-68821700D03*
X162415900Y-90205100D03*
X161775700Y-71428500D03*
%TO.N,/P53*%
X157949100Y-100599000D03*
X164431000Y-88918900D03*
%TO.N,/Button*%
X136009300Y-87231700D03*
%TO.N,/WE*%
X142107800Y-83099500D03*
X160366300Y-65333300D03*
%TO.N,/CE1*%
X152169800Y-70457700D03*
X152169800Y-86970800D03*
%TO.N,/A8*%
X157608400Y-89418000D03*
X159055900Y-65600100D03*
%TO.N,/A9*%
X157584600Y-90602000D03*
X159008400Y-68729300D03*
%TO.N,/A10*%
X155399800Y-86497500D03*
X155377300Y-69949900D03*
%TO.N,/A11*%
X156827900Y-92143000D03*
X156772200Y-68830900D03*
%TO.N,/P45*%
X164043100Y-111751500D03*
X160964200Y-97981100D03*
%TO.N,/P46*%
X150710600Y-95564000D03*
X169238200Y-126554000D03*
X148620800Y-120864600D03*
X167478200Y-122567100D03*
%TO.N,/P47*%
X157499000Y-96038600D03*
X169153200Y-69345700D03*
%TO.N,/P52*%
X140293100Y-110115200D03*
X140293100Y-134603500D03*
%TO.N,/OE*%
X153145100Y-101251700D03*
X155421900Y-68745100D03*
%TO.N,/P60*%
X161684600Y-106339400D03*
X163682400Y-110166700D03*
%TO.N,/P61*%
X160065100Y-106211300D03*
X163192700Y-111091600D03*
%TO.N,/D0*%
X149061600Y-103271400D03*
X149061600Y-81231400D03*
%TO.N,/D1*%
X147287800Y-102706100D03*
X147224300Y-81898700D03*
%TO.N,/D2*%
X147228400Y-80821800D03*
X143714300Y-106118700D03*
%TO.N,/D3*%
X145742700Y-68671900D03*
X145821900Y-102534000D03*
%TO.N,/D4*%
X147605300Y-68717800D03*
X141798200Y-105761500D03*
%TO.N,/D5*%
X144786800Y-102171500D03*
X144596700Y-69479600D03*
%TO.N,/Off.GND*%
X165036500Y-108375000D03*
X136566600Y-85402100D03*
%TO.N,/LED.Anode*%
X147094200Y-123166500D03*
%TO.N,/9V.Postfuse*%
X161272400Y-95164800D03*
%TO.N,/Route2*%
X158560500Y-123006600D03*
%TO.N,/Link.P5*%
X175417800Y-122941500D03*
%TO.N,/Link.P3*%
X172888300Y-127440000D03*
%TO.N,/Link.P2*%
X174303100Y-104966300D03*
%TD*%
D40*
%TO.N,/Route7*%
X160390000Y-116574000D02*
X159449900Y-116574000D01*
X158263000Y-115657000D02*
X158263000Y-116482100D01*
X159358000Y-116482100D02*
X159449900Y-116574000D01*
X158263000Y-116482100D02*
X159358000Y-116482100D01*
%TO.N,/Route6*%
X158278000Y-118481100D02*
X158278000Y-119430000D01*
X158263000Y-118466100D02*
X158278000Y-118481100D01*
X158263000Y-117641000D02*
X158263000Y-118466100D01*
%TO.N,/Route17*%
X154946900Y-117473100D02*
X152020000Y-120400000D01*
X152020000Y-120400000D02*
X150204100Y-120400000D01*
X155960000Y-116648000D02*
X155960000Y-117473100D01*
X148361000Y-119382000D02*
X149186100Y-119382000D01*
X152020000Y-120400000D02*
X152020000Y-120770000D01*
X150204100Y-120400000D02*
X149186100Y-119382000D01*
X155960000Y-117473100D02*
X154946900Y-117473100D01*
%TO.N,/Route20*%
X163270000Y-116408100D02*
X162693000Y-116408100D01*
X163939900Y-117078000D02*
X163270000Y-116408100D01*
X162553000Y-112927900D02*
X162464500Y-112839400D01*
X172984500Y-75892500D02*
X173809600Y-75892500D01*
X162553000Y-113753000D02*
X162553000Y-112927900D01*
X162553000Y-114617900D02*
X162553000Y-113753000D01*
X162464500Y-110343200D02*
X163528200Y-109279500D01*
X162464500Y-112839400D02*
X162464500Y-110343200D01*
X162693000Y-115583000D02*
X162693000Y-116408100D01*
X162693000Y-115583000D02*
X162693000Y-114757900D01*
X165625100Y-109279500D02*
X170934700Y-103969900D01*
X162693000Y-114757900D02*
X162553000Y-114617900D01*
X174135800Y-84045600D02*
X174135800Y-76218700D01*
X174135800Y-76218700D02*
X173809600Y-75892500D01*
X164765000Y-117078000D02*
X163939900Y-117078000D01*
X163528200Y-109279500D02*
X165625100Y-109279500D01*
X170934700Y-87246700D02*
X174135800Y-84045600D01*
X170934700Y-103969900D02*
X170934700Y-87246700D01*
D41*
%TO.N,/GND*%
X142113700Y-74045800D02*
X142548900Y-74481000D01*
X164765000Y-119340000D02*
X168388300Y-119340000D01*
D40*
X133965500Y-75100700D02*
X134005000Y-75100700D01*
D41*
X144499100Y-75331000D02*
X144499100Y-74481000D01*
X127886800Y-121960300D02*
X127054800Y-121960300D01*
D42*
X132725300Y-103876700D02*
X132767500Y-103834500D01*
D41*
X164141900Y-84182500D02*
X159742000Y-88582400D01*
X141228000Y-75801900D02*
X142548900Y-74481000D01*
X173444900Y-119340000D02*
X175263900Y-117521000D01*
X173022000Y-90903000D02*
X173997100Y-90903000D01*
X131280400Y-90673400D02*
X135604900Y-86348900D01*
X160681500Y-115071700D02*
X159696700Y-115071700D01*
X131306700Y-96808700D02*
X131306700Y-97912500D01*
X143524000Y-74481000D02*
X142548900Y-74481000D01*
X150476000Y-106638000D02*
X150829100Y-106284900D01*
X178832200Y-102151800D02*
X177608400Y-102151800D01*
X127310000Y-128241000D02*
X127310000Y-127015900D01*
X127310000Y-127015900D02*
X127054800Y-126760700D01*
X155479000Y-137769000D02*
X150605600Y-137769000D01*
D40*
X174487000Y-131179000D02*
X174467000Y-131159000D01*
D41*
X166592000Y-131578000D02*
X164249000Y-133921000D01*
X146486000Y-80168100D02*
X146324200Y-80329900D01*
X173230500Y-129958100D02*
X173627900Y-130355500D01*
X148449000Y-107555900D02*
X148449000Y-106283900D01*
X168388300Y-119340000D02*
X173444900Y-119340000D01*
X168337700Y-123343100D02*
X168337700Y-127210600D01*
X161480200Y-116354200D02*
X161480200Y-115870400D01*
X177608400Y-94514300D02*
X173997100Y-90903000D01*
X166592000Y-131578000D02*
X168893000Y-133879000D01*
X168337700Y-127210600D02*
X169320900Y-128193700D01*
X177739000Y-117521000D02*
X175263900Y-117521000D01*
X174546000Y-131159000D02*
X174603000Y-131102000D01*
D40*
X174467000Y-131159000D02*
X174447000Y-131139000D01*
X176828000Y-131219000D02*
X176729000Y-131119500D01*
D41*
X127054800Y-126760700D02*
X127054800Y-121960300D01*
X150605600Y-137769000D02*
X149763300Y-138611300D01*
X147420000Y-106283900D02*
X148449000Y-106283900D01*
X131577200Y-96538200D02*
X131306700Y-96808700D01*
X146486000Y-79455500D02*
X146486000Y-80168100D01*
X131287300Y-97931900D02*
X131287300Y-103595200D01*
D40*
X133945800Y-75100700D02*
X133965500Y-75100700D01*
D41*
X144011600Y-74481000D02*
X143524000Y-74481000D01*
X154989000Y-102663000D02*
X157964100Y-102663000D01*
X154536600Y-102663000D02*
X154989000Y-102663000D01*
X148432000Y-108577000D02*
X148449000Y-108560000D01*
X131577200Y-96538200D02*
X131280400Y-96241400D01*
X176591000Y-131100000D02*
X175615900Y-131100000D01*
X133945800Y-75100700D02*
X132794800Y-76251700D01*
X141235000Y-78071000D02*
X141189000Y-78025000D01*
X124715000Y-108795000D02*
X121468100Y-108795000D01*
D40*
X148452000Y-108597000D02*
X148432000Y-108577000D01*
D41*
X149445000Y-107768400D02*
X150476000Y-107768400D01*
X147918400Y-138611300D02*
X147502100Y-138195000D01*
X132736800Y-96538200D02*
X131577200Y-96538200D01*
X164249000Y-135470000D02*
X164249000Y-133921000D01*
X158705000Y-114080000D02*
X157964100Y-114080000D01*
X150476000Y-107984000D02*
X150476000Y-107768400D01*
X148728000Y-110939000D02*
X148728000Y-109963900D01*
X135604900Y-86348900D02*
X139067700Y-86348900D01*
X177326000Y-102434200D02*
X177326000Y-104466100D01*
X144011600Y-74481000D02*
X144499100Y-74481000D01*
X147420000Y-107984000D02*
X147420000Y-106283900D01*
X152498000Y-107985000D02*
X152498000Y-107134900D01*
X166592000Y-130922600D02*
X166592000Y-131578000D01*
X168388300Y-119340000D02*
X168388300Y-123292500D01*
X139067700Y-86348900D02*
X139545900Y-86827100D01*
X146486000Y-79455500D02*
X146486000Y-78743000D01*
X177608400Y-102151800D02*
X177326000Y-102434200D01*
X141228000Y-77124700D02*
X141228000Y-75801900D01*
X149445000Y-109681100D02*
X149162200Y-109963900D01*
X150476000Y-107558900D02*
X150476000Y-106638000D01*
X151467000Y-107985000D02*
X151467000Y-107134900D01*
X150829100Y-106284900D02*
X151467000Y-106284900D01*
X176664500Y-108205000D02*
X177739000Y-108205000D01*
X175613900Y-131102000D02*
X174603000Y-131102000D01*
X132794800Y-83538800D02*
X135604900Y-86348900D01*
X164249000Y-133921000D02*
X159685000Y-133921000D01*
X163789900Y-118663900D02*
X163789900Y-119340000D01*
X133887000Y-75021000D02*
X134862200Y-74045800D01*
X146324200Y-80329900D02*
X146324200Y-83362100D01*
X149445000Y-107981000D02*
X149445000Y-109681100D01*
X177739000Y-117521000D02*
X177855000Y-117521000D01*
D42*
X132736800Y-96538200D02*
X132779000Y-96496000D01*
D41*
X174603000Y-131102000D02*
X173627900Y-131102000D01*
X149445000Y-107768400D02*
X149445000Y-107555900D01*
X169320900Y-128193700D02*
X171085200Y-129958100D01*
X171085200Y-129958100D02*
X173230500Y-129958100D01*
X134862200Y-74045800D02*
X142113700Y-74045800D01*
X159685000Y-136063900D02*
X157979900Y-137769000D01*
X146324200Y-83362100D02*
X146390000Y-83427900D01*
X146412000Y-138195000D02*
X147502100Y-138195000D01*
X169320900Y-128193700D02*
X166592000Y-130922600D01*
D40*
X141228000Y-77124700D02*
X141189000Y-77164400D01*
D41*
X157979900Y-137769000D02*
X159683900Y-139473000D01*
X159685000Y-133921000D02*
X159685000Y-136063900D01*
X129561000Y-120286100D02*
X127886800Y-121960300D01*
X149162200Y-109963900D02*
X148728000Y-109963900D01*
X151467000Y-107134900D02*
X151467000Y-106284900D01*
X176550500Y-108319000D02*
X176664500Y-108205000D01*
X153288900Y-102663000D02*
X152498000Y-103453900D01*
X168388300Y-123292500D02*
X168337700Y-123343100D01*
D40*
X178019000Y-117685000D02*
X178138000Y-117804000D01*
D41*
X139545900Y-86827100D02*
X140396000Y-86827100D01*
X146486000Y-77317900D02*
X144499100Y-75331000D01*
D40*
X176729000Y-131119500D02*
X176630000Y-131020000D01*
D41*
X152498000Y-103453900D02*
X152498000Y-106284900D01*
X177855000Y-117521000D02*
X178019000Y-117685000D01*
X141189000Y-78025000D02*
X141189000Y-77164400D01*
X148449000Y-107984000D02*
X148449000Y-107555900D01*
X176729000Y-131119500D02*
X176610500Y-131119500D01*
X120429000Y-108859000D02*
X121404100Y-108859000D01*
D40*
X176550500Y-108319000D02*
X176709000Y-108160000D01*
D41*
X131568800Y-103876700D02*
X132725300Y-103876700D01*
X165117000Y-84182500D02*
X164141900Y-84182500D01*
D40*
X176392000Y-108478000D02*
X176550500Y-108319000D01*
D41*
X176610500Y-131119500D02*
X176591000Y-131100000D01*
X121468100Y-108795000D02*
X121404100Y-108859000D01*
X131280400Y-96241400D02*
X131280400Y-90673400D01*
X150476000Y-107768400D02*
X150476000Y-107558900D01*
X133887000Y-75022200D02*
X133887000Y-75021000D01*
X180214100Y-108205000D02*
X180214100Y-103533700D01*
X131287300Y-103595200D02*
X131568800Y-103876700D01*
D40*
X148432000Y-108577000D02*
X148412000Y-108557000D01*
D41*
X161480200Y-115870400D02*
X160681500Y-115071700D01*
X173627900Y-130355500D02*
X173627900Y-131102000D01*
X164765000Y-119340000D02*
X163789900Y-119340000D01*
X177608400Y-102151800D02*
X177608400Y-94514300D01*
X132794800Y-76251700D02*
X132794800Y-83538800D01*
X149763300Y-138611300D02*
X147918400Y-138611300D01*
X175615900Y-131100000D02*
X175613900Y-131102000D01*
X155479000Y-137769000D02*
X156154100Y-137769000D01*
X178220000Y-104510000D02*
X177369900Y-104510000D01*
X177326000Y-104466100D02*
X177369900Y-104510000D01*
X159742000Y-88582400D02*
X159742000Y-95634000D01*
X133965500Y-75100700D02*
X133887000Y-75022200D01*
X129561000Y-119311000D02*
X129561000Y-120286100D01*
X146390000Y-85128000D02*
X146390000Y-83427900D01*
X156154100Y-137769000D02*
X157979900Y-137769000D01*
X154536600Y-102663000D02*
X153288900Y-102663000D01*
X146486000Y-78743000D02*
X146486000Y-77317900D01*
X148449000Y-108560000D02*
X148449000Y-107984000D01*
X180214100Y-103533700D02*
X178832200Y-102151800D01*
X162693000Y-117567000D02*
X163789900Y-118663900D01*
X140396000Y-85127000D02*
X140396000Y-86827100D01*
X127054800Y-121960300D02*
X126495200Y-121960300D01*
X149445000Y-107981000D02*
X149445000Y-107768400D01*
X162693000Y-117567000D02*
X161480200Y-116354200D01*
D40*
X133926000Y-75100700D02*
X133945800Y-75100700D01*
D41*
X174467000Y-131159000D02*
X174546000Y-131159000D01*
X152498000Y-107134900D02*
X152498000Y-106284900D01*
X131306700Y-97912500D02*
X131287300Y-97931900D01*
X149445000Y-107555900D02*
X148449000Y-107555900D01*
X177739000Y-108205000D02*
X180214100Y-108205000D01*
X159696700Y-115071700D02*
X158705000Y-114080000D01*
X152498000Y-107134900D02*
X151467000Y-107134900D01*
D40*
%TO.N,/Route23*%
X171373000Y-82887000D02*
X171373000Y-82061900D01*
X171373000Y-82061900D02*
X167117500Y-82061900D01*
X167117500Y-82061900D02*
X166935100Y-81879500D01*
X166110000Y-81879500D02*
X166935100Y-81879500D01*
%TO.N,/Route19*%
X166313000Y-98955000D02*
X166313000Y-97801100D01*
X167199600Y-90495500D02*
X167612100Y-90495500D01*
X166921000Y-86171000D02*
X167861100Y-86171000D01*
X166326000Y-96550400D02*
X167292300Y-96550400D01*
X166313000Y-97801100D02*
X166326000Y-97788100D01*
X166921000Y-86171000D02*
X166921000Y-86996100D01*
X167199600Y-87274700D02*
X166921000Y-86996100D01*
X167612100Y-96230600D02*
X167292300Y-96550400D01*
X166787000Y-90495500D02*
X167199600Y-90495500D01*
X166326000Y-96963000D02*
X166326000Y-96550400D01*
X167199600Y-90495500D02*
X167199600Y-87274700D01*
X171373000Y-85696100D02*
X168336000Y-85696100D01*
X171373000Y-84871000D02*
X171373000Y-85696100D01*
X167612100Y-90495500D02*
X167612100Y-96230600D01*
X168803000Y-97236000D02*
X167977900Y-97236000D01*
X167292300Y-96550400D02*
X167977900Y-97236000D01*
X166326000Y-96963000D02*
X166326000Y-97788100D01*
X168336000Y-85696100D02*
X167861100Y-86171000D01*
%TO.N,/Route24*%
X167101000Y-84182500D02*
X168777900Y-84182500D01*
X169070000Y-83890700D02*
X169070000Y-83878000D01*
X168777900Y-84182500D02*
X168930000Y-84030400D01*
X168970000Y-83990700D02*
X169010000Y-83951000D01*
X168970000Y-83990700D02*
X169070000Y-83890700D01*
X168930000Y-84030400D02*
X168970000Y-83990700D01*
D41*
%TO.N,/VCC*%
X164792000Y-92625500D02*
X163816900Y-92625500D01*
X154515100Y-107441000D02*
X153287900Y-106213800D01*
X153287900Y-103989600D02*
X153624500Y-103653000D01*
X146426000Y-107984000D02*
X146426000Y-109923900D01*
X154988000Y-103653000D02*
X158239900Y-103653000D01*
X136225600Y-118055500D02*
X138455000Y-120284900D01*
X137857500Y-128688800D02*
X140086700Y-130918000D01*
X160641100Y-68580100D02*
X161775700Y-68580100D01*
X131823000Y-118335900D02*
X132103400Y-118055500D01*
X163816900Y-95293400D02*
X163816900Y-92625500D01*
X154515100Y-113443900D02*
X152183000Y-115776000D01*
X158239900Y-103653000D02*
X158449900Y-103443000D01*
X138455000Y-121260000D02*
X138455000Y-120284900D01*
X144499100Y-72219000D02*
X145289600Y-71428500D01*
X145602100Y-135201900D02*
X146413000Y-135201900D01*
X132103400Y-118055500D02*
X136225600Y-118055500D01*
X161775700Y-68580100D02*
X161775700Y-68821700D01*
X150249300Y-117808100D02*
X150024200Y-117808100D01*
X148361000Y-117120000D02*
X149336100Y-117120000D01*
X131823000Y-119311000D02*
X131823000Y-120286100D01*
X135358000Y-124159000D02*
X135358000Y-122933900D01*
X131823000Y-120286100D02*
X132710200Y-120286100D01*
X135358000Y-124159000D02*
X135358000Y-125384100D01*
X161866000Y-97244300D02*
X163816900Y-95293400D01*
X147169600Y-117120000D02*
X144004700Y-120284900D01*
X161775700Y-68580100D02*
X163035000Y-68580100D01*
X144004700Y-120284900D02*
X138455000Y-120284900D01*
X125385000Y-131846900D02*
X126164000Y-132625900D01*
X148321100Y-111914100D02*
X146466000Y-111914100D01*
X130056700Y-116873300D02*
X125385000Y-121545000D01*
X146466000Y-110939000D02*
X146466000Y-109963900D01*
X161866000Y-98415900D02*
X161866000Y-97244300D01*
X125385000Y-121545000D02*
X124711000Y-121545000D01*
X143524000Y-72219000D02*
X144499100Y-72219000D01*
X141318200Y-130918000D02*
X145602100Y-135201900D01*
X145289600Y-71428500D02*
X161775700Y-71428500D01*
X135997000Y-126023100D02*
X135997000Y-127045300D01*
X132710200Y-120286100D02*
X135358000Y-122933900D01*
X163816900Y-91606100D02*
X163816900Y-92625500D01*
X163035000Y-67155000D02*
X163035000Y-68580100D01*
X140086700Y-130918000D02*
X141318200Y-130918000D01*
X135997000Y-127045300D02*
X137640500Y-128688800D01*
X153624500Y-103653000D02*
X154988000Y-103653000D01*
X152183000Y-115776000D02*
X148321100Y-111914100D01*
X159478000Y-107441000D02*
X154515100Y-107441000D01*
X129558000Y-116374700D02*
X129558000Y-113558000D01*
X131823000Y-118335900D02*
X131519200Y-118335900D01*
X146466000Y-110939000D02*
X146466000Y-111914100D01*
X135358000Y-125384100D02*
X135997000Y-126023100D01*
X160455000Y-68394000D02*
X160641100Y-68580100D01*
X131823000Y-118852500D02*
X131823000Y-118394100D01*
X131519200Y-118335900D02*
X130056700Y-116873300D01*
X139800000Y-130918000D02*
X140086700Y-130918000D01*
X137640500Y-128688800D02*
X137857500Y-128688800D01*
X146413000Y-136177000D02*
X146413000Y-135201900D01*
X161866000Y-99391000D02*
X161866000Y-98415900D01*
X153287900Y-106213800D02*
X153287900Y-103989600D01*
X125385000Y-121545000D02*
X125385000Y-131846900D01*
X160455000Y-67156000D02*
X160455000Y-68394000D01*
X126164000Y-133601000D02*
X126164000Y-132625900D01*
X130056700Y-116873300D02*
X129558000Y-116374700D01*
X150024200Y-117808100D02*
X149336100Y-117120000D01*
X146426000Y-109923900D02*
X146466000Y-109963900D01*
X162415900Y-90205100D02*
X163816900Y-91606100D01*
X131823000Y-118394100D02*
X131823000Y-118335900D01*
X159540000Y-103443000D02*
X158449900Y-103443000D01*
X154515100Y-107441000D02*
X154515100Y-113443900D01*
X131823000Y-118852500D02*
X131823000Y-119311000D01*
X148361000Y-117120000D02*
X147169600Y-117120000D01*
D40*
%TO.N,/P53*%
X164801100Y-88918900D02*
X164431000Y-88918900D01*
X165628100Y-90962100D02*
X165628100Y-89745900D01*
X154987000Y-100599000D02*
X157949100Y-100599000D01*
X166776000Y-92625500D02*
X166776000Y-91685400D01*
X165628100Y-89745900D02*
X164801100Y-88918900D01*
X166351400Y-91685400D02*
X165628100Y-90962100D01*
X166776000Y-91685400D02*
X166351400Y-91685400D01*
%TO.N,/Route26*%
X164957900Y-94928500D02*
X164957900Y-95244000D01*
X164051000Y-98955000D02*
X164051000Y-98129900D01*
X165783000Y-94928500D02*
X164957900Y-94928500D01*
X164051000Y-98129900D02*
X164064000Y-98116900D01*
X164957900Y-95244000D02*
X164064000Y-96137900D01*
X164064000Y-98116900D02*
X164064000Y-96963000D01*
X164064000Y-96963000D02*
X164064000Y-96137900D01*
%TO.N,/Route15*%
X165759600Y-95881700D02*
X165372800Y-96268500D01*
X146696500Y-118441900D02*
X143907300Y-121231100D01*
X149949000Y-118533200D02*
X149857700Y-118441900D01*
X160291000Y-113753000D02*
X159350900Y-113753000D01*
X146597400Y-124284900D02*
X146597400Y-125835100D01*
X165553900Y-101833400D02*
X164850800Y-102536500D01*
X157410400Y-113354900D02*
X152232100Y-118533200D01*
X164850800Y-102536500D02*
X164850800Y-106757200D01*
X166608100Y-94178900D02*
X166608100Y-95678100D01*
X144843900Y-126632400D02*
X144843900Y-127826400D01*
X166608100Y-95678100D02*
X166404500Y-95881700D01*
X142686000Y-128305900D02*
X142548100Y-128168000D01*
X164803000Y-90495500D02*
X164803000Y-91435600D01*
X145235000Y-123673900D02*
X145986400Y-123673900D01*
X164850800Y-106757200D02*
X160291000Y-111317000D01*
X165553900Y-99774900D02*
X165553900Y-101833400D01*
X144364400Y-128305900D02*
X142686000Y-128305900D01*
X164803000Y-91435600D02*
X165216700Y-91435600D01*
X165617200Y-93188000D02*
X166608100Y-94178900D01*
X166404500Y-95881700D02*
X165759600Y-95881700D01*
X165617200Y-91836100D02*
X165617200Y-93188000D01*
X143907300Y-121231100D02*
X143907300Y-122346200D01*
X149857700Y-118441900D02*
X146696500Y-118441900D01*
X165216700Y-91435600D02*
X165617200Y-91836100D01*
X141473000Y-128168000D02*
X142548100Y-128168000D01*
X144843900Y-127826400D02*
X144364400Y-128305900D01*
X145397200Y-126079100D02*
X144843900Y-126632400D01*
X159350900Y-113753000D02*
X158952800Y-113354900D01*
X143907300Y-122346200D02*
X145235000Y-123673900D01*
X165372800Y-99593800D02*
X165553900Y-99774900D01*
X146597400Y-125835100D02*
X146353400Y-126079100D01*
X152232100Y-118533200D02*
X149949000Y-118533200D01*
X158952800Y-113354900D02*
X157410400Y-113354900D01*
X146353400Y-126079100D02*
X145397200Y-126079100D01*
X165372800Y-96268500D02*
X165372800Y-99593800D01*
X160291000Y-111317000D02*
X160291000Y-113753000D01*
X145986400Y-123673900D02*
X146597400Y-124284900D01*
%TO.N,/Route25*%
X163399300Y-88192500D02*
X161621300Y-89970500D01*
X161621300Y-89970500D02*
X161621300Y-90449200D01*
X161621300Y-90449200D02*
X161715000Y-90542900D01*
X161715000Y-91483000D02*
X161715000Y-90542900D01*
X165796000Y-88192500D02*
X163399300Y-88192500D01*
%TO.N,/Route27*%
X165873000Y-104542100D02*
X165873000Y-106298000D01*
X165676000Y-104345100D02*
X165873000Y-104542100D01*
X165676000Y-103405000D02*
X165676000Y-104345100D01*
%TO.N,/Route28*%
X162866900Y-104023800D02*
X162597100Y-104293600D01*
X160715800Y-103971100D02*
X160715800Y-103030400D01*
X161038300Y-104293600D02*
X160715800Y-103971100D01*
X163692000Y-103405000D02*
X162866900Y-103405000D01*
X162866900Y-103405000D02*
X162866900Y-104023800D01*
X162597100Y-104293600D02*
X161038300Y-104293600D01*
X159957500Y-102272100D02*
X159545000Y-102272100D01*
X160715800Y-103030400D02*
X159957500Y-102272100D01*
X159545000Y-101447000D02*
X159545000Y-102272100D01*
%TO.N,/P50*%
X159431400Y-97623000D02*
X154996000Y-97623000D01*
X161787000Y-101241000D02*
X161787000Y-101215000D01*
X160788200Y-98979800D02*
X159431400Y-97623000D01*
X161787000Y-101241000D02*
X160788200Y-100242200D01*
X161826000Y-103557000D02*
X161906000Y-103636000D01*
X161787000Y-101319200D02*
X161787000Y-101241000D01*
X161807000Y-101447000D02*
X161807000Y-102272100D01*
X161802000Y-103443000D02*
X161802000Y-102277100D01*
X161787000Y-101423500D02*
X161787000Y-101319200D01*
X161802000Y-103443000D02*
X161826000Y-103467000D01*
X163642700Y-101319200D02*
X163859900Y-101102000D01*
X161787000Y-101319200D02*
X163642700Y-101319200D01*
X161807000Y-101443500D02*
X161807000Y-101447000D01*
X160788200Y-100242200D02*
X160788200Y-98979800D01*
X161802000Y-102277100D02*
X161807000Y-102272100D01*
X161787000Y-101423500D02*
X161807000Y-101443500D01*
X164685000Y-101102000D02*
X163859900Y-101102000D01*
X161787000Y-101493000D02*
X161787000Y-101423500D01*
X161826000Y-103467000D02*
X161826000Y-103557000D01*
%TO.N,/Route13*%
X135850000Y-134063000D02*
X134909900Y-134063000D01*
X135850000Y-134063000D02*
X136790100Y-134063000D01*
X125677000Y-139555000D02*
X126502100Y-139555000D01*
X126502100Y-139555000D02*
X131994100Y-134063000D01*
X136790100Y-133262900D02*
X137971000Y-132082000D01*
X136790100Y-134063000D02*
X136790100Y-133262900D01*
X131994100Y-134063000D02*
X134909900Y-134063000D01*
%TO.N,/Route14*%
X124518100Y-139039300D02*
X124518100Y-139555000D01*
X145119100Y-135568100D02*
X142731000Y-133180000D01*
X136812100Y-132082000D02*
X136812100Y-131566300D01*
X134336800Y-132907100D02*
X130650300Y-132907100D01*
X136812100Y-131566300D02*
X137272900Y-131105500D01*
X135161900Y-132082000D02*
X134336800Y-132907100D01*
X142731000Y-133180000D02*
X139800000Y-133180000D01*
X138974900Y-131459200D02*
X138974900Y-133180000D01*
X145119100Y-136813300D02*
X145119100Y-135568100D01*
X136276100Y-132082000D02*
X136812100Y-132082000D01*
X137272900Y-131105500D02*
X138621200Y-131105500D01*
X130650300Y-132907100D02*
X124518100Y-139039300D01*
X135987000Y-132082000D02*
X135161900Y-132082000D01*
X144562500Y-137369900D02*
X145119100Y-136813300D01*
X136276100Y-132082000D02*
X135987000Y-132082000D01*
X144150000Y-137369900D02*
X144562500Y-137369900D01*
X144150000Y-138195000D02*
X144150000Y-137369900D01*
X123693000Y-139555000D02*
X124518100Y-139555000D01*
X139800000Y-133180000D02*
X138974900Y-133180000D01*
X138621200Y-131105500D02*
X138974900Y-131459200D01*
%TO.N,/Route12*%
X125511100Y-137252000D02*
X130391200Y-132371900D01*
X124686000Y-137252000D02*
X125511100Y-137252000D01*
X130298000Y-128246000D02*
X130298000Y-129321100D01*
X130391200Y-129414300D02*
X130298000Y-129321100D01*
X130391200Y-132371900D02*
X130391200Y-129414300D01*
%TO.N,/Route16*%
X132261500Y-128223400D02*
X133817100Y-129779000D01*
X133817100Y-129779000D02*
X136980000Y-129779000D01*
X132261500Y-125337600D02*
X132261500Y-128223400D01*
X132370000Y-124154000D02*
X132370000Y-125229100D01*
X132370000Y-125229100D02*
X132261500Y-125337600D01*
%TO.N,/D6*%
X137858000Y-105644000D02*
X131748500Y-105644000D01*
X150295000Y-67155000D02*
X150295000Y-68430100D01*
X130128200Y-104023700D02*
X130128200Y-76548100D01*
X130128200Y-76548100D02*
X136451600Y-70224700D01*
X131748500Y-105644000D02*
X130128200Y-104023700D01*
X148500400Y-70224700D02*
X150295000Y-68430100D01*
X136451600Y-70224700D02*
X148500400Y-70224700D01*
%TO.N,/D7*%
X136638100Y-70674900D02*
X149318200Y-70674900D01*
X137854000Y-104652000D02*
X131418200Y-104652000D01*
X149318200Y-70674900D02*
X151566000Y-68427100D01*
X130578400Y-103812200D02*
X130578400Y-76734600D01*
X130578400Y-76734600D02*
X136638100Y-70674900D01*
X131418200Y-104652000D02*
X130578400Y-103812200D01*
X151566000Y-67152000D02*
X151566000Y-68427100D01*
%TO.N,/IC6.I8*%
X134547400Y-103654000D02*
X134094900Y-103201500D01*
X134094900Y-103201500D02*
X132769500Y-103201500D01*
X137855000Y-103654000D02*
X134547400Y-103654000D01*
%TO.N,/IC6.I7*%
X134195100Y-102665000D02*
X134091600Y-102561500D01*
X137855000Y-102665000D02*
X134195100Y-102665000D01*
X132766500Y-102561500D02*
X134091600Y-102561500D01*
%TO.N,/IC6.I6*%
X136305900Y-101639000D02*
X136056400Y-101888500D01*
X136056400Y-101888500D02*
X132762500Y-101888500D01*
X137856000Y-101639000D02*
X136305900Y-101639000D01*
%TO.N,/IC6.I5*%
X137856000Y-100601000D02*
X136305900Y-100601000D01*
X135654400Y-101252500D02*
X132769500Y-101252500D01*
X136305900Y-100601000D02*
X135654400Y-101252500D01*
%TO.N,/IC6.I4*%
X137860000Y-99607000D02*
X136309900Y-99607000D01*
X136309900Y-99607000D02*
X135295400Y-100621500D01*
X135295400Y-100621500D02*
X132769500Y-100621500D01*
%TO.N,/IC6.I3*%
X137854000Y-98617000D02*
X136303900Y-98617000D01*
X134935400Y-99985500D02*
X132768500Y-99985500D01*
X136303900Y-98617000D02*
X134935400Y-99985500D01*
%TO.N,/IC6.I2*%
X137858000Y-97625000D02*
X136307900Y-97625000D01*
X134621400Y-99311500D02*
X132768500Y-99311500D01*
X136307900Y-97625000D02*
X134621400Y-99311500D01*
%TO.N,/IC6.I1*%
X137859000Y-96596000D02*
X136132100Y-96596000D01*
X136132100Y-96596000D02*
X134093600Y-98634500D01*
X132768500Y-98634500D02*
X134093600Y-98634500D01*
%TO.N,/IC5.I8*%
X136305900Y-95561000D02*
X136003900Y-95863000D01*
X136003900Y-95863000D02*
X132781000Y-95863000D01*
X137856000Y-95561000D02*
X136305900Y-95561000D01*
%TO.N,/IC5.I7*%
X137856000Y-94565000D02*
X136305900Y-94565000D01*
X136305900Y-94565000D02*
X135647900Y-95223000D01*
X135647900Y-95223000D02*
X132778000Y-95223000D01*
%TO.N,/IC5.I6*%
X137853000Y-93579000D02*
X136302900Y-93579000D01*
X136302900Y-93579000D02*
X135331900Y-94550000D01*
X135331900Y-94550000D02*
X132774000Y-94550000D01*
%TO.N,/IC5.I5*%
X136302900Y-92587000D02*
X134975900Y-93914000D01*
X134975900Y-93914000D02*
X132781000Y-93914000D01*
X137853000Y-92587000D02*
X136302900Y-92587000D01*
%TO.N,/IC5.I4*%
X136304900Y-91595000D02*
X134616900Y-93283000D01*
X134616900Y-93283000D02*
X132781000Y-93283000D01*
X137855000Y-91595000D02*
X136304900Y-91595000D01*
%TO.N,/IC5.I3*%
X134257900Y-92647000D02*
X132780000Y-92647000D01*
X136301900Y-90603000D02*
X134257900Y-92647000D01*
X137852000Y-90603000D02*
X136301900Y-90603000D01*
%TO.N,/IC5.I2*%
X136300900Y-89571000D02*
X134105100Y-91766800D01*
X134105100Y-91766800D02*
X134105100Y-91973000D01*
X132780000Y-91973000D02*
X134105100Y-91973000D01*
X137851000Y-89571000D02*
X136300900Y-89571000D01*
%TO.N,/IC5.I1*%
X137851000Y-88575000D02*
X136300900Y-88575000D01*
X133579900Y-91296000D02*
X136300900Y-88575000D01*
X132780000Y-91296000D02*
X133579900Y-91296000D01*
%TO.N,/Button*%
X137854000Y-87579000D02*
X136303900Y-87579000D01*
X123902000Y-133601000D02*
X123902000Y-134426100D01*
X128484000Y-132932900D02*
X126990800Y-134426100D01*
X128484000Y-131552000D02*
X128484000Y-132932900D01*
X136303900Y-87579000D02*
X136303900Y-87526300D01*
X126990800Y-134426100D02*
X123902000Y-134426100D01*
X136303900Y-87526300D02*
X136009300Y-87231700D01*
%TO.N,/WE*%
X141633400Y-83573900D02*
X142107800Y-83099500D01*
X141427000Y-85124000D02*
X141427000Y-83573900D01*
X141427000Y-83573900D02*
X141633400Y-83573900D01*
X165554000Y-68353000D02*
X164828900Y-68353000D01*
X164828900Y-67099500D02*
X164828900Y-68353000D01*
X161182400Y-65333300D02*
X160366300Y-65333300D01*
X163605300Y-65875900D02*
X164828900Y-67099500D01*
X161725000Y-67151000D02*
X161725000Y-65875900D01*
X161725000Y-65875900D02*
X163605300Y-65875900D01*
X161725000Y-65875900D02*
X161182400Y-65333300D01*
%TO.N,/CE1*%
X152836000Y-67156000D02*
X152836000Y-68431100D01*
X153081700Y-70703400D02*
X152836000Y-70457700D01*
X142419000Y-85129000D02*
X142419000Y-86679100D01*
X142419000Y-86679100D02*
X151878100Y-86679100D01*
X151878100Y-86679100D02*
X152169800Y-86970800D01*
X164828900Y-70774000D02*
X164758300Y-70703400D01*
X152169800Y-70457700D02*
X152836000Y-70457700D01*
X164758300Y-70703400D02*
X153081700Y-70703400D01*
X165554000Y-70774000D02*
X164828900Y-70774000D01*
X152836000Y-70457700D02*
X152836000Y-68431100D01*
%TO.N,/Reset*%
X143411000Y-83366900D02*
X141573600Y-81529500D01*
X143411000Y-85129000D02*
X143411000Y-83366900D01*
X136149000Y-81529500D02*
X136107000Y-81529500D01*
X141573600Y-81529500D02*
X136149000Y-81529500D01*
X136149000Y-81529500D02*
X136149000Y-75846100D01*
X136149000Y-75021000D02*
X136149000Y-75846100D01*
%TO.N,/XIN*%
X138733000Y-78080000D02*
X138733000Y-80505100D01*
X144403000Y-83577900D02*
X141330200Y-80505100D01*
X141330200Y-80505100D02*
X138733000Y-80505100D01*
X144403000Y-85128000D02*
X144403000Y-83577900D01*
%TO.N,/XOUT*%
X143776000Y-80507100D02*
X145395000Y-82126100D01*
X143776000Y-78082000D02*
X143776000Y-80507100D01*
X145395000Y-82126100D02*
X145395000Y-85124000D01*
%TO.N,/A0*%
X165598000Y-72083000D02*
X164872900Y-72083000D01*
X156883300Y-72153600D02*
X164802300Y-72153600D01*
X147743600Y-83574900D02*
X151565000Y-79753500D01*
X151565000Y-79753500D02*
X151565000Y-78747000D01*
X151565000Y-77471900D02*
X156883300Y-72153600D01*
X147379000Y-83574900D02*
X147743600Y-83574900D01*
X147379000Y-85125000D02*
X147379000Y-83574900D01*
X164802300Y-72153600D02*
X164872900Y-72083000D01*
X151565000Y-78747000D02*
X151565000Y-77471900D01*
%TO.N,/A1*%
X152838000Y-77468900D02*
X157470900Y-72836000D01*
X152838000Y-79367400D02*
X152838000Y-78744000D01*
X157470900Y-72836000D02*
X165596000Y-72836000D01*
X148414000Y-85120000D02*
X148414000Y-83569900D01*
X148414000Y-83569900D02*
X148635500Y-83569900D01*
X152838000Y-78744000D02*
X152838000Y-77468900D01*
X148635500Y-83569900D02*
X152838000Y-79367400D01*
%TO.N,/A2*%
X154066000Y-78745000D02*
X154066000Y-77469900D01*
X157865900Y-73670000D02*
X165600000Y-73670000D01*
X152959800Y-80020100D02*
X154066000Y-80020100D01*
X154066000Y-77469900D02*
X157865900Y-73670000D01*
X149406000Y-85124000D02*
X149406000Y-83573900D01*
X149406000Y-83573900D02*
X152959800Y-80020100D01*
X154066000Y-78745000D02*
X154066000Y-80020100D01*
%TO.N,/A3*%
X150434000Y-83574900D02*
X153472600Y-80536300D01*
X155375000Y-78745000D02*
X155375000Y-80020100D01*
X153472600Y-80536300D02*
X154858800Y-80536300D01*
X150434000Y-85125000D02*
X150434000Y-83574900D01*
X155375000Y-78745000D02*
X155375000Y-77469900D01*
X154858800Y-80536300D02*
X155375000Y-80020100D01*
X158340900Y-74504000D02*
X165598000Y-74504000D01*
X155375000Y-77469900D02*
X158340900Y-74504000D01*
%TO.N,/A4*%
X156646000Y-78745000D02*
X156646000Y-80020100D01*
X156646000Y-78745000D02*
X156646000Y-77469900D01*
X152137200Y-82867700D02*
X153798400Y-82867700D01*
X153798400Y-82867700D02*
X156646000Y-80020100D01*
X158338900Y-75777000D02*
X156646000Y-77469900D01*
X151426000Y-85129000D02*
X151426000Y-83578900D01*
X165595000Y-75777000D02*
X158338900Y-75777000D01*
X151426000Y-83578900D02*
X152137200Y-82867700D01*
%TO.N,/A5*%
X157917000Y-78745000D02*
X157917000Y-77469900D01*
X152457000Y-83579900D02*
X154357200Y-83579900D01*
X152457000Y-85130000D02*
X152457000Y-83579900D01*
X157917000Y-78745000D02*
X157917000Y-80020100D01*
X154357200Y-83579900D02*
X157917000Y-80020100D01*
X165593000Y-76530000D02*
X158856900Y-76530000D01*
X158856900Y-76530000D02*
X157917000Y-77469900D01*
%TO.N,/A6*%
X164328300Y-77019700D02*
X164672600Y-77364000D01*
X164672600Y-77364000D02*
X165597000Y-77364000D01*
X159634200Y-77019700D02*
X164328300Y-77019700D01*
X154991000Y-87585000D02*
X156541100Y-87585000D01*
X159186000Y-84940100D02*
X159186000Y-78743000D01*
X159186000Y-77467900D02*
X159634200Y-77019700D01*
X159186000Y-78743000D02*
X159186000Y-77467900D01*
X156541100Y-87585000D02*
X159186000Y-84940100D01*
%TO.N,/A7*%
X154998000Y-88578000D02*
X156548100Y-88578000D01*
X165595000Y-78198000D02*
X164869900Y-78198000D01*
X160455000Y-77469900D02*
X164141800Y-77469900D01*
X160455000Y-78745000D02*
X160455000Y-84671100D01*
X164141800Y-77469900D02*
X164869900Y-78198000D01*
X160455000Y-78745000D02*
X160455000Y-77469900D01*
X160455000Y-84671100D02*
X156548100Y-88578000D01*
%TO.N,/A8*%
X159186000Y-65730200D02*
X159055900Y-65600100D01*
X164872900Y-64862000D02*
X164619100Y-64608200D01*
X159186000Y-65881900D02*
X159186000Y-65730200D01*
X157458400Y-89568000D02*
X157608400Y-89418000D01*
X160047800Y-64608200D02*
X159055900Y-65600100D01*
X159186000Y-67157000D02*
X159186000Y-65881900D01*
X164619100Y-64608200D02*
X160047800Y-64608200D01*
X165598000Y-64862000D02*
X164872900Y-64862000D01*
X154998000Y-89568000D02*
X157458400Y-89568000D01*
%TO.N,/A9*%
X157916000Y-65714600D02*
X157916000Y-65880900D01*
X157916000Y-67156000D02*
X157916000Y-65880900D01*
X159602600Y-64028000D02*
X157916000Y-65714600D01*
X157916000Y-67156000D02*
X157916000Y-68431100D01*
X157916000Y-68431100D02*
X158214200Y-68729300D01*
X154993000Y-90602000D02*
X156543100Y-90602000D01*
X165600000Y-64028000D02*
X159602600Y-64028000D01*
X158214200Y-68729300D02*
X159008400Y-68729300D01*
X156543100Y-90602000D02*
X157584600Y-90602000D01*
%TO.N,/A10*%
X154993000Y-91595000D02*
X153442900Y-91595000D01*
X154065000Y-67155000D02*
X154065000Y-68430100D01*
X164723800Y-70047100D02*
X164830900Y-69940000D01*
X155377300Y-69949900D02*
X155474500Y-70047100D01*
X153413800Y-87061200D02*
X153977500Y-86497500D01*
X153442900Y-91595000D02*
X153413800Y-91565900D01*
X154065000Y-68430100D02*
X155377300Y-69742400D01*
X155474500Y-70047100D02*
X164723800Y-70047100D01*
X153977500Y-86497500D02*
X155399800Y-86497500D01*
X155377300Y-69742400D02*
X155377300Y-69949900D01*
X153413800Y-91565900D02*
X153413800Y-87061200D01*
X165556000Y-69940000D02*
X164830900Y-69940000D01*
%TO.N,/A11*%
X156772200Y-68830900D02*
X156645000Y-68703700D01*
X156645000Y-65879900D02*
X159330900Y-63194000D01*
X156645000Y-67155000D02*
X156645000Y-65879900D01*
X154996000Y-92587000D02*
X156546100Y-92587000D01*
X156645000Y-68703700D02*
X156645000Y-67155000D01*
X159330900Y-63194000D02*
X165596000Y-63194000D01*
X156546100Y-92587000D02*
X156546100Y-92424800D01*
X156546100Y-92424800D02*
X156827900Y-92143000D01*
%TO.N,/A12*%
X168593300Y-62920200D02*
X168593300Y-68880200D01*
X165579400Y-78790100D02*
X164332600Y-80036900D01*
X161728000Y-80036900D02*
X161728000Y-78745000D01*
X168428100Y-69045400D02*
X168428100Y-69646000D01*
X168428100Y-69646000D02*
X168593300Y-69811200D01*
X156542100Y-93579000D02*
X158333600Y-91787500D01*
X168593300Y-78054900D02*
X167858100Y-78790100D01*
X167858100Y-78790100D02*
X165579400Y-78790100D01*
X168593300Y-69811200D02*
X168593300Y-78054900D01*
X168111100Y-62438000D02*
X168593300Y-62920200D01*
X167386000Y-62438000D02*
X168111100Y-62438000D01*
X164332600Y-80036900D02*
X161728000Y-80036900D01*
X154992000Y-93579000D02*
X156542100Y-93579000D01*
X168593300Y-68880200D02*
X168428100Y-69045400D01*
X158333600Y-91787500D02*
X158333600Y-88882400D01*
X161728000Y-85488000D02*
X161728000Y-80036900D01*
X158333600Y-88882400D02*
X161728000Y-85488000D01*
%TO.N,/P45*%
X180064100Y-120341000D02*
X180064100Y-116242000D01*
X168244900Y-115953300D02*
X164043100Y-111751500D01*
X180064100Y-116242000D02*
X179775400Y-115953300D01*
X178383000Y-121197000D02*
X179208100Y-121197000D01*
X154991000Y-94568000D02*
X157551100Y-94568000D01*
X157551100Y-94568000D02*
X160964200Y-97981100D01*
X179775400Y-115953300D02*
X168244900Y-115953300D01*
X179208100Y-121197000D02*
X180064100Y-120341000D01*
%TO.N,/P46*%
X171797000Y-126554000D02*
X169238200Y-126554000D01*
X149388900Y-120864600D02*
X148620800Y-120864600D01*
X161501500Y-122992800D02*
X161501500Y-123905200D01*
X154991000Y-95564000D02*
X150710600Y-95564000D01*
X161927200Y-122567100D02*
X161501500Y-122992800D01*
X161501500Y-123905200D02*
X161184500Y-124222200D01*
X167478200Y-122567100D02*
X161927200Y-122567100D01*
X152746500Y-124222200D02*
X149388900Y-120864600D01*
X161184500Y-124222200D02*
X152746500Y-124222200D01*
%TO.N,/P47*%
X172196800Y-98802900D02*
X175483900Y-102090000D01*
X176309000Y-102090000D02*
X175483900Y-102090000D01*
X174586000Y-73626900D02*
X174586000Y-84930900D01*
X156942600Y-96595000D02*
X157499000Y-96038600D01*
X174586000Y-84930900D02*
X172196800Y-87320100D01*
X170304800Y-69345700D02*
X174586000Y-73626900D01*
X172196800Y-87320100D02*
X172196800Y-98802900D01*
X154993000Y-96595000D02*
X156942600Y-96595000D01*
X169153200Y-69345700D02*
X170304800Y-69345700D01*
%TO.N,/P51*%
X139494300Y-105766800D02*
X139494300Y-106123000D01*
X139494300Y-106123000D02*
X134275300Y-111342000D01*
X157887900Y-98615000D02*
X154992000Y-98615000D01*
X159604000Y-99391000D02*
X158663900Y-99391000D01*
X124717000Y-111342000D02*
X121475100Y-111342000D01*
X120429000Y-111121000D02*
X121254100Y-111121000D01*
X158663900Y-99391000D02*
X157887900Y-98615000D01*
X154992000Y-98615000D02*
X146646100Y-98615000D01*
X134275300Y-111342000D02*
X124717000Y-111342000D01*
X146646100Y-98615000D02*
X139494300Y-105766800D01*
X121475100Y-111342000D02*
X121254100Y-111121000D01*
%TO.N,/P52*%
X139052100Y-134063000D02*
X139592600Y-134603500D01*
X140293100Y-134603500D02*
X141866600Y-136177000D01*
X138112000Y-134063000D02*
X139052100Y-134063000D01*
X139592600Y-134603500D02*
X140293100Y-134603500D01*
X139944500Y-105953200D02*
X139944500Y-106389400D01*
X139944500Y-106389400D02*
X139723300Y-106610600D01*
X141866600Y-136177000D02*
X144151000Y-136177000D01*
X139723300Y-106610600D02*
X139723300Y-109545400D01*
X146286700Y-99611000D02*
X139944500Y-105953200D01*
X139723300Y-109545400D02*
X140293100Y-110115200D01*
X154989000Y-99611000D02*
X146286700Y-99611000D01*
%TO.N,/OE*%
X155376000Y-67151000D02*
X155376000Y-68426100D01*
X155376000Y-68579600D02*
X155481700Y-68685300D01*
X153439900Y-101638000D02*
X153439900Y-101546500D01*
X155481700Y-68685300D02*
X156393400Y-69597000D01*
X155481700Y-68685300D02*
X155421900Y-68745100D01*
X155376000Y-68426100D02*
X155376000Y-68579600D01*
X164335900Y-69597000D02*
X164826900Y-69106000D01*
X165552000Y-69106000D02*
X164826900Y-69106000D01*
X154990000Y-101638000D02*
X153439900Y-101638000D01*
X153439900Y-101546500D02*
X153145100Y-101251700D01*
X156393400Y-69597000D02*
X164335900Y-69597000D01*
%TO.N,/P60*%
X178920200Y-103966700D02*
X178920200Y-105063300D01*
X178110000Y-105873500D02*
X170066500Y-105873500D01*
X161786500Y-107406500D02*
X161774500Y-107406500D01*
X165773300Y-110166700D02*
X163682400Y-110166700D01*
X161774500Y-107406500D02*
X161740000Y-107441000D01*
X161747000Y-107446000D02*
X161786500Y-107406500D01*
X161786500Y-107406500D02*
X161826000Y-107367000D01*
X178218000Y-103002000D02*
X178218000Y-103702100D01*
X178920200Y-105063300D02*
X178110000Y-105873500D01*
X161826000Y-106940300D02*
X161454900Y-106569100D01*
X178218000Y-103702100D02*
X178655600Y-103702100D01*
X159530700Y-104645000D02*
X156538100Y-104645000D01*
X161826000Y-107367000D02*
X161826000Y-106940300D01*
X178655600Y-103702100D02*
X178920200Y-103966700D01*
X161454900Y-106569100D02*
X159530700Y-104645000D01*
X161454900Y-106569100D02*
X161684600Y-106339400D01*
X170066500Y-105873500D02*
X165773300Y-110166700D01*
X154988000Y-104645000D02*
X156538100Y-104645000D01*
%TO.N,/P61*%
X172582000Y-132040100D02*
X172843400Y-132040100D01*
X176610000Y-133421500D02*
X176591000Y-133402500D01*
X172582000Y-131100000D02*
X172582000Y-132040100D01*
X172843400Y-132040100D02*
X173777900Y-132974600D01*
X172562000Y-131000500D02*
X172582000Y-131020500D01*
X180521000Y-111868100D02*
X178417500Y-109764600D01*
X174603000Y-133364000D02*
X175763900Y-133364000D01*
X160065100Y-106211300D02*
X157107400Y-106211300D01*
X178417500Y-109764600D02*
X167037200Y-109764600D01*
X172542000Y-131020000D02*
X172562000Y-131000500D01*
X157107400Y-106211300D02*
X156539100Y-105643000D01*
X176610000Y-133421500D02*
X176630000Y-133441000D01*
X176591000Y-133402500D02*
X176591000Y-133362000D01*
X175763900Y-133364000D02*
X175765900Y-133362000D01*
X176591000Y-133362000D02*
X175765900Y-133362000D01*
X172582000Y-131020500D02*
X172582000Y-131100000D01*
X154989000Y-105643000D02*
X156539100Y-105643000D01*
X174603000Y-133364000D02*
X173777900Y-133364000D01*
X167037200Y-109764600D02*
X165792100Y-111009700D01*
X177416100Y-133362000D02*
X180521000Y-130257100D01*
X173777900Y-132974600D02*
X173777900Y-133364000D01*
X180521000Y-130257100D02*
X180521000Y-111868100D01*
X163274600Y-111009700D02*
X163192700Y-111091600D01*
X165792100Y-111009700D02*
X163274600Y-111009700D01*
X176591000Y-133362000D02*
X177416100Y-133362000D01*
X176590000Y-133402000D02*
X176610000Y-133421500D01*
X172562000Y-131000500D02*
X172582000Y-130981000D01*
%TO.N,/D0*%
X150294000Y-78742000D02*
X150294000Y-80017100D01*
X145437000Y-106437900D02*
X145895100Y-106437900D01*
X150275900Y-80017100D02*
X149061600Y-81231400D01*
X145895100Y-106437900D02*
X149061600Y-103271400D01*
X150294000Y-80017100D02*
X150275900Y-80017100D01*
X145437000Y-107988000D02*
X145437000Y-106437900D01*
%TO.N,/D1*%
X149025000Y-78744000D02*
X149025000Y-80019100D01*
X149025000Y-80098000D02*
X149025000Y-80019100D01*
X144440000Y-107983000D02*
X144440000Y-105553900D01*
X144440000Y-105553900D02*
X147287800Y-102706100D01*
X147224300Y-81898700D02*
X149025000Y-80098000D01*
%TO.N,/D2*%
X143448000Y-107983000D02*
X143448000Y-106432900D01*
X143714300Y-106166600D02*
X143714300Y-106118700D01*
X147753000Y-78745000D02*
X147753000Y-80297200D01*
X143448000Y-106432900D02*
X143714300Y-106166600D01*
X147753000Y-80297200D02*
X147228400Y-80821800D01*
%TO.N,/D3*%
X142456000Y-106432900D02*
X142523300Y-106365600D01*
X146484000Y-67157000D02*
X146484000Y-68432100D01*
X146484000Y-68432100D02*
X145982500Y-68432100D01*
X142456000Y-107983000D02*
X142456000Y-106432900D01*
X142523300Y-106365600D02*
X142523300Y-105832600D01*
X145982500Y-68432100D02*
X145742700Y-68671900D01*
X142523300Y-105832600D02*
X145821900Y-102534000D01*
%TO.N,/D4*%
X141468000Y-107980000D02*
X141468000Y-106091700D01*
X147757000Y-67154000D02*
X147757000Y-68566100D01*
X141468000Y-106091700D02*
X141798200Y-105761500D01*
X147757000Y-68566100D02*
X147605300Y-68717800D01*
%TO.N,/D5*%
X144362800Y-102171500D02*
X144786800Y-102171500D01*
X140432000Y-107983000D02*
X140432000Y-106432900D01*
X149027000Y-68431100D02*
X147978500Y-69479600D01*
X140432000Y-106102300D02*
X144362800Y-102171500D01*
X147978500Y-69479600D02*
X144596700Y-69479600D01*
X149027000Y-67156000D02*
X149027000Y-68431100D01*
X140432000Y-106432900D02*
X140432000Y-106102300D01*
%TO.N,/IC5.O8*%
X122176600Y-94071000D02*
X121468000Y-94071000D01*
X123963600Y-95858000D02*
X122176600Y-94071000D01*
X126626000Y-95858000D02*
X123963600Y-95858000D01*
%TO.N,/IC5.O7*%
X126626000Y-95225000D02*
X123967300Y-95225000D01*
X121819300Y-93077000D02*
X119482000Y-93077000D01*
X123967300Y-95225000D02*
X121819300Y-93077000D01*
%TO.N,/IC5.O6*%
X126624000Y-94550000D02*
X123929000Y-94550000D01*
X123929000Y-94550000D02*
X121463000Y-92084000D01*
%TO.N,/IC5.O5*%
X121818300Y-91094000D02*
X119482000Y-91094000D01*
X124642300Y-93918000D02*
X121818300Y-91094000D01*
X126625000Y-93918000D02*
X124642300Y-93918000D01*
%TO.N,/IC5.O4*%
X124641000Y-93280000D02*
X121465000Y-90104000D01*
X126626000Y-93280000D02*
X124641000Y-93280000D01*
%TO.N,/IC5.O3*%
X121796300Y-89067000D02*
X119478000Y-89067000D01*
X126626000Y-92645000D02*
X125300900Y-92645000D01*
X125300900Y-92645000D02*
X125300900Y-92571600D01*
X125300900Y-92571600D02*
X121796300Y-89067000D01*
%TO.N,/IC5.O2*%
X121465000Y-88099000D02*
X121465000Y-88038000D01*
X126628000Y-91973000D02*
X125339000Y-91973000D01*
X125339000Y-91973000D02*
X121465000Y-88099000D01*
%TO.N,/IC5.O1*%
X125300900Y-90466800D02*
X121878100Y-87044000D01*
X125300900Y-91295000D02*
X125300900Y-90466800D01*
X126626000Y-91295000D02*
X125300900Y-91295000D01*
X121878100Y-87044000D02*
X119484000Y-87044000D01*
%TO.N,/IC6.O8*%
X126614500Y-103196500D02*
X122531500Y-103196500D01*
X122531500Y-103196500D02*
X121464000Y-102129000D01*
%TO.N,/IC6.O7*%
X126614500Y-102563500D02*
X123286800Y-102563500D01*
X121819300Y-101096000D02*
X119485000Y-101096000D01*
X123286800Y-102563500D02*
X121819300Y-101096000D01*
%TO.N,/IC6.O6*%
X123248500Y-101888500D02*
X121466000Y-100106000D01*
X126612500Y-101888500D02*
X123248500Y-101888500D01*
%TO.N,/IC6.O5*%
X121863300Y-99109000D02*
X119483000Y-99109000D01*
X126613500Y-101256500D02*
X124010800Y-101256500D01*
X124010800Y-101256500D02*
X121863300Y-99109000D01*
%TO.N,/IC6.O4*%
X124009500Y-100618500D02*
X121470000Y-98079000D01*
X126614500Y-100618500D02*
X124009500Y-100618500D01*
%TO.N,/IC6.O3*%
X119483000Y-97088000D02*
X121895000Y-97088000D01*
X124790500Y-99983500D02*
X126614500Y-99983500D01*
X121895000Y-97088000D02*
X124790500Y-99983500D01*
%TO.N,/IC6.O2*%
X121977800Y-96054000D02*
X121466000Y-96054000D01*
X125235300Y-99311500D02*
X121977800Y-96054000D01*
X126616500Y-99311500D02*
X125235300Y-99311500D01*
%TO.N,/IC6.O1*%
X125289400Y-98502200D02*
X121890200Y-95103000D01*
X126614500Y-98633500D02*
X125289400Y-98633500D01*
X125289400Y-98633500D02*
X125289400Y-98502200D01*
X121890200Y-95103000D02*
X119481000Y-95103000D01*
D41*
%TO.N,/Off.GND*%
X133885000Y-82720500D02*
X136566600Y-85402100D01*
X168804000Y-99458000D02*
X168804000Y-105208100D01*
X168804000Y-105208100D02*
X165637100Y-108375000D01*
X165637100Y-108375000D02*
X165036500Y-108375000D01*
X133885000Y-81530500D02*
X133885000Y-82720500D01*
%TO.N,/9V-*%
X176506000Y-63240000D02*
X175991000Y-63755000D01*
X178564000Y-63240000D02*
X176506000Y-63240000D01*
%TO.N,/9V.F1*%
X153601500Y-141341000D02*
X154826600Y-141341000D01*
X154826600Y-141341000D02*
X154826600Y-142566100D01*
X159155200Y-142983800D02*
X164250000Y-137889000D01*
X154826600Y-142566100D02*
X155244300Y-142983800D01*
X155244300Y-142983800D02*
X159155200Y-142983800D01*
%TO.N,/9V.Prefuse*%
X166272000Y-137889000D02*
X167216500Y-137889000D01*
X172582000Y-133362000D02*
X171606900Y-133362000D01*
X171606900Y-133498600D02*
X171606900Y-133362000D01*
X167216500Y-137889000D02*
X171606900Y-133498600D01*
X169427900Y-131183000D02*
X171606900Y-133362000D01*
X168567000Y-131183000D02*
X169427900Y-131183000D01*
D40*
%TO.N,/CN1.P2*%
X133843000Y-124648000D02*
X133843000Y-126223100D01*
X128828000Y-125336000D02*
X131091100Y-123072900D01*
X128825000Y-127752000D02*
X128825000Y-125339000D01*
X133840000Y-126226100D02*
X133843000Y-126223100D01*
X133843000Y-124648000D02*
X133843000Y-123072900D01*
X128825000Y-125339000D02*
X128828000Y-125336000D01*
X129871200Y-130373300D02*
X129871200Y-132255200D01*
X122346300Y-121358700D02*
X124708000Y-118997000D01*
X128825000Y-129327100D02*
X129871200Y-130373300D01*
X129871200Y-132255200D02*
X127244300Y-134882100D01*
X133840000Y-127064000D02*
X133840000Y-126226100D01*
X131091100Y-123072900D02*
X133843000Y-123072900D01*
X123593000Y-134882100D02*
X122346300Y-133635400D01*
X128825000Y-127752000D02*
X128825000Y-129327100D01*
X127244300Y-134882100D02*
X123593000Y-134882100D01*
X122346300Y-133635400D02*
X122346300Y-121358700D01*
%TO.N,/Route8*%
X142013000Y-125180000D02*
X142142000Y-125051000D01*
X143760000Y-125051000D02*
X142934900Y-125051000D01*
X142142000Y-125051000D02*
X142142000Y-123510100D01*
X142142000Y-125051000D02*
X142934900Y-125051000D01*
X145757000Y-125051000D02*
X143760000Y-125051000D01*
X141478000Y-125180000D02*
X142013000Y-125180000D01*
X142142000Y-123510100D02*
X140717000Y-122085100D01*
X140717000Y-121260000D02*
X140717000Y-122085100D01*
%TO.N,/Route10*%
X138568000Y-125295100D02*
X135360700Y-122087800D01*
X143760000Y-127313000D02*
X142934900Y-127313000D01*
X140984000Y-126653000D02*
X139408900Y-126653000D01*
X142559100Y-126653000D02*
X142559100Y-126937200D01*
X138568000Y-126650000D02*
X139405900Y-126650000D01*
X140984000Y-126653000D02*
X142559100Y-126653000D01*
X138568000Y-126650000D02*
X138568000Y-125295100D01*
X142559100Y-126937200D02*
X142934900Y-127313000D01*
X135360700Y-122087800D02*
X135360700Y-119602400D01*
X139405900Y-126650000D02*
X139408900Y-126653000D01*
%TO.N,/Route21*%
X170156000Y-77917000D02*
X170156000Y-78742100D01*
X169508600Y-79754500D02*
X169319100Y-79944000D01*
X170997500Y-76830600D02*
X170417300Y-76830600D01*
X169508500Y-79754500D02*
X169508500Y-79389600D01*
X170417300Y-76830600D02*
X170156000Y-77091900D01*
X169508500Y-79389600D02*
X170156000Y-78742100D01*
X168379000Y-79944000D02*
X169319100Y-79944000D01*
X170166000Y-79942000D02*
X169696000Y-79942000D01*
X169508600Y-79754500D02*
X169508500Y-79754500D01*
X169696000Y-79942000D02*
X169508600Y-79754500D01*
X170997500Y-75890500D02*
X170997500Y-76830600D01*
X170156000Y-77917000D02*
X170156000Y-77091900D01*
%TO.N,/Route22*%
X172428000Y-79942000D02*
X172428000Y-79116900D01*
X171451100Y-77259300D02*
X171451100Y-78552600D01*
X171954500Y-76755900D02*
X171451100Y-77259300D01*
X172015400Y-79116900D02*
X172428000Y-79116900D01*
X172233400Y-73428500D02*
X172235400Y-73426500D01*
X172426000Y-80769100D02*
X172428000Y-80767100D01*
X171451100Y-78552600D02*
X172015400Y-79116900D01*
X166117000Y-79944000D02*
X166117000Y-80769100D01*
X171954500Y-73428500D02*
X172233400Y-73428500D01*
X171954500Y-73428500D02*
X171954500Y-76755900D01*
X172985500Y-73426500D02*
X172235400Y-73426500D01*
X172428000Y-79942000D02*
X172428000Y-80767100D01*
X166117000Y-80769100D02*
X172426000Y-80769100D01*
%TO.N,/LED.Cathode*%
X177464800Y-85023300D02*
X173847100Y-88641000D01*
X173022000Y-88641000D02*
X173847100Y-88641000D01*
X177622700Y-85023300D02*
X177464800Y-85023300D01*
%TO.N,/Route9*%
X145757000Y-127313000D02*
X147753000Y-127313000D01*
%TO.N,/LED.Anode*%
X143158000Y-114564000D02*
X145322000Y-116728000D01*
X121466000Y-86052700D02*
X120475200Y-86052700D01*
X147753000Y-123825300D02*
X147753000Y-125051000D01*
X120475200Y-86052700D02*
X119483000Y-85060500D01*
X135321000Y-114564000D02*
X143158000Y-114564000D01*
X147094200Y-123166500D02*
X147753000Y-123825300D01*
%TO.N,/Route4*%
X160391000Y-119514000D02*
X160391000Y-120339100D01*
X158269000Y-120590900D02*
X160139200Y-120590900D01*
X160139200Y-120590900D02*
X160391000Y-120339100D01*
X158269000Y-121416000D02*
X158269000Y-120590900D01*
%TO.N,/Route5*%
X156016000Y-120581900D02*
X156016000Y-119430000D01*
X156007000Y-121416000D02*
X156007000Y-120590900D01*
X156007000Y-120590900D02*
X156016000Y-120581900D01*
%TO.N,/CN1.P3*%
X145619600Y-112152900D02*
X128949800Y-112152900D01*
X150641000Y-117174300D02*
X145619600Y-112152900D01*
X161612600Y-108291200D02*
X152729500Y-117174300D01*
X152729500Y-117174300D02*
X150641000Y-117174300D01*
X124714000Y-116388700D02*
X124714000Y-116460000D01*
X162547400Y-108291200D02*
X161612600Y-108291200D01*
X128949800Y-112152900D02*
X124714000Y-116388700D01*
X163611000Y-107227600D02*
X162547400Y-108291200D01*
X163611000Y-106298000D02*
X163611000Y-107227600D01*
D41*
%TO.N,/9V.Postfuse*%
X163568900Y-86171000D02*
X160739900Y-89000000D01*
X170531900Y-83863800D02*
X172287800Y-83863800D01*
X170160200Y-83121800D02*
X170160200Y-83492100D01*
X164588000Y-86171000D02*
X164659000Y-86171000D01*
X161602100Y-94835100D02*
X161272400Y-95164800D01*
X161715000Y-93745000D02*
X161715000Y-94835100D01*
X161715000Y-93745000D02*
X160739900Y-93745000D01*
X172287800Y-83863800D02*
X173535200Y-82616400D01*
X169941200Y-82902800D02*
X170160200Y-83121800D01*
X166092100Y-85012200D02*
X166092100Y-83329300D01*
X170160200Y-83492100D02*
X170531900Y-83863800D01*
X173535200Y-82616400D02*
X173535200Y-79034200D01*
X173535200Y-79034200D02*
X172418000Y-77917000D01*
X165749100Y-86171000D02*
X165749100Y-85355200D01*
X164588000Y-86171000D02*
X163568900Y-86171000D01*
X166329000Y-83092400D02*
X167257400Y-83092400D01*
X149805000Y-133578000D02*
X151182200Y-134955200D01*
X167447000Y-82902800D02*
X169941200Y-82902800D01*
X159055000Y-129001000D02*
X162697000Y-125359000D01*
X151182200Y-134955200D02*
X156606600Y-134955200D01*
X156606600Y-134955200D02*
X158081200Y-133480600D01*
X158081200Y-133480600D02*
X158081200Y-129974800D01*
X165749100Y-85355200D02*
X166092100Y-85012200D01*
X158081200Y-129974800D02*
X159055000Y-129001000D01*
X162697000Y-125359000D02*
X162697000Y-123397000D01*
X160739900Y-89000000D02*
X160739900Y-93745000D01*
X166092100Y-83329300D02*
X166329000Y-83092400D01*
X161715000Y-94835100D02*
X161602100Y-94835100D01*
D40*
X144284500Y-131258500D02*
X144245000Y-131219000D01*
X144324000Y-131298000D02*
X144284500Y-131258500D01*
D41*
X144325500Y-131258500D02*
X144366000Y-131299000D01*
X144284500Y-131258500D02*
X144325500Y-131258500D01*
X167257400Y-83092400D02*
X167447000Y-82902800D01*
X164659000Y-86171000D02*
X165749100Y-86171000D01*
D40*
%TO.N,/Route2*%
X160435000Y-123397000D02*
X159494900Y-123397000D01*
X158560500Y-123006600D02*
X159104500Y-123006600D01*
X160420000Y-122556900D02*
X160435000Y-122571900D01*
X160435000Y-123397000D02*
X160435000Y-122571900D01*
X160420000Y-121494000D02*
X160420000Y-122556900D01*
X159104500Y-123006600D02*
X159494900Y-123397000D01*
%TO.N,/Route3*%
X162682000Y-121494000D02*
X162682000Y-120668900D01*
X162682000Y-120668900D02*
X162653000Y-120639900D01*
X162653000Y-120639900D02*
X162653000Y-119514000D01*
%TO.N,/Link.P5*%
X175417800Y-122941500D02*
X177040400Y-122941500D01*
X178383000Y-123459000D02*
X177557900Y-123459000D01*
X177040400Y-122941500D02*
X177557900Y-123459000D01*
%TO.N,/Link.P3*%
X172888300Y-128549800D02*
X172622100Y-128816000D01*
X171797000Y-128816000D02*
X172622100Y-128816000D01*
X172888300Y-127440000D02*
X172888300Y-128549800D01*
%TO.N,/Link.P2*%
X176309000Y-104352000D02*
X175483900Y-104352000D01*
X174869600Y-104966300D02*
X175483900Y-104352000D01*
X174303100Y-104966300D02*
X174869600Y-104966300D01*
%TO.N,/Resistor.Bus*%
X167476200Y-73669000D02*
X167476200Y-74502000D01*
X167614400Y-69107000D02*
X167978000Y-69470600D01*
X167704600Y-69939000D02*
X168067100Y-69939000D01*
X167564300Y-77363000D02*
X167745600Y-77363000D01*
X167564300Y-77363000D02*
X167383000Y-77544300D01*
X167392600Y-68299400D02*
X167342000Y-68350000D01*
X167382000Y-76531000D02*
X167745600Y-76531000D01*
X167386000Y-64846900D02*
X167386000Y-64027000D01*
X167386000Y-64027000D02*
X168111100Y-64027000D01*
X167399100Y-64860000D02*
X167386000Y-64846900D01*
X166323100Y-62858200D02*
X166323100Y-62441000D01*
X167342000Y-69939000D02*
X167704600Y-69939000D01*
X167522300Y-69107000D02*
X167614400Y-69107000D01*
X167476700Y-75774000D02*
X167745600Y-75774000D01*
X167386000Y-74502000D02*
X167476200Y-74502000D01*
X168067100Y-69921600D02*
X168067100Y-69939000D01*
X167386000Y-73669000D02*
X167476200Y-73669000D01*
X167476200Y-73669000D02*
X167566300Y-73669000D01*
X167385000Y-63195000D02*
X168110100Y-63195000D01*
X167342000Y-69017300D02*
X167342000Y-68350000D01*
X167385000Y-72837000D02*
X167476400Y-72837000D01*
X168111100Y-64027000D02*
X168111100Y-63196000D01*
X168067100Y-70301500D02*
X168067100Y-70772000D01*
X167704600Y-69939000D02*
X168067100Y-70301500D01*
X167476700Y-74502000D02*
X167476700Y-75774000D01*
X167476400Y-72837000D02*
X167566300Y-72837000D01*
X167392600Y-64860000D02*
X167399100Y-64860000D01*
X167342000Y-70772000D02*
X167566800Y-70772000D01*
X167978000Y-69832500D02*
X168067100Y-69921600D01*
X167566300Y-72837000D02*
X167566300Y-73669000D01*
X167383000Y-77363000D02*
X167564300Y-77363000D01*
X167566800Y-72080000D02*
X167566800Y-70772000D01*
X167745600Y-76531000D02*
X168107100Y-76531000D01*
X167383000Y-77544300D02*
X167383000Y-78196000D01*
X166659900Y-63195000D02*
X166323100Y-62858200D01*
X167745600Y-77363000D02*
X167745600Y-76531000D01*
X167431700Y-69107000D02*
X167522300Y-69107000D01*
X167386000Y-64860000D02*
X167392600Y-64860000D01*
X167476200Y-74502000D02*
X167476700Y-74502000D01*
X167386000Y-72080000D02*
X167476400Y-72080000D01*
X167476400Y-72080000D02*
X167566800Y-72080000D01*
X165598000Y-62441000D02*
X166323100Y-62441000D01*
X167476400Y-72080000D02*
X167476400Y-72837000D01*
X167566800Y-70772000D02*
X168067100Y-70772000D01*
X167383000Y-75774000D02*
X167476700Y-75774000D01*
X168107100Y-76135500D02*
X168107100Y-76531000D01*
X167341000Y-69107000D02*
X167431700Y-69107000D01*
X167745600Y-75774000D02*
X168107100Y-76135500D01*
X168111100Y-63196000D02*
X168110100Y-63195000D01*
X167431700Y-69107000D02*
X167342000Y-69017300D01*
X167385000Y-63195000D02*
X166659900Y-63195000D01*
X167978000Y-69470600D02*
X167978000Y-69832500D01*
X167392600Y-64860000D02*
X167392600Y-68299400D01*
%TO.N,/Route1*%
X156556000Y-130823900D02*
X156556000Y-128999000D01*
X156556000Y-128999000D02*
X149329000Y-121772000D01*
X149329000Y-121772000D02*
X145320000Y-121772000D01*
X155475000Y-131904900D02*
X156556000Y-130823900D01*
X155475000Y-133355000D02*
X155475000Y-131904900D01*
D41*
%TO.N,/9V+*%
X156192500Y-141341000D02*
X154579400Y-139727900D01*
X154579400Y-139727900D02*
X151527800Y-139727900D01*
X151089600Y-140166100D02*
X140559100Y-140166100D01*
X136617000Y-139319000D02*
X138680000Y-139319000D01*
X140559100Y-140166100D02*
X139196000Y-138803000D01*
X151527800Y-139727900D02*
X151089600Y-140166100D01*
X138680000Y-139319000D02*
X139196000Y-138803000D01*
%TD*%
M02*
