%TF.GenerationSoftware,KiCad,Pcbnew,(6.0.2)*%
%TF.CreationDate,2022-09-25T18:27:00-05:00*%
%TF.ProjectId,IF-GBP-02,49462d47-4250-42d3-9032-2e6b69636164,rev?*%
%TF.SameCoordinates,Original*%
%TF.FileFunction,Copper,L2,Bot*%
%TF.FilePolarity,Positive*%
%FSLAX46Y46*%
G04 Gerber Fmt 4.6, Leading zero omitted, Abs format (unit mm)*
G04 Created by KiCad (PCBNEW (6.0.2)) date 2022-09-25 18:27:00*
%MOMM*%
%LPD*%
G01*
G04 APERTURE LIST*
G04 Aperture macros list*
%AMRoundRect*
0 Rectangle with rounded corners*
0 $1 Rounding radius*
0 $2 $3 $4 $5 $6 $7 $8 $9 X,Y pos of 4 corners*
0 Add a 4 corners polygon primitive as box body*
4,1,4,$2,$3,$4,$5,$6,$7,$8,$9,$2,$3,0*
0 Add four circle primitives for the rounded corners*
1,1,$1+$1,$2,$3*
1,1,$1+$1,$4,$5*
1,1,$1+$1,$6,$7*
1,1,$1+$1,$8,$9*
0 Add four rect primitives between the rounded corners*
20,1,$1+$1,$2,$3,$4,$5,0*
20,1,$1+$1,$4,$5,$6,$7,0*
20,1,$1+$1,$6,$7,$8,$9,0*
20,1,$1+$1,$8,$9,$2,$3,0*%
G04 Aperture macros list end*
%TA.AperFunction,ComponentPad*%
%ADD10RoundRect,0.575000X-0.575000X-2.650000X0.575000X-2.650000X0.575000X2.650000X-0.575000X2.650000X0*%
%TD*%
%TA.AperFunction,ComponentPad*%
%ADD11RoundRect,0.425000X-0.425000X-1.700000X0.425000X-1.700000X0.425000X1.700000X-0.425000X1.700000X0*%
%TD*%
%TA.AperFunction,ComponentPad*%
%ADD12C,2.100000*%
%TD*%
%TA.AperFunction,ComponentPad*%
%ADD13C,1.500000*%
%TD*%
%TA.AperFunction,ComponentPad*%
%ADD14C,2.250000*%
%TD*%
%TA.AperFunction,ComponentPad*%
%ADD15C,2.200000*%
%TD*%
%TA.AperFunction,ComponentPad*%
%ADD16C,2.000000*%
%TD*%
%TA.AperFunction,ComponentPad*%
%ADD17C,1.250000*%
%TD*%
%TA.AperFunction,ComponentPad*%
%ADD18R,4.000000X2.500000*%
%TD*%
%TA.AperFunction,ViaPad*%
%ADD19C,0.800000*%
%TD*%
%TA.AperFunction,Conductor*%
%ADD20C,0.250000*%
%TD*%
%TA.AperFunction,Conductor*%
%ADD21C,0.550000*%
%TD*%
G04 APERTURE END LIST*
D10*
%TO.P,J2,1,Pin_1*%
%TO.N,/9V+*%
X162465000Y-138803000D03*
D11*
X165044000Y-139319000D03*
%TO.P,J2,2,Pin_2*%
%TO.N,/9V-*%
X125670000Y-63755000D03*
D10*
X123097000Y-63240000D03*
%TD*%
D12*
%TO.P,L1,1,1*%
%TO.N,/LED.Anode*%
X156339000Y-116728000D03*
%TO.P,L1,2,2*%
%TO.N,/Route1*%
X156341000Y-121772000D03*
%TD*%
D13*
%TO.P,SW2,1,A*%
%TO.N,/Off.GND*%
X139395000Y-135468000D03*
%TO.P,SW2,2,B*%
%TO.N,/GND*%
X137412000Y-135470000D03*
%TO.P,SW2,3,C*%
%TO.N,/9V-*%
X135389000Y-135469100D03*
%TO.P,SW2,4,A*%
%TO.N,unconnected-(SW2-Pad4)*%
X139397000Y-137889000D03*
%TO.P,SW2,5,B*%
%TO.N,/9V.F1*%
X137411000Y-137889000D03*
%TO.P,SW2,6,C*%
%TO.N,/9V.Prefuse*%
X135389000Y-137889000D03*
D14*
%TO.P,SW2,7,Case_GND*%
%TO.N,/GND*%
X141976000Y-133921000D03*
X141977100Y-139473000D03*
%TO.P,SW2,8,Case_GND*%
X132768000Y-139440000D03*
X132768000Y-133879000D03*
%TD*%
D12*
%TO.P,F2,1*%
%TO.N,/9V.Postfuse*%
X157295000Y-131299000D03*
%TO.P,F2,2*%
%TO.N,/9V.Prefuse*%
X133094000Y-131183000D03*
%TD*%
%TO.P,C2,1*%
%TO.N,/LED.Anode*%
X166340000Y-114564000D03*
%TO.P,C2,2*%
%TO.N,/GND*%
X166300300Y-119602400D03*
%TD*%
D15*
%TO.P,CN1,1,Pin_1*%
%TO.N,/VCC*%
X176950000Y-121545000D03*
%TO.P,CN1,2,Pin_2*%
%TO.N,/CN1.P2*%
X176953000Y-118997000D03*
%TO.P,CN1,3,Pin_3*%
%TO.N,/CN1.P3*%
X176947000Y-116460000D03*
%TO.P,CN1,4,Pin_4*%
%TO.N,/GND*%
X176949000Y-113921000D03*
%TO.P,CN1,5,Pin_5*%
%TO.N,/P51*%
X176944000Y-111342000D03*
%TO.P,CN1,6,Pin_6*%
%TO.N,/GND*%
X176946000Y-108795000D03*
%TD*%
D12*
%TO.P,Q1,1,B*%
%TO.N,/Route2*%
X147562000Y-128995000D03*
%TO.P,Q1,2,C*%
%TO.N,/Route1*%
X145105000Y-128999000D03*
%TO.P,Q1,3,E*%
%TO.N,/9V.Postfuse*%
X142606000Y-129001000D03*
%TD*%
%TO.P,C3,1*%
%TO.N,/VCC*%
X149478000Y-115776000D03*
%TO.P,C3,2*%
%TO.N,/GND*%
X149641000Y-120770000D03*
%TD*%
%TO.P,SW1,1,1*%
%TO.N,/Button*%
X173175000Y-140083000D03*
%TO.P,SW1,2,2*%
X173177000Y-131552000D03*
%TO.P,SW1,3,K*%
%TO.N,/GND*%
X168688000Y-140043000D03*
%TO.P,SW1,4,A*%
%TO.N,unconnected-(SW1-Pad4)*%
X168613000Y-131513000D03*
%TD*%
%TO.P,L2,1,1*%
%TO.N,/LED.Anode*%
X172058000Y-109511000D03*
%TO.P,L2,2,2*%
%TO.N,/VCC*%
X172103000Y-113558000D03*
%TD*%
D16*
%TO.P,LED1,1,K*%
%TO.N,/LED.Cathode*%
X124038300Y-85023300D03*
%TO.P,LED1,2,A*%
%TO.N,/LED.Anode*%
X124074000Y-90026000D03*
%TD*%
D12*
%TO.P,C1,1*%
%TO.N,/9V.Postfuse*%
X151856000Y-133578000D03*
%TO.P,C1,2*%
%TO.N,/GND*%
X151897700Y-138611300D03*
%TD*%
D17*
%TO.P,CN2,1,Pin_1*%
%TO.N,/LED.Anode*%
X182178000Y-85060500D03*
%TO.P,CN2,2,Pin_2*%
X180195000Y-86052700D03*
%TO.P,CN2,3,Pin_3*%
%TO.N,/IC5.O1*%
X182177000Y-87044000D03*
%TO.P,CN2,4,Pin_4*%
%TO.N,/IC5.O2*%
X180196000Y-88038000D03*
%TO.P,CN2,5,Pin_5*%
%TO.N,/IC5.O3*%
X182183000Y-89067000D03*
%TO.P,CN2,6,Pin_6*%
%TO.N,/IC5.O4*%
X180196000Y-90104000D03*
%TO.P,CN2,7,Pin_7*%
%TO.N,/IC5.O5*%
X182179000Y-91094000D03*
%TO.P,CN2,8,Pin_8*%
%TO.N,/IC5.O6*%
X180198000Y-92084000D03*
%TO.P,CN2,9,Pin_9*%
%TO.N,/IC5.O7*%
X182179000Y-93077000D03*
%TO.P,CN2,10,Pin_10*%
%TO.N,/IC5.O8*%
X180193000Y-94071000D03*
%TO.P,CN2,11,Pin_11*%
%TO.N,/IC6.O1*%
X182180000Y-95103000D03*
%TO.P,CN2,12,Pin_12*%
%TO.N,/IC6.O2*%
X180195000Y-96054000D03*
%TO.P,CN2,13,Pin_13*%
%TO.N,/IC6.O3*%
X182178000Y-97088000D03*
%TO.P,CN2,14,Pin_14*%
%TO.N,/IC6.O4*%
X180191000Y-98079000D03*
%TO.P,CN2,15,Pin_15*%
%TO.N,/IC6.O5*%
X182178000Y-99109000D03*
%TO.P,CN2,16,Pin_16*%
%TO.N,/IC6.O6*%
X180195000Y-100106000D03*
%TO.P,CN2,17,Pin_17*%
%TO.N,/IC6.O7*%
X182176000Y-101096000D03*
%TO.P,CN2,18,Pin_18*%
%TO.N,/IC6.O8*%
X180197000Y-102129000D03*
%TD*%
D13*
%TO.P,CN3,1,Pin_1*%
%TO.N,unconnected-(CN3-Pad1)*%
X125709000Y-110864000D03*
%TO.P,CN3,2,Pin_2*%
%TO.N,/Link.P2*%
X123688000Y-110860000D03*
%TO.P,CN3,3,Pin_3*%
%TO.N,/Link.P3*%
X125708000Y-112887000D03*
%TO.P,CN3,4,Pin_4*%
%TO.N,unconnected-(CN3-Pad4)*%
X123680000Y-112887000D03*
%TO.P,CN3,5,Pin_5*%
%TO.N,/Link.P5*%
X125706000Y-114869000D03*
%TO.P,CN3,6,Pin_6*%
%TO.N,/GND*%
X123685000Y-114874000D03*
D18*
%TO.P,CN3,7,GND*%
X123922000Y-108030000D03*
%TO.P,CN3,8,GND*%
X123922000Y-117696000D03*
%TD*%
D19*
%TO.N,/9V.Postfuse*%
X140894400Y-97566100D03*
X137774300Y-87301500D03*
X127948600Y-77320400D03*
%TO.N,/Route23*%
X131898000Y-94044100D03*
X134769700Y-94044100D03*
%TO.N,/Route20*%
X128182400Y-78852800D03*
X130214300Y-87127600D03*
%TO.N,/CN1.P3*%
X150105800Y-117510900D03*
%TO.N,/CN1.P2*%
X172501400Y-121238900D03*
%TO.N,/Off.GND*%
X131198900Y-104297000D03*
X166155700Y-88879500D03*
%TO.N,/D5*%
X159831700Y-89085800D03*
X152634000Y-73757800D03*
%TO.N,/D3*%
X159205000Y-90067100D03*
X155177000Y-70001400D03*
%TO.N,/D2*%
X158213000Y-88087700D03*
X153908000Y-82253500D03*
%TO.N,/D1*%
X157221000Y-89465700D03*
X152636000Y-81514800D03*
%TO.N,/D0*%
X156183500Y-90274800D03*
X151976000Y-80404400D03*
%TO.N,/P61*%
X141242800Y-109301300D03*
X133466800Y-120290500D03*
%TO.N,/P60*%
X126334600Y-103347700D03*
X135456700Y-102136600D03*
%TO.N,/OE*%
X145416700Y-69530700D03*
X147716500Y-84388900D03*
%TO.N,/P52*%
X144841500Y-102764800D03*
X158325100Y-134627500D03*
%TO.N,/P51*%
X148494600Y-98266000D03*
%TO.N,/P47*%
X142074200Y-93480400D03*
X126470400Y-102068500D03*
%TO.N,/P46*%
X127031600Y-100452300D03*
X143085800Y-93218500D03*
%TO.N,/P45*%
X144251700Y-93578100D03*
X123441700Y-119764000D03*
%TO.N,/A11*%
X146404700Y-86399200D03*
X144531300Y-68706500D03*
%TO.N,/A10*%
X144109100Y-90429100D03*
X144047200Y-70254900D03*
%TO.N,/A9*%
X143469400Y-68706700D03*
X143469400Y-85645800D03*
%TO.N,/A8*%
X142793300Y-86650200D03*
X142196100Y-68796200D03*
%TO.N,/CE1*%
X156926200Y-82047600D03*
X152028700Y-77137000D03*
%TO.N,/WE*%
X160256800Y-83047600D03*
X140803800Y-68707800D03*
%TO.N,/Button*%
X165649800Y-87678100D03*
%TO.N,/D7*%
X160438400Y-87854400D03*
X150410500Y-74950200D03*
%TO.N,/D6*%
X170976300Y-74697500D03*
X151366000Y-68706700D03*
%TO.N,/P53*%
X148518200Y-99479500D03*
X138017200Y-95186100D03*
%TO.N,/VCC*%
X139308400Y-95459900D03*
%TO.N,/GND*%
X169257300Y-104641200D03*
%TD*%
D20*
%TO.N,/Route1*%
X152332000Y-121772000D02*
X156341000Y-121772000D01*
X145105000Y-128999000D02*
X152332000Y-121772000D01*
D21*
%TO.N,/9V.Postfuse*%
X155016000Y-133578000D02*
X151856000Y-133578000D01*
X157295000Y-131299000D02*
X155016000Y-133578000D01*
X147183000Y-133578000D02*
X142606000Y-129001000D01*
X151856000Y-133578000D02*
X147183000Y-133578000D01*
X142606000Y-99277700D02*
X140894400Y-97566100D01*
X142606000Y-129001000D02*
X142606000Y-99277700D01*
X137774300Y-87146100D02*
X137774300Y-87301500D01*
X127948600Y-77320400D02*
X137774300Y-87146100D01*
D20*
%TO.N,/LED.Anode*%
X167005000Y-114564000D02*
X166340000Y-114564000D01*
X172058000Y-109511000D02*
X167005000Y-114564000D01*
X158503000Y-114564000D02*
X156339000Y-116728000D01*
X166340000Y-114564000D02*
X158503000Y-114564000D01*
X181185800Y-86052700D02*
X180195000Y-86052700D01*
X182178000Y-85060500D02*
X181185800Y-86052700D01*
X165218100Y-86052700D02*
X180195000Y-86052700D01*
X160116600Y-91154200D02*
X165218100Y-86052700D01*
X125202200Y-91154200D02*
X160116600Y-91154200D01*
X124074000Y-90026000D02*
X125202200Y-91154200D01*
%TO.N,/Route23*%
X134769700Y-94044100D02*
X131898000Y-94044100D01*
%TO.N,/Route20*%
X128182400Y-85095700D02*
X130214300Y-87127600D01*
X128182400Y-78852800D02*
X128182400Y-85095700D01*
D21*
%TO.N,/9V+*%
X162981000Y-139319000D02*
X162465000Y-138803000D01*
X165044000Y-139319000D02*
X162981000Y-139319000D01*
D20*
%TO.N,/CN1.P3*%
X152541600Y-119946700D02*
X150105800Y-117510900D01*
X158981300Y-119946700D02*
X152541600Y-119946700D01*
X162032600Y-122998000D02*
X158981300Y-119946700D01*
X177560100Y-122998000D02*
X162032600Y-122998000D01*
X178378200Y-122179900D02*
X177560100Y-122998000D01*
X178378200Y-117891200D02*
X178378200Y-122179900D01*
X176947000Y-116460000D02*
X178378200Y-117891200D01*
%TO.N,/CN1.P2*%
X174743300Y-118997000D02*
X172501400Y-121238900D01*
X176953000Y-118997000D02*
X174743300Y-118997000D01*
D21*
%TO.N,/Off.GND*%
X131198900Y-120828900D02*
X131198900Y-104297000D01*
X143637100Y-133267100D02*
X131198900Y-120828900D01*
X143637100Y-134533300D02*
X143637100Y-133267100D01*
X142601200Y-135569200D02*
X143637100Y-134533300D01*
X139496200Y-135569200D02*
X142601200Y-135569200D01*
X139395000Y-135468000D02*
X139496200Y-135569200D01*
X160578800Y-94456400D02*
X166155700Y-88879500D01*
X141702000Y-94456400D02*
X160578800Y-94456400D01*
X141333400Y-94087800D02*
X141702000Y-94456400D01*
X137877700Y-94087800D02*
X141333400Y-94087800D01*
X136670000Y-95295500D02*
X137877700Y-94087800D01*
X136670000Y-102192000D02*
X136670000Y-95295500D01*
X134565000Y-104297000D02*
X136670000Y-102192000D01*
X131198900Y-104297000D02*
X134565000Y-104297000D01*
D20*
%TO.N,/D5*%
X161177200Y-82301000D02*
X152634000Y-73757800D01*
X161177200Y-88141100D02*
X161177200Y-82301000D01*
X160232500Y-89085800D02*
X161177200Y-88141100D01*
X159831700Y-89085800D02*
X160232500Y-89085800D01*
%TO.N,/D3*%
X161627300Y-76451700D02*
X155177000Y-70001400D01*
X161627300Y-88364700D02*
X161627300Y-76451700D01*
X159924900Y-90067100D02*
X161627300Y-88364700D01*
X159205000Y-90067100D02*
X159924900Y-90067100D01*
%TO.N,/D2*%
X153908000Y-83782700D02*
X153908000Y-82253500D01*
X158213000Y-88087700D02*
X153908000Y-83782700D01*
%TO.N,/D1*%
X152636000Y-84880700D02*
X152636000Y-81514800D01*
X157221000Y-89465700D02*
X152636000Y-84880700D01*
%TO.N,/D0*%
X151910800Y-80469600D02*
X151976000Y-80404400D01*
X151910800Y-86002100D02*
X151910800Y-80469600D01*
X156183500Y-90274800D02*
X151910800Y-86002100D01*
%TO.N,/P61*%
X141242800Y-112514500D02*
X141242800Y-109301300D01*
X133466800Y-120290500D02*
X141242800Y-112514500D01*
%TO.N,/P60*%
X134245600Y-103347700D02*
X126334600Y-103347700D01*
X135456700Y-102136600D02*
X134245600Y-103347700D01*
%TO.N,/OE*%
X147716500Y-71830500D02*
X145416700Y-69530700D01*
X147716500Y-84388900D02*
X147716500Y-71830500D01*
%TO.N,/P52*%
X144841500Y-113272000D02*
X144841500Y-102764800D01*
X151966400Y-120396900D02*
X144841500Y-113272000D01*
X156939600Y-120396900D02*
X151966400Y-120396900D01*
X158670200Y-122127500D02*
X156939600Y-120396900D01*
X158670200Y-134282400D02*
X158670200Y-122127500D01*
X158325100Y-134627500D02*
X158670200Y-134282400D01*
%TO.N,/P51*%
X157330300Y-107101700D02*
X148494600Y-98266000D01*
X172703700Y-107101700D02*
X157330300Y-107101700D01*
X176944000Y-111342000D02*
X172703700Y-107101700D01*
%TO.N,/P47*%
X137636400Y-93480400D02*
X142074200Y-93480400D01*
X129048300Y-102068500D02*
X137636400Y-93480400D01*
X126470400Y-102068500D02*
X129048300Y-102068500D01*
%TO.N,/P46*%
X130027800Y-100452300D02*
X127031600Y-100452300D01*
X137788000Y-92692100D02*
X130027800Y-100452300D01*
X142559400Y-92692100D02*
X137788000Y-92692100D01*
X143085800Y-93218500D02*
X142559400Y-92692100D01*
%TO.N,/P45*%
X144251700Y-93340400D02*
X144251700Y-93578100D01*
X143116600Y-92205300D02*
X144251700Y-93340400D01*
X137638200Y-92205300D02*
X143116600Y-92205300D01*
X130480000Y-99363500D02*
X137638200Y-92205300D01*
X127087400Y-99363500D02*
X130480000Y-99363500D01*
X121538100Y-104912800D02*
X127087400Y-99363500D01*
X121538100Y-119090100D02*
X121538100Y-104912800D01*
X122212000Y-119764000D02*
X121538100Y-119090100D01*
X123441700Y-119764000D02*
X122212000Y-119764000D01*
%TO.N,/A11*%
X144531300Y-69713500D02*
X144531300Y-68706500D01*
X146404700Y-71586900D02*
X144531300Y-69713500D01*
X146404700Y-86399200D02*
X146404700Y-71586900D01*
%TO.N,/A10*%
X144222000Y-70429700D02*
X144047200Y-70254900D01*
X144222000Y-90316200D02*
X144222000Y-70429700D01*
X144109100Y-90429100D02*
X144222000Y-90316200D01*
%TO.N,/A9*%
X143322100Y-85498500D02*
X143469400Y-85645800D01*
X143322100Y-68854000D02*
X143322100Y-85498500D01*
X143469400Y-68706700D02*
X143322100Y-68854000D01*
%TO.N,/A8*%
X142196100Y-86053000D02*
X142793300Y-86650200D01*
X142196100Y-68796200D02*
X142196100Y-86053000D01*
%TO.N,/CE1*%
X152028700Y-77150100D02*
X152028700Y-77137000D01*
X156926200Y-82047600D02*
X152028700Y-77150100D01*
%TO.N,/WE*%
X141597000Y-67914600D02*
X140803800Y-68707800D01*
X145123800Y-67914600D02*
X141597000Y-67914600D01*
X160256800Y-83047600D02*
X145123800Y-67914600D01*
%TO.N,/Button*%
X165979800Y-87678100D02*
X165649800Y-87678100D01*
X179132900Y-100831200D02*
X165979800Y-87678100D01*
X179132900Y-124029600D02*
X179132900Y-100831200D01*
X173177000Y-129985500D02*
X179132900Y-124029600D01*
X173177000Y-131552000D02*
X173177000Y-129985500D01*
X173175000Y-131554000D02*
X173175000Y-140083000D01*
X173177000Y-131552000D02*
X173175000Y-131554000D01*
%TO.N,/D7*%
X150867400Y-74950200D02*
X150410500Y-74950200D01*
X160438400Y-84521200D02*
X150867400Y-74950200D01*
X160438400Y-87854400D02*
X160438400Y-84521200D01*
%TO.N,/D6*%
X164985500Y-68706700D02*
X170976300Y-74697500D01*
X151366000Y-68706700D02*
X164985500Y-68706700D01*
%TO.N,/P53*%
X145876400Y-99479500D02*
X148518200Y-99479500D01*
X141111100Y-94714200D02*
X145876400Y-99479500D01*
X138489100Y-94714200D02*
X141111100Y-94714200D01*
X138017200Y-95186100D02*
X138489100Y-94714200D01*
D21*
%TO.N,/VCC*%
X149478000Y-104863900D02*
X149478000Y-115776000D01*
X140074000Y-95459900D02*
X149478000Y-104863900D01*
X139308400Y-95459900D02*
X140074000Y-95459900D01*
%TO.N,/GND*%
X135821000Y-133879000D02*
X137412000Y-135470000D01*
X132768000Y-133879000D02*
X135821000Y-133879000D01*
X138961000Y-133921000D02*
X137412000Y-135470000D01*
X141976000Y-133921000D02*
X138961000Y-133921000D01*
X171267600Y-119602400D02*
X176949000Y-113921000D01*
X166300300Y-119602400D02*
X171267600Y-119602400D01*
X178531600Y-110380600D02*
X176946000Y-108795000D01*
X178531600Y-112338400D02*
X178531600Y-110380600D01*
X176949000Y-113921000D02*
X178531600Y-112338400D01*
X172792200Y-104641200D02*
X169257300Y-104641200D01*
X176946000Y-108795000D02*
X172792200Y-104641200D01*
X166175200Y-142555800D02*
X168688000Y-140043000D01*
X155842200Y-142555800D02*
X166175200Y-142555800D01*
X151897700Y-138611300D02*
X155842200Y-142555800D01*
%TD*%
M02*
