%TF.GenerationSoftware,KiCad,Pcbnew,(6.0.2)*%
%TF.CreationDate,2022-09-11T13:52:49-05:00*%
%TF.ProjectId,IF-GBP-02,49462d47-4250-42d3-9032-2e6b69636164,rev?*%
%TF.SameCoordinates,Original*%
%TF.FileFunction,Paste,Bot*%
%TF.FilePolarity,Positive*%
%FSLAX46Y46*%
G04 Gerber Fmt 4.6, Leading zero omitted, Abs format (unit mm)*
G04 Created by KiCad (PCBNEW (6.0.2)) date 2022-09-11 13:52:49*
%MOMM*%
%LPD*%
G01*
G04 APERTURE LIST*
G04 Aperture macros list*
%AMRoundRect*
0 Rectangle with rounded corners*
0 $1 Rounding radius*
0 $2 $3 $4 $5 $6 $7 $8 $9 X,Y pos of 4 corners*
0 Add a 4 corners polygon primitive as box body*
4,1,4,$2,$3,$4,$5,$6,$7,$8,$9,$2,$3,0*
0 Add four circle primitives for the rounded corners*
1,1,$1+$1,$2,$3*
1,1,$1+$1,$4,$5*
1,1,$1+$1,$6,$7*
1,1,$1+$1,$8,$9*
0 Add four rect primitives between the rounded corners*
20,1,$1+$1,$2,$3,$4,$5,0*
20,1,$1+$1,$4,$5,$6,$7,0*
20,1,$1+$1,$6,$7,$8,$9,0*
20,1,$1+$1,$8,$9,$2,$3,0*%
G04 Aperture macros list end*
%ADD10R,0.800000X0.400000*%
%ADD11R,1.230000X1.000000*%
%ADD12R,1.250000X4.200000*%
%ADD13R,1.000000X1.230000*%
%ADD14R,2.000000X0.400000*%
%ADD15R,1.500000X1.000000*%
%ADD16R,2.500000X1.000000*%
%ADD17RoundRect,0.625000X-0.765000X0.625000X-0.765000X-0.625000X0.765000X-0.625000X0.765000X0.625000X0*%
%ADD18R,0.870000X1.900000*%
%ADD19R,1.000000X1.500000*%
%ADD20RoundRect,0.625000X-0.625000X-0.765000X0.625000X-0.765000X0.625000X0.765000X-0.625000X0.765000X0*%
%ADD21R,1.000000X2.500000*%
%ADD22R,2.450000X0.750000*%
%ADD23R,0.750000X2.450000*%
%ADD24R,1.750000X2.250000*%
%ADD25R,1.500000X2.250000*%
%ADD26RoundRect,0.625000X0.625000X0.765000X-0.625000X0.765000X-0.625000X-0.765000X0.625000X-0.765000X0*%
%ADD27R,0.850000X1.000000*%
%ADD28R,0.650000X1.000000*%
%ADD29R,0.750000X0.750000*%
G04 APERTURE END LIST*
D10*
%TO.C,NR3*%
X165554000Y-70774000D03*
X165556000Y-69940000D03*
X165552000Y-69106000D03*
X165554000Y-68353000D03*
X167342000Y-68350000D03*
X167341000Y-69107000D03*
X167342000Y-69939000D03*
X167342000Y-70772000D03*
%TD*%
D11*
%TO.C,R8*%
X162553000Y-113753000D03*
X160291000Y-113753000D03*
%TD*%
D12*
%TO.C,X1*%
X143776000Y-78082000D03*
X141235000Y-78071000D03*
X138733000Y-78080000D03*
%TD*%
D11*
%TO.C,R14*%
X166326000Y-96963000D03*
X164064000Y-96963000D03*
%TD*%
%TO.C,C16*%
X136149000Y-75021000D03*
X133887000Y-75021000D03*
%TD*%
D13*
%TO.C,R17*%
X161715000Y-91483000D03*
X161715000Y-93745000D03*
%TD*%
D10*
%TO.C,NR1*%
X165595000Y-78198000D03*
X165597000Y-77364000D03*
X165593000Y-76530000D03*
X165595000Y-75777000D03*
X167383000Y-75774000D03*
X167382000Y-76531000D03*
X167383000Y-77363000D03*
X167383000Y-78196000D03*
%TD*%
D11*
%TO.C,R24*%
X126164000Y-133601000D03*
X123902000Y-133601000D03*
%TD*%
D13*
%TO.C,C5*%
X148361000Y-119382000D03*
X148361000Y-117120000D03*
%TD*%
D11*
%TO.C,R10*%
X140717000Y-121260000D03*
X138455000Y-121260000D03*
%TD*%
D14*
%TO.C,IC5*%
X132780000Y-91296000D03*
X132780000Y-91973000D03*
X132780000Y-92647000D03*
X132781000Y-93283000D03*
X132781000Y-93914000D03*
X132774000Y-94550000D03*
X132778000Y-95223000D03*
X132781000Y-95863000D03*
X132779000Y-96496000D03*
X126626000Y-96495000D03*
X126626000Y-95858000D03*
X126626000Y-95225000D03*
X126624000Y-94550000D03*
X126625000Y-93918000D03*
X126626000Y-93280000D03*
X126626000Y-92645000D03*
X126628000Y-91973000D03*
X126626000Y-91295000D03*
%TD*%
D13*
%TO.C,R13*%
X176309000Y-102090000D03*
X176309000Y-104352000D03*
%TD*%
%TO.C,R9*%
X143760000Y-127313000D03*
X143760000Y-125051000D03*
%TD*%
%TO.C,C19*%
X120429000Y-108859000D03*
X120429000Y-111121000D03*
%TD*%
D11*
%TO.C,R3*%
X162653000Y-119514000D03*
X160391000Y-119514000D03*
%TD*%
D13*
%TO.C,R6*%
X178383000Y-121197000D03*
X178383000Y-123459000D03*
%TD*%
D11*
%TO.C,D3*%
X136107000Y-81529500D03*
X133885000Y-81530500D03*
%TD*%
%TO.C,R5*%
X158278000Y-119430000D03*
X156016000Y-119430000D03*
%TD*%
D15*
%TO.C,IC1*%
X141478000Y-125180000D03*
D16*
X140984000Y-126653000D03*
D17*
X138568000Y-126650000D03*
D15*
X141473000Y-128168000D03*
%TD*%
D11*
%TO.C,C14*%
X131823000Y-119311000D03*
X129561000Y-119311000D03*
%TD*%
%TO.C,R32*%
X165873000Y-106298000D03*
X163611000Y-106298000D03*
%TD*%
%TO.C,Q3*%
X162693000Y-115583000D03*
X162693000Y-117567000D03*
X160390000Y-116574000D03*
%TD*%
%TO.C,C17*%
X148728000Y-110939000D03*
X146466000Y-110939000D03*
%TD*%
%TO.C,R30*%
X161802000Y-103443000D03*
X159540000Y-103443000D03*
%TD*%
%TO.C,R34*%
X138112000Y-134063000D03*
X135850000Y-134063000D03*
%TD*%
D13*
%TO.C,R26*%
X172582000Y-131100000D03*
X172582000Y-133362000D03*
%TD*%
D18*
%TO.C,IC3*%
X163036000Y-78745000D03*
X161728000Y-78745000D03*
X160455000Y-78745000D03*
X159186000Y-78743000D03*
X157917000Y-78745000D03*
X156646000Y-78745000D03*
X155375000Y-78745000D03*
X154066000Y-78745000D03*
X152838000Y-78744000D03*
X151565000Y-78747000D03*
X150294000Y-78742000D03*
X149025000Y-78744000D03*
X147753000Y-78745000D03*
X146486000Y-78743000D03*
X146484000Y-67157000D03*
X147757000Y-67154000D03*
X149027000Y-67156000D03*
X150295000Y-67155000D03*
X151566000Y-67152000D03*
X152836000Y-67156000D03*
X154065000Y-67155000D03*
X155376000Y-67151000D03*
X156645000Y-67155000D03*
X157916000Y-67156000D03*
X159186000Y-67157000D03*
X160455000Y-67156000D03*
X161725000Y-67151000D03*
X163035000Y-67155000D03*
%TD*%
D19*
%TO.C,Q6*%
X132370000Y-124154000D03*
D20*
X133840000Y-127064000D03*
D21*
X133843000Y-124648000D03*
D19*
X135358000Y-124159000D03*
%TD*%
D11*
%TO.C,C12*%
X161807000Y-101447000D03*
X159545000Y-101447000D03*
%TD*%
D13*
%TO.C,R7*%
X164765000Y-119340000D03*
X164765000Y-117078000D03*
%TD*%
D11*
%TO.C,Q4*%
X171373000Y-82887000D03*
X171373000Y-84871000D03*
X169070000Y-83878000D03*
%TD*%
%TO.C,R36*%
X146412000Y-138195000D03*
X144150000Y-138195000D03*
%TD*%
D13*
%TO.C,Q9*%
X125677000Y-139555000D03*
X123693000Y-139555000D03*
X124686000Y-137252000D03*
%TD*%
%TO.C,Q14*%
X164792000Y-92625500D03*
X166776000Y-92625500D03*
X165783000Y-94928500D03*
%TD*%
%TO.C,C4*%
X147753000Y-127313000D03*
X147753000Y-125051000D03*
%TD*%
%TO.C,Q8*%
X137971000Y-132082000D03*
X135987000Y-132082000D03*
X136980000Y-129779000D03*
%TD*%
D22*
%TO.C,IC2*%
X137858000Y-105644000D03*
X137854000Y-104652000D03*
X137855000Y-103654000D03*
X137855000Y-102665000D03*
X137856000Y-101639000D03*
X137856000Y-100601000D03*
X137860000Y-99607000D03*
X137854000Y-98617000D03*
X137858000Y-97625000D03*
X137859000Y-96596000D03*
X137856000Y-95561000D03*
X137856000Y-94565000D03*
X137853000Y-93579000D03*
X137853000Y-92587000D03*
X137855000Y-91595000D03*
X137852000Y-90603000D03*
X137851000Y-89571000D03*
X137851000Y-88575000D03*
X137854000Y-87579000D03*
D23*
X140396000Y-85127000D03*
X141427000Y-85124000D03*
X142419000Y-85129000D03*
X143411000Y-85129000D03*
X144403000Y-85128000D03*
X145395000Y-85124000D03*
X146390000Y-85128000D03*
X147379000Y-85125000D03*
X148414000Y-85120000D03*
X149406000Y-85124000D03*
X150434000Y-85125000D03*
X151426000Y-85129000D03*
X152457000Y-85130000D03*
D22*
X154991000Y-87585000D03*
X154998000Y-88578000D03*
X154998000Y-89568000D03*
X154993000Y-90602000D03*
X154993000Y-91595000D03*
X154996000Y-92587000D03*
X154992000Y-93579000D03*
X154991000Y-94568000D03*
X154991000Y-95564000D03*
X154993000Y-96595000D03*
X154996000Y-97623000D03*
X154992000Y-98615000D03*
X154989000Y-99611000D03*
X154987000Y-100599000D03*
X154990000Y-101638000D03*
X154989000Y-102663000D03*
X154988000Y-103653000D03*
X154988000Y-104645000D03*
X154989000Y-105643000D03*
D23*
X152498000Y-107985000D03*
X151467000Y-107985000D03*
X150476000Y-107984000D03*
X149445000Y-107981000D03*
X148449000Y-107984000D03*
X147420000Y-107984000D03*
X146426000Y-107984000D03*
X145437000Y-107988000D03*
X144440000Y-107983000D03*
X143448000Y-107983000D03*
X142456000Y-107983000D03*
X141468000Y-107980000D03*
X140432000Y-107983000D03*
%TD*%
D13*
%TO.C,R11*%
X171797000Y-126554000D03*
X171797000Y-128816000D03*
%TD*%
D11*
%TO.C,R21*%
X172418000Y-77917000D03*
X170156000Y-77917000D03*
%TD*%
%TO.C,R4*%
X158269000Y-121416000D03*
X156007000Y-121416000D03*
%TD*%
D13*
%TO.C,Q5*%
X167101000Y-84182500D03*
X165117000Y-84182500D03*
X166110000Y-81879500D03*
%TD*%
%TO.C,R12*%
X145757000Y-127313000D03*
X145757000Y-125051000D03*
%TD*%
D11*
%TO.C,R29*%
X161866000Y-99391000D03*
X159604000Y-99391000D03*
%TD*%
%TO.C,C18*%
X172428000Y-79942000D03*
X170166000Y-79942000D03*
%TD*%
D13*
%TO.C,C20*%
X176591000Y-131100000D03*
X176591000Y-133362000D03*
%TD*%
D11*
%TO.C,Q2*%
X158263000Y-115657000D03*
X158263000Y-117641000D03*
X155960000Y-116648000D03*
%TD*%
%TO.C,R1*%
X162697000Y-123397000D03*
X160435000Y-123397000D03*
%TD*%
%TO.C,R16*%
X166921000Y-86171000D03*
X164659000Y-86171000D03*
%TD*%
D24*
%TO.C,D1*%
X155479000Y-137769000D03*
X155475000Y-133355000D03*
%TD*%
D11*
%TO.C,R33*%
X146413000Y-136177000D03*
X144151000Y-136177000D03*
%TD*%
D14*
%TO.C,IC6*%
X132768500Y-98634500D03*
X132768500Y-99311500D03*
X132768500Y-99985500D03*
X132769500Y-100621500D03*
X132769500Y-101252500D03*
X132762500Y-101888500D03*
X132766500Y-102561500D03*
X132769500Y-103201500D03*
X132767500Y-103834500D03*
X126614500Y-103833500D03*
X126614500Y-103196500D03*
X126614500Y-102563500D03*
X126612500Y-101888500D03*
X126613500Y-101256500D03*
X126614500Y-100618500D03*
X126614500Y-99983500D03*
X126616500Y-99311500D03*
X126614500Y-98633500D03*
%TD*%
D11*
%TO.C,C6*%
X166313000Y-98955000D03*
X164051000Y-98955000D03*
%TD*%
D13*
%TO.C,R27*%
X174603000Y-131102000D03*
X174603000Y-133364000D03*
%TD*%
D10*
%TO.C,NR2*%
X165598000Y-74504000D03*
X165600000Y-73670000D03*
X165596000Y-72836000D03*
X165598000Y-72083000D03*
X167386000Y-72080000D03*
X167385000Y-72837000D03*
X167386000Y-73669000D03*
X167386000Y-74502000D03*
%TD*%
D13*
%TO.C,C15*%
X143524000Y-72219000D03*
X143524000Y-74481000D03*
%TD*%
%TO.C,R35*%
X139800000Y-133180000D03*
X139800000Y-130918000D03*
%TD*%
D25*
%TO.C,F1*%
X156192500Y-141341000D03*
X153601500Y-141341000D03*
%TD*%
D11*
%TO.C,R2*%
X162682000Y-121494000D03*
X160420000Y-121494000D03*
%TD*%
D19*
%TO.C,Q7*%
X130298000Y-128246000D03*
D26*
X128828000Y-125336000D03*
D21*
X128825000Y-127752000D03*
D19*
X127310000Y-128241000D03*
%TD*%
D13*
%TO.C,D5*%
X168803000Y-97236000D03*
X168804000Y-99458000D03*
%TD*%
%TO.C,Q10*%
X165676000Y-103405000D03*
X163692000Y-103405000D03*
X164685000Y-101102000D03*
%TD*%
D10*
%TO.C,NR4*%
X165598000Y-64862000D03*
X165600000Y-64028000D03*
X165596000Y-63194000D03*
X165598000Y-62441000D03*
X167386000Y-62438000D03*
X167385000Y-63195000D03*
X167386000Y-64027000D03*
X167386000Y-64860000D03*
%TD*%
D11*
%TO.C,R28*%
X161740000Y-107441000D03*
X159478000Y-107441000D03*
%TD*%
D13*
%TO.C,IC7*%
X172984500Y-75892500D03*
X170997500Y-75890500D03*
D27*
X172985500Y-73426500D03*
D28*
X171954500Y-73428500D03*
D27*
X170960500Y-73428500D03*
%TD*%
D13*
%TO.C,Q11*%
X166787000Y-90495500D03*
X164803000Y-90495500D03*
X165796000Y-88192500D03*
%TD*%
D11*
%TO.C,R22*%
X168379000Y-79944000D03*
X166117000Y-79944000D03*
%TD*%
D29*
%TO.C,TH1*%
X178218000Y-103002000D03*
X178220000Y-104510000D03*
%TD*%
D13*
%TO.C,R23*%
X173022000Y-90903000D03*
X173022000Y-88641000D03*
%TD*%
M02*
