%TF.GenerationSoftware,KiCad,Pcbnew,(6.0.2)*%
%TF.CreationDate,2022-09-08T00:06:53-05:00*%
%TF.ProjectId,IF-GBP-02,49462d47-4250-42d3-9032-2e6b69636164,rev?*%
%TF.SameCoordinates,Original*%
%TF.FileFunction,Copper,L1,Top*%
%TF.FilePolarity,Positive*%
%FSLAX46Y46*%
G04 Gerber Fmt 4.6, Leading zero omitted, Abs format (unit mm)*
G04 Created by KiCad (PCBNEW (6.0.2)) date 2022-09-08 00:06:53*
%MOMM*%
%LPD*%
G01*
G04 APERTURE LIST*
G04 Aperture macros list*
%AMRoundRect*
0 Rectangle with rounded corners*
0 $1 Rounding radius*
0 $2 $3 $4 $5 $6 $7 $8 $9 X,Y pos of 4 corners*
0 Add a 4 corners polygon primitive as box body*
4,1,4,$2,$3,$4,$5,$6,$7,$8,$9,$2,$3,0*
0 Add four circle primitives for the rounded corners*
1,1,$1+$1,$2,$3*
1,1,$1+$1,$4,$5*
1,1,$1+$1,$6,$7*
1,1,$1+$1,$8,$9*
0 Add four rect primitives between the rounded corners*
20,1,$1+$1,$2,$3,$4,$5,0*
20,1,$1+$1,$4,$5,$6,$7,0*
20,1,$1+$1,$6,$7,$8,$9,0*
20,1,$1+$1,$8,$9,$2,$3,0*%
G04 Aperture macros list end*
%TA.AperFunction,ComponentPad*%
%ADD10C,2.100000*%
%TD*%
%TA.AperFunction,ComponentPad*%
%ADD11C,1.500000*%
%TD*%
%TA.AperFunction,ComponentPad*%
%ADD12C,2.250000*%
%TD*%
%TA.AperFunction,ComponentPad*%
%ADD13C,2.200000*%
%TD*%
%TA.AperFunction,ComponentPad*%
%ADD14C,2.000000*%
%TD*%
%TA.AperFunction,ComponentPad*%
%ADD15C,1.250000*%
%TD*%
%TA.AperFunction,ComponentPad*%
%ADD16R,4.000000X2.500000*%
%TD*%
%TA.AperFunction,ComponentPad*%
%ADD17RoundRect,0.575000X0.575000X2.650000X-0.575000X2.650000X-0.575000X-2.650000X0.575000X-2.650000X0*%
%TD*%
%TA.AperFunction,ComponentPad*%
%ADD18RoundRect,0.425000X0.425000X1.700000X-0.425000X1.700000X-0.425000X-1.700000X0.425000X-1.700000X0*%
%TD*%
%TA.AperFunction,ViaPad*%
%ADD19C,0.800000*%
%TD*%
%TA.AperFunction,Conductor*%
%ADD20C,0.550000*%
%TD*%
%TA.AperFunction,Conductor*%
%ADD21C,0.250000*%
%TD*%
G04 APERTURE END LIST*
D10*
%TO.P,L1,1,1*%
%TO.N,/LED.Anode*%
X145322000Y-116728000D03*
%TO.P,L1,2,2*%
%TO.N,/Route1*%
X145320000Y-121772000D03*
%TD*%
D11*
%TO.P,SW2,1,A*%
%TO.N,/Off.GND*%
X162266000Y-135468000D03*
%TO.P,SW2,2,B*%
%TO.N,/GND*%
X164249000Y-135470000D03*
%TO.P,SW2,3,C*%
%TO.N,/9V-*%
X166272000Y-135469100D03*
%TO.P,SW2,4,A*%
%TO.N,unconnected-(SW2-Pad4)*%
X162264000Y-137889000D03*
%TO.P,SW2,5,B*%
%TO.N,/9V.F1*%
X164250000Y-137889000D03*
%TO.P,SW2,6,C*%
%TO.N,/9V.Prefuse*%
X166272000Y-137889000D03*
D12*
%TO.P,SW2,7,Case_GND*%
%TO.N,/GND*%
X159685000Y-133921000D03*
X159683900Y-139473000D03*
%TO.P,SW2,8,Case_GND*%
X168893000Y-139440000D03*
X168893000Y-133879000D03*
%TD*%
D10*
%TO.P,F2,1*%
%TO.N,/9V.Postfuse*%
X144366000Y-131299000D03*
%TO.P,F2,2*%
%TO.N,/9V.Prefuse*%
X168567000Y-131183000D03*
%TD*%
%TO.P,C2,1*%
%TO.N,/LED.Anode*%
X135321000Y-114564000D03*
%TO.P,C2,2*%
%TO.N,/Route10*%
X135360700Y-119602400D03*
%TD*%
D13*
%TO.P,CN1,1,Pin_1*%
%TO.N,/VCC*%
X124711000Y-121545000D03*
%TO.P,CN1,2,Pin_2*%
%TO.N,/CN1.P2*%
X124708000Y-118997000D03*
%TO.P,CN1,3,Pin_3*%
%TO.N,/CN1.P3*%
X124714000Y-116460000D03*
%TO.P,CN1,4,Pin_4*%
%TO.N,/GND*%
X124712000Y-113921000D03*
%TO.P,CN1,5,Pin_5*%
%TO.N,/P51*%
X124717000Y-111342000D03*
%TO.P,CN1,6,Pin_6*%
%TO.N,/GND*%
X124715000Y-108795000D03*
%TD*%
D10*
%TO.P,Q1,1,B*%
%TO.N,/Route2*%
X154099000Y-128995000D03*
%TO.P,Q1,2,C*%
%TO.N,/Route1*%
X156556000Y-128999000D03*
%TO.P,Q1,3,E*%
%TO.N,/9V.Postfuse*%
X159055000Y-129001000D03*
%TD*%
%TO.P,C3,1*%
%TO.N,/VCC*%
X152183000Y-115776000D03*
%TO.P,C3,2*%
%TO.N,/Route17*%
X152020000Y-120770000D03*
%TD*%
%TO.P,SW1,1,1*%
%TO.N,/Button*%
X128486000Y-140083000D03*
%TO.P,SW1,2,2*%
X128484000Y-131552000D03*
%TO.P,SW1,3,K*%
%TO.N,/GND*%
X132973000Y-140043000D03*
%TO.P,SW1,4,A*%
%TO.N,unconnected-(SW1-Pad4)*%
X133048000Y-131513000D03*
%TD*%
%TO.P,L2,1,1*%
%TO.N,/LED.Anode*%
X129603000Y-109511000D03*
%TO.P,L2,2,2*%
%TO.N,/VCC*%
X129558000Y-113558000D03*
%TD*%
D14*
%TO.P,LED1,1,K*%
%TO.N,/LED.Cathode*%
X177622700Y-85023300D03*
%TO.P,LED1,2,A*%
%TO.N,/LED.Anode*%
X177587000Y-90026000D03*
%TD*%
D10*
%TO.P,C1,1*%
%TO.N,/9V.Postfuse*%
X149805000Y-133578000D03*
%TO.P,C1,2*%
%TO.N,/GND*%
X149763300Y-138611300D03*
%TD*%
D15*
%TO.P,CN2,1,Pin_1*%
%TO.N,/LED.Anode*%
X119483000Y-85060500D03*
%TO.P,CN2,2,Pin_2*%
X121466000Y-86052700D03*
%TO.P,CN2,3,Pin_3*%
%TO.N,/IC5.O1*%
X119484000Y-87044000D03*
%TO.P,CN2,4,Pin_4*%
%TO.N,/IC5.O2*%
X121465000Y-88038000D03*
%TO.P,CN2,5,Pin_5*%
%TO.N,/IC5.O3*%
X119478000Y-89067000D03*
%TO.P,CN2,6,Pin_6*%
%TO.N,/IC5.O4*%
X121465000Y-90104000D03*
%TO.P,CN2,7,Pin_7*%
%TO.N,/IC5.O5*%
X119482000Y-91094000D03*
%TO.P,CN2,8,Pin_8*%
%TO.N,/IC5.O6*%
X121463000Y-92084000D03*
%TO.P,CN2,9,Pin_9*%
%TO.N,/IC5.O7*%
X119482000Y-93077000D03*
%TO.P,CN2,10,Pin_10*%
%TO.N,/IC5.O8*%
X121468000Y-94071000D03*
%TO.P,CN2,11,Pin_11*%
%TO.N,/IC6.O1*%
X119481000Y-95103000D03*
%TO.P,CN2,12,Pin_12*%
%TO.N,/IC6.O2*%
X121466000Y-96054000D03*
%TO.P,CN2,13,Pin_13*%
%TO.N,/IC6.O3*%
X119483000Y-97088000D03*
%TO.P,CN2,14,Pin_14*%
%TO.N,/IC6.O4*%
X121470000Y-98079000D03*
%TO.P,CN2,15,Pin_15*%
%TO.N,/IC6.O5*%
X119483000Y-99109000D03*
%TO.P,CN2,16,Pin_16*%
%TO.N,/IC6.O6*%
X121466000Y-100106000D03*
%TO.P,CN2,17,Pin_17*%
%TO.N,/IC6.O7*%
X119485000Y-101096000D03*
%TO.P,CN2,18,Pin_18*%
%TO.N,/IC6.O8*%
X121464000Y-102129000D03*
%TD*%
D11*
%TO.P,CN3,1,Pin_1*%
%TO.N,unconnected-(CN3-Pad1)*%
X175952000Y-110864000D03*
%TO.P,CN3,2,Pin_2*%
%TO.N,/Link.P2*%
X177973000Y-110860000D03*
%TO.P,CN3,3,Pin_3*%
%TO.N,/Link.P3*%
X175953000Y-112887000D03*
%TO.P,CN3,4,Pin_4*%
%TO.N,unconnected-(CN3-Pad4)*%
X177981000Y-112887000D03*
%TO.P,CN3,5,Pin_5*%
%TO.N,/Link.P5*%
X175955000Y-114869000D03*
%TO.P,CN3,6,Pin_6*%
%TO.N,/GND*%
X177976000Y-114874000D03*
D16*
%TO.P,CN3,7,GND*%
X177739000Y-108030000D03*
%TO.P,CN3,8,GND*%
X177739000Y-117696000D03*
%TD*%
D17*
%TO.P,J2,1,Pin_1*%
%TO.N,/9V+*%
X139196000Y-138803000D03*
D18*
X136617000Y-139319000D03*
%TO.P,J2,2,Pin_2*%
%TO.N,/9V-*%
X175991000Y-63755000D03*
D17*
X178564000Y-63240000D03*
%TD*%
D19*
%TO.N,/GND*%
X157964100Y-102663000D03*
X159742000Y-95634000D03*
X157964100Y-114080000D03*
X131306700Y-97912500D03*
X126495200Y-121960300D03*
%TO.N,/VCC*%
X150249300Y-117808100D03*
X161775700Y-68821700D03*
X162415900Y-90205100D03*
X161775700Y-71428500D03*
%TO.N,/P53*%
X157949100Y-100599000D03*
X164431000Y-88918900D03*
%TO.N,/Button*%
X136009300Y-87231700D03*
%TO.N,/WE*%
X142107800Y-83099500D03*
X160366300Y-65333300D03*
%TO.N,/CE1*%
X152169800Y-70457700D03*
X152169800Y-86970800D03*
%TO.N,/A8*%
X157608400Y-89418000D03*
X159055900Y-65600100D03*
%TO.N,/A9*%
X157584600Y-90602000D03*
X159008400Y-68729300D03*
%TO.N,/A10*%
X155399800Y-86497500D03*
X155377300Y-69949900D03*
%TO.N,/A11*%
X156827900Y-92143000D03*
X156772200Y-68830900D03*
%TO.N,/P45*%
X164043100Y-111751500D03*
X160964200Y-97981100D03*
%TO.N,/P46*%
X150710600Y-95564000D03*
X169238200Y-126554000D03*
X148620800Y-120864600D03*
X167478200Y-122567100D03*
%TO.N,/P47*%
X157499000Y-96038600D03*
X169153200Y-69345700D03*
%TO.N,/P52*%
X140293100Y-110115200D03*
X140293100Y-134603500D03*
%TO.N,/OE*%
X153145100Y-101251700D03*
X155421900Y-68745100D03*
%TO.N,/P60*%
X161684600Y-106339400D03*
X163682400Y-110166700D03*
%TO.N,/P61*%
X160065100Y-106211300D03*
X163192700Y-111091600D03*
%TO.N,/D0*%
X149061600Y-103271400D03*
X149061600Y-81231400D03*
%TO.N,/D1*%
X147287800Y-102706100D03*
X147224300Y-81898700D03*
%TO.N,/D2*%
X147228400Y-80821800D03*
X143714300Y-106118700D03*
%TO.N,/D3*%
X145742700Y-68671900D03*
X145821900Y-102534000D03*
%TO.N,/D4*%
X147605300Y-68717800D03*
X141798200Y-105761500D03*
%TO.N,/D5*%
X144786800Y-102171500D03*
X144596700Y-69479600D03*
%TO.N,/Off.GND*%
X165036500Y-108375000D03*
X136566600Y-85402100D03*
%TO.N,/LED.Anode*%
X147094200Y-123166500D03*
%TO.N,/9V.Postfuse*%
X161272400Y-95164800D03*
%TO.N,/Route2*%
X158560500Y-123006600D03*
%TO.N,/Link.P5*%
X175417800Y-122941500D03*
%TO.N,/Link.P3*%
X172888300Y-127440000D03*
%TO.N,/Link.P2*%
X174303100Y-104966300D03*
%TD*%
D20*
%TO.N,/GND*%
X127853100Y-141636700D02*
X126495200Y-140278800D01*
X180214100Y-108205000D02*
X180214100Y-113615100D01*
X157964100Y-102663000D02*
X158824300Y-101802800D01*
X125388500Y-108795000D02*
X124715000Y-108795000D01*
X132973000Y-140043000D02*
X131379300Y-141636700D01*
X126362100Y-109768600D02*
X125388500Y-108795000D01*
X178955200Y-114874000D02*
X177976000Y-114874000D01*
X180214100Y-116132900D02*
X178955200Y-114874000D01*
X158824300Y-101802800D02*
X158824300Y-96551700D01*
X132973000Y-140043000D02*
X135464100Y-142534100D01*
X126292000Y-113921000D02*
X126362100Y-113850900D01*
X145840500Y-142534100D02*
X149763300Y-138611300D01*
X180214100Y-117521000D02*
X180214100Y-116132900D01*
X126292000Y-113921000D02*
X126495200Y-114124200D01*
X125388500Y-108795000D02*
X125388500Y-103830700D01*
X131379300Y-141636700D02*
X127853100Y-141636700D01*
X126495200Y-140278800D02*
X126495200Y-121960300D01*
X177739000Y-117521000D02*
X180214100Y-117521000D01*
X157964100Y-102663000D02*
X157964100Y-114080000D01*
X180214100Y-113615100D02*
X178955200Y-114874000D01*
X168893000Y-133879000D02*
X168893000Y-139440000D01*
X177739000Y-108205000D02*
X180214100Y-108205000D01*
X125388500Y-103830700D02*
X131306700Y-97912500D01*
X124712000Y-113921000D02*
X126292000Y-113921000D01*
X135464100Y-142534100D02*
X145840500Y-142534100D01*
X126495200Y-114124200D02*
X126495200Y-121960300D01*
X126362100Y-113850900D02*
X126362100Y-109768600D01*
X158824300Y-96551700D02*
X159742000Y-95634000D01*
%TO.N,/VCC*%
X156623900Y-111335100D02*
X152183000Y-115776000D01*
X161775700Y-89858900D02*
X161775700Y-71428500D01*
X161775700Y-71428500D02*
X161775700Y-68821700D01*
X156623900Y-95010700D02*
X156623900Y-111335100D01*
X162069700Y-89858900D02*
X161775700Y-89858900D01*
X162415900Y-90205100D02*
X162069700Y-89858900D01*
X152183000Y-115776000D02*
X150249300Y-117709700D01*
X150249300Y-117709700D02*
X150249300Y-117808100D01*
X161775700Y-89858900D02*
X156623900Y-95010700D01*
D21*
%TO.N,/P53*%
X158224200Y-96126400D02*
X158224200Y-100323900D01*
X164431000Y-89919600D02*
X158224200Y-96126400D01*
X164431000Y-88918900D02*
X164431000Y-89919600D01*
X158224200Y-100323900D02*
X157949100Y-100599000D01*
%TO.N,/Button*%
X136009300Y-87231700D02*
X136753200Y-87975600D01*
X136753200Y-87975600D02*
X136753200Y-123282800D01*
X128486000Y-140083000D02*
X128484000Y-140081000D01*
X136753200Y-123282800D02*
X128484000Y-131552000D01*
X128484000Y-140081000D02*
X128484000Y-131552000D01*
%TO.N,/WE*%
X147504100Y-64856900D02*
X142107800Y-70253200D01*
X159889900Y-64856900D02*
X147504100Y-64856900D01*
X160366300Y-65333300D02*
X159889900Y-64856900D01*
X142107800Y-70253200D02*
X142107800Y-83099500D01*
%TO.N,/CE1*%
X152169800Y-70457700D02*
X152169800Y-86970800D01*
%TO.N,/A8*%
X157608400Y-67047600D02*
X159055900Y-65600100D01*
X157608400Y-89418000D02*
X157608400Y-67047600D01*
%TO.N,/A9*%
X159008400Y-89178200D02*
X159008400Y-68729300D01*
X157584600Y-90602000D02*
X159008400Y-89178200D01*
%TO.N,/A10*%
X155399800Y-69972400D02*
X155377300Y-69949900D01*
X155399800Y-86497500D02*
X155399800Y-69972400D01*
%TO.N,/A11*%
X156772200Y-68830900D02*
X156772200Y-92087300D01*
X156772200Y-92087300D02*
X156827900Y-92143000D01*
%TO.N,/P45*%
X164436400Y-111358200D02*
X164043100Y-111751500D01*
X163990700Y-109449500D02*
X164436400Y-109895200D01*
X160964200Y-97981100D02*
X163990700Y-101007600D01*
X164436400Y-109895200D02*
X164436400Y-111358200D01*
X163990700Y-101007600D02*
X163990700Y-109449500D01*
%TO.N,/P46*%
X150710600Y-95564000D02*
X150710600Y-103940100D01*
X167478200Y-124794000D02*
X167478200Y-122567100D01*
X150710600Y-103940100D02*
X148620800Y-106029900D01*
X148620800Y-106029900D02*
X148620800Y-120864600D01*
X169238200Y-126554000D02*
X167478200Y-124794000D01*
%TO.N,/P47*%
X163156900Y-90557200D02*
X157675500Y-96038600D01*
X169153200Y-69345700D02*
X163156900Y-75342000D01*
X163156900Y-75342000D02*
X163156900Y-90557200D01*
X157675500Y-96038600D02*
X157499000Y-96038600D01*
%TO.N,/P52*%
X140293100Y-134603500D02*
X140293100Y-110115200D01*
%TO.N,/OE*%
X153145100Y-71021900D02*
X155421900Y-68745100D01*
X153145100Y-101251700D02*
X153145100Y-71021900D01*
%TO.N,/P60*%
X161684600Y-108168900D02*
X163682400Y-110166700D01*
X161684600Y-106339400D02*
X161684600Y-108168900D01*
%TO.N,/P61*%
X160065100Y-107964000D02*
X163192700Y-111091600D01*
X160065100Y-106211300D02*
X160065100Y-107964000D01*
%TO.N,/D0*%
X149061600Y-81231400D02*
X149061600Y-103271400D01*
%TO.N,/D1*%
X147224300Y-102642600D02*
X147287800Y-102706100D01*
X147224300Y-81898700D02*
X147224300Y-102642600D01*
%TO.N,/D2*%
X146483400Y-81566800D02*
X146483400Y-102170100D01*
X147228400Y-80821800D02*
X146483400Y-81566800D01*
X146554700Y-103278300D02*
X143714300Y-106118700D01*
X146483400Y-102170100D02*
X146554700Y-102241400D01*
X146554700Y-102241400D02*
X146554700Y-103278300D01*
%TO.N,/D3*%
X145742700Y-68671900D02*
X145742700Y-102454800D01*
X145742700Y-102454800D02*
X145821900Y-102534000D01*
%TO.N,/D4*%
X143214700Y-104345000D02*
X143214700Y-69782900D01*
X141798200Y-105761500D02*
X143214700Y-104345000D01*
X146789700Y-67902200D02*
X147605300Y-68717800D01*
X143214700Y-69782900D02*
X145095400Y-67902200D01*
X145095400Y-67902200D02*
X146789700Y-67902200D01*
%TO.N,/D5*%
X144596700Y-101981400D02*
X144786800Y-102171500D01*
X144596700Y-69479600D02*
X144596700Y-101981400D01*
D20*
%TO.N,/Off.GND*%
X162266000Y-135468000D02*
X162266000Y-131578400D01*
X161775400Y-131087800D02*
X165036500Y-127826700D01*
X147694400Y-114570400D02*
X137521000Y-104397000D01*
X161775400Y-131087800D02*
X153974600Y-131087800D01*
X153974600Y-131087800D02*
X148120800Y-125234000D01*
X148120800Y-122800500D02*
X147694400Y-122374100D01*
X165036500Y-127826700D02*
X165036500Y-108375000D01*
X162266000Y-131578400D02*
X161775400Y-131087800D01*
X137521000Y-104397000D02*
X137521000Y-86356500D01*
X148120800Y-125234000D02*
X148120800Y-122800500D01*
X137521000Y-86356500D02*
X136566600Y-85402100D01*
X147694400Y-122374100D02*
X147694400Y-114570400D01*
%TO.N,/9V-*%
X166146800Y-73599200D02*
X175991000Y-63755000D01*
X166146800Y-135343900D02*
X166146800Y-73599200D01*
X166272000Y-135469100D02*
X166146800Y-135343900D01*
D21*
%TO.N,/LED.Anode*%
X129935500Y-109178500D02*
X135321000Y-114564000D01*
X167350600Y-135938500D02*
X167350600Y-134387400D01*
X147094200Y-125056200D02*
X158626000Y-136588000D01*
X167350600Y-134387400D02*
X166747000Y-133783800D01*
X147094200Y-118500200D02*
X147094200Y-123166500D01*
X129935500Y-109178500D02*
X129603000Y-109511000D01*
X129935500Y-109178500D02*
X132031800Y-107082200D01*
X166701100Y-136588000D02*
X167350600Y-135938500D01*
X132031800Y-96618500D02*
X121466000Y-86052700D01*
X132031800Y-107082200D02*
X132031800Y-96618500D01*
X147094200Y-123166500D02*
X147094200Y-125056200D01*
X166747000Y-100866000D02*
X177587000Y-90026000D01*
X145322000Y-116728000D02*
X147094200Y-118500200D01*
X158626000Y-136588000D02*
X166701100Y-136588000D01*
X166747000Y-133783800D02*
X166747000Y-100866000D01*
D20*
%TO.N,/9V.Postfuse*%
X159435600Y-113855300D02*
X159146900Y-113566600D01*
X160066300Y-102874200D02*
X160066300Y-96547300D01*
X159146900Y-113566600D02*
X159146900Y-103793600D01*
X159055000Y-129001000D02*
X159435600Y-128620400D01*
X160066300Y-96547300D02*
X161272400Y-95341200D01*
X147526000Y-131299000D02*
X149805000Y-133578000D01*
X159146900Y-103793600D02*
X160066300Y-102874200D01*
X144366000Y-131299000D02*
X147526000Y-131299000D01*
X161272400Y-95341200D02*
X161272400Y-95164800D01*
X159435600Y-128620400D02*
X159435600Y-113855300D01*
D21*
%TO.N,/Route2*%
X154099000Y-128995000D02*
X154099000Y-127468100D01*
X154099000Y-127468100D02*
X158560500Y-123006600D01*
%TO.N,/Link.P5*%
X175955000Y-114869000D02*
X175413800Y-115410200D01*
X175413800Y-115410200D02*
X175413800Y-122937500D01*
X175413800Y-122937500D02*
X175417800Y-122941500D01*
%TO.N,/Link.P3*%
X175953000Y-112887000D02*
X172888300Y-115951700D01*
X172888300Y-115951700D02*
X172888300Y-127440000D01*
%TO.N,/Link.P2*%
X174303100Y-108324500D02*
X174303100Y-104966300D01*
X177973000Y-110860000D02*
X176810000Y-109697000D01*
X176810000Y-109697000D02*
X175675600Y-109697000D01*
X175675600Y-109697000D02*
X174303100Y-108324500D01*
%TD*%
M02*
