%TF.GenerationSoftware,KiCad,Pcbnew,(6.0.2)*%
%TF.CreationDate,2022-09-23T13:38:23-05:00*%
%TF.ProjectId,IF-GBP-02,49462d47-4250-42d3-9032-2e6b69636164,rev?*%
%TF.SameCoordinates,Original*%
%TF.FileFunction,Copper,L2,Bot*%
%TF.FilePolarity,Positive*%
%FSLAX46Y46*%
G04 Gerber Fmt 4.6, Leading zero omitted, Abs format (unit mm)*
G04 Created by KiCad (PCBNEW (6.0.2)) date 2022-09-23 13:38:23*
%MOMM*%
%LPD*%
G01*
G04 APERTURE LIST*
G04 Aperture macros list*
%AMRoundRect*
0 Rectangle with rounded corners*
0 $1 Rounding radius*
0 $2 $3 $4 $5 $6 $7 $8 $9 X,Y pos of 4 corners*
0 Add a 4 corners polygon primitive as box body*
4,1,4,$2,$3,$4,$5,$6,$7,$8,$9,$2,$3,0*
0 Add four circle primitives for the rounded corners*
1,1,$1+$1,$2,$3*
1,1,$1+$1,$4,$5*
1,1,$1+$1,$6,$7*
1,1,$1+$1,$8,$9*
0 Add four rect primitives between the rounded corners*
20,1,$1+$1,$2,$3,$4,$5,0*
20,1,$1+$1,$4,$5,$6,$7,0*
20,1,$1+$1,$6,$7,$8,$9,0*
20,1,$1+$1,$8,$9,$2,$3,0*%
G04 Aperture macros list end*
%TA.AperFunction,ComponentPad*%
%ADD10RoundRect,0.575000X-0.575000X-2.650000X0.575000X-2.650000X0.575000X2.650000X-0.575000X2.650000X0*%
%TD*%
%TA.AperFunction,ComponentPad*%
%ADD11RoundRect,0.425000X-0.425000X-1.700000X0.425000X-1.700000X0.425000X1.700000X-0.425000X1.700000X0*%
%TD*%
%TA.AperFunction,ComponentPad*%
%ADD12C,2.100000*%
%TD*%
%TA.AperFunction,ComponentPad*%
%ADD13C,1.500000*%
%TD*%
%TA.AperFunction,ComponentPad*%
%ADD14C,2.250000*%
%TD*%
%TA.AperFunction,ComponentPad*%
%ADD15C,2.200000*%
%TD*%
%TA.AperFunction,ComponentPad*%
%ADD16C,2.000000*%
%TD*%
%TA.AperFunction,ComponentPad*%
%ADD17C,1.250000*%
%TD*%
%TA.AperFunction,ComponentPad*%
%ADD18R,4.000000X2.500000*%
%TD*%
%TA.AperFunction,ViaPad*%
%ADD19C,0.800000*%
%TD*%
%TA.AperFunction,Conductor*%
%ADD20C,0.250000*%
%TD*%
%TA.AperFunction,Conductor*%
%ADD21C,0.550000*%
%TD*%
G04 APERTURE END LIST*
D10*
%TO.P,J2,1,Pin_1*%
%TO.N,/9V+*%
X162465000Y-138803000D03*
D11*
X165044000Y-139319000D03*
%TO.P,J2,2,Pin_2*%
%TO.N,/9V-*%
X125670000Y-63755000D03*
D10*
X123097000Y-63240000D03*
%TD*%
D12*
%TO.P,L1,1,1*%
%TO.N,Net-(L1-Pad1)*%
X156339000Y-116728000D03*
%TO.P,L1,2,2*%
%TO.N,Net-(Q1-Pad2)*%
X156341000Y-121772000D03*
%TD*%
D13*
%TO.P,SW2,1,A*%
%TO.N,/Off.GND*%
X139395000Y-135468000D03*
%TO.P,SW2,2,B*%
%TO.N,/GND*%
X137412000Y-135470000D03*
%TO.P,SW2,3,C*%
%TO.N,/9V-*%
X135389000Y-135469100D03*
%TO.P,SW2,4,A*%
%TO.N,unconnected-(SW2-Pad4)*%
X139397000Y-137889000D03*
%TO.P,SW2,5,B*%
%TO.N,Net-(SW2-Pad5)*%
X137411000Y-137889000D03*
%TO.P,SW2,6,C*%
%TO.N,Net-(SW2-Pad6)*%
X135389000Y-137889000D03*
D14*
%TO.P,SW2,7,Case_GND*%
%TO.N,/GND*%
X141976000Y-133921000D03*
X141977100Y-139473000D03*
%TO.P,SW2,8,Case_GND*%
X132768000Y-139440000D03*
X132768000Y-133879000D03*
%TD*%
D12*
%TO.P,F2,1*%
%TO.N,/GND*%
X157295000Y-131299000D03*
%TO.P,F2,2*%
%TO.N,Net-(SW2-Pad6)*%
X133094000Y-131183000D03*
%TD*%
%TO.P,C2,1*%
%TO.N,Net-(L1-Pad1)*%
X166340000Y-114564000D03*
%TO.P,C2,2*%
%TO.N,/GND*%
X166300300Y-119602400D03*
%TD*%
D15*
%TO.P,CN1,1,Pin_1*%
%TO.N,/VCC*%
X176950000Y-121545000D03*
%TO.P,CN1,2,Pin_2*%
%TO.N,/CN1.P2*%
X176953000Y-118997000D03*
%TO.P,CN1,3,Pin_3*%
%TO.N,/CN1.P3*%
X176947000Y-116460000D03*
%TO.P,CN1,4,Pin_4*%
%TO.N,/GND*%
X176949000Y-113921000D03*
%TO.P,CN1,5,Pin_5*%
%TO.N,/P51*%
X176944000Y-111342000D03*
%TO.P,CN1,6,Pin_6*%
%TO.N,/GND*%
X176946000Y-108795000D03*
%TD*%
D12*
%TO.P,Q1,1,B*%
%TO.N,Net-(R2-Pad2)*%
X147562000Y-128995000D03*
%TO.P,Q1,2,C*%
%TO.N,Net-(Q1-Pad2)*%
X145105000Y-128999000D03*
%TO.P,Q1,3,E*%
%TO.N,/GND*%
X142606000Y-129001000D03*
%TD*%
%TO.P,C3,1*%
%TO.N,/VCC*%
X149478000Y-115776000D03*
%TO.P,C3,2*%
%TO.N,/GND*%
X149641000Y-120770000D03*
%TD*%
%TO.P,SW1,1,1*%
%TO.N,/Button*%
X173175000Y-140083000D03*
%TO.P,SW1,2,2*%
X173177000Y-131552000D03*
%TO.P,SW1,3,K*%
%TO.N,/GND*%
X168688000Y-140043000D03*
%TO.P,SW1,4,A*%
%TO.N,unconnected-(SW1-Pad4)*%
X168613000Y-131513000D03*
%TD*%
%TO.P,L2,1,1*%
%TO.N,Net-(L1-Pad1)*%
X172058000Y-109511000D03*
%TO.P,L2,2,2*%
%TO.N,/VCC*%
X172103000Y-113558000D03*
%TD*%
D16*
%TO.P,LED1,1,K*%
%TO.N,Net-(LED1-Pad1)*%
X124038300Y-85023300D03*
%TO.P,LED1,2,A*%
%TO.N,Net-(L1-Pad1)*%
X124074000Y-90026000D03*
%TD*%
D12*
%TO.P,C1,1*%
%TO.N,/GND*%
X151856000Y-133578000D03*
%TO.P,C1,2*%
X151897700Y-138611300D03*
%TD*%
D17*
%TO.P,CN2,1,Pin_1*%
%TO.N,Net-(L1-Pad1)*%
X182178000Y-85060500D03*
%TO.P,CN2,2,Pin_2*%
X180195000Y-86052700D03*
%TO.P,CN2,3,Pin_3*%
%TO.N,/IC5.O1*%
X182177000Y-87044000D03*
%TO.P,CN2,4,Pin_4*%
%TO.N,/IC5.O2*%
X180196000Y-88038000D03*
%TO.P,CN2,5,Pin_5*%
%TO.N,/IC5.O3*%
X182183000Y-89067000D03*
%TO.P,CN2,6,Pin_6*%
%TO.N,/IC5.O4*%
X180196000Y-90104000D03*
%TO.P,CN2,7,Pin_7*%
%TO.N,/IC5.O5*%
X182179000Y-91094000D03*
%TO.P,CN2,8,Pin_8*%
%TO.N,/IC5.O6*%
X180198000Y-92084000D03*
%TO.P,CN2,9,Pin_9*%
%TO.N,/IC5.O7*%
X182179000Y-93077000D03*
%TO.P,CN2,10,Pin_10*%
%TO.N,/IC5.O8*%
X180193000Y-94071000D03*
%TO.P,CN2,11,Pin_11*%
%TO.N,/IC6.O1*%
X182180000Y-95103000D03*
%TO.P,CN2,12,Pin_12*%
%TO.N,/IC6.O2*%
X180195000Y-96054000D03*
%TO.P,CN2,13,Pin_13*%
%TO.N,/IC6.O3*%
X182178000Y-97088000D03*
%TO.P,CN2,14,Pin_14*%
%TO.N,/IC6.O4*%
X180191000Y-98079000D03*
%TO.P,CN2,15,Pin_15*%
%TO.N,/IC6.O5*%
X182178000Y-99109000D03*
%TO.P,CN2,16,Pin_16*%
%TO.N,/IC6.O6*%
X180195000Y-100106000D03*
%TO.P,CN2,17,Pin_17*%
%TO.N,/IC6.O7*%
X182176000Y-101096000D03*
%TO.P,CN2,18,Pin_18*%
%TO.N,/IC6.O8*%
X180197000Y-102129000D03*
%TD*%
D13*
%TO.P,CN3,1,Pin_1*%
%TO.N,unconnected-(CN3-Pad1)*%
X125709000Y-110864000D03*
%TO.P,CN3,2,Pin_2*%
%TO.N,/Link.P2*%
X123688000Y-110860000D03*
%TO.P,CN3,3,Pin_3*%
%TO.N,/Link.P3*%
X125708000Y-112887000D03*
%TO.P,CN3,4,Pin_4*%
%TO.N,unconnected-(CN3-Pad4)*%
X123680000Y-112887000D03*
%TO.P,CN3,5,Pin_5*%
%TO.N,/Link.P5*%
X125706000Y-114869000D03*
%TO.P,CN3,6,Pin_6*%
%TO.N,/GND*%
X123685000Y-114874000D03*
D18*
%TO.P,CN3,7,GND*%
X123922000Y-108030000D03*
%TO.P,CN3,8,GND*%
X123922000Y-117696000D03*
%TD*%
D19*
%TO.N,Net-(Q3-Pad1)*%
X131496800Y-100331400D03*
X138560100Y-108493600D03*
%TO.N,/GND*%
X172091200Y-118025900D03*
X162034200Y-120196100D03*
%TO.N,/VCC*%
X147675300Y-113560400D03*
%TO.N,/P53*%
X149481500Y-96729600D03*
X137005600Y-94114800D03*
%TO.N,Net-(Q11-Pad2)*%
X141370000Y-114856100D03*
X136958100Y-89085400D03*
X161550600Y-128241700D03*
%TO.N,/D6*%
X161907600Y-89067400D03*
X152055900Y-73027200D03*
%TO.N,/D7*%
X150095500Y-69744500D03*
X165720200Y-104375600D03*
%TO.N,/Button*%
X165023400Y-122016400D03*
%TO.N,/WE*%
X160253600Y-82754400D03*
X141360500Y-68961000D03*
%TO.N,/A8*%
X143654000Y-88425100D03*
X142750700Y-68750900D03*
%TO.N,/A9*%
X144832100Y-90400100D03*
X143750900Y-69068700D03*
%TO.N,/A10*%
X144330200Y-91323700D03*
X140899800Y-71066500D03*
%TO.N,/A11*%
X148058600Y-86582800D03*
X144814900Y-69166100D03*
%TO.N,/P45*%
X123278000Y-119979600D03*
X148506100Y-94145900D03*
%TO.N,/P46*%
X144838500Y-95564000D03*
X130009700Y-95866200D03*
%TO.N,/P47*%
X129000200Y-94779600D03*
X142894500Y-95437000D03*
%TO.N,/P51*%
X148723400Y-99275400D03*
%TO.N,/P52*%
X144828000Y-100833600D03*
X154125200Y-114284200D03*
%TO.N,/OE*%
X150231100Y-86957400D03*
X146468800Y-68836600D03*
%TO.N,/P60*%
X127040200Y-103197800D03*
X139805700Y-108560400D03*
%TO.N,/P61*%
X130037300Y-132202700D03*
X144645400Y-122430900D03*
%TO.N,/D0*%
X156136900Y-88338500D03*
X151076300Y-80387200D03*
%TO.N,/D1*%
X156901200Y-88988700D03*
X152636000Y-81083300D03*
%TO.N,/D2*%
X158076500Y-88962700D03*
X153894100Y-82372400D03*
%TO.N,/D3*%
X154392800Y-76299600D03*
X158825700Y-88270700D03*
%TO.N,/D4*%
X159553700Y-88995400D03*
X153904000Y-75299500D03*
%TO.N,/D5*%
X160697300Y-87854400D03*
X152892300Y-73969500D03*
%TO.N,/Off.GND*%
X134802800Y-100600200D03*
X167435700Y-84722200D03*
%TO.N,/CN1.P3*%
X138403000Y-107413300D03*
%TD*%
D20*
%TO.N,Net-(Q3-Pad1)*%
X131496800Y-100331400D02*
X131496800Y-101590800D01*
X131496800Y-101590800D02*
X138399600Y-108493600D01*
X138399600Y-108493600D02*
X138560100Y-108493600D01*
D21*
%TO.N,/GND*%
X155016000Y-133578000D02*
X157295000Y-131299000D01*
X151856000Y-133578000D02*
X151897700Y-133578000D01*
X151897700Y-133578000D02*
X155016000Y-133578000D01*
X157295000Y-131299000D02*
X160456700Y-131299000D01*
X123685000Y-114874000D02*
X123685000Y-117284000D01*
X142606000Y-129001000D02*
X149641000Y-121966000D01*
X165706600Y-120196100D02*
X162034200Y-120196100D01*
X178531600Y-112338400D02*
X178531600Y-110380600D01*
X166300300Y-119602400D02*
X165706600Y-120196100D01*
X141976000Y-139471900D02*
X141977100Y-139473000D01*
X141976000Y-133921000D02*
X141976000Y-139471900D01*
X172091200Y-118025900D02*
X172844100Y-118025900D01*
X132768000Y-133879000D02*
X135821000Y-133879000D01*
X160456700Y-131299000D02*
X168688000Y-139530300D01*
X151897700Y-133578000D02*
X151897700Y-138611300D01*
X123685000Y-117284000D02*
X123922000Y-117521000D01*
X149641000Y-121966000D02*
X149641000Y-120770000D01*
X168688000Y-139530300D02*
X168688000Y-140043000D01*
X135821000Y-133879000D02*
X137412000Y-135470000D01*
X172844100Y-118025900D02*
X176949000Y-113921000D01*
X170514700Y-119602400D02*
X166300300Y-119602400D01*
X138961000Y-133921000D02*
X137412000Y-135470000D01*
X172091200Y-118025900D02*
X170514700Y-119602400D01*
X178531600Y-110380600D02*
X176946000Y-108795000D01*
X176949000Y-113921000D02*
X178531600Y-112338400D01*
X141976000Y-133921000D02*
X138961000Y-133921000D01*
%TO.N,/VCC*%
X147675300Y-113973300D02*
X147675300Y-113560400D01*
X149478000Y-115776000D02*
X147675300Y-113973300D01*
D20*
%TO.N,/P53*%
X137602600Y-94711800D02*
X147463700Y-94711800D01*
X147463700Y-94711800D02*
X149481500Y-96729600D01*
X137005600Y-94114800D02*
X137602600Y-94711800D01*
%TO.N,Net-(Q11-Pad2)*%
X161550600Y-125002600D02*
X161550600Y-128241700D01*
X144011400Y-117497500D02*
X154045500Y-117497500D01*
X136490200Y-114856100D02*
X141370000Y-114856100D01*
X136958100Y-89085400D02*
X136558400Y-88685700D01*
X122728300Y-89489600D02*
X122728300Y-101094200D01*
X122728300Y-101094200D02*
X136490200Y-114856100D01*
X136558400Y-88685700D02*
X123532200Y-88685700D01*
X141370000Y-114856100D02*
X144011400Y-117497500D01*
X154045500Y-117497500D02*
X161550600Y-125002600D01*
X123532200Y-88685700D02*
X122728300Y-89489600D01*
%TO.N,/D6*%
X161907600Y-89067400D02*
X161907600Y-85633500D01*
X159477300Y-78926400D02*
X153578100Y-73027200D01*
X161907600Y-85633500D02*
X159477300Y-83203200D01*
X159477300Y-83203200D02*
X159477300Y-78926400D01*
X153578100Y-73027200D02*
X152055900Y-73027200D01*
%TO.N,/D7*%
X153558300Y-69744500D02*
X150095500Y-69744500D01*
X168198600Y-101897200D02*
X168198600Y-84384800D01*
X168198600Y-84384800D02*
X153558300Y-69744500D01*
X165720200Y-104375600D02*
X168198600Y-101897200D01*
%TO.N,/Button*%
X173175000Y-140083000D02*
X173177000Y-140081000D01*
X165023400Y-123398400D02*
X173177000Y-131552000D01*
X165023400Y-122016400D02*
X165023400Y-123398400D01*
X173177000Y-140081000D02*
X173177000Y-131552000D01*
%TO.N,/WE*%
X160253600Y-79055000D02*
X153391100Y-72192500D01*
X150891600Y-72192500D02*
X146724800Y-68025700D01*
X142295800Y-68025700D02*
X141360500Y-68961000D01*
X160253600Y-82754400D02*
X160253600Y-79055000D01*
X153391100Y-72192500D02*
X150891600Y-72192500D01*
X146724800Y-68025700D02*
X142295800Y-68025700D01*
%TO.N,/A8*%
X143654000Y-88425100D02*
X142750700Y-87521800D01*
X142750700Y-87521800D02*
X142750700Y-68750900D01*
%TO.N,/A9*%
X144832100Y-90400100D02*
X144832100Y-88111900D01*
X143750900Y-87030700D02*
X143750900Y-69068700D01*
X144832100Y-88111900D02*
X143750900Y-87030700D01*
%TO.N,/A10*%
X144330200Y-91323700D02*
X140899800Y-87893300D01*
X140899800Y-87893300D02*
X140899800Y-71066500D01*
%TO.N,/A11*%
X144814900Y-83339100D02*
X148058600Y-86582800D01*
X144814900Y-69166100D02*
X144814900Y-83339100D01*
%TO.N,/P45*%
X121596800Y-119102200D02*
X121596800Y-89966500D01*
X122474200Y-119979600D02*
X121596800Y-119102200D01*
X123377400Y-88185900D02*
X139834200Y-88185900D01*
X139834200Y-88185900D02*
X145794200Y-94145900D01*
X121596800Y-89966500D02*
X123377400Y-88185900D01*
X123278000Y-119979600D02*
X122474200Y-119979600D01*
X145794200Y-94145900D02*
X148506100Y-94145900D01*
%TO.N,/P46*%
X130305600Y-96162100D02*
X130009700Y-95866200D01*
X144838500Y-95564000D02*
X144240400Y-96162100D01*
X144240400Y-96162100D02*
X130305600Y-96162100D01*
%TO.N,/P47*%
X137210700Y-95437000D02*
X136553300Y-94779600D01*
X142894500Y-95437000D02*
X137210700Y-95437000D01*
X136553300Y-94779600D02*
X129000200Y-94779600D01*
%TO.N,/P51*%
X157583800Y-108135800D02*
X148723400Y-99275400D01*
X176944000Y-111342000D02*
X173737800Y-108135800D01*
X173737800Y-108135800D02*
X157583800Y-108135800D01*
%TO.N,/P52*%
X144828000Y-100833600D02*
X154125200Y-110130800D01*
X154125200Y-110130800D02*
X154125200Y-114284200D01*
%TO.N,/OE*%
X146468800Y-83195100D02*
X150231100Y-86957400D01*
X146468800Y-68836600D02*
X146468800Y-83195100D01*
%TO.N,/P60*%
X139113700Y-109252400D02*
X139805700Y-108560400D01*
X127040200Y-103197800D02*
X133094800Y-109252400D01*
X133094800Y-109252400D02*
X139113700Y-109252400D01*
%TO.N,/P61*%
X144645400Y-122430900D02*
X139809100Y-122430900D01*
X139809100Y-122430900D02*
X130037300Y-132202700D01*
%TO.N,/D0*%
X151076300Y-83277900D02*
X156136900Y-88338500D01*
X151076300Y-80387200D02*
X151076300Y-83277900D01*
%TO.N,/D1*%
X156901200Y-87937800D02*
X156901200Y-88988700D01*
X152636000Y-83672600D02*
X156901200Y-87937800D01*
X152636000Y-81083300D02*
X152636000Y-83672600D01*
%TO.N,/D2*%
X153894100Y-82372400D02*
X153894100Y-83975900D01*
X158076500Y-88158300D02*
X158076500Y-88962700D01*
X153894100Y-83975900D02*
X158076500Y-88158300D01*
%TO.N,/D3*%
X154686300Y-84131300D02*
X154686300Y-76593100D01*
X158825700Y-88270700D02*
X154686300Y-84131300D01*
X154686300Y-76593100D02*
X154392800Y-76299600D01*
%TO.N,/D4*%
X154451500Y-75299500D02*
X155586600Y-76434600D01*
X159553700Y-87080300D02*
X159553700Y-88995400D01*
X153904000Y-75299500D02*
X154451500Y-75299500D01*
X155586600Y-76434600D02*
X155586600Y-83113200D01*
X155586600Y-83113200D02*
X159553700Y-87080300D01*
%TO.N,/D5*%
X153829500Y-73969500D02*
X156165400Y-76305400D01*
X152892300Y-73969500D02*
X153829500Y-73969500D01*
X160697300Y-87433400D02*
X160697300Y-87854400D01*
X156165400Y-76305400D02*
X156165400Y-82901500D01*
X156165400Y-82901500D02*
X160697300Y-87433400D01*
D21*
%TO.N,/Off.GND*%
X134802800Y-100600200D02*
X137021400Y-98381600D01*
X167435700Y-84776900D02*
X167435700Y-84722200D01*
X153831000Y-98381600D02*
X167435700Y-84776900D01*
X137021400Y-98381600D02*
X153831000Y-98381600D01*
%TO.N,/9V-*%
X123097000Y-63240000D02*
X125155000Y-63240000D01*
X125155000Y-63240000D02*
X125670000Y-63755000D01*
D20*
%TO.N,Net-(L1-Pad1)*%
X156339000Y-116728000D02*
X155536100Y-116728000D01*
X171393000Y-109511000D02*
X166340000Y-114564000D01*
X166340000Y-114564000D02*
X164176000Y-116728000D01*
X124074000Y-90992200D02*
X124074000Y-90026000D01*
X181185800Y-86052700D02*
X182178000Y-85060500D01*
X164176000Y-116728000D02*
X156339000Y-116728000D01*
X140597800Y-101789700D02*
X134871500Y-101789700D01*
X180195000Y-86052700D02*
X181185800Y-86052700D01*
X172058000Y-109511000D02*
X171393000Y-109511000D01*
X134871500Y-101789700D02*
X124074000Y-90992200D01*
X155536100Y-116728000D02*
X140597800Y-101789700D01*
%TO.N,Net-(Q1-Pad2)*%
X145105000Y-128999000D02*
X152332000Y-121772000D01*
X152332000Y-121772000D02*
X156341000Y-121772000D01*
%TO.N,/CN1.P3*%
X158622900Y-120994800D02*
X145041400Y-107413300D01*
X145041400Y-107413300D02*
X138403000Y-107413300D01*
X176947000Y-116460000D02*
X172412200Y-120994800D01*
X172412200Y-120994800D02*
X158622900Y-120994800D01*
D21*
%TO.N,/9V+*%
X165044000Y-139319000D02*
X162981000Y-139319000D01*
X162981000Y-139319000D02*
X162465000Y-138803000D01*
%TD*%
M02*
