%TF.GenerationSoftware,KiCad,Pcbnew,(6.0.2)*%
%TF.CreationDate,2022-09-23T13:38:23-05:00*%
%TF.ProjectId,IF-GBP-02,49462d47-4250-42d3-9032-2e6b69636164,rev?*%
%TF.SameCoordinates,Original*%
%TF.FileFunction,Paste,Top*%
%TF.FilePolarity,Positive*%
%FSLAX46Y46*%
G04 Gerber Fmt 4.6, Leading zero omitted, Abs format (unit mm)*
G04 Created by KiCad (PCBNEW (6.0.2)) date 2022-09-23 13:38:23*
%MOMM*%
%LPD*%
G01*
G04 APERTURE LIST*
G04 Aperture macros list*
%AMRoundRect*
0 Rectangle with rounded corners*
0 $1 Rounding radius*
0 $2 $3 $4 $5 $6 $7 $8 $9 X,Y pos of 4 corners*
0 Add a 4 corners polygon primitive as box body*
4,1,4,$2,$3,$4,$5,$6,$7,$8,$9,$2,$3,0*
0 Add four circle primitives for the rounded corners*
1,1,$1+$1,$2,$3*
1,1,$1+$1,$4,$5*
1,1,$1+$1,$6,$7*
1,1,$1+$1,$8,$9*
0 Add four rect primitives between the rounded corners*
20,1,$1+$1,$2,$3,$4,$5,0*
20,1,$1+$1,$4,$5,$6,$7,0*
20,1,$1+$1,$6,$7,$8,$9,0*
20,1,$1+$1,$8,$9,$2,$3,0*%
G04 Aperture macros list end*
%ADD10R,1.000000X1.500000*%
%ADD11RoundRect,0.625000X0.625000X0.765000X-0.625000X0.765000X-0.625000X-0.765000X0.625000X-0.765000X0*%
%ADD12R,1.000000X2.500000*%
%ADD13R,0.800000X0.400000*%
%ADD14R,1.230000X1.000000*%
%ADD15R,1.250000X4.200000*%
%ADD16R,1.000000X1.230000*%
%ADD17R,2.000000X0.400000*%
%ADD18R,1.500000X1.000000*%
%ADD19R,2.500000X1.000000*%
%ADD20RoundRect,0.625000X-0.765000X0.625000X-0.765000X-0.625000X0.765000X-0.625000X0.765000X0.625000X0*%
%ADD21R,0.870000X1.900000*%
%ADD22R,2.450000X0.750000*%
%ADD23R,0.750000X2.450000*%
%ADD24R,1.750000X2.250000*%
%ADD25R,1.500000X2.250000*%
%ADD26RoundRect,0.625000X-0.625000X-0.765000X0.625000X-0.765000X0.625000X0.765000X-0.625000X0.765000X0*%
%ADD27R,0.850000X1.000000*%
%ADD28R,0.650000X1.000000*%
%ADD29R,0.750000X0.750000*%
G04 APERTURE END LIST*
D10*
%TO.C,Q6*%
X169291000Y-124154000D03*
D11*
X167821000Y-127064000D03*
D12*
X167818000Y-124648000D03*
D10*
X166303000Y-124159000D03*
%TD*%
D13*
%TO.C,NR3*%
X136107000Y-70774000D03*
X136105000Y-69940000D03*
X136109000Y-69106000D03*
X136107000Y-68353000D03*
X134319000Y-68350000D03*
X134320000Y-69107000D03*
X134319000Y-69939000D03*
X134319000Y-70772000D03*
%TD*%
D14*
%TO.C,R8*%
X139108000Y-113753000D03*
X141370000Y-113753000D03*
%TD*%
D15*
%TO.C,X1*%
X157885000Y-78082000D03*
X160426000Y-78071000D03*
X162928000Y-78080000D03*
%TD*%
D14*
%TO.C,R14*%
X135335000Y-96963000D03*
X137597000Y-96963000D03*
%TD*%
%TO.C,C16*%
X165512000Y-75021000D03*
X167774000Y-75021000D03*
%TD*%
D16*
%TO.C,R17*%
X139946000Y-91483000D03*
X139946000Y-93745000D03*
%TD*%
D13*
%TO.C,NR1*%
X136066000Y-78198000D03*
X136064000Y-77364000D03*
X136068000Y-76530000D03*
X136066000Y-75777000D03*
X134278000Y-75774000D03*
X134279000Y-76531000D03*
X134278000Y-77363000D03*
X134278000Y-78196000D03*
%TD*%
D14*
%TO.C,R24*%
X175497000Y-133601000D03*
X177759000Y-133601000D03*
%TD*%
D16*
%TO.C,C5*%
X153300000Y-119382000D03*
X153300000Y-117120000D03*
%TD*%
D14*
%TO.C,R10*%
X160944000Y-121260000D03*
X163206000Y-121260000D03*
%TD*%
D17*
%TO.C,IC5*%
X168881000Y-91296000D03*
X168881000Y-91973000D03*
X168881000Y-92647000D03*
X168880000Y-93283000D03*
X168880000Y-93914000D03*
X168887000Y-94550000D03*
X168883000Y-95223000D03*
X168880000Y-95863000D03*
X168882000Y-96496000D03*
X175035000Y-96495000D03*
X175035000Y-95858000D03*
X175035000Y-95225000D03*
X175037000Y-94550000D03*
X175036000Y-93918000D03*
X175035000Y-93280000D03*
X175035000Y-92645000D03*
X175033000Y-91973000D03*
X175035000Y-91295000D03*
%TD*%
D16*
%TO.C,R13*%
X125352000Y-102090000D03*
X125352000Y-104352000D03*
%TD*%
%TO.C,R9*%
X157901000Y-127313000D03*
X157901000Y-125051000D03*
%TD*%
%TO.C,C19*%
X181232000Y-108859000D03*
X181232000Y-111121000D03*
%TD*%
D14*
%TO.C,R3*%
X139008000Y-119514000D03*
X141270000Y-119514000D03*
%TD*%
D16*
%TO.C,R6*%
X123278000Y-121197000D03*
X123278000Y-123459000D03*
%TD*%
D14*
%TO.C,D3*%
X165554000Y-81529500D03*
X167776000Y-81530500D03*
%TD*%
%TO.C,R5*%
X143383000Y-119430000D03*
X145645000Y-119430000D03*
%TD*%
D18*
%TO.C,IC1*%
X160183000Y-125180000D03*
D19*
X160677000Y-126653000D03*
D20*
X163093000Y-126650000D03*
D18*
X160188000Y-128168000D03*
%TD*%
D14*
%TO.C,C14*%
X169838000Y-119311000D03*
X172100000Y-119311000D03*
%TD*%
%TO.C,R32*%
X135788000Y-106298000D03*
X138050000Y-106298000D03*
%TD*%
%TO.C,Q3*%
X138968000Y-115583000D03*
X138968000Y-117567000D03*
X141271000Y-116574000D03*
%TD*%
%TO.C,C17*%
X152933000Y-110939000D03*
X155195000Y-110939000D03*
%TD*%
%TO.C,R30*%
X139859000Y-103443000D03*
X142121000Y-103443000D03*
%TD*%
%TO.C,R34*%
X163549000Y-134063000D03*
X165811000Y-134063000D03*
%TD*%
D16*
%TO.C,R26*%
X129079000Y-131100000D03*
X129079000Y-133362000D03*
%TD*%
D21*
%TO.C,IC3*%
X138625000Y-78745000D03*
X139933000Y-78745000D03*
X141206000Y-78745000D03*
X142475000Y-78743000D03*
X143744000Y-78745000D03*
X145015000Y-78745000D03*
X146286000Y-78745000D03*
X147595000Y-78745000D03*
X148823000Y-78744000D03*
X150096000Y-78747000D03*
X151367000Y-78742000D03*
X152636000Y-78744000D03*
X153908000Y-78745000D03*
X155175000Y-78743000D03*
X155177000Y-67157000D03*
X153904000Y-67154000D03*
X152634000Y-67156000D03*
X151366000Y-67155000D03*
X150095000Y-67152000D03*
X148825000Y-67156000D03*
X147596000Y-67155000D03*
X146285000Y-67151000D03*
X145016000Y-67155000D03*
X143745000Y-67156000D03*
X142475000Y-67157000D03*
X141206000Y-67156000D03*
X139936000Y-67151000D03*
X138626000Y-67155000D03*
%TD*%
D14*
%TO.C,C12*%
X139854000Y-101447000D03*
X142116000Y-101447000D03*
%TD*%
D16*
%TO.C,R7*%
X136896000Y-119340000D03*
X136896000Y-117078000D03*
%TD*%
D14*
%TO.C,Q4*%
X130288000Y-82887000D03*
X130288000Y-84871000D03*
X132591000Y-83878000D03*
%TD*%
%TO.C,R36*%
X155249000Y-138195000D03*
X157511000Y-138195000D03*
%TD*%
D16*
%TO.C,Q9*%
X175984000Y-139555000D03*
X177968000Y-139555000D03*
X176975000Y-137252000D03*
%TD*%
%TO.C,Q14*%
X136869000Y-92625500D03*
X134885000Y-92625500D03*
X135878000Y-94928500D03*
%TD*%
%TO.C,C4*%
X153908000Y-127313000D03*
X153908000Y-125051000D03*
%TD*%
%TO.C,Q8*%
X163690000Y-132082000D03*
X165674000Y-132082000D03*
X164681000Y-129779000D03*
%TD*%
D22*
%TO.C,IC2*%
X163803000Y-105644000D03*
X163807000Y-104652000D03*
X163806000Y-103654000D03*
X163806000Y-102665000D03*
X163805000Y-101639000D03*
X163805000Y-100601000D03*
X163801000Y-99607000D03*
X163807000Y-98617000D03*
X163803000Y-97625000D03*
X163802000Y-96596000D03*
X163805000Y-95561000D03*
X163805000Y-94565000D03*
X163808000Y-93579000D03*
X163808000Y-92587000D03*
X163806000Y-91595000D03*
X163809000Y-90603000D03*
X163810000Y-89571000D03*
X163810000Y-88575000D03*
X163807000Y-87579000D03*
D23*
X161265000Y-85127000D03*
X160234000Y-85124000D03*
X159242000Y-85129000D03*
X158250000Y-85129000D03*
X157258000Y-85128000D03*
X156266000Y-85124000D03*
X155271000Y-85128000D03*
X154282000Y-85125000D03*
X153247000Y-85120000D03*
X152255000Y-85124000D03*
X151227000Y-85125000D03*
X150235000Y-85129000D03*
X149204000Y-85130000D03*
D22*
X146670000Y-87585000D03*
X146663000Y-88578000D03*
X146663000Y-89568000D03*
X146668000Y-90602000D03*
X146668000Y-91595000D03*
X146665000Y-92587000D03*
X146669000Y-93579000D03*
X146670000Y-94568000D03*
X146670000Y-95564000D03*
X146668000Y-96595000D03*
X146665000Y-97623000D03*
X146669000Y-98615000D03*
X146672000Y-99611000D03*
X146674000Y-100599000D03*
X146671000Y-101638000D03*
X146672000Y-102663000D03*
X146673000Y-103653000D03*
X146673000Y-104645000D03*
X146672000Y-105643000D03*
D23*
X149163000Y-107985000D03*
X150194000Y-107985000D03*
X151185000Y-107984000D03*
X152216000Y-107981000D03*
X153212000Y-107984000D03*
X154241000Y-107984000D03*
X155235000Y-107984000D03*
X156224000Y-107988000D03*
X157221000Y-107983000D03*
X158213000Y-107983000D03*
X159205000Y-107983000D03*
X160193000Y-107980000D03*
X161229000Y-107983000D03*
%TD*%
D16*
%TO.C,R11*%
X129864000Y-126554000D03*
X129864000Y-128816000D03*
%TD*%
D14*
%TO.C,R21*%
X129243000Y-77917000D03*
X131505000Y-77917000D03*
%TD*%
%TO.C,R4*%
X143392000Y-121416000D03*
X145654000Y-121416000D03*
%TD*%
D16*
%TO.C,Q5*%
X134560000Y-84182500D03*
X136544000Y-84182500D03*
X135551000Y-81879500D03*
%TD*%
%TO.C,R12*%
X155904000Y-127313000D03*
X155904000Y-125051000D03*
%TD*%
D14*
%TO.C,R29*%
X139795000Y-99391000D03*
X142057000Y-99391000D03*
%TD*%
%TO.C,C18*%
X129233000Y-79942000D03*
X131495000Y-79942000D03*
%TD*%
D16*
%TO.C,C20*%
X125070000Y-131100000D03*
X125070000Y-133362000D03*
%TD*%
D14*
%TO.C,Q2*%
X143398000Y-115657000D03*
X143398000Y-117641000D03*
X145701000Y-116648000D03*
%TD*%
%TO.C,R1*%
X138964000Y-123397000D03*
X141226000Y-123397000D03*
%TD*%
%TO.C,R16*%
X134740000Y-86171000D03*
X137002000Y-86171000D03*
%TD*%
D24*
%TO.C,D1*%
X146182000Y-137769000D03*
X146186000Y-133355000D03*
%TD*%
D14*
%TO.C,R33*%
X155248000Y-136177000D03*
X157510000Y-136177000D03*
%TD*%
D17*
%TO.C,IC6*%
X168892500Y-98634500D03*
X168892500Y-99311500D03*
X168892500Y-99985500D03*
X168891500Y-100621500D03*
X168891500Y-101252500D03*
X168898500Y-101888500D03*
X168894500Y-102561500D03*
X168891500Y-103201500D03*
X168893500Y-103834500D03*
X175046500Y-103833500D03*
X175046500Y-103196500D03*
X175046500Y-102563500D03*
X175048500Y-101888500D03*
X175047500Y-101256500D03*
X175046500Y-100618500D03*
X175046500Y-99983500D03*
X175044500Y-99311500D03*
X175046500Y-98633500D03*
%TD*%
D14*
%TO.C,C6*%
X135348000Y-98955000D03*
X137610000Y-98955000D03*
%TD*%
D16*
%TO.C,R27*%
X127058000Y-131102000D03*
X127058000Y-133364000D03*
%TD*%
D13*
%TO.C,NR2*%
X136063000Y-74504000D03*
X136061000Y-73670000D03*
X136065000Y-72836000D03*
X136063000Y-72083000D03*
X134275000Y-72080000D03*
X134276000Y-72837000D03*
X134275000Y-73669000D03*
X134275000Y-74502000D03*
%TD*%
D16*
%TO.C,C15*%
X158137000Y-72219000D03*
X158137000Y-74481000D03*
%TD*%
%TO.C,R35*%
X161861000Y-133180000D03*
X161861000Y-130918000D03*
%TD*%
D25*
%TO.C,F1*%
X145468500Y-141341000D03*
X148059500Y-141341000D03*
%TD*%
D14*
%TO.C,R2*%
X138979000Y-121494000D03*
X141241000Y-121494000D03*
%TD*%
D10*
%TO.C,Q7*%
X171363000Y-128246000D03*
D26*
X172833000Y-125336000D03*
D12*
X172836000Y-127752000D03*
D10*
X174351000Y-128241000D03*
%TD*%
D16*
%TO.C,D5*%
X132858000Y-97236000D03*
X132857000Y-99458000D03*
%TD*%
%TO.C,Q10*%
X135985000Y-103405000D03*
X137969000Y-103405000D03*
X136976000Y-101102000D03*
%TD*%
D13*
%TO.C,NR4*%
X136063000Y-64862000D03*
X136061000Y-64028000D03*
X136065000Y-63194000D03*
X136063000Y-62441000D03*
X134275000Y-62438000D03*
X134276000Y-63195000D03*
X134275000Y-64027000D03*
X134275000Y-64860000D03*
%TD*%
D14*
%TO.C,R28*%
X139921000Y-107441000D03*
X142183000Y-107441000D03*
%TD*%
D16*
%TO.C,IC7*%
X128676500Y-75892500D03*
X130663500Y-75890500D03*
D27*
X128675500Y-73426500D03*
D28*
X129706500Y-73428500D03*
D27*
X130700500Y-73428500D03*
%TD*%
D16*
%TO.C,Q11*%
X134874000Y-90495500D03*
X136858000Y-90495500D03*
X135865000Y-88192500D03*
%TD*%
D14*
%TO.C,R22*%
X133282000Y-79944000D03*
X135544000Y-79944000D03*
%TD*%
D29*
%TO.C,TH1*%
X123443000Y-103002000D03*
X123441000Y-104510000D03*
%TD*%
D16*
%TO.C,R23*%
X128639000Y-90903000D03*
X128639000Y-88641000D03*
%TD*%
M02*
